<?xml version="1.0" standalone="no"?>
<!DOCTYPE svg PUBLIC "-//W3C//DTD SVG 1.1//EN" "http://www.w3.org/Graphics/SVG/1.1/DTD/svg11.dtd" >
<svg>
<metadata>
Created by FontForge 20110222 at Tue Sep 30 11:10:24 2014
 By Orthosie Webhosting
Copyright (c) 2009 by Fontsmith Ltd. All rights reserved.
</metadata>
<defs>
<font id="MovistarHeadlineRegular" horiz-adv-x="424" >
  <font-face 
    font-family="MovistarHeadlineRegular"
    font-weight="400"
    font-stretch="normal"
    units-per-em="1000"
    panose-1="2 0 5 3 4 0 0 2 0 4"
    ascent="750"
    descent="-250"
    x-height="490"
    cap-height="684"
    bbox="-30 -288 1255 1188"
    underline-thickness="50"
    underline-position="-50"
    unicode-range="U+0020-FB02"
  />
<missing-glyph horiz-adv-x="642" 
d="M86 0v660h470v-660h-470zM321 372l159 240h-320zM350 331l160 -241v480zM160 49h320l-159 239zM134 570v-480l159 241z" />
    <glyph glyph-name="fi" unicode="fi" horiz-adv-x="576" 
d="M500 441v-441h-81v428h-236v-428h-81v428h-85v48l85 15v66q0 87 41 128q42 42 124 42q41 0 87 -13v-56h-54q-71 0 -95 -20q-22 -19 -22 -86v-62h264q30 0 41.5 -11t11.5 -38zM458 604h-6q-49 0 -49 53v3q0 53 49 53h6q49 0 49 -53v-3q0 -53 -49 -53z" />
    <glyph glyph-name="fl" unicode="fl" horiz-adv-x="562" 
d="M486 674v-674h-81v658h-105q-71 0 -95 -20q-22 -19 -22 -86v-62h133v-62h-133v-428h-81v428h-85v48l85 15v63q0 87 41 128q47 45 164 45q82 0 144 -7q20 -2 27.5 -12.5t7.5 -33.5z" />
    <glyph glyph-name=".notdef" horiz-adv-x="642" 
d="M86 0v660h470v-660h-470zM321 372l159 240h-320zM350 331l160 -241v480zM160 49h320l-159 239zM134 570v-480l159 241z" />
    <glyph glyph-name=".null" horiz-adv-x="0" 
 />
    <glyph glyph-name="nonmarkingreturn" horiz-adv-x="333" 
 />
    <glyph glyph-name="space" unicode=" " horiz-adv-x="190" 
 />
    <glyph glyph-name="exclam" unicode="!" horiz-adv-x="275" 
d="M183 684l-15 -488q0 -10 -10 -10h-51l-14 498h90zM141 -14h-7q-50 0 -50 54v4q0 54 50 54h7q50 0 50 -54v-4q0 -54 -50 -54z" />
    <glyph glyph-name="quotedbl" unicode="&#x22;" horiz-adv-x="402" 
d="M128 460h-38l-9 198q-1 15 5.5 20.5t22.5 5.5h52l-14 -210q-1 -9 -4.5 -11.5t-14.5 -2.5zM289 460h-38l-9 198q-1 15 5.5 20.5t22.5 5.5h52l-14 -210q-1 -9 -4.5 -11.5t-14.5 -2.5z" />
    <glyph glyph-name="numbersign" unicode="#" horiz-adv-x="568" 
d="M290 0l36 220h-126l-36 -220h-66l36 220h-69v60h79l21 123h-100v60h109l37 221h66l-37 -221h125l38 221h66l-38 -221h73v-60h-82l-20 -123h102v-60h-112l-36 -220h-66zM230 403l-20 -123h126l21 123h-127z" />
    <glyph glyph-name="dollar" unicode="$" horiz-adv-x="568" 
d="M151 68q48 -10 115 -10q91 0 131 36q34 31 34 85q0 49 -24 74t-101 49l-52 16q-91 28 -133 68q-49 46 -49 124q0 83 53 133q49 46 137 55v115h65v-113q73 -3 138 -21q16 -4 16 -20v-119h-59q-4 8 -8.5 35t-4.5 44q-45 7 -103 7q-88 0 -124 -36q-27 -27 -27 -71
q0 -46 28 -74q31 -30 99 -50l55 -17q102 -33 140 -77q37 -43 37 -120q0 -86 -52 -136q-45 -45 -135 -56v-117h-65v113q-100 1 -167 20q-16 5 -16 21v122h59q13 -29 13 -80z" />
    <glyph glyph-name="percent" unicode="%" horiz-adv-x="941" 
d="M685 697l-353 -711h-76l353 711h76zM384 489q0 -92 -38.5 -150t-120.5 -58t-120.5 58t-38.5 150t38.5 150t120.5 58t120.5 -58t38.5 -150zM308 489q0 75 -19.5 109t-63.5 34t-63.5 -34t-19.5 -109t19.5 -109t63.5 -34t63.5 34t19.5 109zM875 194q0 -92 -38.5 -150
t-120.5 -58t-120.5 58t-38.5 150t38.5 150t120.5 58t120.5 -58t38.5 -150zM799 194q0 75 -19.5 109t-63.5 34t-63.5 -34t-19.5 -109t19.5 -109t63.5 -34t63.5 34t19.5 109z" />
    <glyph glyph-name="ampersand" unicode="&#x26;" horiz-adv-x="707" 
d="M256 -14q-97 0 -156.5 53t-59.5 140q0 119 147 207q-50 58 -67 92.5t-17 74.5q0 63 45.5 103.5t112.5 40.5q71 0 113.5 -39t42.5 -101q0 -51 -30.5 -89t-101.5 -86l177 -200q52 103 52 286q0 14 4.5 18t16.5 4h119v-62h-78q-3 -180 -70 -295l61 -69h88v-63q-40 -7 -79 -7
q-26 0 -40.5 7t-34.5 30l-38 42q-82 -87 -207 -87zM420 122l-198 224q-98 -71 -98 -161q0 -61 38 -96t106 -35q92 0 152 68zM348 555q0 33 -23 56.5t-63 23.5q-37 0 -61.5 -22t-24.5 -60q0 -30 15.5 -56.5t58.5 -74.5q53 40 75.5 69.5t22.5 63.5z" />
    <glyph glyph-name="quotesingle" unicode="'" horiz-adv-x="241" 
d="M128 460h-38l-9 198q-1 15 5.5 20.5t22.5 5.5h52l-14 -210q-1 -9 -4.5 -11.5t-14.5 -2.5z" />
    <glyph glyph-name="parenleft" unicode="(" horiz-adv-x="329" 
d="M74 258q0 309 204 484l41 -42q-151 -173 -151 -442t151 -442l-41 -42q-204 175 -204 484z" />
    <glyph glyph-name="parenright" unicode=")" horiz-adv-x="329" 
d="M255 258q0 -309 -204 -484l-41 42q151 173 151 442t-151 442l41 42q204 -175 204 -484z" />
    <glyph glyph-name="asterisk" unicode="*" horiz-adv-x="438" 
d="M302 314l-83 129l-83 -129l-56 44l99 117l-145 43l24 68l136 -63l-12 161h72l-10 -161l136 63l24 -68l-145 -43l99 -117z" />
    <glyph glyph-name="plus" unicode="+" horiz-adv-x="508" 
d="M286 485v-129h130v-65h-130v-130h-65v130h-129v65h129v129h65z" />
    <glyph glyph-name="comma" unicode="," horiz-adv-x="227" 
d="M123 -141h-20v125q-47 10 -47 57v3q0 54 51 54h1q30 0 43.5 -16t13.5 -53q0 -77 -21 -155q-4 -15 -21 -15z" />
    <glyph glyph-name="hyphen" unicode="-" horiz-adv-x="317" 
d="M251 226h-185v71h185v-71z" />
    <glyph glyph-name="period" unicode="." horiz-adv-x="227" 
d="M117 -14h-7q-50 0 -50 54v4q0 54 50 54h7q50 0 50 -54v-4q0 -54 -50 -54z" />
    <glyph glyph-name="slash" unicode="/" horiz-adv-x="457" 
d="M413 697l-293 -711h-76l293 711h76z" />
    <glyph glyph-name="zero" unicode="0" horiz-adv-x="566" 
d="M520 341q0 -175 -56.5 -265t-179.5 -90t-179.5 90t-56.5 265t56.5 265.5t179.5 90.5t179.5 -90.5t56.5 -265.5zM434 341q0 147 -33 214t-117 67t-117 -67t-33 -214t33 -213.5t117 -66.5t117 66.5t33 213.5z" />
    <glyph glyph-name="one" unicode="1" horiz-adv-x="379" 
d="M248 67h101v-67h-303v67h120v554h-118v60q92 9 141 9q34 0 46.5 -11.5t12.5 -42.5v-569z" />
    <glyph glyph-name="two" unicode="2" horiz-adv-x="488" 
d="M120 70h251q2 50 17 95h54v-151q0 -8 -6 -11t-22 -3h-381q-3 10 -3 25q0 41 42 92l153 184q66 79 91 127t25 96q0 47 -26 71q-31 28 -126 28h-133v59q85 15 161 15q114 0 166 -52q43 -43 43 -123q0 -62 -32 -117t-118 -155z" />
    <glyph glyph-name="three" unicode="3" horiz-adv-x="503" 
d="M96 536h-54v133q0 15 28 15h367q3 -8 3 -21q0 -27 -8 -46.5t-29 -46.5l-149 -186q94 -8 149.5 -55.5t55.5 -134.5q0 -95 -59 -151q-61 -57 -187 -57q-87 0 -153 12v62h106q132 0 172 36q36 32 36 96q0 56 -34 89q-41 40 -152 40h-33q-2 12 -2 18q0 29 31 68l167 209h-239
q0 -32 -16 -80z" />
    <glyph glyph-name="four" unicode="4" horiz-adv-x="546" 
d="M354 176h-309q-3 11 -3 25q0 20 15 65l138 402q4 10 8.5 13t15.5 3h60l-149 -442h224v183h81v-183h77v-66h-77v-176h-81v176z" />
    <glyph glyph-name="five" unicode="5" horiz-adv-x="506" 
d="M348 616h-200l-2 -213h60q139 0 197 -55q55 -52 55 -154q0 -90 -55 -145q-62 -63 -190 -63q-69 0 -151 13v61h126q112 0 152 39q33 32 33 98q0 69 -33 101q-38 37 -146 37h-101q-13 0 -17 3t-4 12l4 334h314q28 0 28 -15v-133h-54q-16 48 -16 80z" />
    <glyph glyph-name="six" unicode="6" horiz-adv-x="544" 
d="M143 406q88 30 164 30q190 0 190 -211q0 -109 -57.5 -174t-157.5 -65q-225 0 -225 323v27q0 200 78 288q65 73 196 73q61 0 111 -12v-62h-88q-112 0 -157 -48q-48 -51 -54 -169zM141 347v-51q0 -118 32 -179t113 -61q61 0 96 44.5t35 118.5q0 77 -32 112.5t-103 35.5
q-57 0 -141 -20z" />
    <glyph glyph-name="seven" unicode="7" horiz-adv-x="540" 
d="M418 616h-291q-2 -51 -17 -96h-54v150q0 8 6 11t22 3h414q4 -10 4 -25q0 -24 -15 -63l-211 -576q-5 -12 -10.5 -16t-19.5 -4h-69z" />
    <glyph glyph-name="eight" unicode="8" horiz-adv-x="541" 
d="M78 526q0 76 54 123.5t139 47.5q88 0 139 -45.5t51 -116.5q0 -99 -110 -174q69 -37 107.5 -78.5t38.5 -103.5q0 -87 -63 -140t-165 -53q-98 0 -161.5 51.5t-63.5 137.5q0 119 135 194q-101 66 -101 157zM126 178q0 -54 38.5 -87t108.5 -33q63 0 102.5 33t39.5 87
q0 16 -4.5 30t-16.5 27.5t-21 22.5t-30 21.5t-32 18.5t-37.5 20t-36.5 19q-111 -67 -111 -159zM384 533q0 45 -29 70t-82 25t-83.5 -25t-30.5 -73q0 -44 34.5 -75t101.5 -65q89 71 89 143z" />
    <glyph glyph-name="nine" unicode="9" horiz-adv-x="544" 
d="M401 277q-88 -30 -164 -30q-190 0 -190 211q0 109 57.5 174t157.5 65q225 0 225 -323v-27q0 -200 -78 -288q-65 -73 -196 -73q-61 0 -111 12v62h88q112 0 157 48q48 51 54 169zM403 336v51q0 118 -32 179t-113 61q-61 0 -96 -44.5t-35 -118.5q0 -77 32 -112.5t103 -35.5
q57 0 141 20z" />
    <glyph glyph-name="colon" unicode=":" horiz-adv-x="227" 
d="M117 -14h-7q-50 0 -50 54v4q0 54 50 54h7q50 0 50 -54v-4q0 -54 -50 -54zM117 296h-7q-50 0 -50 54v4q0 54 50 54h7q50 0 50 -54v-4q0 -54 -50 -54z" />
    <glyph glyph-name="semicolon" unicode=";" horiz-adv-x="227" 
d="M117 296h-7q-50 0 -50 54v4q0 54 50 54h7q50 0 50 -54v-4q0 -54 -50 -54zM126 -141h-20v125q-47 10 -47 57v3q0 54 51 54h1q30 0 43.5 -16t13.5 -53q0 -77 -21 -155q-4 -15 -21 -15z" />
    <glyph glyph-name="less" unicode="&#x3c;" horiz-adv-x="508" 
d="M92 291v65l324 165v-75l-249 -123l249 -122v-75z" />
    <glyph glyph-name="equal" unicode="=" horiz-adv-x="508" 
d="M416 381h-324v65h324v-65zM416 201h-324v65h324v-65z" />
    <glyph glyph-name="greater" unicode="&#x3e;" horiz-adv-x="508" 
d="M416 356v-65l-324 -165v75l249 122l-249 123v75z" />
    <glyph glyph-name="question" unicode="?" horiz-adv-x="414" 
d="M44 625v57q62 15 145 15q101 0 149 -46q45 -42 45 -112q0 -53 -20 -93.5t-74 -99.5q-51 -56 -66.5 -87t-17.5 -72h-57q-5 15 -5 33q0 34 13.5 62t49.5 75l10 13q47 61 64 94t17 69q0 45 -27 67q-30 25 -113 25h-113zM182 -14h-7q-50 0 -50 54v4q0 54 50 54h7q50 0 50 -54
v-4q0 -54 -50 -54z" />
    <glyph glyph-name="at" unicode="@" horiz-adv-x="778" 
d="M555 159q-60 0 -91 27q-55 -30 -110 -30q-60 0 -92.5 31.5t-32.5 83.5q0 49 29 78q37 36 129 36h70v3q0 46 -16 62q-18 18 -76 18h-97v46q51 14 107 14q82 0 115 -34q31 -33 31 -87v-191q15 -3 29 -3q54 0 78 36q27 42 27 114q0 51 -15 97.5t-45.5 86t-84.5 63t-124 23.5
q-132 0 -205.5 -77.5t-73.5 -217.5q0 -141 81 -214q84 -77 262 -77h156v-44q-91 -17 -178 -17q-196 0 -297 97q-94 91 -94 257q0 162 96 259.5t252 97.5q157 0 247.5 -91t90.5 -231q0 -112 -49 -169q-41 -47 -119 -47zM370 211q38 0 87 18v105h-71q-55 0 -75 -19
q-16 -16 -16 -43q0 -61 75 -61z" />
    <glyph glyph-name="A" unicode="A" horiz-adv-x="641" 
d="M491 66l-48 139h-263l-44 -139h55v-66h-191v66h57l203 618h75q13 0 18 -4t10 -17l218 -597h56v-66h-207v66h61zM305 594l-103 -320h217z" />
    <glyph glyph-name="B" unicode="B" horiz-adv-x="623" 
d="M62 0v66h69v552h-69v66h254q116 0 168 -49q45 -42 45 -121q0 -53 -25.5 -93t-73.5 -56q66 -12 104.5 -55t38.5 -111q0 -83 -41 -132q-57 -67 -205 -67h-265zM218 322v-256h93q95 0 134 31q40 32 40 100q0 61 -36 93q-37 32 -135 32h-96zM218 618v-229h99q69 0 98 32
q28 30 28 87q0 54 -27 81q-29 29 -111 29h-87z" />
    <glyph glyph-name="C" unicode="C" horiz-adv-x="579" 
d="M461 525q-4 9 -9.5 42t-5.5 50q-47 5 -75 5q-115 0 -170.5 -67t-55.5 -213q0 -155 62 -221q57 -61 208 -61h106v-61q-73 -13 -138 -13q-169 0 -243 83q-84 93 -84 272q0 174 83 265t228 91q79 0 142 -18q16 -4 16 -21v-133h-64z" />
    <glyph glyph-name="D" unicode="D" horiz-adv-x="684" 
d="M315 0h-253v66h69v552h-69v66h234q179 0 254 -78q78 -81 78 -260q0 -189 -78 -271q-72 -75 -235 -75zM218 616v-548h98q117 0 168 55q56 61 56 223q0 154 -61 215q-55 55 -182 55h-79z" />
    <glyph glyph-name="E" unicode="E" horiz-adv-x="603" 
d="M528 0h-466v66h69v552h-69v66h461q14 0 18.5 -3t4.5 -10v-147h-59q-16 43 -16 94h-253v-234h192q10 0 13 -1.5t3 -7.5v-62h-208v-247h258q0 52 16 95h59v-148q0 -7 -4.5 -10t-18.5 -3z" />
    <glyph glyph-name="F" unicode="F" horiz-adv-x="562" 
d="M470 618h-252v-234h194q10 0 13 -1.5t3 -7.5v-62h-210v-247h81v-66h-237v66h69v552h-69v66h460q14 0 18.5 -3t4.5 -10v-147h-59q-16 43 -16 94z" />
    <glyph glyph-name="G" unicode="G" horiz-adv-x="656" 
d="M555 527h-64q-10 18 -15 92q-40 5 -97 5q-118 0 -172 -60q-63 -71 -63 -223q0 -143 47 -212t148 -69q76 0 148 25v181h-106v66h191v-332h-61q-10 12 -15 31q-78 -45 -173 -45q-134 0 -200.5 92t-66.5 262q0 183 90 276q80 81 226 81q89 0 167 -18q16 -4 16 -22v-130z" />
    <glyph glyph-name="H" unicode="H" horiz-adv-x="738" 
d="M520 618h-69v66h225v-66h-69v-552h69v-66h-225v66h69v247h-302v-247h69v-66h-225v66h69v552h-69v66h225v-66h-69v-234h302v234z" />
    <glyph glyph-name="I" unicode="I" horiz-adv-x="353" 
d="M133 66v552h-69v66h225v-66h-69v-552h69v-66h-225v66h69z" />
    <glyph glyph-name="J" unicode="J" horiz-adv-x="449" 
d="M56 58h81q75 0 103 25q26 24 26 87v448h-170v66h257v-506q0 -105 -50 -152q-43 -40 -129 -40q-60 0 -118 9v63z" />
    <glyph glyph-name="K" unicode="K" horiz-adv-x="665" 
d="M131 66v552h-69v66h225v-66h-69v-276l269 309q17 20 31.5 26.5t38.5 6.5h82v-66h-76l-197 -214l201 -338h80v-64q-52 -5 -94 -5q-27 0 -40 8.5t-27 31.5l-178 304l-90 -98v-177h69v-66h-225v66h69z" />
    <glyph glyph-name="L" unicode="L" horiz-adv-x="573" 
d="M218 66h250q0 52 16 95h59v-148q0 -7 -4.5 -10t-18.5 -3h-458v66h69v552h-69v66h225v-66h-69v-552z" />
    <glyph glyph-name="M" unicode="M" horiz-adv-x="882" 
d="M728 684h92v-66h-69v-552h69v-66h-219v66h69v431l-198 -345h-48q-25 0 -36 20l-181 329v-435h69v-66h-214v66h69v552h-69v66h92q26 0 36.5 -5.5t20.5 -23.5l229 -422l234 420q10 18 21 24.5t33 6.5z" />
    <glyph glyph-name="N" unicode="N" horiz-adv-x="763" 
d="M154 684q24 0 34.5 -4.5t22.5 -21.5l360 -510v470h-69v66h213v-66h-69v-618h-64l-376 537v-471h69v-66h-213v66h69v552h-69v66h92z" />
    <glyph glyph-name="O" unicode="O" horiz-adv-x="662" 
d="M331 65q100 0 143 70.5t43 205.5t-43 206t-143 71t-143 -71t-43 -206t43 -205.5t143 -70.5zM331 -14q-133 0 -204 90t-71 265t71 265.5t204 90.5t204 -90.5t71 -265.5t-71 -265t-204 -90z" />
    <glyph glyph-name="P" unicode="P" horiz-adv-x="601" 
d="M218 66h69v-66h-225v66h69v552h-69v66h274q129 0 178 -46q53 -50 53 -153q0 -214 -207 -214q-61 0 -142 11v-216zM218 618v-278h107q87 0 120 33t33 113q0 71 -35 103q-32 29 -113 29h-112z" />
    <glyph glyph-name="Q" unicode="Q" horiz-adv-x="662" 
d="M606 341q0 -114 -35 -195t-97 -122q114 -19 172 -62q-7 -26 -39 -69l-118 59q-46 22 -72.5 28t-85.5 6q-133 0 -204 90t-71 265t71 265.5t204 90.5t204 -90.5t71 -265.5zM331 65q100 0 143 70.5t43 205.5t-43 206t-143 71t-143 -71t-43 -206t43 -205.5t143 -70.5z" />
    <glyph glyph-name="R" unicode="R" horiz-adv-x="656" 
d="M218 66h69v-66h-225v66h69v552h-69v66h277q128 0 178 -47q53 -50 53 -149q0 -168 -133 -203l113 -219h76v-64q-52 -5 -85 -5q-28 0 -43.5 9t-26.5 31l-120 240h-133v-211zM218 618v-272h110q87 0 120 33t33 110q0 69 -34 100q-32 29 -113 29h-116z" />
    <glyph glyph-name="S" unicode="S" horiz-adv-x="567" 
d="M155 68q48 -10 110 -10q91 0 131 36q34 31 34 85q0 49 -24 74t-101 49l-52 16q-91 28 -133 68q-49 46 -49 124q0 83 53 133q61 57 184 57q83 0 156 -21q16 -4 16 -20v-119h-64q-4 8 -8.5 35t-4.5 44q-45 7 -98 7q-88 0 -124 -36q-27 -27 -27 -71q0 -47 28 -75
q31 -30 99 -50l55 -17q102 -33 140 -77q37 -43 37 -119q0 -86 -52 -136q-61 -60 -194 -60q-106 0 -173 20q-16 5 -16 21v122h64q13 -29 13 -80z" />
    <glyph glyph-name="T" unicode="T" horiz-adv-x="619" 
d="M55 684h509q14 0 18.5 -3t4.5 -10v-147h-59q-16 43 -16 94h-159v-552h69v-66h-225v66h69v552h-159q0 -51 -16 -94h-59v147q0 7 4.5 10t18.5 3z" />
    <glyph glyph-name="U" unicode="U" horiz-adv-x="715" 
d="M530 618h-69v66h212v-66h-69v-386q0 -126 -65 -186q-63 -60 -178 -60q-131 0 -193 68q-57 62 -57 186v378h-69v66h225v-66h-69v-375q0 -94 38 -133q43 -46 130 -46q81 0 123 42q41 43 41 131v381z" />
    <glyph glyph-name="V" unicode="V" horiz-adv-x="623" 
d="M619 618h-58l-190 -618h-78q-15 0 -21 4.5t-11 17.5l-193 596h-64v66h83q33 0 43 -6t17 -27l178 -565l161 532h-60v66h193v-66z" />
    <glyph glyph-name="W" unicode="W" horiz-adv-x="925" 
d="M921 618h-58l-154 -618h-81q-15 0 -22 5t-10 17l-126 548l-119 -570h-84q-15 0 -21.5 4.5t-10.5 17.5l-167 596h-64v66h83q34 0 44.5 -6t15.5 -27l151 -565l116 569q4 17 11.5 23t26.5 6h69l138 -603l129 537h-60v66h193v-66z" />
    <glyph glyph-name="X" unicode="X" horiz-adv-x="598" 
d="M421 37l-132 233l-135 -255q-8 -15 -25 -15h-68q-9 0 -5 9l195 328l-159 281h-68v66h86q24 0 34 -4.5t19 -20.5l141 -250l137 260q8 15 25 15h68q10 0 5 -9l-197 -332l157 -277h75v-64q-52 -4 -83 -4q-28 0 -42.5 8t-27.5 31z" />
    <glyph glyph-name="Y" unicode="Y" horiz-adv-x="588" 
d="M64 618h-60v66h74q28 0 40 -6.5t22 -25.5l161 -308l146 274h-53v66h190v-66h-55l-192 -342v-210h69v-66h-225v66h69v209z" />
    <glyph glyph-name="Z" unicode="Z" horiz-adv-x="580" 
d="M501 0h-441q-3 10 -3 27q0 32 23 68l344 523h-295q0 -51 -16 -94h-58v147q0 7 4.5 10t18.5 3h443q3 -10 3 -26q0 -33 -23 -69l-344 -523h293q0 53 16 96h58v-149q0 -7 -4.5 -10t-18.5 -3z" />
    <glyph glyph-name="bracketleft" unicode="[" horiz-adv-x="352" 
d="M318 -207h-196v931h196v-66h-111v-799h111v-66z" />
    <glyph glyph-name="backslash" unicode="\" horiz-adv-x="457" 
d="M337 -14l-293 711h76l293 -711h-76z" />
    <glyph glyph-name="bracketright" unicode="]" horiz-adv-x="352" 
d="M230 -207h-196v66h111v799h-111v66h196v-931z" />
    <glyph glyph-name="asciicircum" unicode="^" horiz-adv-x="508" 
d="M280 684l172 -283h-74l-124 211l-124 -211h-74l172 283h52z" />
    <glyph glyph-name="underscore" unicode="_" horiz-adv-x="423" 
d="M399 -108h-375v63h375v-63z" />
    <glyph glyph-name="grave" unicode="`" 
d="M318 618l-31 -39l-182 132l32 44q9 12 17.5 12t20.5 -12z" />
    <glyph glyph-name="a" unicode="a" horiz-adv-x="529" 
d="M358 79v153h-100q-71 0 -100 -22q-29 -21 -29 -66q0 -87 102 -87q67 0 127 22zM360 29q-74 -43 -150 -43q-71 0 -117.5 39.5t-46.5 114.5q0 67 39 106q49 50 164 50q37 0 109 -4v43q0 53 -22 74t-92 21h-152v52q82 22 177 22q92 0 135 -45q35 -36 35 -112v-286h66v-60
q-59 -7 -92 -7q-45 0 -53 35z" />
    <glyph glyph-name="b" unicode="b" horiz-adv-x="540" 
d="M166 670v-201q73 35 143 35q87 0 134 -63q51 -71 51 -193q0 -125 -46.5 -193.5t-137.5 -68.5q-76 0 -155 48q-2 -18 -11 -34h-59v658h-68v60q66 6 93 6q31 0 45 -14q11 -11 11 -40zM286 430q-52 0 -120 -19v-326q58 -25 121 -25q64 0 93.5 42t29.5 147q0 84 -27 133
q-27 48 -97 48z" />
    <glyph glyph-name="c" unicode="c" horiz-adv-x="465" 
d="M425 57v-51q-71 -20 -137 -20q-119 0 -182 69t-63 191q0 123 69 194q62 64 178 64q60 0 120 -14q16 -4 16 -21v-111h-62q-12 29 -14 75q-24 3 -49 3q-87 0 -127 -41q-47 -49 -47 -148q0 -100 43 -144q45 -46 152 -46h103z" />
    <glyph glyph-name="d" unicode="d" horiz-adv-x="551" 
d="M380 29v1q-80 -44 -147 -44q-91 0 -139 68.5t-48 193.5q0 119 51.5 187.5t141.5 68.5q65 0 137 -36v190h-68v60q66 6 93 6q31 0 45 -14q11 -11 11 -40v-609h66v-60q-59 -7 -92 -7q-43 0 -51 35zM255 60q64 0 121 23v329q-72 18 -116 18q-130 0 -130 -181
q0 -104 30.5 -146.5t94.5 -42.5z" />
    <glyph glyph-name="e" unicode="e" horiz-adv-x="506" 
d="M449 220h-322q3 -82 39 -119q41 -44 151 -44h124v-50q-75 -21 -154 -21q-123 0 -181 63q-63 67 -63 197q0 117 56.5 187.5t157.5 70.5q97 0 150 -65.5t53 -180.5v-29q0 -9 -11 -9zM128 284h255q-11 152 -126 152q-62 0 -94.5 -42.5t-34.5 -109.5z" />
    <glyph glyph-name="f" unicode="f" horiz-adv-x="316" 
d="M183 490h133v-62h-133v-428h-81v428h-85v48l85 15v66q0 87 41 128q42 42 124 42q57 0 96 -13v-56h-63q-71 0 -95 -20q-22 -19 -22 -86v-62z" />
    <glyph glyph-name="g" unicode="g" horiz-adv-x="513" 
d="M459 320q0 -86 -51.5 -135t-148.5 -49q-47 0 -83 12l-18 -75h152q102 0 144 -39q40 -37 40 -108q0 -84 -61 -124.5t-169 -40.5h-11q-99 0 -155.5 41.5t-56.5 112.5q0 55 44 105q-8 9 -8 27q0 43 56 120q-74 48 -74 153q0 86 51.5 135t148.5 49q17 0 45 -4l48 129
q44 -12 72 -30l-63 -114q98 -44 98 -165zM381 320q0 57 -28 87t-94 30t-94 -30t-28 -87t28 -87t94 -30t94 30t28 87zM146 -2q-11 0 -16 1v-2q-9 -43 -9 -65q0 -100 142 -100h2q150 0 150 89q0 39 -21 57q-23 20 -89 20h-159z" />
    <glyph glyph-name="h" unicode="h" horiz-adv-x="576" 
d="M166 670v-207q84 41 161 41q83 0 123 -43q35 -38 35 -117v-283h65v-60q-66 -6 -90 -6q-31 0 -45 14q-11 11 -11 40v276q0 60 -22 82t-81 22q-54 0 -135 -19v-410h-81v658h-68v60q66 6 93 6q31 0 45 -14q11 -11 11 -40z" />
    <glyph glyph-name="i" unicode="i" horiz-adv-x="256" 
d="M138 591h-6q-49 0 -49 53v3q0 53 49 53h6q49 0 49 -53v-3q0 -53 -49 -53zM180 440v-440h-81v428h-70v60q66 6 95 6q31 0 45 -14q11 -11 11 -40z" />
    <glyph glyph-name="j" unicode="j" horiz-adv-x="256" 
d="M138 591h-6q-49 0 -49 53v3q0 53 49 53h6q49 0 49 -53v-3q0 -53 -49 -53zM180 440v-504q0 -87 -32 -125q-33 -40 -104 -40q-41 0 -72 7v61h41q49 0 67 19q19 20 19 81v489h-70v60q66 6 95 6q31 0 45 -14q11 -11 11 -40z" />
    <glyph glyph-name="k" unicode="k" horiz-adv-x="534" 
d="M166 670v-414l180 200q20 22 34.5 28t42.5 6h65v-62h-69l-117 -121l155 -246h62v-58q-57 -6 -76 -6q-23 0 -35 6.5t-24 25.5l-137 221l-81 -80v-170h-81v658h-68v60q66 6 93 6q31 0 45 -14q11 -11 11 -40z" />
    <glyph glyph-name="l" unicode="l" horiz-adv-x="242" 
d="M166 670v-670h-81v658h-68v60q66 6 93 6q31 0 45 -14q11 -11 11 -40z" />
    <glyph glyph-name="m" unicode="m" horiz-adv-x="874" 
d="M702 49v276q0 60 -22 82t-76 22q-60 0 -131 -21q8 -24 8 -67v-341h-81v325q0 60 -22 82t-76 22q-59 0 -125 -19v-410h-81v428h-68v59q60 7 94 7q46 0 54 -32q73 42 151 42q84 0 124 -50q99 50 178 50t119 -43q35 -38 35 -117v-283h65v-60q-66 -6 -90 -6q-31 0 -45 14
q-11 11 -11 40z" />
    <glyph glyph-name="n" unicode="n" horiz-adv-x="587" 
d="M496 61h65v-60q-66 -6 -90 -6q-31 0 -45 14q-11 11 -11 40v276q0 60 -22 82t-81 22q-54 0 -135 -19v-410h-81v428h-68v59q60 7 94 7q46 0 54 -31q84 41 162 41q83 0 123 -43q35 -38 35 -117v-283z" />
    <glyph glyph-name="o" unicode="o" horiz-adv-x="534" 
d="M491 245q0 -122 -58 -190.5t-166 -68.5t-166 68.5t-58 190.5t58 190.5t166 68.5t166 -68.5t58 -190.5zM407 245q0 93 -33 140t-107 47t-107 -47t-33 -140t33 -140t107 -47t107 47t33 140z" />
    <glyph glyph-name="p" unicode="p" horiz-adv-x="550" 
d="M316 -14q-72 0 -139 39v-250h-81v653h-68v59q60 7 94 7q46 0 54 -30q73 40 141 40q89 0 138 -68t49 -188q0 -124 -48.5 -193t-139.5 -69zM295 430q-42 0 -118 -21v-326q57 -23 119 -23q64 0 94 42.5t30 146.5q0 95 -31.5 138t-93.5 43z" />
    <glyph glyph-name="q" unicode="q" horiz-adv-x="539" 
d="M377 -181v207q-75 -40 -145 -40q-92 0 -139 68t-47 194q0 121 54 188.5t152 67.5q65 0 135 -44l10 30h61v-659h68v-60q-66 -6 -93 -6q-31 0 -45 14q-11 11 -11 40zM256 59q58 0 121 25v324q-68 22 -118 22q-129 0 -129 -181q0 -99 29 -144.5t97 -45.5z" />
    <glyph glyph-name="r" unicode="r" horiz-adv-x="351" 
d="M177 409v-409h-81v428h-68v59q60 7 94 7q26 0 38.5 -8t15.5 -31q82 49 141 49q24 0 24 -21v-61h-26q-82 0 -138 -13z" />
    <glyph glyph-name="s" unicode="s" horiz-adv-x="473" 
d="M64 129h60q9 -28 13 -67q39 -11 98 -11q69 0 97 24q21 18 21 53q0 33 -22 50t-71 29l-58 15q-79 20 -108 49q-35 35 -35 90q0 66 44 102q48 41 144 41q79 0 137 -14q19 -5 19 -23v-97h-60q-9 21 -13 64q-40 5 -82 5q-115 0 -115 -72q0 -30 21.5 -46t71.5 -29l60 -15
q75 -19 107 -51q35 -35 35 -93q0 -67 -42 -104q-49 -43 -150 -43q-89 0 -154 18q-18 5 -18 23v102z" />
    <glyph glyph-name="t" unicode="t" horiz-adv-x="365" 
d="M98 491v113q41 12 81 14v-128h133v-62h-133v-276q0 -56 14 -74q17 -21 66 -21h91v-53q-49 -18 -110 -18q-71 0 -106 33q-36 35 -36 125v284h-85v48z" />
    <glyph glyph-name="u" unicode="u" horiz-adv-x="583" 
d="M172 440v-275q0 -60 22 -82t81 -22t131 19v348h-65v62h146v-429h68v-58q-59 -7 -94 -7q-44 0 -53 31q-84 -41 -159 -41q-83 0 -123 43q-35 38 -35 117v282h-65v60q66 6 90 6q31 0 45 -14q11 -11 11 -40z" />
    <glyph glyph-name="v" unicode="v" horiz-adv-x="525" 
d="M347 428v59h172v-59h-47l-157 -428h-56q-22 0 -30 6t-15 26l-144 396h-64v59q52 6 74 6q31 0 43.5 -7t21.5 -32l131 -376l119 350h-48z" />
    <glyph glyph-name="w" unicode="w" horiz-adv-x="759" 
d="M365 487h72l106 -411l93 352h-47v59h164v-59h-45l-120 -428h-58q-23 0 -33.5 6.5t-14.5 25.5l-96 369l-90 -401h-62q-22 0 -32 7t-15 25l-121 396h-60v59q52 6 71 6q31 0 44.5 -7.5t20.5 -31.5l106 -375l81 379q4 16 11.5 22.5t24.5 6.5z" />
    <glyph glyph-name="x" unicode="x" horiz-adv-x="505" 
d="M347 32l-104 158l-102 -175q-9 -15 -26 -15h-61q-9 0 -4 9l157 236l-118 183h-61v59q55 5 71 5q25 0 35.5 -6.5t24.5 -27.5l102 -157l103 174q9 15 26 15h61q9 0 4 -9l-158 -235l121 -185h59v-60q-44 -4 -69 -4q-24 0 -35.5 7t-25.5 28z" />
    <glyph glyph-name="y" unicode="y" horiz-adv-x="564" 
d="M173 440v-275q0 -60 22 -82t81 -22t131 19v348h-65v62h146v-524q0 -106 -49 -157q-47 -48 -149 -48q-59 0 -119 12v56h94q82 0 112 30q30 29 30 115v52q-82 -40 -157 -40q-83 0 -123 43q-35 38 -35 117v282h-65v60q66 6 90 6q31 0 45 -14q11 -11 11 -40z" />
    <glyph glyph-name="z" unicode="z" horiz-adv-x="488" 
d="M425 0h-365q-3 9 -3 27q0 29 26 64l260 337h-211q-4 -44 -13 -70h-61v116q0 16 17 16h361q3 -9 3 -27q0 -30 -26 -64l-260 -338h215q2 45 13 72h61v-117q0 -16 -17 -16z" />
    <glyph glyph-name="braceleft" unicode="{" horiz-adv-x="366" 
d="M56 225v66q57 12 80 40t23 94v178q0 64 29 92.5t96 28.5h42v-66h-25q-36 0 -47.5 -11t-11.5 -47v-176q0 -74 -23 -108.5t-74 -57.5q51 -23 74 -57.5t23 -108.5v-175q0 -36 11.5 -47t47.5 -11h25v-66h-42q-67 0 -96 28.5t-29 92.5v177q0 66 -23 94t-80 40z" />
    <glyph glyph-name="bar" unicode="|" horiz-adv-x="239" 
d="M154 -253h-69v1009h69v-1009z" />
    <glyph glyph-name="braceright" unicode="}" horiz-adv-x="366" 
d="M310 292v-66q-57 -12 -80 -40t-23 -94v-178q0 -64 -29 -92.5t-96 -28.5h-42v66h25q36 0 47.5 11t11.5 47v176q0 74 23 108.5t74 57.5q-51 23 -74 57.5t-23 108.5v175q0 36 -11.5 47t-47.5 11h-25v66h42q67 0 96 -28.5t29 -92.5v-177q0 -66 23 -94t80 -40z" />
    <glyph glyph-name="asciitilde" unicode="~" horiz-adv-x="508" 
d="M389 423l49 -5q-2 -43 -25.5 -70.5t-65.5 -27.5q-27 0 -92 15.5t-88 15.5q-24 0 -34.5 -7t-14.5 -27l-49 5q2 43 25.5 70t65.5 27q27 0 93 -15.5t87 -15.5q23 0 34 7.5t15 27.5z" />
    <glyph glyph-name="nbspace" unicode="&#xa0;" horiz-adv-x="190" 
 />
    <glyph glyph-name="exclamdown" unicode="&#xa1;" horiz-adv-x="275" 
d="M92 -194l15 488q0 10 10 10h51l14 -498h-90zM134 504h7q50 0 50 -54v-4q0 -54 -50 -54h-7q-50 0 -50 54v4q0 54 50 54z" />
    <glyph glyph-name="cent" unicode="&#xa2;" horiz-adv-x="534" 
d="M335 -128h-65v117q-96 13 -147 81t-51 176q0 120 66 191q47 51 132 64v116h65v-114q57 -3 110 -16q15 -4 15 -19v-114h-57q-7 19 -13 76q-32 5 -79 5q-155 0 -155 -185q0 -102 46 -148q45 -45 147 -45h107v-51q-58 -17 -121 -20v-114z" />
    <glyph glyph-name="sterling" unicode="&#xa3;" horiz-adv-x="579" 
d="M52 376l101 12q-10 58 -10 104q0 99 55 151q57 54 173 54q71 0 131 -16v-58h-108q-98 0 -134 -35q-31 -30 -31 -97q0 -45 10 -102h178v-59h-169q7 -47 7 -78q0 -84 -98 -185h301q2 52 17 97h54v-150q0 -8 -5.5 -11t-22.5 -3h-425q-4 18 -4 29q0 22 7 37.5t32 47.5
q33 43 45.5 69.5t12.5 63.5q0 34 -7 83h-110v46z" />
    <glyph glyph-name="currency" unicode="&#xa4;" horiz-adv-x="568" 
d="M456 349q0 -61 -28 -106l75 -75l-44 -44l-73 72q-43 -30 -102 -30q-60 0 -103 30l-72 -72l-44 44l75 75q-28 45 -28 106q0 59 28 106l-75 75l44 44l72 -73q42 31 103 31q60 0 102 -31l73 73l44 -44l-75 -75q28 -47 28 -106zM182 349q0 -119 102 -119t102 119t-102 119
t-102 -119z" />
    <glyph glyph-name="yen" unicode="&#xa5;" horiz-adv-x="608" 
d="M92 618h-60v66h76q28 0 39 -6t21 -26l143 -308l128 274h-53v66h190v-66h-55l-149 -292h113v-59h-138v-59h138v-59h-138v-83h69v-66h-225v66h69v83h-135v59h135v59h-135v59h109z" />
    <glyph glyph-name="brokenbar" unicode="&#xa6;" horiz-adv-x="239" 
d="M154 -253h-69v389h69v-389zM154 367h-69v389h69v-389z" />
    <glyph glyph-name="section" unicode="&#xa7;" horiz-adv-x="512" 
d="M70 365q0 50 37 85q-37 33 -37 98q0 149 189 149q82 0 159 -22q15 -5 15 -19v-100h-63q-9 23 -13 65q-44 10 -92 10q-65 0 -92.5 -19t-27.5 -56q0 -32 18 -48.5t61 -26.5l76 -17q77 -18 109.5 -51t32.5 -95q0 -50 -38 -85q38 -35 38 -98q0 -149 -189 -149q-82 0 -159 22
q-15 5 -15 19v100h63q9 -23 13 -65q44 -10 92 -10q65 0 92.5 19t27.5 56q0 32 -18 48.5t-61 26.5l-76 17q-77 18 -109.5 51t-32.5 95zM308 275l41 -11q18 23 18 53q0 29 -20.5 46.5t-66.5 27.5l-76 17q-28 6 -41 11q-18 -23 -18 -53q0 -29 20.5 -46.5t66.5 -27.5z" />
    <glyph glyph-name="dieresis" unicode="&#xa8;" 
d="M115 607h-6q-52 0 -52 56v2q0 56 52 56h6q52 0 52 -56v-2q0 -56 -52 -56zM315 607h-6q-52 0 -52 56v2q0 56 52 56h6q52 0 52 -56v-2q0 -56 -52 -56z" />
    <glyph glyph-name="copyright" unicode="&#xa9;" horiz-adv-x="768" 
d="M728 342q0 -152 -92 -254t-252 -102t-252 102t-92 254t92 253.5t252 101.5t252 -101.5t92 -253.5zM658 342q0 136 -73.5 214t-200.5 78t-200.5 -78t-73.5 -214t73.5 -214.5t200.5 -78.5t200.5 78.5t73.5 214.5zM476 413h-46q-8 15 -11 47q-7 1 -23 1q-48 0 -68.5 -28
t-20.5 -88q0 -68 25.5 -92t89.5 -24h50v-44q-40 -10 -75 -10q-152 0 -152 169q0 82 38.5 126.5t109.5 44.5q40 0 70 -10q13 -5 13 -21v-71z" />
    <glyph glyph-name="ordfeminine" unicode="&#xaa;" horiz-adv-x="440" 
d="M268 412v87h-68q-74 0 -74 -52q0 -53 63 -53q47 0 79 18zM335 394h45v-49q-23 -3 -65 -3t-46 26q-48 -29 -99 -29t-81 28.5t-30 75.5q0 55 36 81t99 26h74v35q0 32 -18 44.5t-63 12.5h-91v46q58 9 114 9q125 0 125 -113v-190z" />
    <glyph glyph-name="guillemotleft" unicode="&#xab;" horiz-adv-x="560" 
d="M152 263l123 -183l-37 -27l-130 149q-34 39 -34 61t34 61l130 149l37 -27zM377 263l123 -183l-37 -27l-130 149q-34 39 -34 61t34 61l130 149l37 -27z" />
    <glyph glyph-name="logicalnot" unicode="&#xac;" horiz-adv-x="508" 
d="M416 446v-245h-65v180h-259v65h324z" />
    <glyph glyph-name="uni00AD" unicode="&#xad;" horiz-adv-x="317" 
d="M251 226h-185v71h185v-71z" />
    <glyph glyph-name="registered" unicode="&#xae;" horiz-adv-x="768" 
d="M342 231h30v-48h-119v48h30v230h-30v49h128q67 0 95 -27q23 -22 23 -70q0 -78 -56 -98l47 -84h37v-46q-24 -4 -52 -4q-24 0 -35 24l-54 103h-44v-77zM342 461v-104h36q37 0 50 13q13 12 13 43q0 25 -13 37q-12 11 -50 11h-36zM728 342q0 -152 -92 -254t-252 -102
t-252 102t-92 254t92 253.5t252 101.5t252 -101.5t92 -253.5zM658 342q0 136 -73.5 214t-200.5 78t-200.5 -78t-73.5 -214t73.5 -214.5t200.5 -78.5t200.5 78.5t73.5 214.5z" />
    <glyph glyph-name="macron" unicode="&#xaf;" 
d="M347 618h-270v70h270v-70z" />
    <glyph glyph-name="degree" unicode="&#xb0;" horiz-adv-x="452" 
d="M135 517q0 -115 91 -115t91 115t-91 115t-91 -115zM392 517q0 -81 -44.5 -130.5t-121.5 -49.5t-121.5 49.5t-44.5 130.5t44.5 130.5t121.5 49.5t121.5 -49.5t44.5 -130.5z" />
    <glyph glyph-name="plusminus" unicode="&#xb1;" horiz-adv-x="508" 
d="M286 485v-129h130v-65h-130v-130h-65v130h-129v65h129v129h65zM416 0h-324v65h324v-65z" />
    <glyph glyph-name="twosuperior" unicode="&#xb2;" horiz-adv-x="500" 
d="M270 493l-81 -86h130q2 33 8 52h49v-101q0 -10 -6 -10h-252q-2 14 -2 24q0 21 8 37t32 43l77 87q32 37 45 58.5t13 46.5q0 23 -14 35q-18 15 -65 15h-83v51q56 9 108 9q59 0 93.5 -27t34.5 -73q0 -39 -17.5 -68.5t-77.5 -92.5z" />
    <glyph glyph-name="threesuperior" unicode="&#xb3;" horiz-adv-x="500" 
d="M289 687h-128q-2 -16 -8 -38h-47v86q0 10 6 10h251q2 -10 2 -19q0 -30 -25 -62l-65 -85q101 -16 101 -111q0 -55 -33 -90q-40 -40 -119 -40q-54 0 -106 10v50h89q59 0 81 21q17 17 17 48q0 37 -23 52t-78 15q-2 8 -2 17q0 17 20 44z" />
    <glyph glyph-name="acute" unicode="&#xb4;" 
d="M136 579l-31 39l143 137q12 12 20.5 12t17.5 -12l32 -44z" />
    <glyph glyph-name="mu" unicode="&#xb5;" horiz-adv-x="588" 
d="M177 440v-284q0 -52 22 -73q22 -22 81 -22t131 19v348h-65v62h146v-429h67v-58q-59 -7 -93 -7q-44 0 -53 31q-84 -41 -159 -41q-43 0 -77 13v-224h-81v653h-66v60q66 6 91 6q31 0 45 -14q11 -11 11 -40z" />
    <glyph glyph-name="paragraph" unicode="&#xb6;" horiz-adv-x="602" 
d="M260 684h281v-66h-70v-821h-72v821h-79v-821h-72v529q-88 0 -139 47t-51 132q0 76 42 123q51 56 160 56z" />
    <glyph glyph-name="periodcentered" unicode="&#xb7;" horiz-adv-x="227" 
d="M117 293h-7q-50 0 -50 54v4q0 54 50 54h7q50 0 50 -54v-4q0 -54 -50 -54z" />
    <glyph glyph-name="cedilla" unicode="&#xb8;" 
d="M151 12h39q-7 -24 -7 -31q0 -13 9.5 -21t43.5 -21q38 -15 55.5 -33.5t17.5 -50.5q0 -41 -27 -68q-29 -28 -86 -28q-50 0 -81 13v43h69q55 0 55 31q0 14 -10.5 22t-42.5 21q-37 15 -49.5 28.5t-12.5 37.5q0 28 27 57z" />
    <glyph glyph-name="onesuperior" unicode="&#xb9;" horiz-adv-x="500" 
d="M292 407h72v-59h-228v59h85v279h-81v58q66 4 107 4q24 0 34.5 -8.5t10.5 -27.5v-305z" />
    <glyph glyph-name="ordmasculine" unicode="&#xba;" horiz-adv-x="440" 
d="M378 520q0 -78 -40 -128.5t-118 -50.5t-118 50.5t-40 128.5t40 128.5t118 50.5t118 -50.5t40 -128.5zM306 520q0 117 -86 117t-86 -117t86 -117t86 117z" />
    <glyph glyph-name="guillemotright" unicode="&#xbb;" horiz-adv-x="560" 
d="M60 80l123 183l-123 183l37 27l130 -149q34 -39 34 -61t-34 -61l-130 -149zM285 80l123 183l-123 183l37 27l130 -149q34 -39 34 -61t-34 -61l-130 -149z" />
    <glyph glyph-name="onequarter" unicode="&#xbc;" horiz-adv-x="980" 
d="M761 96h-177q-3 9 -3 20q0 17 9 44l79 222q5 15 19 15h53l-86 -246h106v106h68v-106h55v-55h-55v-96h-68v96zM699 697l-353 -711h-76l353 711h76zM262 348h72v-59h-228v59h85v279h-81v58q66 4 107 4q24 0 34.5 -8.5t10.5 -27.5v-305z" />
    <glyph glyph-name="onehalf" unicode="&#xbd;" horiz-adv-x="980" 
d="M695 697l-353 -711h-76l353 711h76zM258 348h72v-59h-228v59h85v279h-81v58q66 4 107 4q24 0 34.5 -8.5t10.5 -27.5v-305zM765 145l-81 -86h130q2 33 8 52h49v-101q0 -10 -6 -10h-252q-2 14 -2 24q0 21 8 37t32 43l77 87q32 37 45 58.5t13 46.5q0 23 -14 35
q-18 15 -65 15h-83v51q56 9 108 9q59 0 93.5 -27t34.5 -73q0 -39 -17.5 -68.5t-77.5 -92.5z" />
    <glyph glyph-name="threequarters" unicode="&#xbe;" horiz-adv-x="980" 
d="M772 96h-177q-3 9 -3 20q0 17 9 44l79 222q5 15 19 15h53l-86 -246h106v106h68v-106h55v-55h-55v-96h-68v96zM710 697l-353 -711h-76l353 711h76zM287 626h-128q-2 -16 -8 -38h-47v86q0 10 6 10h251q2 -10 2 -19q0 -29 -25 -62l-65 -85q101 -16 101 -111q0 -55 -33 -90
q-40 -40 -119 -40q-54 0 -106 10v50h89q59 0 81 21q17 17 17 48q0 37 -23 52t-78 15q-2 8 -2 17q0 17 20 44z" />
    <glyph glyph-name="questiondown" unicode="&#xbf;" horiz-adv-x="414" 
d="M370 -135v-57q-62 -15 -145 -15q-101 0 -149 46q-45 42 -45 112q0 53 20 93.5t74 99.5q51 56 66.5 87t17.5 72h57q5 -15 5 -33q0 -34 -13.5 -62t-49.5 -75l-10 -13q-47 -61 -64 -94t-17 -69q0 -45 27 -67q30 -25 113 -25h113zM232 504h7q50 0 50 -54v-4q0 -54 -50 -54h-7
q-50 0 -50 54v4q0 54 50 54z" />
    <glyph glyph-name="Agrave" unicode="&#xc0;" horiz-adv-x="641" 
d="M491 66l-48 139h-263l-44 -139h55v-66h-191v66h57l203 618h75q13 0 18 -4t10 -17l218 -597h56v-66h-207v66h61zM305 594l-103 -320h217zM407 788l-31 -39l-182 132l32 44q9 12 17.5 12t20.5 -12z" />
    <glyph glyph-name="Aacute" unicode="&#xc1;" horiz-adv-x="641" 
d="M491 66l-48 139h-263l-44 -139h55v-66h-191v66h57l203 618h75q13 0 18 -4t10 -17l218 -597h56v-66h-207v66h61zM305 594l-103 -320h217zM245 749l-31 39l143 137q12 12 20.5 12t17.5 -12l32 -44z" />
    <glyph glyph-name="Acircumflex" unicode="&#xc2;" horiz-adv-x="641" 
d="M491 66l-48 139h-263l-44 -139h55v-66h-191v66h57l203 618h75q13 0 18 -4t10 -17l218 -597h56v-66h-207v66h61zM305 594l-103 -320h217zM297 923h16q19 0 29.5 -5.5t23.5 -23.5l91 -111l-33 -28l-119 103l-119 -103l-33 28l91 111q13 18 23.5 23.5t29.5 5.5z" />
    <glyph glyph-name="Atilde" unicode="&#xc3;" horiz-adv-x="641" 
d="M491 66l-48 139h-263l-44 -139h55v-66h-191v66h57l203 618h75q13 0 18 -4t10 -17l218 -597h56v-66h-207v66h61zM305 594l-103 -320h217zM399 887l47 -5q-2 -48 -23 -76t-53 -28q-27 0 -70 20t-63 20q-15 0 -23 -8t-12 -29l-47 5q1 48 22.5 76t53.5 28q27 0 70 -20t63 -20
q15 0 23 8t12 29z" />
    <glyph glyph-name="Adieresis" unicode="&#xc4;" horiz-adv-x="641" 
d="M491 66l-48 139h-263l-44 -139h55v-66h-191v66h57l203 618h75q13 0 18 -4t10 -17l218 -597h56v-66h-207v66h61zM305 594l-103 -320h217zM207 777h-6q-52 0 -52 56v2q0 56 52 56h6q52 0 52 -56v-2q0 -56 -52 -56zM407 777h-6q-52 0 -52 56v2q0 56 52 56h6q52 0 52 -56v-2
q0 -56 -52 -56z" />
    <glyph glyph-name="Aring" unicode="&#xc5;" horiz-adv-x="641" 
d="M491 66l-48 139h-263l-44 -139h55v-66h-191v66h57l203 618h75q13 0 18 -4t10 -17l218 -597h56v-66h-207v66h61zM305 594l-103 -320h217zM248 862q0 -34 11 -47t44 -13h3q33 0 44 13t11 47t-11 47t-44 13h-3q-33 0 -44 -13t-11 -47zM189 860v4q0 113 114 113h3
q114 0 114 -113v-4q0 -113 -114 -113h-3q-114 0 -114 113z" />
    <glyph glyph-name="AE" unicode="&#xc6;" horiz-adv-x="925" 
d="M262 274h191v336zM793 618h-253v-234h192q10 0 13 -1.5t3 -7.5v-62h-208v-247h258q0 52 16 95h59v-148q0 -7 -4.5 -10t-18.5 -3h-466v66h69v139h-230l-78 -139h55v-66h-196v66h57l338 586q13 22 20.5 27t24.5 5h401q14 0 18.5 -3t4.5 -10v-147h-59q-16 43 -16 94z" />
    <glyph glyph-name="Ccedilla" unicode="&#xc7;" horiz-adv-x="579" 
d="M461 525q-4 9 -9.5 42t-5.5 50q-47 5 -75 5q-115 0 -170.5 -67t-55.5 -213q0 -155 62 -221q57 -61 208 -61h106v-61q-73 -13 -138 -13q-6 0 -17.5 0.5t-16.5 0.5v-6q0 -13 9.5 -21t43.5 -21q38 -15 55.5 -33.5t17.5 -50.5q0 -41 -27 -68q-29 -28 -86 -28q-50 0 -81 13v43
h69q55 0 55 31q0 14 -10.5 22t-42.5 21q-37 15 -49.5 28.5t-12.5 37.5q0 18 11 37q-108 17 -161 77q-84 93 -84 272q0 174 83 265t228 91q79 0 142 -18q16 -4 16 -21v-133h-64z" />
    <glyph glyph-name="Egrave" unicode="&#xc8;" horiz-adv-x="607" 
d="M528 0h-466v66h69v552h-69v66h461q14 0 18.5 -3t4.5 -10v-147h-59q-16 43 -16 94h-253v-234h192q10 0 13 -1.5t3 -7.5v-62h-208v-247h258q0 52 16 95h59v-148q0 -7 -4.5 -10t-18.5 -3zM410 788l-31 -39l-182 132l32 44q9 12 17.5 12t20.5 -12z" />
    <glyph glyph-name="Eacute" unicode="&#xc9;" horiz-adv-x="607" 
d="M528 0h-466v66h69v552h-69v66h461q14 0 18.5 -3t4.5 -10v-147h-59q-16 43 -16 94h-253v-234h192q10 0 13 -1.5t3 -7.5v-62h-208v-247h258q0 52 16 95h59v-148q0 -7 -4.5 -10t-18.5 -3zM248 749l-31 39l143 137q12 12 20.5 12t17.5 -12l32 -44z" />
    <glyph glyph-name="Ecircumflex" unicode="&#xca;" horiz-adv-x="607" 
d="M528 0h-466v66h69v552h-69v66h461q14 0 18.5 -3t4.5 -10v-147h-59q-16 43 -16 94h-253v-234h192q10 0 13 -1.5t3 -7.5v-62h-208v-247h258q0 52 16 95h59v-148q0 -7 -4.5 -10t-18.5 -3zM303 923h16q19 0 29.5 -5.5t23.5 -23.5l91 -111l-33 -28l-119 103l-119 -103l-33 28
l91 111q13 18 23.5 23.5t29.5 5.5z" />
    <glyph glyph-name="Edieresis" unicode="&#xcb;" horiz-adv-x="607" 
d="M528 0h-466v66h69v552h-69v66h461q14 0 18.5 -3t4.5 -10v-147h-59q-16 43 -16 94h-253v-234h192q10 0 13 -1.5t3 -7.5v-62h-208v-247h258q0 52 16 95h59v-148q0 -7 -4.5 -10t-18.5 -3zM214 777h-6q-52 0 -52 56v2q0 56 52 56h6q52 0 52 -56v-2q0 -56 -52 -56zM414 777h-6
q-52 0 -52 56v2q0 56 52 56h6q52 0 52 -56v-2q0 -56 -52 -56z" />
    <glyph glyph-name="Igrave" unicode="&#xcc;" horiz-adv-x="353" 
d="M133 66v552h-69v66h225v-66h-69v-552h69v-66h-225v66h69zM283 788l-31 -39l-182 132l32 44q9 12 17.5 12t20.5 -12z" />
    <glyph glyph-name="Iacute" unicode="&#xcd;" horiz-adv-x="353" 
d="M133 66v552h-69v66h225v-66h-69v-552h69v-66h-225v66h69zM101 749l-31 39l143 137q12 12 20.5 12t17.5 -12l32 -44z" />
    <glyph glyph-name="Icircumflex" unicode="&#xce;" horiz-adv-x="353" 
d="M133 66v552h-69v66h225v-66h-69v-552h69v-66h-225v66h69zM169 923h16q19 0 29.5 -5.5t23.5 -23.5l91 -111l-33 -28l-119 103l-119 -103l-33 28l91 111q13 18 23.5 23.5t29.5 5.5z" />
    <glyph glyph-name="Idieresis" unicode="&#xcf;" horiz-adv-x="353" 
d="M133 66v552h-69v66h225v-66h-69v-552h69v-66h-225v66h69zM80 777h-6q-52 0 -52 56v2q0 56 52 56h6q52 0 52 -56v-2q0 -56 -52 -56zM280 777h-6q-52 0 -52 56v2q0 56 52 56h6q52 0 52 -56v-2q0 -56 -52 -56z" />
    <glyph glyph-name="Eth" unicode="&#xd0;" horiz-adv-x="691" 
d="M50 314v56l88 11v237h-69v66h234q179 0 254 -78q78 -81 78 -260q0 -189 -78 -271q-72 -75 -235 -75h-253v66h69v248h-88zM225 616v-233h139v-69h-139v-246h98q117 0 168 55q56 61 56 223q0 154 -61 215q-55 55 -182 55h-79z" />
    <glyph glyph-name="Ntilde" unicode="&#xd1;" horiz-adv-x="763" 
d="M154 684q24 0 34.5 -4.5t22.5 -21.5l360 -510v470h-69v66h213v-66h-69v-618h-64l-376 537v-471h69v-66h-213v66h69v552h-69v66h92zM480 887l47 -5q-2 -48 -23 -76t-53 -28q-27 0 -70 20t-63 20q-15 0 -23 -8t-12 -29l-47 5q1 48 22.5 76t53.5 28q27 0 70 -20t63 -20
q15 0 23 8t12 29z" />
    <glyph glyph-name="Ograve" unicode="&#xd2;" horiz-adv-x="662" 
d="M331 65q100 0 143 70.5t43 205.5t-43 206t-143 71t-143 -71t-43 -206t43 -205.5t143 -70.5zM331 -14q-133 0 -204 90t-71 265t71 265.5t204 90.5t204 -90.5t71 -265.5t-71 -265t-204 -90zM437 788l-31 -39l-182 132l32 44q9 12 17.5 12t20.5 -12z" />
    <glyph glyph-name="Oacute" unicode="&#xd3;" horiz-adv-x="662" 
d="M331 65q100 0 143 70.5t43 205.5t-43 206t-143 71t-143 -71t-43 -206t43 -205.5t143 -70.5zM331 -14q-133 0 -204 90t-71 265t71 265.5t204 90.5t204 -90.5t71 -265.5t-71 -265t-204 -90zM255 749l-31 39l143 137q12 12 20.5 12t17.5 -12l32 -44z" />
    <glyph glyph-name="Ocircumflex" unicode="&#xd4;" horiz-adv-x="662" 
d="M331 65q100 0 143 70.5t43 205.5t-43 206t-143 71t-143 -71t-43 -206t43 -205.5t143 -70.5zM331 -14q-133 0 -204 90t-71 265t71 265.5t204 90.5t204 -90.5t71 -265.5t-71 -265t-204 -90zM323 923h16q19 0 29.5 -5.5t23.5 -23.5l91 -111l-33 -28l-119 103l-119 -103
l-33 28l91 111q13 18 23.5 23.5t29.5 5.5z" />
    <glyph glyph-name="Otilde" unicode="&#xd5;" horiz-adv-x="662" 
d="M331 65q100 0 143 70.5t43 205.5t-43 206t-143 71t-143 -71t-43 -206t43 -205.5t143 -70.5zM331 -14q-133 0 -204 90t-71 265t71 265.5t204 90.5t204 -90.5t71 -265.5t-71 -265t-204 -90zM429 887l47 -5q-2 -48 -23 -76t-53 -28q-27 0 -70 20t-63 20q-15 0 -23 -8
t-12 -29l-47 5q1 48 22.5 76t53.5 28q27 0 70 -20t63 -20q15 0 23 8t12 29z" />
    <glyph glyph-name="Odieresis" unicode="&#xd6;" horiz-adv-x="662" 
d="M331 65q100 0 143 70.5t43 205.5t-43 206t-143 71t-143 -71t-43 -206t43 -205.5t143 -70.5zM331 -14q-133 0 -204 90t-71 265t71 265.5t204 90.5t204 -90.5t71 -265.5t-71 -265t-204 -90zM234 777h-6q-52 0 -52 56v2q0 56 52 56h6q52 0 52 -56v-2q0 -56 -52 -56zM434 777
h-6q-52 0 -52 56v2q0 56 52 56h6q52 0 52 -56v-2q0 -56 -52 -56z" />
    <glyph glyph-name="multiply" unicode="&#xd7;" horiz-adv-x="508" 
d="M162 460l91 -91l92 92l46 -46l-92 -92l92 -92l-46 -46l-92 92l-91 -91l-46 46l91 91l-91 91z" />
    <glyph glyph-name="Oslash" unicode="&#xd8;" horiz-adv-x="662" 
d="M331 -14q-49 0 -93 14l-26 -78h-62l35 101q-129 80 -129 318q0 175 71 265.5t204 90.5q43 0 82 -11l27 77h61l-34 -98q139 -77 139 -324q0 -175 -71 -265t-204 -90zM331 65q100 0 143 70.5t43 205.5q0 183 -77 244l-176 -510q29 -10 67 -10zM145 341q0 -172 68 -236
l174 506q-30 7 -56 7q-100 0 -143 -71t-43 -206z" />
    <glyph glyph-name="Ugrave" unicode="&#xd9;" horiz-adv-x="715" 
d="M530 618h-69v66h212v-66h-69v-386q0 -126 -65 -186q-63 -60 -178 -60q-131 0 -193 68q-57 62 -57 186v378h-69v66h225v-66h-69v-375q0 -94 38 -133q43 -46 130 -46q81 0 123 42q41 43 41 131v381zM472 788l-31 -39l-182 132l32 44q9 12 17.5 12t20.5 -12z" />
    <glyph glyph-name="Uacute" unicode="&#xda;" horiz-adv-x="715" 
d="M530 618h-69v66h212v-66h-69v-386q0 -126 -65 -186q-63 -60 -178 -60q-131 0 -193 68q-57 62 -57 186v378h-69v66h225v-66h-69v-375q0 -94 38 -133q43 -46 130 -46q81 0 123 42q41 43 41 131v381zM289 749l-31 39l143 137q12 12 20.5 12t17.5 -12l32 -44z" />
    <glyph glyph-name="Ucircumflex" unicode="&#xdb;" horiz-adv-x="715" 
d="M530 618h-69v66h212v-66h-69v-386q0 -126 -65 -186q-63 -60 -178 -60q-131 0 -193 68q-57 62 -57 186v378h-69v66h225v-66h-69v-375q0 -94 38 -133q43 -46 130 -46q81 0 123 42q41 43 41 131v381zM357 923h16q19 0 29.5 -5.5t23.5 -23.5l91 -111l-33 -28l-119 103
l-119 -103l-33 28l91 111q13 18 23.5 23.5t29.5 5.5z" />
    <glyph glyph-name="Udieresis" unicode="&#xdc;" horiz-adv-x="715" 
d="M530 618h-69v66h212v-66h-69v-386q0 -126 -65 -186q-63 -60 -178 -60q-131 0 -193 68q-57 62 -57 186v378h-69v66h225v-66h-69v-375q0 -94 38 -133q43 -46 130 -46q81 0 123 42q41 43 41 131v381zM267 777h-6q-52 0 -52 56v2q0 56 52 56h6q52 0 52 -56v-2q0 -56 -52 -56z
M467 777h-6q-52 0 -52 56v2q0 56 52 56h6q52 0 52 -56v-2q0 -56 -52 -56z" />
    <glyph glyph-name="Yacute" unicode="&#xdd;" horiz-adv-x="588" 
d="M64 618h-60v66h74q28 0 40 -6.5t22 -25.5l161 -308l146 274h-53v66h190v-66h-55l-192 -342v-210h69v-66h-225v66h69v209zM236 749l-31 39l143 137q12 12 20.5 12t17.5 -12l32 -44z" />
    <glyph glyph-name="Thorn" unicode="&#xde;" horiz-adv-x="604" 
d="M133 66v552h-69v66h225v-66h-69v-66h117q129 0 178 -46q53 -50 53 -153q0 -214 -207 -214q-60 0 -141 11v-84h69v-66h-225v66h69zM331 486h-111v-278h106q87 0 120 33t33 113q0 71 -35 103q-32 29 -113 29z" />
    <glyph glyph-name="germandbls" unicode="&#xdf;" horiz-adv-x="629" 
d="M325 60q40 -9 81 -9q68 0 95 23q26 21 26 54q0 35 -24.5 55.5t-91.5 43.5q-87 30 -121 60.5t-34 72.5q0 35 20.5 63t69.5 62q42 30 58.5 51.5t16.5 49.5q0 35 -27 56t-70 21q-62 0 -98 -34q-43 -42 -43 -134v-495h-81v428h-85v48l85 15v17q0 107 62.5 163t164.5 56
q78 0 122.5 -38t44.5 -97q0 -44 -26 -80t-56.5 -54.5t-56.5 -41.5t-26 -45q0 -24 24 -39.5t97 -42.5q79 -29 115 -64.5t36 -94.5q0 -61 -45 -100q-50 -44 -149 -44q-78 0 -140 19q-16 5 -16 22v99h59q9 -22 13 -66z" />
    <glyph glyph-name="agrave" unicode="&#xe0;" horiz-adv-x="529" 
d="M358 79v153h-100q-71 0 -100 -22q-29 -21 -29 -66q0 -87 102 -87q67 0 127 22zM360 29q-74 -43 -150 -43q-71 0 -117.5 39.5t-46.5 114.5q0 67 39 106q49 50 164 50q37 0 109 -4v43q0 53 -22 74t-92 21h-152v52q82 22 177 22q92 0 135 -45q35 -36 35 -112v-286h66v-60
q-59 -7 -92 -7q-45 0 -53 35zM377 618l-31 -39l-182 132l32 44q9 12 17.5 12t20.5 -12z" />
    <glyph glyph-name="aacute" unicode="&#xe1;" horiz-adv-x="529" 
d="M358 79v153h-100q-71 0 -100 -22q-29 -21 -29 -66q0 -87 102 -87q67 0 127 22zM360 29q-74 -43 -150 -43q-71 0 -117.5 39.5t-46.5 114.5q0 67 39 106q49 50 164 50q37 0 109 -4v43q0 53 -22 74t-92 21h-152v52q82 22 177 22q92 0 135 -45q35 -36 35 -112v-286h66v-60
q-59 -7 -92 -7q-45 0 -53 35zM204 579l-31 39l143 137q12 12 20.5 12t17.5 -12l32 -44z" />
    <glyph glyph-name="acircumflex" unicode="&#xe2;" horiz-adv-x="529" 
d="M358 79v153h-100q-71 0 -100 -22q-29 -21 -29 -66q0 -87 102 -87q67 0 127 22zM360 29q-74 -43 -150 -43q-71 0 -117.5 39.5t-46.5 114.5q0 67 39 106q49 50 164 50q37 0 109 -4v43q0 53 -22 74t-92 21h-152v52q82 22 177 22q92 0 135 -45q35 -36 35 -112v-286h66v-60
q-59 -7 -92 -7q-45 0 -53 35zM250 753h16q19 0 29.5 -5.5t23.5 -23.5l91 -111l-33 -28l-119 103l-119 -103l-33 28l91 111q13 18 23.5 23.5t29.5 5.5z" />
    <glyph glyph-name="atilde" unicode="&#xe3;" horiz-adv-x="529" 
d="M358 79v153h-100q-71 0 -100 -22q-29 -21 -29 -66q0 -87 102 -87q67 0 127 22zM360 29q-74 -43 -150 -43q-71 0 -117.5 39.5t-46.5 114.5q0 67 39 106q49 50 164 50q37 0 109 -4v43q0 53 -22 74t-92 21h-152v52q82 22 177 22q92 0 135 -45q35 -36 35 -112v-286h66v-60
q-59 -7 -92 -7q-45 0 -53 35zM353 717l47 -5q-2 -48 -23 -76t-53 -28q-27 0 -70 20t-63 20q-15 0 -23 -8t-12 -29l-47 5q1 48 22.5 76t53.5 28q27 0 70 -20t63 -20q15 0 23 8t12 29z" />
    <glyph glyph-name="adieresis" unicode="&#xe4;" horiz-adv-x="529" 
d="M358 79v153h-100q-71 0 -100 -22q-29 -21 -29 -66q0 -87 102 -87q67 0 127 22zM360 29q-74 -43 -150 -43q-71 0 -117.5 39.5t-46.5 114.5q0 67 39 106q49 50 164 50q37 0 109 -4v43q0 53 -22 74t-92 21h-152v52q82 22 177 22q92 0 135 -45q35 -36 35 -112v-286h66v-60
q-59 -7 -92 -7q-45 0 -53 35zM164 607h-6q-52 0 -52 56v2q0 56 52 56h6q52 0 52 -56v-2q0 -56 -52 -56zM364 607h-6q-52 0 -52 56v2q0 56 52 56h6q52 0 52 -56v-2q0 -56 -52 -56z" />
    <glyph glyph-name="aring" unicode="&#xe5;" horiz-adv-x="529" 
d="M358 79v153h-100q-71 0 -100 -22q-29 -21 -29 -66q0 -87 102 -87q67 0 127 22zM360 29q-74 -43 -150 -43q-71 0 -117.5 39.5t-46.5 114.5q0 67 39 106q49 50 164 50q37 0 109 -4v43q0 53 -22 74t-92 21h-152v52q82 22 177 22q92 0 135 -45q35 -36 35 -112v-286h66v-60
q-59 -7 -92 -7q-45 0 -53 35zM206 692q0 -34 11 -47t44 -13h3q33 0 44 13t11 47t-11 47t-44 13h-3q-33 0 -44 -13t-11 -47zM147 690v4q0 113 114 113h3q114 0 114 -113v-4q0 -113 -114 -113h-3q-114 0 -114 113z" />
    <glyph glyph-name="ae" unicode="&#xe6;" horiz-adv-x="816" 
d="M759 220h-322q3 -82 39 -119q41 -44 151 -44h124v-50q-75 -21 -154 -21q-121 0 -179 60q-91 -60 -201 -60q-82 0 -126.5 40.5t-44.5 113.5q0 67 39 106q49 50 164 50q37 0 109 -4v43q0 53 -22 74t-92 21h-152v52q82 22 177 22q107 0 149 -63q55 63 149 63q97 0 150 -65.5
t53 -180.5v-29q0 -9 -11 -9zM242 57q70 0 144 36q-26 54 -28 139h-100q-71 0 -100 -22q-29 -21 -29 -66q0 -42 25 -64.5t88 -22.5zM438 284h255q-11 152 -126 152q-62 0 -94.5 -42.5t-34.5 -109.5z" />
    <glyph glyph-name="ccedilla" unicode="&#xe7;" horiz-adv-x="465" 
d="M425 57v-51q-71 -20 -137 -20q-4 0 -13 0.5t-14 0.5v-6q0 -13 9.5 -21t43.5 -21q38 -15 55.5 -33.5t17.5 -50.5q0 -41 -27 -68q-29 -28 -86 -28q-50 0 -81 13v43h69q55 0 55 31q0 14 -10.5 22t-42.5 21q-37 15 -49.5 28.5t-12.5 37.5q0 21 12 39q-67 15 -108 61
q-63 69 -63 191q0 123 69 194q62 64 178 64q60 0 120 -14q16 -4 16 -21v-111h-62q-12 29 -14 75q-24 3 -49 3q-87 0 -127 -41q-47 -49 -47 -148q0 -100 43 -144q45 -46 152 -46h103z" />
    <glyph glyph-name="egrave" unicode="&#xe8;" horiz-adv-x="506" 
d="M449 220h-322q3 -82 39 -119q41 -44 151 -44h124v-50q-75 -21 -154 -21q-123 0 -181 63q-63 67 -63 197q0 117 56.5 187.5t157.5 70.5q97 0 150 -65.5t53 -180.5v-29q0 -9 -11 -9zM128 284h255q-11 152 -126 152q-62 0 -94.5 -42.5t-34.5 -109.5zM371 618l-31 -39
l-182 132l32 44q9 12 17.5 12t20.5 -12z" />
    <glyph glyph-name="eacute" unicode="&#xe9;" horiz-adv-x="506" 
d="M449 220h-322q3 -82 39 -119q41 -44 151 -44h124v-50q-75 -21 -154 -21q-123 0 -181 63q-63 67 -63 197q0 117 56.5 187.5t157.5 70.5q97 0 150 -65.5t53 -180.5v-29q0 -9 -11 -9zM128 284h255q-11 152 -126 152q-62 0 -94.5 -42.5t-34.5 -109.5zM183 579l-31 39l143 137
q12 12 20.5 12t17.5 -12l32 -44z" />
    <glyph glyph-name="ecircumflex" unicode="&#xea;" horiz-adv-x="506" 
d="M449 220h-322q3 -82 39 -119q41 -44 151 -44h124v-50q-75 -21 -154 -21q-123 0 -181 63q-63 67 -63 197q0 117 56.5 187.5t157.5 70.5q97 0 150 -65.5t53 -180.5v-29q0 -9 -11 -9zM128 284h255q-11 152 -126 152q-62 0 -94.5 -42.5t-34.5 -109.5zM251 753h16
q19 0 29.5 -5.5t23.5 -23.5l91 -111l-33 -28l-119 103l-119 -103l-33 28l91 111q13 18 23.5 23.5t29.5 5.5z" />
    <glyph glyph-name="edieresis" unicode="&#xeb;" horiz-adv-x="506" 
d="M449 220h-322q3 -82 39 -119q41 -44 151 -44h124v-50q-75 -21 -154 -21q-123 0 -181 63q-63 67 -63 197q0 117 56.5 187.5t157.5 70.5q97 0 150 -65.5t53 -180.5v-29q0 -9 -11 -9zM128 284h255q-11 152 -126 152q-62 0 -94.5 -42.5t-34.5 -109.5zM161 607h-6
q-52 0 -52 56v2q0 56 52 56h6q52 0 52 -56v-2q0 -56 -52 -56zM361 607h-6q-52 0 -52 56v2q0 56 52 56h6q52 0 52 -56v-2q0 -56 -52 -56z" />
    <glyph glyph-name="igrave" unicode="&#xec;" horiz-adv-x="256" 
d="M180 440v-440h-81v428h-70v60q66 6 95 6q31 0 45 -14q11 -11 11 -40zM219 618l-31 -39l-182 132l32 44q9 12 17.5 12t20.5 -12z" />
    <glyph glyph-name="iacute" unicode="&#xed;" horiz-adv-x="256" 
d="M180 440v-440h-81v428h-70v60q66 6 95 6q31 0 45 -14q11 -11 11 -40zM61 579l-31 39l143 137q12 12 20.5 12t17.5 -12l32 -44z" />
    <glyph glyph-name="icircumflex" unicode="&#xee;" horiz-adv-x="256" 
d="M180 440v-440h-81v428h-70v60q66 6 95 6q31 0 45 -14q11 -11 11 -40zM117 753h16q19 0 29.5 -5.5t23.5 -23.5l91 -111l-33 -28l-119 103l-119 -103l-33 28l91 111q13 18 23.5 23.5t29.5 5.5z" />
    <glyph glyph-name="idieresis" unicode="&#xef;" horiz-adv-x="256" 
d="M180 440v-440h-81v428h-70v60q66 6 95 6q31 0 45 -14q11 -11 11 -40zM28 607h-6q-52 0 -52 56v2q0 56 52 56h6q52 0 52 -56v-2q0 -56 -52 -56zM228 607h-6q-52 0 -52 56v2q0 56 52 56h6q52 0 52 -56v-2q0 -56 -52 -56z" />
    <glyph glyph-name="eth" unicode="&#xf0;" horiz-adv-x="542" 
d="M229 571l-34 42l74 59q-26 33 -68 76l36 34q45 -38 78 -73l88 71l34 -42l-86 -69q145 -172 145 -396q0 -131 -58 -209.5t-169 -78.5q-106 0 -164.5 68.5t-58.5 177.5q0 112 58.5 175t153.5 63q61 0 133 -25q-28 96 -90 185zM413 283q0 52 -9 103q-66 16 -121 16
q-154 0 -154 -171q0 -78 36 -127t103 -49q145 0 145 228z" />
    <glyph glyph-name="ntilde" unicode="&#xf1;" horiz-adv-x="587" 
d="M496 61h65v-60q-66 -6 -90 -6q-31 0 -45 14q-11 11 -11 40v276q0 60 -22 82t-81 22q-54 0 -135 -19v-410h-81v428h-68v59q60 7 94 7q46 0 54 -31q84 41 162 41q83 0 123 -43q35 -38 35 -117v-283zM413 717l47 -5q-2 -48 -23 -76t-53 -28q-27 0 -70 20t-63 20
q-15 0 -23 -8t-12 -29l-47 5q1 48 22.5 76t53.5 28q27 0 70 -20t63 -20q15 0 23 8t12 29z" />
    <glyph glyph-name="ograve" unicode="&#xf2;" horiz-adv-x="534" 
d="M491 245q0 -122 -58 -190.5t-166 -68.5t-166 68.5t-58 190.5t58 190.5t166 68.5t166 -68.5t58 -190.5zM407 245q0 93 -33 140t-107 47t-107 -47t-33 -140t33 -140t107 -47t107 47t33 140zM373 618l-31 -39l-182 132l32 44q9 12 17.5 12t20.5 -12z" />
    <glyph glyph-name="oacute" unicode="&#xf3;" horiz-adv-x="534" 
d="M491 245q0 -122 -58 -190.5t-166 -68.5t-166 68.5t-58 190.5t58 190.5t166 68.5t166 -68.5t58 -190.5zM407 245q0 93 -33 140t-107 47t-107 -47t-33 -140t33 -140t107 -47t107 47t33 140zM197 579l-31 39l143 137q12 12 20.5 12t17.5 -12l32 -44z" />
    <glyph glyph-name="ocircumflex" unicode="&#xf4;" horiz-adv-x="534" 
d="M491 245q0 -122 -58 -190.5t-166 -68.5t-166 68.5t-58 190.5t58 190.5t166 68.5t166 -68.5t58 -190.5zM407 245q0 93 -33 140t-107 47t-107 -47t-33 -140t33 -140t107 -47t107 47t33 140zM259 753h16q19 0 29.5 -5.5t23.5 -23.5l91 -111l-33 -28l-119 103l-119 -103
l-33 28l91 111q13 18 23.5 23.5t29.5 5.5z" />
    <glyph glyph-name="otilde" unicode="&#xf5;" horiz-adv-x="534" 
d="M491 245q0 -122 -58 -190.5t-166 -68.5t-166 68.5t-58 190.5t58 190.5t166 68.5t166 -68.5t58 -190.5zM407 245q0 93 -33 140t-107 47t-107 -47t-33 -140t33 -140t107 -47t107 47t33 140zM365 717l47 -5q-2 -48 -23 -76t-53 -28q-27 0 -70 20t-63 20q-15 0 -23 -8
t-12 -29l-47 5q1 48 22.5 76t53.5 28q27 0 70 -20t63 -20q15 0 23 8t12 29z" />
    <glyph glyph-name="odieresis" unicode="&#xf6;" horiz-adv-x="534" 
d="M491 245q0 -122 -58 -190.5t-166 -68.5t-166 68.5t-58 190.5t58 190.5t166 68.5t166 -68.5t58 -190.5zM407 245q0 93 -33 140t-107 47t-107 -47t-33 -140t33 -140t107 -47t107 47t33 140zM170 607h-6q-52 0 -52 56v2q0 56 52 56h6q52 0 52 -56v-2q0 -56 -52 -56zM370 607
h-6q-52 0 -52 56v2q0 56 52 56h6q52 0 52 -56v-2q0 -56 -52 -56z" />
    <glyph glyph-name="divide" unicode="&#xf7;" horiz-adv-x="508" 
d="M416 291h-324v65h324v-65zM256 101h-5q-50 0 -50 54v2q0 54 50 54h5q50 0 50 -54v-2q0 -54 -50 -54zM256 436h-5q-50 0 -50 54v2q0 54 50 54h5q50 0 50 -54v-2q0 -54 -50 -54z" />
    <glyph glyph-name="oslash" unicode="&#xf8;" horiz-adv-x="534" 
d="M491 245q0 -122 -58 -190.5t-166 -68.5q-31 0 -58 6l-26 -76h-60l33 94q-113 59 -113 235q0 122 58 190.5t166 68.5q27 0 60 -7l27 77h59l-34 -96q112 -59 112 -233zM127 245q0 -121 54 -162l122 346q-17 3 -36 3q-74 0 -107 -47t-33 -140zM407 245q0 117 -53 160
l-121 -344q16 -3 34 -3q74 0 107 47t33 140z" />
    <glyph glyph-name="ugrave" unicode="&#xf9;" horiz-adv-x="583" 
d="M172 440v-275q0 -60 22 -82t81 -22t131 19v348h-65v62h146v-429h68v-58q-59 -7 -94 -7q-44 0 -53 31q-84 -41 -159 -41q-83 0 -123 43q-35 38 -35 117v282h-65v60q66 6 90 6q31 0 45 -14q11 -11 11 -40zM376 618l-31 -39l-182 132l32 44q9 12 17.5 12t20.5 -12z" />
    <glyph glyph-name="uacute" unicode="&#xfa;" horiz-adv-x="583" 
d="M172 440v-275q0 -60 22 -82t81 -22t131 19v348h-65v62h146v-429h68v-58q-59 -7 -94 -7q-44 0 -53 31q-84 -41 -159 -41q-83 0 -123 43q-35 38 -35 117v282h-65v60q66 6 90 6q31 0 45 -14q11 -11 11 -40zM234 579l-31 39l143 137q12 12 20.5 12t17.5 -12l32 -44z" />
    <glyph glyph-name="ucircumflex" unicode="&#xfb;" horiz-adv-x="583" 
d="M172 440v-275q0 -60 22 -82t81 -22t131 19v348h-65v62h146v-429h68v-58q-59 -7 -94 -7q-44 0 -53 31q-84 -41 -159 -41q-83 0 -123 43q-35 38 -35 117v282h-65v60q66 6 90 6q31 0 45 -14q11 -11 11 -40zM282 753h16q19 0 29.5 -5.5t23.5 -23.5l91 -111l-33 -28l-119 103
l-119 -103l-33 28l91 111q13 18 23.5 23.5t29.5 5.5z" />
    <glyph glyph-name="udieresis" unicode="&#xfc;" horiz-adv-x="583" 
d="M172 440v-275q0 -60 22 -82t81 -22t131 19v348h-65v62h146v-429h68v-58q-59 -7 -94 -7q-44 0 -53 31q-84 -41 -159 -41q-83 0 -123 43q-35 38 -35 117v282h-65v60q66 6 90 6q31 0 45 -14q11 -11 11 -40zM184 607h-6q-52 0 -52 56v2q0 56 52 56h6q52 0 52 -56v-2
q0 -56 -52 -56zM384 607h-6q-52 0 -52 56v2q0 56 52 56h6q52 0 52 -56v-2q0 -56 -52 -56z" />
    <glyph glyph-name="yacute" unicode="&#xfd;" horiz-adv-x="564" 
d="M173 440v-275q0 -60 22 -82t81 -22t131 19v348h-65v62h146v-524q0 -106 -49 -157q-47 -48 -149 -48q-59 0 -119 12v56h94q82 0 112 30q30 29 30 115v52q-82 -40 -157 -40q-83 0 -123 43q-35 38 -35 117v282h-65v60q66 6 90 6q31 0 45 -14q11 -11 11 -40zM221 579l-31 39
l143 137q12 12 20.5 12t17.5 -12l32 -44z" />
    <glyph glyph-name="thorn" unicode="&#xfe;" horiz-adv-x="539" 
d="M284 430q-42 0 -118 -21v-326q57 -23 119 -23q64 0 94 42.5t30 146.5q0 95 -31.5 138t-93.5 43zM166 670v-206q72 40 140 40q89 0 138 -68t49 -188q0 -124 -48.5 -193t-139.5 -69q-72 0 -139 39v-250h-81v883h-68v60q66 6 93 6q31 0 45 -14q11 -11 11 -40z" />
    <glyph glyph-name="ydieresis" unicode="&#xff;" horiz-adv-x="564" 
d="M173 440v-275q0 -60 22 -82t81 -22t131 19v348h-65v62h146v-524q0 -106 -49 -157q-47 -48 -149 -48q-59 0 -119 12v56h94q82 0 112 30q30 29 30 115v52q-82 -40 -157 -40q-83 0 -123 43q-35 38 -35 117v282h-65v60q66 6 90 6q31 0 45 -14q11 -11 11 -40zM185 607h-6
q-52 0 -52 56v2q0 56 52 56h6q52 0 52 -56v-2q0 -56 -52 -56zM385 607h-6q-52 0 -52 56v2q0 56 52 56h6q52 0 52 -56v-2q0 -56 -52 -56z" />
    <glyph glyph-name="Amacron" unicode="&#x100;" horiz-adv-x="641" 
d="M491 66l-48 139h-263l-44 -139h55v-66h-191v66h57l203 618h75q13 0 18 -4t10 -17l218 -597h56v-66h-207v66h61zM305 594l-103 -320h217zM440 798h-270v70h270v-70z" />
    <glyph glyph-name="amacron" unicode="&#x101;" horiz-adv-x="529" 
d="M358 79v153h-100q-71 0 -100 -22q-29 -21 -29 -66q0 -87 102 -87q67 0 127 22zM360 29q-74 -43 -150 -43q-71 0 -117.5 39.5t-46.5 114.5q0 67 39 106q49 50 164 50q37 0 109 -4v43q0 53 -22 74t-92 21h-152v52q82 22 177 22q92 0 135 -45q35 -36 35 -112v-286h66v-60
q-59 -7 -92 -7q-45 0 -53 35zM399 618h-270v70h270v-70z" />
    <glyph glyph-name="Abreve" unicode="&#x102;" horiz-adv-x="641" 
d="M491 66l-48 139h-263l-44 -139h55v-66h-191v66h57l203 618h75q13 0 18 -4t10 -17l218 -597h56v-66h-207v66h61zM305 594l-103 -320h217zM307 755q-127 0 -136 139l52 6q12 -80 84 -80t84 80l52 -6q-9 -139 -136 -139z" />
    <glyph glyph-name="abreve" unicode="&#x103;" horiz-adv-x="529" 
d="M358 79v153h-100q-71 0 -100 -22q-29 -21 -29 -66q0 -87 102 -87q67 0 127 22zM360 29q-74 -43 -150 -43q-71 0 -117.5 39.5t-46.5 114.5q0 67 39 106q49 50 164 50q37 0 109 -4v43q0 53 -22 74t-92 21h-152v52q82 22 177 22q92 0 135 -45q35 -36 35 -112v-286h66v-60
q-59 -7 -92 -7q-45 0 -53 35zM264 585q-127 0 -136 139l52 6q12 -80 84 -80t84 80l52 -6q-9 -139 -136 -139z" />
    <glyph glyph-name="Aogonek" unicode="&#x104;" horiz-adv-x="641" 
d="M438 -121q0 63 56 121h-64v66h61l-48 139h-263l-44 -139h55v-66h-191v66h57l203 618h75q13 0 18 -4t10 -17l218 -597h56v-66h-89q-42 -60 -42 -114q0 -30 18.5 -46t64.5 -16h41v-46q-37 -10 -75 -10q-54 0 -85.5 29.5t-31.5 81.5zM305 594l-103 -320h217z" />
    <glyph glyph-name="aogonek" unicode="&#x105;" horiz-adv-x="529" 
d="M313 -121q0 36 19.5 68.5t50.5 52.5q-17 7 -23 29q-74 -43 -150 -43q-71 0 -117.5 39.5t-46.5 114.5q0 67 39 106q49 50 164 50q37 0 109 -4v43q0 53 -22 74t-92 21h-152v52q82 22 177 22q92 0 135 -45q35 -36 35 -112v-286h66v-60q-61 -3 -92.5 -39t-31.5 -76
q0 -30 18.5 -46t64.5 -16h41v-46q-37 -10 -75 -10q-55 0 -86 29t-31 82zM358 79v153h-100q-71 0 -100 -22q-29 -21 -29 -66q0 -87 102 -87q67 0 127 22z" />
    <glyph glyph-name="Cacute" unicode="&#x106;" horiz-adv-x="579" 
d="M461 525q-4 9 -9.5 42t-5.5 50q-47 5 -75 5q-115 0 -170.5 -67t-55.5 -213q0 -155 62 -221q57 -61 208 -61h106v-61q-73 -13 -138 -13q-169 0 -243 83q-84 93 -84 272q0 174 83 265t228 91q79 0 142 -18q16 -4 16 -21v-133h-64zM285 749l-31 39l143 137q12 12 20.5 12
t17.5 -12l32 -44z" />
    <glyph glyph-name="cacute" unicode="&#x107;" horiz-adv-x="465" 
d="M425 57v-51q-71 -20 -137 -20q-119 0 -182 69t-63 191q0 123 69 194q62 64 178 64q60 0 120 -14q16 -4 16 -21v-111h-62q-12 29 -14 75q-24 3 -49 3q-87 0 -127 -41q-47 -49 -47 -148q0 -100 43 -144q45 -46 152 -46h103zM217 579l-31 39l143 137q12 12 20.5 12t17.5 -12
l32 -44z" />
    <glyph glyph-name="Ccircumflex" unicode="&#x108;" horiz-adv-x="579" 
d="M461 525q-4 9 -9.5 42t-5.5 50q-47 5 -75 5q-115 0 -170.5 -67t-55.5 -213q0 -155 62 -221q57 -61 208 -61h106v-61q-73 -13 -138 -13q-169 0 -243 83q-84 93 -84 272q0 174 83 265t228 91q79 0 142 -18q16 -4 16 -21v-133h-64zM341 923h16q19 0 29.5 -5.5t23.5 -23.5
l91 -111l-33 -28l-119 103l-119 -103l-33 28l91 111q13 18 23.5 23.5t29.5 5.5z" />
    <glyph glyph-name="ccircumflex" unicode="&#x109;" horiz-adv-x="465" 
d="M425 57v-51q-71 -20 -137 -20q-119 0 -182 69t-63 191q0 123 69 194q62 64 178 64q60 0 120 -14q16 -4 16 -21v-111h-62q-12 29 -14 75q-24 3 -49 3q-87 0 -127 -41q-47 -49 -47 -148q0 -100 43 -144q45 -46 152 -46h103zM268 753h16q19 0 29.5 -5.5t23.5 -23.5l91 -111
l-33 -28l-119 103l-119 -103l-33 28l91 111q13 18 23.5 23.5t29.5 5.5z" />
    <glyph glyph-name="Cdotaccent" unicode="&#x10a;" horiz-adv-x="579" 
d="M461 525q-4 9 -9.5 42t-5.5 50q-47 5 -75 5q-115 0 -170.5 -67t-55.5 -213q0 -155 62 -221q57 -61 208 -61h106v-61q-73 -13 -138 -13q-169 0 -243 83q-84 93 -84 272q0 174 83 265t228 91q79 0 142 -18q16 -4 16 -21v-133h-64zM362 777h-6q-52 0 -52 56v2q0 56 52 56h6
q52 0 52 -56v-2q0 -56 -52 -56z" />
    <glyph glyph-name="cdotaccent" unicode="&#x10b;" horiz-adv-x="465" 
d="M425 57v-51q-71 -20 -137 -20q-119 0 -182 69t-63 191q0 123 69 194q62 64 178 64q60 0 120 -14q16 -4 16 -21v-111h-62q-12 29 -14 75q-24 3 -49 3q-87 0 -127 -41q-47 -49 -47 -148q0 -100 43 -144q45 -46 152 -46h103zM293 587h-6q-52 0 -52 56v2q0 56 52 56h6
q52 0 52 -56v-2q0 -56 -52 -56z" />
    <glyph glyph-name="Ccaron" unicode="&#x10c;" horiz-adv-x="579" 
d="M461 525q-4 9 -9.5 42t-5.5 50q-47 5 -75 5q-115 0 -170.5 -67t-55.5 -213q0 -155 62 -221q57 -61 208 -61h106v-61q-73 -13 -138 -13q-169 0 -243 83q-84 93 -84 272q0 174 83 265t228 91q79 0 142 -18q16 -4 16 -21v-133h-64zM357 759h-16q-19 0 -29.5 5.5t-23.5 23.5
l-91 111l33 28l119 -103l119 103l33 -28l-91 -111q-13 -18 -23.5 -23.5t-29.5 -5.5z" />
    <glyph glyph-name="ccaron" unicode="&#x10d;" horiz-adv-x="465" 
d="M425 57v-51q-71 -20 -137 -20q-119 0 -182 69t-63 191q0 123 69 194q62 64 178 64q60 0 120 -14q16 -4 16 -21v-111h-62q-12 29 -14 75q-24 3 -49 3q-87 0 -127 -41q-47 -49 -47 -148q0 -100 43 -144q45 -46 152 -46h103zM286 589h-16q-19 0 -29.5 5.5t-23.5 23.5
l-91 111l33 28l119 -103l119 103l33 -28l-91 -111q-13 -18 -23.5 -23.5t-29.5 -5.5z" />
    <glyph glyph-name="Dcaron" unicode="&#x10e;" horiz-adv-x="684" 
d="M315 0h-253v66h69v552h-69v66h234q179 0 254 -78q78 -81 78 -260q0 -189 -78 -271q-72 -75 -235 -75zM218 616v-548h98q117 0 168 55q56 61 56 223q0 154 -61 215q-55 55 -182 55h-79zM350 759h-16q-19 0 -29.5 5.5t-23.5 23.5l-91 111l33 28l119 -103l119 103l33 -28
l-91 -111q-13 -18 -23.5 -23.5t-29.5 -5.5z" />
    <glyph glyph-name="dcaron" unicode="&#x10f;" horiz-adv-x="627" 
d="M380 29v1q-80 -44 -147 -44q-91 0 -139 68.5t-48 193.5q0 119 51.5 187.5t141.5 68.5q65 0 137 -36v190h-68v60q66 6 93 6q31 0 45 -14q11 -11 11 -40v-609h66v-60q-59 -7 -92 -7q-43 0 -51 35zM255 60q64 0 121 23v329q-72 18 -116 18q-130 0 -130 -181
q0 -104 30.5 -146.5t94.5 -42.5zM568 482h-23v115q-40 7 -40 50v2q0 23 13 35.5t35 12.5h1q28 0 40.5 -15t12.5 -50q0 -64 -19 -136q-4 -14 -20 -14z" />
    <glyph glyph-name="Dcroat" unicode="&#x110;" horiz-adv-x="691" 
d="M50 314v56l88 11v237h-69v66h234q179 0 254 -78q78 -81 78 -260q0 -189 -78 -271q-72 -75 -235 -75h-253v66h69v248h-88zM225 616v-233h139v-69h-139v-246h98q117 0 168 55q56 61 56 223q0 154 -61 215q-55 55 -182 55h-79z" />
    <glyph glyph-name="dcroat" unicode="&#x111;" horiz-adv-x="551" 
d="M539 553h-82v-492h66v-60q-59 -7 -92 -7q-43 0 -51 35v1q-80 -44 -147 -44q-91 0 -139 68.5t-48 193.5q0 119 51.5 187.5t141.5 68.5q65 0 137 -36v85h-164v58h164v47h-68v60q66 6 93 6q31 0 45 -14q11 -11 11 -40v-61l82 -7v-49zM255 60q64 0 121 23v329q-72 18 -116 18
q-130 0 -130 -181q0 -104 30.5 -146.5t94.5 -42.5z" />
    <glyph glyph-name="Emacron" unicode="&#x112;" horiz-adv-x="603" 
d="M528 0h-466v66h69v552h-69v66h461q14 0 18.5 -3t4.5 -10v-147h-59q-16 43 -16 94h-253v-234h192q10 0 13 -1.5t3 -7.5v-62h-208v-247h258q0 52 16 95h59v-148q0 -7 -4.5 -10t-18.5 -3zM456 798h-270v70h270v-70z" />
    <glyph glyph-name="emacron" unicode="&#x113;" horiz-adv-x="506" 
d="M449 220h-322q3 -82 39 -119q41 -44 151 -44h124v-50q-75 -21 -154 -21q-123 0 -181 63q-63 67 -63 197q0 117 56.5 187.5t157.5 70.5q97 0 150 -65.5t53 -180.5v-29q0 -9 -11 -9zM128 284h255q-11 152 -126 152q-62 0 -94.5 -42.5t-34.5 -109.5zM398 618h-270v70h270
v-70z" />
    <glyph glyph-name="Ebreve" unicode="&#x114;" horiz-adv-x="603" 
d="M528 0h-466v66h69v552h-69v66h461q14 0 18.5 -3t4.5 -10v-147h-59q-16 43 -16 94h-253v-234h192q10 0 13 -1.5t3 -7.5v-62h-208v-247h258q0 52 16 95h59v-148q0 -7 -4.5 -10t-18.5 -3zM321 755q-127 0 -136 139l52 6q12 -80 84 -80t84 80l52 -6q-9 -139 -136 -139z" />
    <glyph glyph-name="ebreve" unicode="&#x115;" horiz-adv-x="506" 
d="M449 220h-322q3 -82 39 -119q41 -44 151 -44h124v-50q-75 -21 -154 -21q-123 0 -181 63q-63 67 -63 197q0 117 56.5 187.5t157.5 70.5q97 0 150 -65.5t53 -180.5v-29q0 -9 -11 -9zM128 284h255q-11 152 -126 152q-62 0 -94.5 -42.5t-34.5 -109.5zM261 585
q-127 0 -136 139l52 6q12 -80 84 -80t84 80l52 -6q-9 -139 -136 -139z" />
    <glyph glyph-name="Edotaccent" unicode="&#x116;" horiz-adv-x="603" 
d="M528 0h-466v66h69v552h-69v66h461q14 0 18.5 -3t4.5 -10v-147h-59q-16 43 -16 94h-253v-234h192q10 0 13 -1.5t3 -7.5v-62h-208v-247h258q0 52 16 95h59v-148q0 -7 -4.5 -10t-18.5 -3zM324 777h-6q-52 0 -52 56v2q0 56 52 56h6q52 0 52 -56v-2q0 -56 -52 -56z" />
    <glyph glyph-name="edotaccent" unicode="&#x117;" horiz-adv-x="506" 
d="M449 220h-322q3 -82 39 -119q41 -44 151 -44h124v-50q-75 -21 -154 -21q-123 0 -181 63q-63 67 -63 197q0 117 56.5 187.5t157.5 70.5q97 0 150 -65.5t53 -180.5v-29q0 -9 -11 -9zM128 284h255q-11 152 -126 152q-62 0 -94.5 -42.5t-34.5 -109.5zM260 587h-6
q-52 0 -52 56v2q0 56 52 56h6q52 0 52 -56v-2q0 -56 -52 -56z" />
    <glyph glyph-name="Eogonek" unicode="&#x118;" horiz-adv-x="603" 
d="M357 -121q0 65 54 121h-349v66h69v552h-69v66h461q14 0 18.5 -3t4.5 -10v-147h-59q-16 43 -16 94h-253v-234h192q10 0 13 -1.5t3 -7.5v-62h-208v-247h258q0 52 16 95h59v-148q0 -7 -4.5 -10t-18.5 -3h-60q-43 -61 -43 -114q0 -30 18.5 -46t64.5 -16h41v-46
q-37 -10 -75 -10q-54 0 -85.5 29.5t-31.5 81.5z" />
    <glyph glyph-name="eogonek" unicode="&#x119;" horiz-adv-x="506" 
d="M268 -121q0 65 46 108q-4 0 -13 -0.5t-14 -0.5q-123 0 -181 63q-63 67 -63 197q0 117 56.5 187.5t157.5 70.5q97 0 150 -65.5t53 -180.5v-29q0 -9 -11 -9h-322q3 -82 39 -119q41 -44 151 -44h124v-50q-54 -16 -77 -41q-28 -31 -28 -80q0 -30 18.5 -46t64.5 -16h41v-46
q-37 -10 -75 -10q-54 0 -85.5 29.5t-31.5 81.5zM128 284h255q-11 152 -126 152q-62 0 -94.5 -42.5t-34.5 -109.5z" />
    <glyph glyph-name="Ecaron" unicode="&#x11a;" horiz-adv-x="603" 
d="M528 0h-466v66h69v552h-69v66h461q14 0 18.5 -3t4.5 -10v-147h-59q-16 43 -16 94h-253v-234h192q10 0 13 -1.5t3 -7.5v-62h-208v-247h258q0 52 16 95h59v-148q0 -7 -4.5 -10t-18.5 -3zM339 759h-16q-19 0 -29.5 5.5t-23.5 23.5l-91 111l33 28l119 -103l119 103l33 -28
l-91 -111q-13 -18 -23.5 -23.5t-29.5 -5.5z" />
    <glyph glyph-name="ecaron" unicode="&#x11b;" horiz-adv-x="506" 
d="M449 220h-322q3 -82 39 -119q41 -44 151 -44h124v-50q-75 -21 -154 -21q-123 0 -181 63q-63 67 -63 197q0 117 56.5 187.5t157.5 70.5q97 0 150 -65.5t53 -180.5v-29q0 -9 -11 -9zM128 284h255q-11 152 -126 152q-62 0 -94.5 -42.5t-34.5 -109.5zM265 589h-16
q-19 0 -29.5 5.5t-23.5 23.5l-91 111l33 28l119 -103l119 103l33 -28l-91 -111q-13 -18 -23.5 -23.5t-29.5 -5.5z" />
    <glyph glyph-name="Gcircumflex" unicode="&#x11c;" horiz-adv-x="656" 
d="M555 527h-64q-10 18 -15 92q-40 5 -97 5q-118 0 -172 -60q-63 -71 -63 -223q0 -143 47 -212t148 -69q76 0 148 25v181h-106v66h191v-332h-61q-10 12 -15 31q-78 -45 -173 -45q-134 0 -200.5 92t-66.5 262q0 183 90 276q80 81 226 81q89 0 167 -18q16 -4 16 -22v-130z
M350 923h16q19 0 29.5 -5.5t23.5 -23.5l91 -111l-33 -28l-119 103l-119 -103l-33 28l91 111q13 18 23.5 23.5t29.5 5.5z" />
    <glyph glyph-name="gcircumflex" unicode="&#x11d;" horiz-adv-x="513" 
d="M459 320q0 -86 -51.5 -135t-148.5 -49q-47 0 -83 12l-18 -75h152q102 0 144 -39q40 -37 40 -108q0 -84 -61 -124.5t-169 -40.5h-11q-99 0 -155.5 41.5t-56.5 112.5q0 55 44 105q-8 9 -8 27q0 43 56 120q-74 48 -74 153q0 86 51.5 135t148.5 49q71 0 119 -28l47 76
q43 -22 64 -45l-64 -73q34 -46 34 -114zM381 320q0 57 -28 87t-94 30t-94 -30t-28 -87t28 -87t94 -30t94 30t28 87zM146 -2q-11 0 -16 1v-2q-9 -43 -9 -65q0 -100 142 -100h2q150 0 150 89q0 39 -21 57q-23 20 -89 20h-159zM252 753h16q19 0 29.5 -5.5t23.5 -23.5l91 -111
l-33 -28l-119 103l-119 -103l-33 28l91 111q13 18 23.5 23.5t29.5 5.5z" />
    <glyph glyph-name="Gbreve" unicode="&#x11e;" horiz-adv-x="656" 
d="M555 527h-64q-10 18 -15 92q-40 5 -97 5q-118 0 -172 -60q-63 -71 -63 -223q0 -143 47 -212t148 -69q76 0 148 25v181h-106v66h191v-332h-61q-10 12 -15 31q-78 -45 -173 -45q-134 0 -200.5 92t-66.5 262q0 183 90 276q80 81 226 81q89 0 167 -18q16 -4 16 -22v-130z
M358 755q-127 0 -136 139l52 6q12 -80 84 -80t84 80l52 -6q-9 -139 -136 -139z" />
    <glyph glyph-name="gbreve" unicode="&#x11f;" horiz-adv-x="513" 
d="M459 320q0 -86 -51.5 -135t-148.5 -49q-47 0 -83 12l-18 -75h152q102 0 144 -39q40 -37 40 -108q0 -84 -61 -124.5t-169 -40.5h-11q-99 0 -155.5 41.5t-56.5 112.5q0 55 44 105q-8 9 -8 27q0 43 56 120q-74 48 -74 153q0 86 51.5 135t148.5 49q71 0 119 -28l47 76
q43 -22 64 -45l-64 -73q34 -46 34 -114zM381 320q0 57 -28 87t-94 30t-94 -30t-28 -87t28 -87t94 -30t94 30t28 87zM146 -2q-11 0 -16 1v-2q-9 -43 -9 -65q0 -100 142 -100h2q150 0 150 89q0 39 -21 57q-23 20 -89 20h-159zM261 585q-127 0 -136 139l52 6q12 -80 84 -80
t84 80l52 -6q-9 -139 -136 -139z" />
    <glyph glyph-name="Gdotaccent" unicode="&#x120;" horiz-adv-x="656" 
d="M555 527h-64q-10 18 -15 92q-40 5 -97 5q-118 0 -172 -60q-63 -71 -63 -223q0 -143 47 -212t148 -69q76 0 148 25v181h-106v66h191v-332h-61q-10 12 -15 31q-78 -45 -173 -45q-134 0 -200.5 92t-66.5 262q0 183 90 276q80 81 226 81q89 0 167 -18q16 -4 16 -22v-130z
M361 777h-6q-52 0 -52 56v2q0 56 52 56h6q52 0 52 -56v-2q0 -56 -52 -56z" />
    <glyph glyph-name="gdotaccent" unicode="&#x121;" horiz-adv-x="513" 
d="M459 320q0 -86 -51.5 -135t-148.5 -49q-47 0 -83 12l-18 -75h152q102 0 144 -39q40 -37 40 -108q0 -84 -61 -124.5t-169 -40.5h-11q-99 0 -155.5 41.5t-56.5 112.5q0 55 44 105q-8 9 -8 27q0 43 56 120q-74 48 -74 153q0 86 51.5 135t148.5 49q71 0 119 -28l47 76
q43 -22 64 -45l-64 -73q34 -46 34 -114zM381 320q0 57 -28 87t-94 30t-94 -30t-28 -87t28 -87t94 -30t94 30t28 87zM146 -2q-11 0 -16 1v-2q-9 -43 -9 -65q0 -100 142 -100h2q150 0 150 89q0 39 -21 57q-23 20 -89 20h-159zM261 587h-6q-52 0 -52 56v2q0 56 52 56h6
q52 0 52 -56v-2q0 -56 -52 -56z" />
    <glyph glyph-name="Gcommaaccent" unicode="&#x122;" horiz-adv-x="656" 
d="M555 527h-64q-10 18 -15 92q-40 5 -97 5q-118 0 -172 -60q-63 -71 -63 -223q0 -143 47 -212t148 -69q76 0 148 25v181h-106v66h191v-332h-61q-10 12 -15 31q-78 -45 -173 -45q-134 0 -200.5 92t-66.5 262q0 183 90 276q80 81 226 81q89 0 167 -18q16 -4 16 -22v-130z
M369 -288h-23v115q-40 7 -40 50v2q0 23 13 35.5t35 12.5h1q28 0 40.5 -15t12.5 -50q0 -64 -19 -136q-4 -14 -20 -14z" />
    <glyph glyph-name="gcommaaccent" unicode="&#x123;" horiz-adv-x="513" 
d="M459 320q0 -86 -51.5 -135t-148.5 -49q-47 0 -83 12l-18 -75h152q102 0 144 -39q40 -37 40 -108q0 -84 -61 -124.5t-169 -40.5h-11q-99 0 -155.5 41.5t-56.5 112.5q0 55 44 105q-8 9 -8 27q0 43 56 120q-74 48 -74 153q0 86 51.5 135t148.5 49q71 0 119 -28l47 76
q43 -22 64 -45l-64 -73q34 -46 34 -114zM381 320q0 57 -28 87t-94 30t-94 -30t-28 -87t28 -87t94 -30t94 30t28 87zM146 -2q-11 0 -16 1v-2q-9 -43 -9 -65q0 -100 142 -100h2q150 0 150 89q0 39 -21 57q-23 20 -89 20h-159zM247 790h23v-115q40 -7 40 -50v-2
q0 -23 -13 -35.5t-35 -12.5h-1q-28 0 -40.5 15t-12.5 50q0 64 19 136q4 14 20 14z" />
    <glyph glyph-name="Hcircumflex" unicode="&#x124;" horiz-adv-x="738" 
d="M520 618h-69v66h225v-66h-69v-552h69v-66h-225v66h69v247h-302v-247h69v-66h-225v66h69v552h-69v66h225v-66h-69v-234h302v234zM361 923h16q19 0 29.5 -5.5t23.5 -23.5l91 -111l-33 -28l-119 103l-119 -103l-33 28l91 111q13 18 23.5 23.5t29.5 5.5z" />
    <glyph glyph-name="hcircumflex" unicode="&#x125;" horiz-adv-x="576" 
d="M166 670v-207q84 41 161 41q83 0 123 -43q35 -38 35 -117v-283h65v-60q-66 -6 -90 -6q-31 0 -45 14q-11 11 -11 40v276q0 60 -22 82t-81 22q-54 0 -135 -19v-410h-81v658h-68v60q66 6 93 6q31 0 45 -14q11 -11 11 -40zM121 915h16q19 0 29.5 -5.5t23.5 -23.5l91 -111
l-33 -28l-119 103l-119 -103l-33 28l91 111q13 18 23.5 23.5t29.5 5.5z" />
    <glyph glyph-name="Hbar" unicode="&#x126;" horiz-adv-x="738" 
d="M32 545h99v73h-69v66h225v-66h-69v-73h302v73h-69v66h225v-66h-69v-73h99v-65h-99v-414h69v-66h-225v66h69v247h-302v-247h69v-66h-225v66h69v414h-99v65zM218 384h302v96h-302v-96z" />
    <glyph glyph-name="hbar" unicode="&#x127;" horiz-adv-x="576" 
d="M85 611v47h-68v60q66 6 93 6q31 0 45 -14q11 -11 11 -40v-59h164v-58h-164v-90q84 41 161 41q83 0 123 -43q35 -38 35 -117v-283h65v-60q-66 -6 -90 -6q-31 0 -45 14q-11 11 -11 40v276q0 60 -22 82t-81 22q-54 0 -135 -19v-410h-81v553h-82v49z" />
    <glyph glyph-name="Itilde" unicode="&#x128;" horiz-adv-x="353" 
d="M133 66v552h-69v66h225v-66h-69v-552h69v-66h-225v66h69zM275 887l47 -5q-2 -48 -23 -76t-53 -28q-27 0 -70 20t-63 20q-15 0 -23 -8t-12 -29l-47 5q1 48 22.5 76t53.5 28q27 0 70 -20t63 -20q15 0 23 8t12 29z" />
    <glyph glyph-name="itilde" unicode="&#x129;" horiz-adv-x="256" 
d="M180 440v-440h-81v428h-70v60q66 6 95 6q31 0 45 -14q11 -11 11 -40zM225 717l47 -5q-2 -48 -23 -76t-53 -28q-27 0 -70 20t-63 20q-15 0 -23 -8t-12 -29l-47 5q1 48 22.5 76t53.5 28q27 0 70 -20t63 -20q15 0 23 8t12 29z" />
    <glyph glyph-name="Imacron" unicode="&#x12a;" horiz-adv-x="353" 
d="M133 66v552h-69v66h225v-66h-69v-552h69v-66h-225v66h69zM312 798h-270v70h270v-70z" />
    <glyph glyph-name="imacron" unicode="&#x12b;" horiz-adv-x="256" 
d="M180 440v-440h-81v428h-70v60q66 6 95 6q31 0 45 -14q11 -11 11 -40zM261 618h-270v70h270v-70z" />
    <glyph glyph-name="Ibreve" unicode="&#x12c;" horiz-adv-x="353" 
d="M133 66v552h-69v66h225v-66h-69v-552h69v-66h-225v66h69zM177 755q-127 0 -136 139l52 6q12 -80 84 -80t84 80l52 -6q-9 -139 -136 -139z" />
    <glyph glyph-name="ibreve" unicode="&#x12d;" horiz-adv-x="256" 
d="M180 440v-440h-81v428h-70v60q66 6 95 6q31 0 45 -14q11 -11 11 -40zM128 585q-127 0 -136 139l52 6q12 -80 84 -80t84 80l52 -6q-9 -139 -136 -139z" />
    <glyph glyph-name="Iogonek" unicode="&#x12e;" horiz-adv-x="353" 
d="M97 -121q0 63 56 121h-89v66h69v552h-69v66h225v-66h-69v-552h69v-66h-82q-42 -60 -42 -114q0 -30 18.5 -46t64.5 -16h41v-46q-37 -10 -75 -10q-54 0 -85.5 29.5t-31.5 81.5z" />
    <glyph glyph-name="iogonek" unicode="&#x12f;" horiz-adv-x="256" 
d="M32 -121q0 71 67 131v418h-70v60q66 6 95 6q31 0 45 -14q11 -11 11 -40v-440h-24q-14 0 -26 -19q-30 -46 -30 -95q0 -30 18.5 -46t64.5 -16h41v-46q-37 -10 -75 -10q-54 0 -85.5 29.5t-31.5 81.5zM138 591h-6q-49 0 -49 53v3q0 53 49 53h6q49 0 49 -53v-3q0 -53 -49 -53z
" />
    <glyph glyph-name="Idotaccent" unicode="&#x130;" horiz-adv-x="353" 
d="M133 66v552h-69v66h225v-66h-69v-552h69v-66h-225v66h69zM180 777h-6q-52 0 -52 56v2q0 56 52 56h6q52 0 52 -56v-2q0 -56 -52 -56z" />
    <glyph glyph-name="dotlessi" unicode="&#x131;" horiz-adv-x="256" 
d="M180 440v-440h-81v428h-70v60q66 6 95 6q31 0 45 -14q11 -11 11 -40z" />
    <glyph glyph-name="IJ" unicode="&#x132;" horiz-adv-x="802" 
d="M133 66v552h-69v66h225v-66h-69v-552h69v-66h-225v66h69zM409 58h81q75 0 103 25q26 24 26 87v448h-170v66h257v-506q0 -105 -50 -152q-43 -40 -129 -40q-59 0 -118 9v63z" />
    <glyph glyph-name="ij" unicode="&#x133;" horiz-adv-x="512" 
d="M138 591h-6q-49 0 -49 53v3q0 53 49 53h6q49 0 49 -53v-3q0 -53 -49 -53zM180 440v-440h-81v428h-70v60q66 6 95 6q31 0 45 -14q11 -11 11 -40zM394 591h-6q-49 0 -49 53v3q0 53 49 53h6q49 0 49 -53v-3q0 -53 -49 -53zM436 440v-504q0 -87 -32 -125q-33 -40 -104 -40
q-40 0 -72 7v61h41q49 0 67 19q19 20 19 81v489h-70v60q66 6 95 6q31 0 45 -14q11 -11 11 -40z" />
    <glyph glyph-name="Jcircumflex" unicode="&#x134;" horiz-adv-x="449" 
d="M56 58h81q75 0 103 25q26 24 26 87v448h-170v66h257v-506q0 -105 -50 -152q-43 -40 -129 -40q-60 0 -118 9v63zM226 923h16q19 0 29.5 -5.5t23.5 -23.5l91 -111l-33 -28l-119 103l-119 -103l-33 28l91 111q13 18 23.5 23.5t29.5 5.5z" />
    <glyph glyph-name="jcircumflex" unicode="&#x135;" horiz-adv-x="256" 
d="M180 440v-504q0 -87 -32 -125q-33 -40 -104 -40q-41 0 -72 7v61h41q49 0 67 19q19 20 19 81v489h-70v60q66 6 95 6q31 0 45 -14q11 -11 11 -40zM118 753h16q19 0 29.5 -5.5t23.5 -23.5l91 -111l-33 -28l-119 103l-119 -103l-33 28l91 111q13 18 23.5 23.5t29.5 5.5z" />
    <glyph glyph-name="Kcommaaccent" unicode="&#x136;" horiz-adv-x="665" 
d="M131 66v552h-69v66h225v-66h-69v-276l269 309q17 20 31.5 26.5t38.5 6.5h82v-66h-76l-197 -214l201 -338h80v-64q-52 -5 -94 -5q-27 0 -40 8.5t-27 31.5l-178 304l-90 -98v-177h69v-66h-225v66h69zM394 -288h-23v115q-40 7 -40 50v2q0 23 13 35.5t35 12.5h1
q28 0 40.5 -15t12.5 -50q0 -64 -19 -136q-4 -14 -20 -14z" />
    <glyph glyph-name="kcommaaccent" unicode="&#x137;" horiz-adv-x="534" 
d="M166 670v-414l180 200q20 22 34.5 28t42.5 6h65v-62h-69l-117 -121l155 -246h62v-58q-57 -6 -76 -6q-23 0 -35 6.5t-24 25.5l-137 221l-81 -80v-170h-81v658h-68v60q66 6 93 6q31 0 45 -14q11 -11 11 -40zM307 -288h-23v115q-40 7 -40 50v2q0 23 13 35.5t35 12.5h1
q28 0 40.5 -15t12.5 -50q0 -64 -19 -136q-4 -14 -20 -14z" />
    <glyph glyph-name="kgreenlandic" unicode="&#x138;" horiz-adv-x="545" 
d="M177 440v-184l180 200q20 22 34.5 28t42.5 6h65v-62h-69l-117 -121l155 -246h62v-58q-57 -6 -76 -6q-23 0 -35 6.5t-24 25.5l-137 221l-81 -80v-170h-81v428h-68v59q51 7 93 7q31 0 45 -14q11 -11 11 -40z" />
    <glyph glyph-name="Lacute" unicode="&#x139;" horiz-adv-x="573" 
d="M218 66h250q0 52 16 95h59v-148q0 -7 -4.5 -10t-18.5 -3h-458v66h69v552h-69v66h225v-66h-69v-552zM114 749l-31 39l143 137q12 12 20.5 12t17.5 -12l32 -44z" />
    <glyph glyph-name="lacute" unicode="&#x13a;" horiz-adv-x="242" 
d="M166 670v-670h-81v658h-68v60q66 6 93 6q31 0 45 -14q11 -11 11 -40zM36 766l-31 39l143 137q12 12 20.5 12t17.5 -12l32 -44z" />
    <glyph glyph-name="Lcommaaccent" unicode="&#x13b;" horiz-adv-x="573" 
d="M218 66h250q0 52 16 95h59v-148q0 -7 -4.5 -10t-18.5 -3h-458v66h69v552h-69v66h225v-66h-69v-552zM330 -288h-23v115q-40 7 -40 50v2q0 23 13 35.5t35 12.5h1q28 0 40.5 -15t12.5 -50q0 -64 -19 -136q-4 -14 -20 -14z" />
    <glyph glyph-name="lcommaaccent" unicode="&#x13c;" horiz-adv-x="242" 
d="M166 670v-670h-81v658h-68v60q66 6 93 6q31 0 45 -14q11 -11 11 -40zM136 -288h-23v115q-40 7 -40 50v2q0 23 13 35.5t35 12.5h1q28 0 40.5 -15t12.5 -50q0 -64 -19 -136q-4 -14 -20 -14z" />
    <glyph glyph-name="Lcaron" unicode="&#x13d;" horiz-adv-x="573" 
d="M218 66h250q0 52 16 95h59v-148q0 -7 -4.5 -10t-18.5 -3h-458v66h69v552h-69v66h225v-66h-69v-552zM404 482h-23v115q-40 7 -40 50v2q0 23 13 35.5t35 12.5h1q28 0 40.5 -15t12.5 -50q0 -64 -19 -136q-4 -14 -20 -14z" />
    <glyph glyph-name="lcaron" unicode="&#x13e;" horiz-adv-x="336" 
d="M166 670v-670h-81v658h-68v60q66 6 93 6q31 0 45 -14q11 -11 11 -40zM277 482h-23v115q-40 7 -40 50v2q0 23 13 35.5t35 12.5h1q28 0 40.5 -15t12.5 -50q0 -64 -19 -136q-4 -14 -20 -14z" />
    <glyph glyph-name="Ldot" unicode="&#x13f;" horiz-adv-x="573" 
d="M218 66h250q0 52 16 95h59v-148q0 -7 -4.5 -10t-18.5 -3h-458v66h69v552h-69v66h225v-66h-69v-552zM416 293h-6q-52 0 -52 56v2q0 56 52 56h6q52 0 52 -56v-2q0 -56 -52 -56z" />
    <glyph glyph-name="ldot" unicode="&#x140;" horiz-adv-x="357" 
d="M166 670v-670h-81v658h-68v60q66 6 93 6q31 0 45 -14q11 -11 11 -40zM297 294h-6q-52 0 -52 56v2q0 56 52 56h6q52 0 52 -56v-2q0 -56 -52 -56z" />
    <glyph glyph-name="Lslash" unicode="&#x141;" horiz-adv-x="573" 
d="M218 66h250q0 52 16 95h59v-148q0 -7 -4.5 -10t-18.5 -3h-458v66h69v171l-65 -42l-32 54l97 64v305h-69v66h225v-66h-69v-248l142 94l32 -55l-174 -115v-228z" />
    <glyph glyph-name="lslash" unicode="&#x142;" horiz-adv-x="310" 
d="M191 670v-239l87 58l32 -55l-119 -79v-355h-81v302l-58 -38l-32 54l90 59v281h-68v60q66 6 93 6q31 0 45 -14q11 -11 11 -40z" />
    <glyph glyph-name="Nacute" unicode="&#x143;" horiz-adv-x="763" 
d="M154 684q24 0 34.5 -4.5t22.5 -21.5l360 -510v470h-69v66h213v-66h-69v-618h-64l-376 537v-471h69v-66h-213v66h69v552h-69v66h92zM326 749l-31 39l143 137q12 12 20.5 12t17.5 -12l32 -44z" />
    <glyph glyph-name="nacute" unicode="&#x144;" horiz-adv-x="587" 
d="M496 61h65v-60q-66 -6 -90 -6q-31 0 -45 14q-11 11 -11 40v276q0 60 -22 82t-81 22q-54 0 -135 -19v-410h-81v428h-68v59q60 7 94 7q46 0 54 -31q84 41 162 41q83 0 123 -43q35 -38 35 -117v-283zM246 579l-31 39l143 137q12 12 20.5 12t17.5 -12l32 -44z" />
    <glyph glyph-name="Ncommaaccent" unicode="&#x145;" horiz-adv-x="763" 
d="M154 684q24 0 34.5 -4.5t22.5 -21.5l360 -510v470h-69v66h213v-66h-69v-618h-64l-376 537v-471h69v-66h-213v66h69v552h-69v66h92zM403 -288h-23v115q-40 7 -40 50v2q0 23 13 35.5t35 12.5h1q28 0 40.5 -15t12.5 -50q0 -64 -19 -136q-4 -14 -20 -14z" />
    <glyph glyph-name="ncommaaccent" unicode="&#x146;" horiz-adv-x="587" 
d="M496 61h65v-60q-66 -6 -90 -6q-31 0 -45 14q-11 11 -11 40v276q0 60 -22 82t-81 22q-54 0 -135 -19v-410h-81v428h-68v59q60 7 94 7q46 0 54 -31q84 41 162 41q83 0 123 -43q35 -38 35 -117v-283zM318 -288h-23v115q-40 7 -40 50v2q0 23 13 35.5t35 12.5h1q28 0 40.5 -15
t12.5 -50q0 -64 -19 -136q-4 -14 -20 -14z" />
    <glyph glyph-name="Ncaron" unicode="&#x147;" horiz-adv-x="763" 
d="M154 684q24 0 34.5 -4.5t22.5 -21.5l360 -510v470h-69v66h213v-66h-69v-618h-64l-376 537v-471h69v-66h-213v66h69v552h-69v66h92zM389 759h-16q-19 0 -29.5 5.5t-23.5 23.5l-91 111l33 28l119 -103l119 103l33 -28l-91 -111q-13 -18 -23.5 -23.5t-29.5 -5.5z" />
    <glyph glyph-name="ncaron" unicode="&#x148;" horiz-adv-x="587" 
d="M496 61h65v-60q-66 -6 -90 -6q-31 0 -45 14q-11 11 -11 40v276q0 60 -22 82t-81 22q-54 0 -135 -19v-410h-81v428h-68v59q60 7 94 7q46 0 54 -31q84 41 162 41q83 0 123 -43q35 -38 35 -117v-283zM326 589h-16q-19 0 -29.5 5.5t-23.5 23.5l-91 111l33 28l119 -103
l119 103l33 -28l-91 -111q-13 -18 -23.5 -23.5t-29.5 -5.5z" />
    <glyph glyph-name="napostrophe" unicode="&#x149;" horiz-adv-x="732" 
d="M641 61h65v-60q-66 -6 -90 -6q-31 0 -45 14q-11 11 -11 40v276q0 60 -22 82t-81 22q-54 0 -135 -19v-410h-81v428h-68v59q59 7 94 7q46 0 54 -31q84 41 162 41q83 0 123 -43q35 -38 35 -117v-283zM87 458h-20v125q-47 10 -47 57v3q0 54 51 54h1q30 0 43.5 -16t13.5 -53
q0 -77 -21 -155q-4 -15 -21 -15z" />
    <glyph glyph-name="Eng" unicode="&#x14a;" horiz-adv-x="763" 
d="M546 -92q25 24 25 87v20l-365 522v-471h69v-66h-213v66h69v552h-69v66h92q24 0 34.5 -4.5t22.5 -21.5l360 -510v470h-69v66h213v-66h-69v-623q0 -100 -47 -144q-40 -37 -112 -37q-57 0 -105 11v58h62q74 0 102 25z" />
    <glyph glyph-name="eng" unicode="&#x14b;" horiz-adv-x="565" 
d="M496 344v-408q0 -87 -32 -125q-33 -40 -104 -40q-40 0 -72 7v61h41q49 0 67 19q19 20 19 81v386q0 60 -22 82t-81 22q-54 0 -135 -19v-410h-81v428h-68v59q60 7 94 7q46 0 54 -31q84 41 162 41q83 0 123 -43q35 -38 35 -117z" />
    <glyph glyph-name="Omacron" unicode="&#x14c;" horiz-adv-x="662" 
d="M331 65q100 0 143 70.5t43 205.5t-43 206t-143 71t-143 -71t-43 -206t43 -205.5t143 -70.5zM331 -14q-133 0 -204 90t-71 265t71 265.5t204 90.5t204 -90.5t71 -265.5t-71 -265t-204 -90zM466 798h-270v70h270v-70z" />
    <glyph glyph-name="omacron" unicode="&#x14d;" horiz-adv-x="534" 
d="M491 245q0 -122 -58 -190.5t-166 -68.5t-166 68.5t-58 190.5t58 190.5t166 68.5t166 -68.5t58 -190.5zM407 245q0 93 -33 140t-107 47t-107 -47t-33 -140t33 -140t107 -47t107 47t33 140zM402 618h-270v70h270v-70z" />
    <glyph glyph-name="Obreve" unicode="&#x14e;" horiz-adv-x="662" 
d="M331 65q100 0 143 70.5t43 205.5t-43 206t-143 71t-143 -71t-43 -206t43 -205.5t143 -70.5zM331 -14q-133 0 -204 90t-71 265t71 265.5t204 90.5t204 -90.5t71 -265.5t-71 -265t-204 -90zM331 755q-127 0 -136 139l52 6q12 -80 84 -80t84 80l52 -6q-9 -139 -136 -139z
" />
    <glyph glyph-name="obreve" unicode="&#x14f;" horiz-adv-x="534" 
d="M491 245q0 -122 -58 -190.5t-166 -68.5t-166 68.5t-58 190.5t58 190.5t166 68.5t166 -68.5t58 -190.5zM407 245q0 93 -33 140t-107 47t-107 -47t-33 -140t33 -140t107 -47t107 47t33 140zM267 585q-127 0 -136 139l52 6q12 -80 84 -80t84 80l52 -6q-9 -139 -136 -139z
" />
    <glyph glyph-name="Ohungarumlaut" unicode="&#x150;" horiz-adv-x="662" 
d="M331 65q100 0 143 70.5t43 205.5t-43 206t-143 71t-143 -71t-43 -206t43 -205.5t143 -70.5zM331 -14q-133 0 -204 90t-71 265t71 265.5t204 90.5t204 -90.5t71 -265.5t-71 -265t-204 -90zM190 769l-38 30l110 162q17 24 35 7l40 -36zM363 769l-38 30l110 162q16 24 36 7
l39 -36z" />
    <glyph glyph-name="ohungarumlaut" unicode="&#x151;" horiz-adv-x="534" 
d="M491 245q0 -122 -58 -190.5t-166 -68.5t-166 68.5t-58 190.5t58 190.5t166 68.5t166 -68.5t58 -190.5zM407 245q0 93 -33 140t-107 47t-107 -47t-33 -140t33 -140t107 -47t107 47t33 140zM136 599l-38 30l110 162q17 24 35 7l40 -36zM309 599l-38 30l110 162q16 24 36 7
l39 -36z" />
    <glyph glyph-name="OE" unicode="&#x152;" horiz-adv-x="943" 
d="M403 68h65l-1 548h-64q-138 0 -197 -65q-65 -71 -65 -209t65 -209q59 -65 197 -65zM864 0h-471q-172 0 -255 88q-86 91 -86 254t86 254q83 88 255 88h466q14 0 18.5 -3t4.5 -10v-147h-59q-16 43 -16 94h-253v-234h192q10 0 13 -1.5t3 -7.5v-62h-208v-247h258q0 52 16 95
h59v-148q0 -7 -4.5 -10t-18.5 -3z" />
    <glyph glyph-name="oe" unicode="&#x153;" horiz-adv-x="871" 
d="M814 220h-322q3 -82 39 -119q41 -44 151 -44h124v-50q-75 -21 -154 -21q-123 0 -181 63q-10 10 -22 27q-57 -90 -182 -90q-108 0 -166 68.5t-58 190.5t58 190.5t166 68.5q125 0 183 -92q57 92 173 92q97 0 149.5 -64.5t52.5 -181.5v-29q0 -9 -11 -9zM407 245
q0 93 -33 140t-107 47t-107 -47t-33 -140t33 -140t107 -47t107 47t33 140zM493 284h255q-11 152 -126 152q-62 0 -94.5 -42t-34.5 -110z" />
    <glyph glyph-name="Racute" unicode="&#x154;" horiz-adv-x="656" 
d="M218 66h69v-66h-225v66h69v552h-69v66h277q128 0 178 -47q53 -50 53 -149q0 -168 -133 -203l113 -219h76v-64q-52 -5 -85 -5q-28 0 -43.5 9t-26.5 31l-120 240h-133v-211zM218 618v-272h110q87 0 120 33t33 110q0 69 -34 100q-32 29 -113 29h-116zM282 749l-31 39
l143 137q12 12 20.5 12t17.5 -12l32 -44z" />
    <glyph glyph-name="racute" unicode="&#x155;" horiz-adv-x="351" 
d="M177 409v-409h-81v428h-68v59q60 7 94 7q26 0 38.5 -8t15.5 -31q82 49 141 49q24 0 24 -21v-61h-26q-82 0 -138 -13zM140 579l-31 39l143 137q12 12 20.5 12t17.5 -12l32 -44z" />
    <glyph glyph-name="Rcommaaccent" unicode="&#x156;" horiz-adv-x="656" 
d="M218 66h69v-66h-225v66h69v552h-69v66h277q128 0 178 -47q53 -50 53 -149q0 -168 -133 -203l113 -219h76v-64q-52 -5 -85 -5q-28 0 -43.5 9t-26.5 31l-120 240h-133v-211zM218 618v-272h110q87 0 120 33t33 110q0 69 -34 100q-32 29 -113 29h-116zM381 -288h-23v115
q-40 7 -40 50v2q0 23 13 35.5t35 12.5h1q28 0 40.5 -15t12.5 -50q0 -64 -19 -136q-4 -14 -20 -14z" />
    <glyph glyph-name="rcommaaccent" unicode="&#x157;" horiz-adv-x="351" 
d="M177 409v-409h-81v428h-68v59q60 7 94 7q26 0 38.5 -8t15.5 -31q82 49 141 49q24 0 24 -21v-61h-26q-82 0 -138 -13zM149 -288h-23v115q-40 7 -40 50v2q0 23 13 35.5t35 12.5h1q28 0 40.5 -15t12.5 -50q0 -64 -19 -136q-4 -14 -20 -14z" />
    <glyph glyph-name="Rcaron" unicode="&#x158;" horiz-adv-x="656" 
d="M218 66h69v-66h-225v66h69v552h-69v66h277q128 0 178 -47q53 -50 53 -149q0 -168 -133 -203l113 -219h76v-64q-52 -5 -85 -5q-28 0 -43.5 9t-26.5 31l-120 240h-133v-211zM218 618v-272h110q87 0 120 33t33 110q0 69 -34 100q-32 29 -113 29h-116zM346 759h-16
q-19 0 -29.5 5.5t-23.5 23.5l-91 111l33 28l119 -103l119 103l33 -28l-91 -111q-13 -18 -23.5 -23.5t-29.5 -5.5z" />
    <glyph glyph-name="rcaron" unicode="&#x159;" horiz-adv-x="351" 
d="M177 409v-409h-81v428h-68v59q60 7 94 7q26 0 38.5 -8t15.5 -31q82 49 141 49q24 0 24 -21v-61h-26q-82 0 -138 -13zM224 589h-16q-19 0 -29.5 5.5t-23.5 23.5l-91 111l33 28l119 -103l119 103l33 -28l-91 -111q-13 -18 -23.5 -23.5t-29.5 -5.5z" />
    <glyph glyph-name="Sacute" unicode="&#x15a;" horiz-adv-x="567" 
d="M155 68q48 -10 110 -10q91 0 131 36q34 31 34 85q0 49 -24 74t-101 49l-52 16q-91 28 -133 68q-49 46 -49 124q0 83 53 133q61 57 184 57q83 0 156 -21q16 -4 16 -20v-119h-64q-4 8 -8.5 35t-4.5 44q-45 7 -98 7q-88 0 -124 -36q-27 -27 -27 -71q0 -47 28 -75
q31 -30 99 -50l55 -17q102 -33 140 -77q37 -43 37 -119q0 -86 -52 -136q-61 -60 -194 -60q-106 0 -173 20q-16 5 -16 21v122h64q13 -29 13 -80zM229 749l-31 39l143 137q12 12 20.5 12t17.5 -12l32 -44z" />
    <glyph glyph-name="sacute" unicode="&#x15b;" horiz-adv-x="473" 
d="M64 129h60q9 -28 13 -67q39 -11 98 -11q69 0 97 24q21 18 21 53q0 33 -22 50t-71 29l-58 15q-79 20 -108 49q-35 35 -35 90q0 66 44 102q48 41 144 41q79 0 137 -14q19 -5 19 -23v-97h-60q-9 21 -13 64q-40 5 -82 5q-115 0 -115 -72q0 -30 21.5 -46t71.5 -29l60 -15
q75 -19 107 -51q35 -35 35 -93q0 -67 -42 -104q-49 -43 -150 -43q-89 0 -154 18q-18 5 -18 23v102zM171 579l-31 39l143 137q12 12 20.5 12t17.5 -12l32 -44z" />
    <glyph glyph-name="Scircumflex" unicode="&#x15c;" horiz-adv-x="567" 
d="M155 68q48 -10 110 -10q91 0 131 36q34 31 34 85q0 49 -24 74t-101 49l-52 16q-91 28 -133 68q-49 46 -49 124q0 83 53 133q61 57 184 57q83 0 156 -21q16 -4 16 -20v-119h-64q-4 8 -8.5 35t-4.5 44q-45 7 -98 7q-88 0 -124 -36q-27 -27 -27 -71q0 -47 28 -75
q31 -30 99 -50l55 -17q102 -33 140 -77q37 -43 37 -119q0 -86 -52 -136q-61 -60 -194 -60q-106 0 -173 20q-16 5 -16 21v122h64q13 -29 13 -80zM287 923h16q19 0 29.5 -5.5t23.5 -23.5l91 -111l-33 -28l-119 103l-119 -103l-33 28l91 111q13 18 23.5 23.5t29.5 5.5z" />
    <glyph glyph-name="scircumflex" unicode="&#x15d;" horiz-adv-x="473" 
d="M64 129h60q9 -28 13 -67q39 -11 98 -11q69 0 97 24q21 18 21 53q0 33 -22 50t-71 29l-58 15q-79 20 -108 49q-35 35 -35 90q0 66 44 102q48 41 144 41q79 0 137 -14q19 -5 19 -23v-97h-60q-9 21 -13 64q-40 5 -82 5q-115 0 -115 -72q0 -30 21.5 -46t71.5 -29l60 -15
q75 -19 107 -51q35 -35 35 -93q0 -67 -42 -104q-49 -43 -150 -43q-89 0 -154 18q-18 5 -18 23v102zM231 753h16q19 0 29.5 -5.5t23.5 -23.5l91 -111l-33 -28l-119 103l-119 -103l-33 28l91 111q13 18 23.5 23.5t29.5 5.5z" />
    <glyph glyph-name="Scedilla" unicode="&#x15e;" horiz-adv-x="567" 
d="M155 68q48 -10 110 -10q91 0 131 36q34 31 34 85q0 49 -24 74t-101 49l-52 16q-91 28 -133 68q-49 46 -49 124q0 83 53 133q61 57 184 57q83 0 156 -21q16 -4 16 -20v-119h-64q-4 8 -8.5 35t-4.5 44q-45 7 -98 7q-88 0 -124 -36q-27 -27 -27 -71q0 -47 28 -75
q31 -30 99 -50l55 -17q102 -33 140 -77q37 -43 37 -119q0 -86 -52 -136q-54 -53 -166 -59v-5q0 -13 9.5 -21t43.5 -21q38 -15 55.5 -33.5t17.5 -50.5q0 -41 -27 -68q-29 -28 -86 -28q-50 0 -81 13v43h69q55 0 55 31q0 14 -10.5 22t-42.5 21q-37 15 -49.5 28.5t-12.5 37.5
q0 14 8 30q-94 3 -150 20q-16 5 -16 21v122h64q13 -29 13 -80z" />
    <glyph glyph-name="scedilla" unicode="&#x15f;" horiz-adv-x="473" 
d="M64 129h60q9 -28 13 -67q39 -11 98 -11q69 0 97 24q21 18 21 53q0 33 -22 50t-71 29l-58 15q-79 20 -108 49q-35 35 -35 90q0 66 44 102q48 41 144 41q79 0 137 -14q19 -5 19 -23v-97h-60q-9 21 -13 64q-40 5 -82 5q-115 0 -115 -72q0 -30 21.5 -46t71.5 -29l60 -15
q75 -19 107 -51q35 -35 35 -93q0 -67 -42 -104q-46 -40 -138 -43v-5q0 -13 9.5 -21t43.5 -21q38 -15 55.5 -33.5t17.5 -50.5q0 -41 -27 -68q-29 -28 -86 -28q-50 0 -81 13v43h69q55 0 55 31q0 14 -10.5 22t-42.5 21q-37 15 -49.5 28.5t-12.5 37.5q0 17 9 32q-71 5 -116 17
q-18 5 -18 23v102z" />
    <glyph glyph-name="Scaron" unicode="&#x160;" horiz-adv-x="567" 
d="M155 68q48 -10 110 -10q91 0 131 36q34 31 34 85q0 49 -24 74t-101 49l-52 16q-91 28 -133 68q-49 46 -49 124q0 83 53 133q61 57 184 57q83 0 156 -21q16 -4 16 -20v-119h-64q-4 8 -8.5 35t-4.5 44q-45 7 -98 7q-88 0 -124 -36q-27 -27 -27 -71q0 -47 28 -75
q31 -30 99 -50l55 -17q102 -33 140 -77q37 -43 37 -119q0 -86 -52 -136q-61 -60 -194 -60q-106 0 -173 20q-16 5 -16 21v122h64q13 -29 13 -80zM302 759h-16q-19 0 -29.5 5.5t-23.5 23.5l-91 111l33 28l119 -103l119 103l33 -28l-91 -111q-13 -18 -23.5 -23.5t-29.5 -5.5z
" />
    <glyph glyph-name="scaron" unicode="&#x161;" horiz-adv-x="473" 
d="M64 129h60q9 -28 13 -67q39 -11 98 -11q69 0 97 24q21 18 21 53q0 33 -22 50t-71 29l-58 15q-79 20 -108 49q-35 35 -35 90q0 66 44 102q48 41 144 41q79 0 137 -14q19 -5 19 -23v-97h-60q-9 21 -13 64q-40 5 -82 5q-115 0 -115 -72q0 -30 21.5 -46t71.5 -29l60 -15
q75 -19 107 -51q35 -35 35 -93q0 -67 -42 -104q-49 -43 -150 -43q-89 0 -154 18q-18 5 -18 23v102zM255 589h-16q-19 0 -29.5 5.5t-23.5 23.5l-91 111l33 28l119 -103l119 103l33 -28l-91 -111q-13 -18 -23.5 -23.5t-29.5 -5.5z" />
    <glyph glyph-name="Tcommaaccent" unicode="&#x162;" horiz-adv-x="619" 
d="M55 684h509q14 0 18.5 -3t4.5 -10v-147h-59q-16 43 -16 94h-159v-552h69v-66h-225v66h69v552h-159q0 -51 -16 -94h-59v147q0 7 4.5 10t18.5 3zM321 -288h-23v115q-40 7 -40 50v2q0 23 13 35.5t35 12.5h1q28 0 40.5 -15t12.5 -50q0 -64 -19 -136q-4 -14 -20 -14z" />
    <glyph glyph-name="tcommaaccent" unicode="&#x163;" horiz-adv-x="365" 
d="M98 491v113q41 12 81 14v-128h133v-62h-133v-276q0 -56 14 -74q17 -21 66 -21h91v-53q-49 -18 -110 -18q-71 0 -106 33q-36 35 -36 125v284h-85v48zM239 -288h-23v115q-40 7 -40 50v2q0 23 13 35.5t35 12.5h1q28 0 40.5 -15t12.5 -50q0 -64 -19 -136q-4 -14 -20 -14z" />
    <glyph glyph-name="Tcaron" unicode="&#x164;" horiz-adv-x="619" 
d="M55 684h509q14 0 18.5 -3t4.5 -10v-147h-59q-16 43 -16 94h-159v-552h69v-66h-225v66h69v552h-159q0 -51 -16 -94h-59v147q0 7 4.5 10t18.5 3zM317 759h-16q-19 0 -29.5 5.5t-23.5 23.5l-91 111l33 28l119 -103l119 103l33 -28l-91 -111q-13 -18 -23.5 -23.5t-29.5 -5.5z
" />
    <glyph glyph-name="tcaron" unicode="&#x165;" horiz-adv-x="365" 
d="M98 491v113q41 12 81 14v-128h133v-62h-133v-276q0 -56 14 -74q17 -21 66 -21h91v-53q-49 -18 -110 -18q-71 0 -106 33q-36 35 -36 125v284h-85v48zM288 557h-23v115q-40 7 -40 50v2q0 23 13 35.5t35 12.5h1q28 0 40.5 -15t12.5 -50q0 -64 -19 -136q-4 -14 -20 -14z" />
    <glyph glyph-name="Tbar" unicode="&#x166;" horiz-adv-x="619" 
d="M55 684h509q14 0 18.5 -3t4.5 -10v-147h-59q-16 43 -16 94h-159v-255h149v-64h-149v-233h69v-66h-225v66h69v233h-149v64h149v255h-159q0 -51 -16 -94h-59v147q0 7 4.5 10t18.5 3z" />
    <glyph glyph-name="tbar" unicode="&#x167;" horiz-adv-x="365" 
d="M98 491v113q41 12 81 14v-128h133v-62h-133v-147h124v-58h-124v-71q0 -56 14 -74q17 -21 66 -21h91v-53q-49 -18 -110 -18q-71 0 -106 33q-36 35 -36 125v79h-82v49l82 9v147h-85v48z" />
    <glyph glyph-name="Utilde" unicode="&#x168;" horiz-adv-x="715" 
d="M530 618h-69v66h212v-66h-69v-386q0 -126 -65 -186q-63 -60 -178 -60q-131 0 -193 68q-57 62 -57 186v378h-69v66h225v-66h-69v-375q0 -94 38 -133q43 -46 130 -46q81 0 123 42q41 43 41 131v381zM466 887l47 -5q-2 -48 -23 -76t-53 -28q-27 0 -70 20t-63 20
q-15 0 -23 -8t-12 -29l-47 5q1 48 22.5 76t53.5 28q27 0 70 -20t63 -20q15 0 23 8t12 29z" />
    <glyph glyph-name="utilde" unicode="&#x169;" horiz-adv-x="583" 
d="M172 440v-275q0 -60 22 -82t81 -22t131 19v348h-65v62h146v-429h68v-58q-59 -7 -94 -7q-44 0 -53 31q-84 -41 -159 -41q-83 0 -123 43q-35 38 -35 117v282h-65v60q66 6 90 6q31 0 45 -14q11 -11 11 -40zM380 717l47 -5q-2 -48 -23 -76t-53 -28q-27 0 -70 20t-63 20
q-15 0 -23 -8t-12 -29l-47 5q1 48 22.5 76t53.5 28q27 0 70 -20t63 -20q15 0 23 8t12 29z" />
    <glyph glyph-name="Umacron" unicode="&#x16a;" horiz-adv-x="715" 
d="M530 618h-69v66h212v-66h-69v-386q0 -126 -65 -186q-63 -60 -178 -60q-131 0 -193 68q-57 62 -57 186v378h-69v66h225v-66h-69v-375q0 -94 38 -133q43 -46 130 -46q81 0 123 42q41 43 41 131v381zM503 798h-270v70h270v-70z" />
    <glyph glyph-name="umacron" unicode="&#x16b;" horiz-adv-x="583" 
d="M172 440v-275q0 -60 22 -82t81 -22t131 19v348h-65v62h146v-429h68v-58q-59 -7 -94 -7q-44 0 -53 31q-84 -41 -159 -41q-83 0 -123 43q-35 38 -35 117v282h-65v60q66 6 90 6q31 0 45 -14q11 -11 11 -40zM426 618h-270v70h270v-70z" />
    <glyph glyph-name="Ubreve" unicode="&#x16c;" horiz-adv-x="715" 
d="M530 618h-69v66h212v-66h-69v-386q0 -126 -65 -186q-63 -60 -178 -60q-131 0 -193 68q-57 62 -57 186v378h-69v66h225v-66h-69v-375q0 -94 38 -133q43 -46 130 -46q81 0 123 42q41 43 41 131v381zM367 755q-127 0 -136 139l52 6q12 -80 84 -80t84 80l52 -6
q-9 -139 -136 -139z" />
    <glyph glyph-name="ubreve" unicode="&#x16d;" horiz-adv-x="583" 
d="M172 440v-275q0 -60 22 -82t81 -22t131 19v348h-65v62h146v-429h68v-58q-59 -7 -94 -7q-44 0 -53 31q-84 -41 -159 -41q-83 0 -123 43q-35 38 -35 117v282h-65v60q66 6 90 6q31 0 45 -14q11 -11 11 -40zM288 585q-127 0 -136 139l52 6q12 -80 84 -80t84 80l52 -6
q-9 -139 -136 -139z" />
    <glyph glyph-name="Uring" unicode="&#x16e;" horiz-adv-x="715" 
d="M530 618h-69v66h212v-66h-69v-386q0 -126 -65 -186q-63 -60 -178 -60q-131 0 -193 68q-57 62 -57 186v378h-69v66h225v-66h-69v-375q0 -94 38 -133q43 -46 130 -46q81 0 123 42q41 43 41 131v381zM311 862q0 -34 11 -47t44 -13h3q33 0 44 13t11 47t-11 47t-44 13h-3
q-33 0 -44 -13t-11 -47zM252 860v4q0 113 114 113h3q114 0 114 -113v-4q0 -113 -114 -113h-3q-114 0 -114 113z" />
    <glyph glyph-name="uring" unicode="&#x16f;" horiz-adv-x="583" 
d="M172 440v-275q0 -60 22 -82t81 -22t131 19v348h-65v62h146v-429h68v-58q-59 -7 -94 -7q-44 0 -53 31q-84 -41 -159 -41q-83 0 -123 43q-35 38 -35 117v282h-65v60q66 6 90 6q31 0 45 -14q11 -11 11 -40zM226 692q0 -34 11 -47t44 -13h3q33 0 44 13t11 47t-11 47t-44 13
h-3q-33 0 -44 -13t-11 -47zM167 690v4q0 113 114 113h3q114 0 114 -113v-4q0 -113 -114 -113h-3q-114 0 -114 113z" />
    <glyph glyph-name="Uhungarumlaut" unicode="&#x170;" horiz-adv-x="715" 
d="M530 618h-69v66h212v-66h-69v-386q0 -126 -65 -186q-63 -60 -178 -60q-131 0 -193 68q-57 62 -57 186v378h-69v66h225v-66h-69v-375q0 -94 38 -133q43 -46 130 -46q81 0 123 42q41 43 41 131v381zM246 769l-38 30l110 162q17 24 35 7l40 -36zM419 769l-38 30l110 162
q16 24 36 7l39 -36z" />
    <glyph glyph-name="uhungarumlaut" unicode="&#x171;" horiz-adv-x="583" 
d="M172 440v-275q0 -60 22 -82t81 -22t131 19v348h-65v62h146v-429h68v-58q-59 -7 -94 -7q-44 0 -53 31q-84 -41 -159 -41q-83 0 -123 43q-35 38 -35 117v282h-65v60q66 6 90 6q31 0 45 -14q11 -11 11 -40zM161 599l-38 30l110 162q17 24 35 7l40 -36zM334 599l-38 30
l110 162q16 24 36 7l39 -36z" />
    <glyph glyph-name="Uogonek" unicode="&#x172;" horiz-adv-x="715" 
d="M292 -121q0 56 44 108q-113 6 -168 67q-57 62 -57 186v378h-69v66h225v-66h-69v-375q0 -94 38 -133q43 -46 130 -46q81 0 123 42q41 43 41 131v381h-69v66h212v-66h-69v-386q0 -126 -65 -186q-53 -50 -145 -58q-34 -55 -34 -102q0 -30 18.5 -46t64.5 -16h41v-46
q-37 -10 -75 -10q-54 0 -85.5 29.5t-31.5 81.5z" />
    <glyph glyph-name="uogonek" unicode="&#x173;" horiz-adv-x="583" 
d="M433 0q-17 5 -23 26q-83 -40 -161 -40q-83 0 -123 43q-35 38 -35 117v282h-65v60q66 6 90 6q31 0 45 -14q11 -11 11 -40v-275q0 -60 22 -82t81 -22t131 19v348h-65v62h146v-429h68v-60q-61 -3 -92.5 -39t-31.5 -76q0 -30 18.5 -46t64.5 -16h41v-46q-37 -10 -75 -10
q-55 0 -86 29t-31 82q0 36 19.5 68.5t50.5 52.5z" />
    <glyph glyph-name="Wcircumflex" unicode="&#x174;" horiz-adv-x="925" 
d="M921 618h-58l-154 -618h-81q-15 0 -22 5t-10 17l-126 548l-119 -570h-84q-15 0 -21.5 4.5t-10.5 17.5l-167 596h-64v66h83q34 0 44.5 -6t15.5 -27l151 -565l116 569q4 17 11.5 23t26.5 6h69l138 -603l129 537h-60v66h193v-66zM464 923h16q19 0 29.5 -5.5t23.5 -23.5
l91 -111l-33 -28l-119 103l-119 -103l-33 28l91 111q13 18 23.5 23.5t29.5 5.5z" />
    <glyph glyph-name="wcircumflex" unicode="&#x175;" horiz-adv-x="759" 
d="M365 487h72l106 -411l93 352h-47v59h164v-59h-45l-120 -428h-58q-23 0 -33.5 6.5t-14.5 25.5l-96 369l-90 -401h-62q-22 0 -32 7t-15 25l-121 396h-60v59q52 6 71 6q31 0 44.5 -7.5t20.5 -31.5l106 -375l81 379q4 16 11.5 22.5t24.5 6.5zM381 753h16q19 0 29.5 -5.5
t23.5 -23.5l91 -111l-33 -28l-119 103l-119 -103l-33 28l91 111q13 18 23.5 23.5t29.5 5.5z" />
    <glyph glyph-name="Ycircumflex" unicode="&#x176;" horiz-adv-x="588" 
d="M64 618h-60v66h74q28 0 40 -6.5t22 -25.5l161 -308l146 274h-53v66h190v-66h-55l-192 -342v-210h69v-66h-225v66h69v209zM286 923h16q19 0 29.5 -5.5t23.5 -23.5l91 -111l-33 -28l-119 103l-119 -103l-33 28l91 111q13 18 23.5 23.5t29.5 5.5z" />
    <glyph glyph-name="ycircumflex" unicode="&#x177;" horiz-adv-x="564" 
d="M173 440v-275q0 -60 22 -82t81 -22t131 19v348h-65v62h146v-524q0 -106 -49 -157q-47 -48 -149 -48q-59 0 -119 12v56h94q82 0 112 30q30 29 30 115v52q-82 -40 -157 -40q-83 0 -123 43q-35 38 -35 117v282h-65v60q66 6 90 6q31 0 45 -14q11 -11 11 -40zM274 753h16
q19 0 29.5 -5.5t23.5 -23.5l91 -111l-33 -28l-119 103l-119 -103l-33 28l91 111q13 18 23.5 23.5t29.5 5.5z" />
    <glyph glyph-name="Ydieresis" unicode="&#x178;" horiz-adv-x="588" 
d="M64 618h-60v66h74q28 0 40 -6.5t22 -25.5l161 -308l146 274h-53v66h190v-66h-55l-192 -342v-210h69v-66h-225v66h69v209zM199 777h-6q-52 0 -52 56v2q0 56 52 56h6q52 0 52 -56v-2q0 -56 -52 -56zM399 777h-6q-52 0 -52 56v2q0 56 52 56h6q52 0 52 -56v-2q0 -56 -52 -56z
" />
    <glyph glyph-name="Zacute" unicode="&#x179;" horiz-adv-x="580" 
d="M501 0h-441q-3 10 -3 27q0 32 23 68l344 523h-295q0 -51 -16 -94h-58v147q0 7 4.5 10t18.5 3h443q3 -10 3 -26q0 -33 -23 -69l-344 -523h293q0 53 16 96h58v-149q0 -7 -4.5 -10t-18.5 -3zM224 749l-31 39l143 137q12 12 20.5 12t17.5 -12l32 -44z" />
    <glyph glyph-name="zacute" unicode="&#x17a;" horiz-adv-x="488" 
d="M425 0h-365q-3 9 -3 27q0 29 26 64l260 337h-211q-4 -44 -13 -70h-61v116q0 16 17 16h361q3 -9 3 -27q0 -30 -26 -64l-260 -338h215q2 45 13 72h61v-117q0 -16 -17 -16zM182 579l-31 39l143 137q12 12 20.5 12t17.5 -12l32 -44z" />
    <glyph glyph-name="Zdotaccent" unicode="&#x17b;" horiz-adv-x="580" 
d="M501 0h-441q-3 10 -3 27q0 32 23 68l344 523h-295q0 -51 -16 -94h-58v147q0 7 4.5 10t18.5 3h443q3 -10 3 -26q0 -33 -23 -69l-344 -523h293q0 53 16 96h58v-149q0 -7 -4.5 -10t-18.5 -3zM297 777h-6q-52 0 -52 56v2q0 56 52 56h6q52 0 52 -56v-2q0 -56 -52 -56z" />
    <glyph glyph-name="zdotaccent" unicode="&#x17c;" horiz-adv-x="488" 
d="M425 0h-365q-3 9 -3 27q0 29 26 64l260 337h-211q-4 -44 -13 -70h-61v116q0 16 17 16h361q3 -9 3 -27q0 -30 -26 -64l-260 -338h215q2 45 13 72h61v-117q0 -16 -17 -16zM255 587h-6q-52 0 -52 56v2q0 56 52 56h6q52 0 52 -56v-2q0 -56 -52 -56z" />
    <glyph glyph-name="Zcaron" unicode="&#x17d;" horiz-adv-x="580" 
d="M501 0h-441q-3 10 -3 27q0 32 23 68l344 523h-295q0 -51 -16 -94h-58v147q0 7 4.5 10t18.5 3h443q3 -10 3 -26q0 -33 -23 -69l-344 -523h293q0 53 16 96h58v-149q0 -7 -4.5 -10t-18.5 -3zM302 759h-16q-19 0 -29.5 5.5t-23.5 23.5l-91 111l33 28l119 -103l119 103l33 -28
l-91 -111q-13 -18 -23.5 -23.5t-29.5 -5.5z" />
    <glyph glyph-name="zcaron" unicode="&#x17e;" horiz-adv-x="488" 
d="M425 0h-365q-3 9 -3 27q0 29 26 64l260 337h-211q-4 -44 -13 -70h-61v116q0 16 17 16h361q3 -9 3 -27q0 -30 -26 -64l-260 -338h215q2 45 13 72h61v-117q0 -16 -17 -16zM254 589h-16q-19 0 -29.5 5.5t-23.5 23.5l-91 111l33 28l119 -103l119 103l33 -28l-91 -111
q-13 -18 -23.5 -23.5t-29.5 -5.5z" />
    <glyph glyph-name="longs" unicode="&#x17f;" horiz-adv-x="283" 
d="M183 552v-552h-81v428h-85v48l85 15v66q0 87 41 128q42 42 124 42q57 0 96 -13v-56h-63q-71 0 -95 -20q-22 -19 -22 -86z" />
    <glyph glyph-name="florin" unicode="&#x192;" horiz-adv-x="568" 
d="M324 288v-357q0 -87 -41 -128q-42 -42 -124 -42q-57 0 -96 13v56h63q71 0 95 20q22 19 22 86v352h-85v48l85 15v206q0 87 41 128q42 42 124 42q57 0 96 -13v-56h-63q-71 0 -95 -20q-22 -19 -22 -86v-202h133v-62h-133z" />
    <glyph glyph-name="Aringacute" unicode="&#x1fa;" horiz-adv-x="641" 
d="M491 66l-48 139h-263l-44 -139h55v-66h-191v66h57l203 618h75q13 0 18 -4t10 -17l218 -597h56v-66h-207v66h61zM305 594l-103 -320h217zM252 856q0 -34 11 -47t44 -13h3q33 0 44 13t11 47t-11 47t-44 13h-3q-33 0 -44 -13t-11 -47zM193 854v4q0 113 114 113h3
q114 0 114 -113v-4q0 -113 -114 -113h-3q-114 0 -114 113zM233 1000l-31 39l143 137q12 12 20.5 12t17.5 -12l32 -44z" />
    <glyph glyph-name="aringacute" unicode="&#x1fb;" horiz-adv-x="529" 
d="M358 79v153h-100q-71 0 -100 -22q-29 -21 -29 -66q0 -87 102 -87q67 0 127 22zM360 29q-74 -43 -150 -43q-71 0 -117.5 39.5t-46.5 114.5q0 67 39 106q49 50 164 50q37 0 109 -4v43q0 53 -22 74t-92 21h-152v52q82 22 177 22q92 0 135 -45q35 -36 35 -112v-286h66v-60
q-59 -7 -92 -7q-45 0 -53 35zM208 670q0 -34 11 -47t44 -13h3q33 0 44 13t11 47t-11 47t-44 13h-3q-33 0 -44 -13t-11 -47zM149 668v4q0 113 114 113h3q114 0 114 -113v-4q0 -113 -114 -113h-3q-114 0 -114 113zM189 813l-31 39l143 137q12 12 20.5 12t17.5 -12l32 -44z" />
    <glyph glyph-name="AEacute" unicode="&#x1fc;" horiz-adv-x="925" 
d="M262 274h191v336zM793 618h-253v-234h192q10 0 13 -1.5t3 -7.5v-62h-208v-247h258q0 52 16 95h59v-148q0 -7 -4.5 -10t-18.5 -3h-466v66h69v139h-230l-78 -139h55v-66h-196v66h57l338 586q13 22 20.5 27t24.5 5h401q14 0 18.5 -3t4.5 -10v-147h-59q-16 43 -16 94z
M550 749l-31 39l143 137q12 12 20.5 12t17.5 -12l32 -44z" />
    <glyph glyph-name="aeacute" unicode="&#x1fd;" horiz-adv-x="816" 
d="M759 220h-322q3 -82 39 -119q41 -44 151 -44h124v-50q-75 -21 -154 -21q-121 0 -179 60q-91 -60 -201 -60q-82 0 -126.5 40.5t-44.5 113.5q0 67 39 106q49 50 164 50q37 0 109 -4v43q0 53 -22 74t-92 21h-152v52q82 22 177 22q107 0 149 -63q55 63 149 63q97 0 150 -65.5
t53 -180.5v-29q0 -9 -11 -9zM242 57q70 0 144 36q-26 54 -28 139h-100q-71 0 -100 -22q-29 -21 -29 -66q0 -42 25 -64.5t88 -22.5zM438 284h255q-11 152 -126 152q-62 0 -94.5 -42.5t-34.5 -109.5zM364 579l-31 39l143 137q12 12 20.5 12t17.5 -12l32 -44z" />
    <glyph glyph-name="Oslashacute" unicode="&#x1fe;" horiz-adv-x="662" 
d="M331 -14q-49 0 -93 14l-26 -78h-62l35 101q-129 80 -129 318q0 175 71 265.5t204 90.5q43 0 82 -11l27 77h61l-34 -98q139 -77 139 -324q0 -175 -71 -265t-204 -90zM331 65q100 0 143 70.5t43 205.5q0 183 -77 244l-176 -510q29 -10 67 -10zM145 341q0 -172 68 -236
l174 506q-30 7 -56 7q-100 0 -143 -71t-43 -206zM255 749l-31 39l143 137q12 12 20.5 12t17.5 -12l32 -44z" />
    <glyph glyph-name="oslashacute" unicode="&#x1ff;" horiz-adv-x="534" 
d="M491 245q0 -122 -58 -190.5t-166 -68.5q-31 0 -58 6l-26 -76h-60l33 94q-113 59 -113 235q0 122 58 190.5t166 68.5q27 0 60 -7l27 77h59l-34 -96q112 -59 112 -233zM127 245q0 -121 54 -162l122 346q-17 3 -36 3q-74 0 -107 -47t-33 -140zM407 245q0 117 -53 160
l-121 -344q16 -3 34 -3q74 0 107 47t33 140zM191 579l-31 39l143 137q12 12 20.5 12t17.5 -12l32 -44z" />
    <glyph glyph-name="Scommaaccent" unicode="&#x218;" horiz-adv-x="567" 
d="M155 68q48 -10 110 -10q91 0 131 36q34 31 34 85q0 49 -24 74t-101 49l-52 16q-91 28 -133 68q-49 46 -49 124q0 83 53 133q61 57 184 57q83 0 156 -21q16 -4 16 -20v-119h-64q-4 8 -8.5 35t-4.5 44q-45 7 -98 7q-88 0 -124 -36q-27 -27 -27 -71q0 -47 28 -75
q31 -30 99 -50l55 -17q102 -33 140 -77q37 -43 37 -119q0 -86 -52 -136q-61 -60 -194 -60q-106 0 -173 20q-16 5 -16 21v122h64q13 -29 13 -80zM305 -288h-23v115q-40 7 -40 50v2q0 23 13 35.5t35 12.5h1q28 0 40.5 -15t12.5 -50q0 -64 -19 -136q-4 -14 -20 -14z" />
    <glyph glyph-name="scommaaccent" unicode="&#x219;" horiz-adv-x="473" 
d="M64 129h60q9 -28 13 -67q39 -11 98 -11q69 0 97 24q21 18 21 53q0 33 -22 50t-71 29l-58 15q-79 20 -108 49q-35 35 -35 90q0 66 44 102q48 41 144 41q79 0 137 -14q19 -5 19 -23v-97h-60q-9 21 -13 64q-40 5 -82 5q-115 0 -115 -72q0 -30 21.5 -46t71.5 -29l60 -15
q75 -19 107 -51q35 -35 35 -93q0 -67 -42 -104q-49 -43 -150 -43q-89 0 -154 18q-18 5 -18 23v102zM253 -288h-23v115q-40 7 -40 50v2q0 23 13 35.5t35 12.5h1q28 0 40.5 -15t12.5 -50q0 -64 -19 -136q-4 -14 -20 -14z" />
    <glyph glyph-name="uni021A" unicode="&#x21a;" horiz-adv-x="619" 
d="M55 684h509q14 0 18.5 -3t4.5 -10v-147h-59q-16 43 -16 94h-159v-552h69v-66h-225v66h69v552h-159q0 -51 -16 -94h-59v147q0 7 4.5 10t18.5 3zM321 -288h-23v115q-40 7 -40 50v2q0 23 13 35.5t35 12.5h1q28 0 40.5 -15t12.5 -50q0 -64 -19 -136q-4 -14 -20 -14z" />
    <glyph glyph-name="uni021B" unicode="&#x21b;" horiz-adv-x="365" 
d="M98 491v113q41 12 81 14v-128h133v-62h-133v-276q0 -56 14 -74q17 -21 66 -21h91v-53q-49 -18 -110 -18q-71 0 -106 33q-36 35 -36 125v284h-85v48zM239 -288h-23v115q-40 7 -40 50v2q0 23 13 35.5t35 12.5h1q28 0 40.5 -15t12.5 -50q0 -64 -19 -136q-4 -14 -20 -14z" />
    <glyph glyph-name="circumflex" unicode="&#x2c6;" 
d="M204 753h16q19 0 29.5 -5.5t23.5 -23.5l91 -111l-33 -28l-119 103l-119 -103l-33 28l91 111q13 18 23.5 23.5t29.5 5.5z" />
    <glyph glyph-name="caron" unicode="&#x2c7;" 
d="M220 589h-16q-19 0 -29.5 5.5t-23.5 23.5l-91 111l33 28l119 -103l119 103l33 -28l-91 -111q-13 -18 -23.5 -23.5t-29.5 -5.5z" />
    <glyph glyph-name="breve" unicode="&#x2d8;" 
d="M212 585q-127 0 -136 139l52 6q12 -80 84 -80t84 80l52 -6q-9 -139 -136 -139z" />
    <glyph glyph-name="dotaccent" unicode="&#x2d9;" 
d="M215 587h-6q-52 0 -52 56v2q0 56 52 56h6q52 0 52 -56v-2q0 -56 -52 -56z" />
    <glyph glyph-name="ring" unicode="&#x2da;" 
d="M155 692q0 -34 11 -47t44 -13h3q33 0 44 13t11 47t-11 47t-44 13h-3q-33 0 -44 -13t-11 -47zM96 690v4q0 113 114 113h3q114 0 114 -113v-4q0 -113 -114 -113h-3q-114 0 -114 113z" />
    <glyph glyph-name="ogonek" unicode="&#x2db;" 
d="M116 -121q0 43 28 85.5t71 70.5h39q-70 -77 -70 -149q0 -30 18.5 -46t64.5 -16h41v-46q-37 -10 -75 -10q-54 0 -85.5 29.5t-31.5 81.5z" />
    <glyph glyph-name="tilde" unicode="&#x2dc;" 
d="M310 717l47 -5q-2 -48 -23 -76t-53 -28q-27 0 -70 20t-63 20q-15 0 -23 -8t-12 -29l-47 5q1 48 22.5 76t53.5 28q27 0 70 -20t63 -20q15 0 23 8t12 29z" />
    <glyph glyph-name="hungarumlaut" unicode="&#x2dd;" 
d="M71 599l-38 30l110 162q17 24 35 7l40 -36zM244 599l-38 30l110 162q16 24 36 7l39 -36z" />
    <glyph glyph-name="Delta" unicode="&#x394;" horiz-adv-x="625" 
d="M581 0h-537v30q0 22 10 52l208 602h83q10 0 13.5 -2.5t7.5 -13.5l202 -571q13 -39 13 -67v-30zM490 66l-182 532l-177 -532h359z" />
    <glyph glyph-name="Delta" unicode="&#x2206;" horiz-adv-x="625" 
d="M581 0h-537v30q0 22 10 52l208 602h83q10 0 13.5 -2.5t7.5 -13.5l202 -571q13 -39 13 -67v-30zM490 66l-182 532l-177 -532h359z" />
    <glyph glyph-name="Omega" unicode="&#x3a9;" horiz-adv-x="692" 
d="M346 620q-97 0 -146.5 -66t-49.5 -174q0 -166 126 -288q18 -18 22 -26.5t4 -25.5v-40h-225v66h138q-73 56 -113 140t-40 180q0 139 77.5 225t206.5 86t206.5 -86t77.5 -225q0 -96 -40 -180t-113 -140h138v-66h-225v40q0 17 4 25.5t22 26.5q126 122 126 288
q0 108 -49.5 174t-146.5 66z" />
    <glyph glyph-name="Omega" unicode="&#x2126;" horiz-adv-x="692" 
d="M346 620q-97 0 -146.5 -66t-49.5 -174q0 -166 126 -288q18 -18 22 -26.5t4 -25.5v-40h-225v66h138q-73 56 -113 140t-40 180q0 139 77.5 225t206.5 86t206.5 -86t77.5 -225q0 -96 -40 -180t-113 -140h138v-66h-225v40q0 17 4 25.5t22 26.5q126 122 126 288
q0 108 -49.5 174t-146.5 66z" />
    <glyph glyph-name="pi" unicode="&#x3c0;" horiz-adv-x="602" 
d="M411 49v379h-232v-428h-81v428h-73v62h540v-62h-73v-367h65v-60q-66 -6 -90 -6q-31 0 -45 14q-11 11 -11 40z" />
    <glyph glyph-name="Wgrave" unicode="&#x1e80;" horiz-adv-x="925" 
d="M921 618h-58l-154 -618h-81q-15 0 -22 5t-10 17l-126 548l-119 -570h-84q-15 0 -21.5 4.5t-10.5 17.5l-167 596h-64v66h83q34 0 44.5 -6t15.5 -27l151 -565l116 569q4 17 11.5 23t26.5 6h69l138 -603l129 537h-60v66h193v-66zM579 788l-31 -39l-182 132l32 44
q9 12 17.5 12t20.5 -12z" />
    <glyph glyph-name="wgrave" unicode="&#x1e81;" horiz-adv-x="759" 
d="M365 487h72l106 -411l93 352h-47v59h164v-59h-45l-120 -428h-58q-23 0 -33.5 6.5t-14.5 25.5l-96 369l-90 -401h-62q-22 0 -32 7t-15 25l-121 396h-60v59q52 6 71 6q31 0 44.5 -7.5t20.5 -31.5l106 -375l81 379q4 16 11.5 22.5t24.5 6.5zM496 618l-31 -39l-182 132l32 44
q9 12 17.5 12t20.5 -12z" />
    <glyph glyph-name="Wacute" unicode="&#x1e82;" horiz-adv-x="925" 
d="M921 618h-58l-154 -618h-81q-15 0 -22 5t-10 17l-126 548l-119 -570h-84q-15 0 -21.5 4.5t-10.5 17.5l-167 596h-64v66h83q34 0 44.5 -6t15.5 -27l151 -565l116 569q4 17 11.5 23t26.5 6h69l138 -603l129 537h-60v66h193v-66zM397 749l-31 39l143 137q12 12 20.5 12
t17.5 -12l32 -44z" />
    <glyph glyph-name="wacute" unicode="&#x1e83;" horiz-adv-x="759" 
d="M365 487h72l106 -411l93 352h-47v59h164v-59h-45l-120 -428h-58q-23 0 -33.5 6.5t-14.5 25.5l-96 369l-90 -401h-62q-22 0 -32 7t-15 25l-121 396h-60v59q52 6 71 6q31 0 44.5 -7.5t20.5 -31.5l106 -375l81 379q4 16 11.5 22.5t24.5 6.5zM314 579l-31 39l143 137
q12 12 20.5 12t17.5 -12l32 -44z" />
    <glyph glyph-name="Wdieresis" unicode="&#x1e84;" horiz-adv-x="925" 
d="M921 618h-58l-154 -618h-81q-15 0 -22 5t-10 17l-126 548l-119 -570h-84q-15 0 -21.5 4.5t-10.5 17.5l-167 596h-64v66h83q34 0 44.5 -6t15.5 -27l151 -565l116 569q4 17 11.5 23t26.5 6h69l138 -603l129 537h-60v66h193v-66zM375 777h-6q-52 0 -52 56v2q0 56 52 56h6
q52 0 52 -56v-2q0 -56 -52 -56zM575 777h-6q-52 0 -52 56v2q0 56 52 56h6q52 0 52 -56v-2q0 -56 -52 -56z" />
    <glyph glyph-name="wdieresis" unicode="&#x1e85;" horiz-adv-x="759" 
d="M365 487h72l106 -411l93 352h-47v59h164v-59h-45l-120 -428h-58q-23 0 -33.5 6.5t-14.5 25.5l-96 369l-90 -401h-62q-22 0 -32 7t-15 25l-121 396h-60v59q52 6 71 6q31 0 44.5 -7.5t20.5 -31.5l106 -375l81 379q4 16 11.5 22.5t24.5 6.5zM292 607h-6q-52 0 -52 56v2
q0 56 52 56h6q52 0 52 -56v-2q0 -56 -52 -56zM492 607h-6q-52 0 -52 56v2q0 56 52 56h6q52 0 52 -56v-2q0 -56 -52 -56z" />
    <glyph glyph-name="Ygrave" unicode="&#x1ef2;" horiz-adv-x="588" 
d="M64 618h-60v66h74q28 0 40 -6.5t22 -25.5l161 -308l146 274h-53v66h190v-66h-55l-192 -342v-210h69v-66h-225v66h69v209zM383 788l-31 -39l-182 132l32 44q9 12 17.5 12t20.5 -12z" />
    <glyph glyph-name="ygrave" unicode="&#x1ef3;" horiz-adv-x="564" 
d="M173 440v-275q0 -60 22 -82t81 -22t131 19v348h-65v62h146v-524q0 -106 -49 -157q-47 -48 -149 -48q-59 0 -119 12v56h94q82 0 112 30q30 29 30 115v52q-82 -40 -157 -40q-83 0 -123 43q-35 38 -35 117v282h-65v60q66 6 90 6q31 0 45 -14q11 -11 11 -40zM378 618l-31 -39
l-182 132l32 44q9 12 17.5 12t20.5 -12z" />
    <glyph glyph-name="endash" unicode="&#x2013;" horiz-adv-x="500" 
d="M500 226h-500v71h500v-71z" />
    <glyph glyph-name="emdash" unicode="&#x2014;" horiz-adv-x="1000" 
d="M1000 226h-1000v71h1000v-71z" />
    <glyph glyph-name="quoteleft" unicode="&#x2018;" horiz-adv-x="219" 
d="M102 697h20v-125q47 -10 47 -57v-3q0 -54 -51 -54h-1q-30 0 -43.5 16t-13.5 53q0 77 21 155q4 15 21 15z" />
    <glyph glyph-name="quoteright" unicode="&#x2019;" horiz-adv-x="219" 
d="M117 458h-20v125q-47 10 -47 57v3q0 54 51 54h1q30 0 43.5 -16t13.5 -53q0 -77 -21 -155q-4 -15 -21 -15z" />
    <glyph glyph-name="quotesinglbase" unicode="&#x201a;" horiz-adv-x="219" 
d="M117 -153h-20v125q-47 10 -47 57v3q0 54 51 54h1q30 0 43.5 -16t13.5 -53q0 -77 -21 -155q-4 -15 -21 -15z" />
    <glyph glyph-name="quotedblleft" unicode="&#x201c;" horiz-adv-x="385" 
d="M268 697h20v-125q47 -10 47 -57v-3q0 -54 -51 -54h-1q-30 0 -43.5 16t-13.5 53q0 77 21 155q4 15 21 15zM102 697h20v-125q47 -10 47 -57v-3q0 -54 -51 -54h-1q-30 0 -43.5 16t-13.5 53q0 77 21 155q4 15 21 15z" />
    <glyph glyph-name="quotedblright" unicode="&#x201d;" horiz-adv-x="385" 
d="M117 458h-20v125q-47 10 -47 57v3q0 54 51 54h1q30 0 43.5 -16t13.5 -53q0 -77 -21 -155q-4 -15 -21 -15zM283 458h-20v125q-47 10 -47 57v3q0 54 51 54h1q30 0 43.5 -16t13.5 -53q0 -77 -21 -155q-4 -15 -21 -15z" />
    <glyph glyph-name="quotedblbase" unicode="&#x201e;" horiz-adv-x="385" 
d="M117 -153h-20v125q-47 10 -47 57v3q0 54 51 54h1q30 0 43.5 -16t13.5 -53q0 -77 -21 -155q-4 -15 -21 -15zM283 -153h-20v125q-47 10 -47 57v3q0 54 51 54h1q30 0 43.5 -16t13.5 -53q0 -77 -21 -155q-4 -15 -21 -15z" />
    <glyph glyph-name="dagger" unicode="&#x2020;" horiz-adv-x="523" 
d="M230 374l-200 -10v83l200 -10l-10 247h83l-10 -247l200 10v-83l-200 10l10 -599h-83z" />
    <glyph glyph-name="daggerdbl" unicode="&#x2021;" horiz-adv-x="523" 
d="M293 374v-289l200 10v-83l-200 10l10 -247h-83l10 247l-200 -10v83l200 -10v289l-200 -10v83l200 -10l-10 247h83l-10 -247l200 10v-83z" />
    <glyph glyph-name="bullet" unicode="&#x2022;" horiz-adv-x="358" 
d="M54 346v12q0 65 28 94t84 29h26q56 0 84 -29t28 -94v-12q0 -65 -28 -94t-84 -29h-26q-56 0 -84 29t-28 94z" />
    <glyph glyph-name="ellipsis" unicode="&#x2026;" horiz-adv-x="681" 
d="M117 -14h-7q-50 0 -50 54v4q0 54 50 54h7q50 0 50 -54v-4q0 -54 -50 -54zM344 -14h-7q-50 0 -50 54v4q0 54 50 54h7q50 0 50 -54v-4q0 -54 -50 -54zM571 -14h-7q-50 0 -50 54v4q0 54 50 54h7q50 0 50 -54v-4q0 -54 -50 -54z" />
    <glyph glyph-name="perthousand" unicode="&#x2030;" horiz-adv-x="1321" 
d="M685 697l-353 -711h-76l353 711h76zM384 489q0 -92 -38.5 -150t-120.5 -58t-120.5 58t-38.5 150t38.5 150t120.5 58t120.5 -58t38.5 -150zM308 489q0 75 -19.5 109t-63.5 34t-63.5 -34t-19.5 -109t19.5 -109t63.5 -34t63.5 34t19.5 109zM875 194q0 -92 -38.5 -150
t-120.5 -58t-120.5 58t-38.5 150t38.5 150t120.5 58t120.5 -58t38.5 -150zM799 194q0 75 -19.5 109t-63.5 34t-63.5 -34t-19.5 -109t19.5 -109t63.5 -34t63.5 34t19.5 109zM1255 194q0 -92 -38.5 -150t-120.5 -58t-120.5 58t-38.5 150t38.5 150t120.5 58t120.5 -58
t38.5 -150zM1179 194q0 75 -19.5 109t-63.5 34t-63.5 -34t-19.5 -109t19.5 -109t63.5 -34t63.5 34t19.5 109z" />
    <glyph glyph-name="guilsinglleft" unicode="&#x2039;" horiz-adv-x="335" 
d="M152 263l123 -183l-37 -27l-130 149q-34 39 -34 61t34 61l130 149l37 -27z" />
    <glyph glyph-name="guilsinglright" unicode="&#x203a;" horiz-adv-x="335" 
d="M60 80l123 183l-123 183l37 27l130 -149q34 -39 34 -61t-34 -61l-130 -149z" />
    <glyph glyph-name="fraction" unicode="&#x2044;" horiz-adv-x="407" 
d="M418 697l-353 -711h-76l353 711h76z" />
    <glyph glyph-name="Euro" unicode="&#x20ac;" horiz-adv-x="597" 
d="M399 233h-190q15 -92 69.5 -133.5t171.5 -41.5h93v-59q-73 -13 -127 -13q-135 0 -204.5 62t-88.5 185h-77v48l71 7q-1 17 -1 53v21h-70v48l74 7q30 280 283 280q71 0 130 -17q16 -5 16 -21v-134l-58 -1q-4 9 -9.5 43.5t-5.5 52.5q-38 4 -69 4q-92 0 -140.5 -50
t-60.5 -153h193v-59h-197v-20q0 -34 1 -50h196v-59z" />
    <glyph glyph-name="litre" unicode="&#x2113;" horiz-adv-x="249" 
d="M168 670v-670h-81v658h-68v60q66 6 93 6q31 0 45 -14q11 -11 11 -40z" />
    <glyph glyph-name="numero" unicode="&#x2116;" horiz-adv-x="1120" 
d="M1080 418q0 -84 -44 -135.5t-128 -51.5t-128 51.5t-44 135.5t44 135.5t128 51.5t128 -51.5t44 -135.5zM1007 418q0 123 -99 123t-99 -123t99 -123t99 123zM154 668q24 0 34.5 -4.5t22.5 -21.5l360 -510v470h-69v66h213v-66h-69v-618h-64l-376 537v-471h69v-66h-213v66h69
v552h-69v66h92z" />
    <glyph glyph-name="trademark" unicode="&#x2122;" horiz-adv-x="763" 
d="M692 684h47v-50h-34v-232h34v-50h-128v50h33v149l-66 -93h-37q-21 0 -30 14l-53 83v-153h31v-50h-122v50h34v232h-34v50h50q16 0 23.5 -4t17.5 -20l93 -151l99 151q10 16 17.5 20t24.5 4zM44 684h257q17 0 22.5 -3.5t5.5 -15.5v-82h-53q-3 16 -5 55h-65v-236h33v-50h-133
v50h33v236h-65q-1 -7 -2 -20t-2.5 -22.5t-1.5 -12.5h-52v82q0 12 5.5 15.5t22.5 3.5z" />
    <glyph glyph-name="estimated" unicode="&#x212e;" horiz-adv-x="894" 
d="M844 333h-642q-7 0 -7 -6v-194q0 -10 11 -23q99 -102 243 -102q76 0 142 31t112 85h59q-57 -64 -139 -101t-175 -37q-165 0 -281.5 104t-116.5 251q0 148 116.5 252t281.5 104q163 0 279.5 -104t116.5 -252v-8zM699 358v196q0 12 -12 24q-98 98 -238 98q-144 0 -243 -101
q-11 -13 -11 -26v-191q0 -6 7 -6h490q7 0 7 6z" />
    <glyph glyph-name="partialdiff" unicode="&#x2202;" horiz-adv-x="568" 
d="M415 406q-6 118 -54 169q-45 48 -157 48h-88v62q50 12 111 12q131 0 196 -73q78 -88 78 -288v-27q0 -323 -225 -323q-100 0 -157.5 65t-57.5 174q0 211 190 211q76 0 164 -30zM417 296v51q-84 20 -141 20q-71 0 -103 -35.5t-32 -112.5q0 -74 35 -118.5t96 -44.5
q81 0 113 61t32 179z" />
    <glyph glyph-name="product" unicode="&#x220f;" horiz-adv-x="693" 
d="M651 684v-66h-82v-843h-87v843h-271v-843h-87v843h-82v66h609z" />
    <glyph glyph-name="summation" unicode="&#x2211;" horiz-adv-x="637" 
d="M135 -159h362q0 53 8 95h62v-148q0 -13 -24 -13h-465q-18 0 -25 5t-7 18v13q0 20 5 32.5t23 36.5l253 330q10 13 10.5 19.5t-7.5 17.5l-249 332q-18 24 -23 36.5t-5 32.5v13q0 13 7 18t25 5h445q24 0 24 -13v-147h-62q-8 42 -8 94h-331l228 -307q36 -49 36 -73
q0 -23 -35 -69z" />
    <glyph glyph-name="minus" unicode="&#x2212;" horiz-adv-x="508" 
d="M416 291h-324v65h324v-65z" />
    <glyph glyph-name="radical" unicode="&#x221a;" horiz-adv-x="665" 
d="M150 428h-70v62h91q21 0 30 -5.5t15 -22.5l132 -390l207 658h72l-235 -730h-64q-18 0 -25.5 5t-13.5 21z" />
    <glyph glyph-name="infinity" unicode="&#x221e;" horiz-adv-x="655" 
d="M309 312q-11 29 -15.5 40t-14 33t-16.5 30.5t-18 20.5t-23.5 16t-27.5 4q-40 0 -61 -31t-21 -82q0 -47 22.5 -77t59.5 -30q53 0 115 76zM326 261q-66 -89 -139 -89q-56 0 -96.5 43.5t-40.5 130.5q0 85 42.5 130t106.5 45q87 0 129 -85q66 89 139 89q56 0 96.5 -43.5
t40.5 -130.5q0 -85 -42.5 -130t-106.5 -45q-87 0 -129 85zM345 385q11 -29 15.5 -40t14 -33t16.5 -30.5t18 -20.5t23.5 -16t27.5 -4q40 0 61 31t21 82q0 47 -22.5 77t-59.5 30q-53 0 -115 -76z" />
    <glyph glyph-name="integral" unicode="&#x222b;" horiz-adv-x="568" 
d="M324 552v-621q0 -87 -41 -128q-42 -42 -124 -42q-57 0 -96 13v56h63q71 0 95 20q22 19 22 86v621q0 87 41 128q42 42 124 42q57 0 96 -13v-56h-63q-71 0 -95 -20q-22 -19 -22 -86z" />
    <glyph glyph-name="approxequal" unicode="&#x2248;" horiz-adv-x="508" 
d="M369 461l45 -5q-1 -45 -21 -70.5t-52 -25.5q-26 0 -87 17.5t-81 17.5q-14 0 -21 -8t-12 -28l-45 5q1 45 21 70.5t52 25.5q26 0 87 -17.5t81 -17.5q14 0 21 8t12 28zM369 282l45 -5q-1 -45 -21 -70.5t-52 -25.5q-26 0 -87 17.5t-81 17.5q-14 0 -21 -8t-12 -28l-45 5
q1 45 21 70.5t52 25.5q26 0 87 -17.5t81 -17.5q14 0 21 8t12 28z" />
    <glyph glyph-name="notequal" unicode="&#x2260;" horiz-adv-x="508" 
d="M416 201h-176l-46 -136h-64l46 136h-84v65h107l39 115h-146v65h169l47 137h64l-47 -137h91v-65h-114l-39 -115h153v-65z" />
    <glyph glyph-name="lessequal" unicode="&#x2264;" horiz-adv-x="508" 
d="M416 0h-324v65h324v-65zM92 291v65l324 165v-75l-249 -123l249 -122v-75z" />
    <glyph glyph-name="greaterequal" unicode="&#x2265;" horiz-adv-x="508" 
d="M416 356v-65l-324 -165v75l249 122l-249 123v75zM416 0h-324v65h324v-65z" />
    <glyph glyph-name="lozenge" unicode="&#x25ca;" horiz-adv-x="568" 
d="M531 342q0 -22 -27 -62l-182 -280h-77l-182 280q-27 40 -27 62t27 62l182 280h77l182 -280q27 -40 27 -62zM460 342l-177 271l-176 -271l176 -271z" />
    <glyph glyph-name="CR" horiz-adv-x="190" 
 />
    <glyph glyph-name="commaaccent" 
d="M224 -288h-23v115q-40 7 -40 50v2q0 23 13 35.5t35 12.5h1q28 0 40.5 -15t12.5 -50q0 -64 -19 -136q-4 -14 -20 -14z" />
    <glyph glyph-name="grave.cap" 
d="M318 788l-31 -39l-182 132l32 44q9 12 17.5 12t20.5 -12z" />
    <glyph glyph-name="acute.cap" 
d="M136 749l-31 39l143 137q12 12 20.5 12t17.5 -12l32 -44z" />
    <glyph glyph-name="dieresis.cap" 
d="M115 777h-6q-52 0 -52 56v2q0 56 52 56h6q52 0 52 -56v-2q0 -56 -52 -56zM315 777h-6q-52 0 -52 56v2q0 56 52 56h6q52 0 52 -56v-2q0 -56 -52 -56z" />
    <glyph glyph-name="circumflex.cap" 
d="M204 923h16q19 0 29.5 -5.5t23.5 -23.5l91 -111l-33 -28l-119 103l-119 -103l-33 28l91 111q13 18 23.5 23.5t29.5 5.5z" />
    <glyph glyph-name="tilde.cap" 
d="M310 887l47 -5q-2 -48 -23 -76t-53 -28q-27 0 -70 20t-63 20q-15 0 -23 -8t-12 -29l-47 5q1 48 22.5 76t53.5 28q27 0 70 -20t63 -20q15 0 23 8t12 29z" />
    <glyph glyph-name="macron.cap" 
d="M347 798h-270v70h270v-70z" />
    <glyph glyph-name="breve.cap" 
d="M212 755q-127 0 -136 139l52 6q12 -80 84 -80t84 80l52 -6q-9 -139 -136 -139z" />
    <glyph glyph-name="dotaccent.cap" 
d="M215 777h-6q-52 0 -52 56v2q0 56 52 56h6q52 0 52 -56v-2q0 -56 -52 -56z" />
    <glyph glyph-name="ring.cap" 
d="M155 862q0 -34 11 -47t44 -13h3q33 0 44 13t11 47t-11 47t-44 13h-3q-33 0 -44 -13t-11 -47zM96 860v4q0 113 114 113h3q114 0 114 -113v-4q0 -113 -114 -113h-3q-114 0 -114 113z" />
    <glyph glyph-name="hungarumlaut.cap" 
d="M71 769l-38 30l110 162q17 24 35 7l40 -36zM244 769l-38 30l110 162q16 24 36 7l39 -36z" />
    <glyph glyph-name="caron.cap" 
d="M220 759h-16q-19 0 -29.5 5.5t-23.5 23.5l-91 111l33 28l119 -103l119 103l33 -28l-91 -111q-13 -18 -23.5 -23.5t-29.5 -5.5z" />
    <glyph glyph-name="apple" horiz-adv-x="599" 
d="M513 210h-271v67h205v69h-205v203h271v-68h-202v-67h202v-204zM513 618h-338v-550h75v-68h-143v684h406v-66z" />
    </font>
</defs>
</svg>
