<?xml version="1.0" standalone="no"?>
<!DOCTYPE svg PUBLIC "-//W3C//DTD SVG 1.1//EN" "http://www.w3.org/Graphics/SVG/1.1/DTD/svg11.dtd" >
<svg>
<metadata>
Created by FontForge 20090622 at Fri Oct  9 18:33:29 2015
 By deploy user
Copyright (c) 2009 by Fontsmith Ltd. All rights reserved.
</metadata>
<defs>
<font id="MovistarText" horiz-adv-x="410" >
  <font-face 
    font-family="Movistar Text"
    font-weight="400"
    font-stretch="normal"
    units-per-em="1000"
    panose-1="2 0 5 6 4 0 0 2 0 4"
    ascent="750"
    descent="-250"
    x-height="490"
    cap-height="684"
    bbox="-70 -291 1254 1189"
    underline-thickness="50"
    underline-position="-50"
    unicode-range="U+0020-U+FB02"
  />
<missing-glyph horiz-adv-x="642" 
d="M86 660h470v-660h-470v660zM480 612h-320l161 -240zM510 90v480l-160 -239zM480 49l-159 239l-161 -239h320zM134 90l159 241l-159 239v-480z" />
    <glyph glyph-name="fi" unicode="fi" horiz-adv-x="542" 
d="M103 539q0 48 10.5 82t33.5 59t60.5 38.5t90.5 13.5q27 0 56 -3t54 -8v-63l-47 4t-50 2q-69 0 -97 -29q-14 -14 -21 -37t-7 -59v-49h284v-490h-83v429h-201v-429h-83v429h-89v47l89 13v50z" />
    <glyph glyph-name="fl" unicode="fl" horiz-adv-x="544" 
d="M390 660q-14 2 -36 3.5t-42 1.5q-35 0 -61 -7t-40 -23q-14 -14 -19.5 -36.5t-5.5 -57.5v-51h129v-61h-129v-429h-83v429h-89v47l89 13v57q0 47 10 78.5t31 54.5q50 53 168 53q39 0 83 -4.5t78 -10.5v-717h-83v660z" />
    <glyph glyph-name=".notdef" horiz-adv-x="642" 
d="M86 660h470v-660h-470v660zM480 612h-320l161 -240zM510 90v480l-160 -239zM480 49l-159 239l-161 -239h320zM134 90l159 241l-159 239v-480z" />
    <glyph glyph-name=".null" horiz-adv-x="0" 
 />
    <glyph glyph-name="nonmarkingreturn" horiz-adv-x="204" 
 />
    <glyph glyph-name="space" unicode=" " horiz-adv-x="204" 
 />
    <glyph glyph-name="nonbreakingspace" unicode="&#xa0;" horiz-adv-x="204" 
 />
    <glyph glyph-name="A" unicode="A" horiz-adv-x="591" 
d="M420 182h-259l-56 -182h-87l217 684h102l236 -684h-93zM397 252l-110 338h-1l-103 -338h214z" />
    <glyph glyph-name="B" unicode="B" horiz-adv-x="592" 
d="M83 0v684h183q67 0 111.5 -12t71.5 -39q43 -43 43 -119q0 -54 -23.5 -92t-67.5 -58q64 -15 99.5 -58.5t35.5 -112.5q0 -91 -52 -139q-30 -27 -77 -40.5t-117 -13.5h-207zM172 70h91q60 0 93.5 7t53.5 25q16 14 25 36.5t9 55.5q0 59 -30 89q-20 20 -52 27.5t-87 7.5h-103
v-248zM172 388h88q45 0 72 8t44 25q27 28 27 82q0 55 -28 82q-17 16 -44 22.5t-72 6.5h-87v-226z" />
    <glyph glyph-name="C" unicode="C" horiz-adv-x="555" 
d="M513 6q-30 -9 -72.5 -14.5t-78.5 -5.5q-155 0 -230.5 87.5t-75.5 264.5q0 94 22 165.5t67 117.5q36 38 89.5 57t117.5 19q45 0 85.5 -7t73.5 -19l-12 -68q-34 9 -69.5 14t-67.5 5q-104 0 -153 -55q-32 -35 -46 -90.5t-14 -136.5q0 -78 14.5 -133.5t48.5 -90.5
q28 -29 69.5 -42.5t102.5 -13.5q11 0 25.5 1t31 3t33 4.5t31.5 5.5z" />
    <glyph glyph-name="D" unicode="D" horiz-adv-x="646" 
d="M83 0v684h173q95 0 157.5 -19.5t103.5 -64.5q37 -41 55 -103t18 -151q0 -189 -82 -272q-38 -38 -95 -56t-138 -18h-192zM172 71h100q58 0 96 12t64 38q35 33 50.5 89t15.5 135q0 70 -12 120.5t-38 82.5q-28 34 -73.5 49.5t-123.5 15.5h-79v-542z" />
    <glyph glyph-name="E" unicode="E" horiz-adv-x="531" 
d="M172 70h309v-70h-398v684h392l-8 -70h-295v-232h239v-72h-239v-240z" />
    <glyph glyph-name="F" unicode="F" horiz-adv-x="482" 
d="M172 0h-89v684h385l-8 -70h-288v-232h232v-72h-232v-310z" />
    <glyph glyph-name="G" unicode="G" horiz-adv-x="640" 
d="M525 603q-33 9 -72 14.5t-73 5.5q-60 0 -101 -16t-69 -48q-32 -36 -46.5 -92t-14.5 -131q0 -141 53 -209q27 -35 69.5 -51.5t108.5 -16.5q23 0 48 2t45 5v210h-116v70h203v-334q-18 -6 -40.5 -10.5t-47.5 -8t-50.5 -5.5t-48.5 -2q-85 0 -143 22t-96 65q-78 89 -78 258
q0 103 25.5 174t69.5 115q45 44 102 60.5t119 16.5q41 0 85.5 -7t79.5 -19z" />
    <glyph glyph-name="H" unicode="H" horiz-adv-x="658" 
d="M486 382v302h89v-684h-89v310h-314v-310h-89v684h89v-302h314z" />
    <glyph glyph-name="I" unicode="I" horiz-adv-x="261" 
d="M86 684h89v-684h-89v684z" />
    <glyph glyph-name="J" unicode="J" horiz-adv-x="372" 
d="M36 64q16 -2 36 -3.5t37 -1.5q32 0 52 7.5t31 26.5q8 14 11.5 33.5t3.5 51.5v506h89v-505q0 -58 -10 -92.5t-30 -57.5q-21 -23 -55 -33t-81 -10q-17 0 -38.5 2t-37.5 6z" />
    <glyph glyph-name="K" unicode="K" horiz-adv-x="593" 
d="M172 331l285 353h100l-232 -283l243 -401h-101l-198 335l-97 -117v-218h-89v684h89v-353z" />
    <glyph glyph-name="L" unicode="L" horiz-adv-x="504" 
d="M83 684h89v-614h298v-70h-387v684z" />
    <glyph glyph-name="M" unicode="M" horiz-adv-x="799" 
d="M399 234l241 450h76v-684h-84v509l-199 -364h-74l-197 368v-513h-79v684h78z" />
    <glyph glyph-name="N" unicode="N" horiz-adv-x="682" 
d="M83 684h62l375 -532v532h79v-684h-68l-369 521v-521h-79v684z" />
    <glyph glyph-name="O" unicode="O" horiz-adv-x="658" 
d="M602 341q0 -75 -14 -140t-46 -112.5t-84 -75t-129 -27.5t-129 27.5t-84 75t-46 112.5t-14 140t14 140t46 113t84 75.5t129 27.5t129 -27.5t84 -75.5t46 -113t14 -140zM509 341q0 63 -8.5 114.5t-29 88t-55 56.5t-87.5 20t-87.5 -20t-55 -56.5t-29 -88t-8.5 -114.5
t8.5 -114.5t29 -87.5t55 -56t87.5 -20t87.5 20t55 56t29 87.5t8.5 114.5z" />
    <glyph glyph-name="P" unicode="P" horiz-adv-x="566" 
d="M172 327h97q47 0 79.5 7.5t52.5 26.5q37 35 37 114q0 70 -32 102q-20 20 -52 28.5t-82 8.5h-100v-287zM172 0h-89v684h196q74 0 123 -14t78 -44q26 -26 38 -63.5t12 -85.5q0 -110 -56 -166q-28 -27 -70.5 -41.5t-104.5 -14.5h-127v-255z" />
    <glyph glyph-name="Q" unicode="Q" horiz-adv-x="658" 
d="M602 341q0 -54 -7 -102.5t-22.5 -90t-40 -74t-59.5 -53.5q47 -3 94 -18.5t76 -33.5q-2 -7 -6.5 -17.5t-10 -21.5l-11 -21t-9.5 -15l-149 67l-29.5 12t-25 8t-26 4t-32.5 1h-15q-77 0 -129 27.5t-84 75t-46 112.5t-14 140t14 140t46 113t84 75.5t129 27.5t129 -27.5
t84 -75.5t46 -113t14 -140zM509 341q0 63 -8.5 114.5t-29 88t-55 56.5t-87.5 20t-87.5 -20t-55 -56.5t-29 -88t-8.5 -114.5t8.5 -114.5t29 -87.5t55 -56t87.5 -20t87.5 20t55 56t29 87.5t8.5 114.5z" />
    <glyph glyph-name="R" unicode="R" horiz-adv-x="602" 
d="M172 0h-89v684h199q72 0 121.5 -13t78.5 -42q51 -50 51 -152q0 -79 -33.5 -128.5t-94.5 -70.5l147 -278h-99l-66 131.5l-67 131.5q-9 -1 -21 -1.5t-23 -0.5h-104v-261zM172 333h106q54 0 84.5 10.5t48.5 30.5q16 18 23 44t7 59q0 70 -31 101q-20 20 -53.5 28t-84.5 8
h-100v-281z" />
    <glyph glyph-name="S" unicode="S" horiz-adv-x="543" 
d="M75 87q39 -11 84 -19t87 -8t71.5 7.5t49.5 23.5q37 29 37 83q0 43 -26 68.5t-65 44t-84.5 34t-84.5 39t-65 59.5t-26 95q0 45 16.5 79.5t46 57.5t71.5 34.5t93 11.5q45 0 89 -7t79 -19l-13 -68q-38 10 -76 15t-72 5q-70 0 -110 -24t-40 -79q0 -39 26 -63t65 -42t85 -34.5
t85 -41t65 -61.5t26 -95q0 -45 -14 -80t-40 -59q-61 -58 -181 -58q-24 0 -50 2t-51.5 6.5t-49.5 10.5t-43 14z" />
    <glyph glyph-name="T" unicode="T" horiz-adv-x="569" 
d="M22 614v70h529l-8 -70h-214v-614h-89v614h-218z" />
    <glyph glyph-name="U" unicode="U" horiz-adv-x="649" 
d="M164 251q0 -57 10 -91t33 -57q20 -20 50.5 -30.5t72.5 -10.5q38 0 68 10.5t50 30.5q23 23 34 58.5t11 89.5v433h81v-438q0 -70 -17 -119t-50 -81q-63 -60 -179 -60q-120 0 -183 57q-36 32 -53 81.5t-17 121.5v438h89v-433z" />
    <glyph glyph-name="V" unicode="V" horiz-adv-x="588" 
d="M112 684l189 -587h2l177 587h88l-219 -684h-99l-230 684h92z" />
    <glyph glyph-name="W" unicode="W" horiz-adv-x="885" 
d="M640 109h2l140 575h83l-175 -684h-105l-137 545h-2l-127 -545h-108l-191 684h91l155 -579h2l133 579h93z" />
    <glyph glyph-name="X" unicode="X" horiz-adv-x="539" 
d="M22 0l204 341l-195 343h94l152 -276l147 276h93l-200 -339l198 -345h-97l-153 276l-146 -276h-97z" />
    <glyph glyph-name="Y" unicode="Y" horiz-adv-x="575" 
d="M16 684h98l174 -329l181 329h90l-232 -406v-278h-89v280z" />
    <glyph glyph-name="Z" unicode="Z" horiz-adv-x="561" 
d="M50 0v51l353 563h-347v70h454v-53l-352 -561h353v-70h-461z" />
    <glyph glyph-name="a" unicode="a" horiz-adv-x="505" 
d="M365 33q-32 -21 -70.5 -34t-83.5 -13q-40 0 -72.5 12t-55.5 35q-18 19 -28.5 45t-10.5 61t11 61.5t31 44.5q28 26 70 36.5t96 10.5h102v31q0 30 -5.5 49.5t-19.5 33.5q-30 29 -102 29q-28 0 -62 -3t-70 -9l-3 64q35 8 74.5 12.5t74.5 4.5q55 0 92.5 -11.5t60.5 -33.5
q23 -23 33 -54t10 -79v-326h-67zM354 231h-90q-38 0 -65 -5.5t-44 -19.5q-27 -22 -27 -65q0 -45 26.5 -66.5t74.5 -21.5q30 0 64 9t61 23v146z" />
    <glyph glyph-name="b" unicode="b" horiz-adv-x="528" 
d="M153 465q30 17 67.5 28t73.5 11q89 0 139.5 -62.5t50.5 -194.5q0 -134 -49.5 -197.5t-141.5 -63.5q-40 0 -81.5 13.5t-70.5 33.5l-4 -33h-67v715h83v-250zM153 90q25 -15 58 -25t63 -10q31 0 54 10t38.5 32.5t23 59.5t7.5 90q0 99 -30 142.5t-95 43.5q-29 0 -61.5 -8
t-57.5 -20v-315z" />
    <glyph glyph-name="c" unicode="c" horiz-adv-x="450" 
d="M410 2q-24 -7 -60 -11.5t-63 -4.5q-118 0 -178 61q-31 32 -48 79.5t-17 112.5q0 129 64 198q32 34 77.5 50.5t102.5 16.5q29 0 60 -4t57 -11l-5 -64q-23 5 -51 8.5t-51 3.5q-87 0 -127 -49.5t-40 -147.5q0 -93 41 -140q21 -24 53 -35t77 -11q25 0 54 3t48 7z" />
    <glyph glyph-name="d" unicode="d" horiz-adv-x="530" 
d="M386 30q-30 -20 -70 -32t-75 -12q-94 0 -145.5 64t-51.5 192q0 122 53 192t150 70q32 0 66.5 -9t63.5 -26v246h83v-715h-68zM264 54q26 0 56.5 8t56.5 21v327q-27 11 -57.5 17.5t-55.5 6.5q-38 0 -63 -14t-41 -39.5t-22.5 -61t-6.5 -78.5q0 -97 33.5 -142t99.5 -45z" />
    <glyph glyph-name="e" unicode="e" horiz-adv-x="506" 
d="M428 5q-32 -9 -71.5 -14t-73.5 -5q-116 0 -175 59q-33 33 -48.5 83t-15.5 116t15.5 114.5t43.5 81t67 48.5t86 16q103 0 153 -68.5t50 -189.5v-19q0 -11 -12 -11h-316q0 -41 10.5 -73t32.5 -52q20 -18 49 -27.5t76 -9.5q26 0 59 3.5t62 9.5zM377 277q-1 35 -8.5 64.5
t-22.5 50.5t-37 33t-53 12q-63 0 -93.5 -42.5t-31.5 -117.5h246z" />
    <glyph glyph-name="f" unicode="f" horiz-adv-x="319" 
d="M315 490v-61h-129v-429h-83v429h-89v47l89 13v67q0 46 9 77.5t27 52.5q40 46 128 46q17 0 40.5 -2t41.5 -6v-63q-15 2 -35 3t-35 1q-52 0 -73 -22q-11 -12 -15.5 -31.5t-4.5 -53.5v-68h129z" />
    <glyph glyph-name="g" unicode="g" horiz-adv-x="511" 
d="M456 322q0 -40 -12 -73.5t-36.5 -57.5t-61.5 -37.5t-87 -13.5q-44 0 -77 10q-11 -13 -19 -30t-8 -30q0 -30 40 -30h94q65 0 103.5 -11t62.5 -35q19 -19 27.5 -44t8.5 -55q0 -74 -54 -114t-178 -40q-114 0 -166.5 36t-52.5 102q0 32 15 61.5t41 47.5q-23 19 -23 53
q0 29 16 58t42 55q-35 24 -52 62t-17 86q0 40 12 73.5t36.5 57.5t61.5 37.5t87 13.5q14 0 26.5 -1t23.5 -3l59 128q17 -4 37 -13t32 -19l-68 -116q45 -23 66 -64t21 -94zM377 322q0 57 -28.5 86.5t-89.5 29.5t-89.5 -29.5t-28.5 -86.5t28.5 -86.5t89.5 -29.5t89.5 29.5
t28.5 86.5zM183 -14q-21 0 -36 3q-14 -17 -21.5 -36t-7.5 -39q0 -40 33.5 -61.5t115.5 -21.5q78 0 112 21.5t34 59.5q0 36 -24 54q-27 20 -100 20h-106z" />
    <glyph glyph-name="h" unicode="h" horiz-adv-x="544" 
d="M153 715v-256q37 20 77.5 32.5t81.5 12.5q81 0 123 -43q20 -20 30.5 -51t10.5 -77v-333h-83v323q0 32 -5.5 51t-18.5 32q-25 25 -79 25q-33 0 -70 -9t-67 -23v-399h-83v715h83z" />
    <glyph glyph-name="i" unicode="i" horiz-adv-x="227" 
d="M155 0h-83v490h83v-490zM111 583q-23 0 -36 12t-13 41v2q0 29 13 41t36 12h5q23 0 36 -12t13 -41v-2q0 -29 -13 -41t-36 -12h-5z" />
    <glyph glyph-name="j" unicode="j" horiz-adv-x="227" 
d="M155 490v-493q0 -71 -11.5 -112.5t-39.5 -69.5q-50 -51 -165 -51l-9 67q42 1 69.5 8.5t44.5 26.5q16 18 22 45.5t6 72.5v506h83zM111 583q-23 0 -36 12t-13 41v2q0 29 13 41t36 12h5q23 0 36 -12t13 -41v-2q0 -29 -13 -41t-36 -12h-5z" />
    <glyph glyph-name="k" unicode="k" horiz-adv-x="500" 
d="M153 715v-474l219 249h96l-173 -190l191 -300h-95l-150 243l-88 -98v-145h-83v715h83z" />
    <glyph glyph-name="l" unicode="l" horiz-adv-x="225" 
d="M154 715v-715h-83v715h83z" />
    <glyph glyph-name="m" unicode="m" horiz-adv-x="842" 
d="M139 490l4 -36q38 24 77.5 37t80.5 13q91 0 133 -55q91 55 176 55q81 0 123 -43q20 -20 30.5 -51t10.5 -77v-333h-83v323q0 32 -5.5 51t-18.5 32q-25 25 -77 25q-30 0 -65 -8.5t-67 -24.5q3 -14 5 -30t2 -35v-333h-83v323q0 32 -5.5 51t-18.5 32q-25 25 -77 25
q-32 0 -65 -9t-63 -23v-399h-83v490h69z" />
    <glyph glyph-name="n" unicode="n" horiz-adv-x="544" 
d="M139 490l4 -36q38 23 82 36.5t87 13.5q81 0 123 -43q20 -20 30.5 -51t10.5 -77v-333h-83v323q0 32 -5.5 51t-18.5 32q-25 25 -79 25q-33 0 -70 -9t-67 -23v-399h-83v490h69z" />
    <glyph glyph-name="o" unicode="o" horiz-adv-x="534" 
d="M490 245q0 -122 -54.5 -190.5t-168.5 -68.5t-168.5 68.5t-54.5 190.5t54.5 190.5t168.5 68.5t168.5 -68.5t54.5 -190.5zM403 245q0 94 -30.5 142.5t-105.5 48.5t-105.5 -48.5t-30.5 -142.5t30.5 -142.5t105.5 -48.5t105.5 48.5t30.5 142.5z" />
    <glyph glyph-name="p" unicode="p" horiz-adv-x="528" 
d="M70 -225v715h69l4 -36q38 26 78.5 38t74.5 12q48 0 83 -18t58.5 -52t35 -81.5t11.5 -105.5q0 -138 -51.5 -199.5t-139.5 -61.5q-38 0 -75.5 10t-64.5 27v-248h-83zM153 85q22 -13 54.5 -21.5t64.5 -8.5q67 0 96 44t29 149q0 94 -28.5 139.5t-90.5 45.5q-29 0 -62.5 -9
t-62.5 -24v-315z" />
    <glyph glyph-name="q" unicode="q" horiz-adv-x="531" 
d="M378 23q-29 -17 -66.5 -27t-70.5 -10q-93 0 -145 65t-52 191q0 124 55 193t151 69q35 0 70.5 -12t66.5 -35l5 33h69v-709l-83 -15v257zM378 400q-27 16 -57 25t-61 9q-63 0 -96 -47t-33 -143q0 -98 33.5 -144t99.5 -46q27 0 57.5 8t56.5 21v317z" />
    <glyph glyph-name="r" unicode="r" horiz-adv-x="335" 
d="M139 490l5 -42q35 29 71 42.5t68 13.5q15 0 32 -3v-74q-8 1 -20 1.5t-23 0.5q-67 0 -119 -33v-396h-83v490h69z" />
    <glyph glyph-name="s" unicode="s" horiz-adv-x="444" 
d="M360 422q-33 8 -66 12t-63 4q-107 0 -107 -69q0 -27 20 -43t50.5 -27.5t66 -22t66 -27t50.5 -43t20 -70.5q0 -39 -14.5 -67.5t-40.5 -46.5t-62.5 -27t-80.5 -9q-35 0 -75.5 6t-68.5 15l4 64q30 -8 67.5 -13t69.5 -5q60 0 91.5 19.5t31.5 57.5q0 27 -20 42.5t-50.5 26.5
t-66 21t-66 27t-50.5 44t-20 72q0 71 50 106t128 35q37 0 75.5 -6t67.5 -15z" />
    <glyph glyph-name="t" unicode="t" horiz-adv-x="365" 
d="M100 605q18 6 40.5 10.5t42.5 4.5v-130h129v-61h-129v-272q0 -35 3 -55t14 -31q8 -9 22.5 -14t40.5 -5q13 0 34.5 2t39.5 6l4 -61q-20 -5 -47 -9t-54 -4q-36 0 -64 9.5t-45 28.5q-18 21 -24.5 48.5t-6.5 73.5v283h-89v47l89 13v116z" />
    <glyph glyph-name="u" unicode="u" horiz-adv-x="542" 
d="M403 0l-4 36q-38 -23 -81 -36.5t-86 -13.5q-81 0 -123 43q-20 20 -30.5 51t-10.5 77v333h83v-323q0 -32 5.5 -51t18.5 -32q25 -25 79 -25q33 0 69 9t66 23v399h83v-490h-69z" />
    <glyph glyph-name="v" unicode="v" horiz-adv-x="470" 
d="M16 490h87l136 -405l131 405h84l-172 -490h-91z" />
    <glyph glyph-name="w" unicode="w" horiz-adv-x="716" 
d="M357 375l-102 -375h-96l-143 490h84l110 -403l105 403h84l119 -408l105 408h77l-136 -490h-95z" />
    <glyph glyph-name="x" unicode="x" horiz-adv-x="461" 
d="M238 303l110 187h91l-162 -245l164 -245h-94l-123 185l-110 -185h-92l163 242l-165 248h93z" />
    <glyph glyph-name="y" unicode="y" horiz-adv-x="542" 
d="M389 30q-37 -21 -77 -32.5t-80 -11.5q-81 0 -123 43q-20 20 -30.5 51t-10.5 77v333h83v-323q0 -32 5.5 -51t18.5 -32q25 -25 79 -25q33 0 69 9t66 23v399h83v-528q0 -99 -45 -147q-50 -54 -159 -54q-25 0 -53.5 3t-45.5 7l-7 65q18 -2 47 -4t47 -2q34 0 59.5 6t42.5 21
q16 15 23.5 39.5t7.5 66.5v67z" />
    <glyph glyph-name="z" unicode="z" horiz-adv-x="425" 
d="M36 0v45l253 384h-251v61h350v-48l-251 -381h258v-61h-359z" />
    <glyph glyph-name="ampersand" unicode="&#x26;" horiz-adv-x="673" 
d="M533 124q7 -8 16 -17q8 -8 16.5 -18t18.5 -20l50 -55l-55 -47l-95 102q-43 -41 -97 -62t-117 -21q-49 0 -89 13.5t-69 38.5t-45 61t-16 80q0 69 39 117.5t108 85.5q-23 26 -38.5 47.5t-25.5 41t-14 38.5t-4 40q0 35 12 62.5t33.5 46.5t50.5 29t63 10q33 0 61 -9.5
t48.5 -27.5t32.5 -44t12 -59q0 -51 -30 -97t-96 -84l185 -203q20 32 32.5 76.5t15.5 90.5h67q-2 -62 -21.5 -118t-48.5 -98zM282 55q47 0 86.5 16.5t71.5 45.5l-204 222q-48 -26 -74 -64.5t-26 -88.5q0 -63 38.5 -97t107.5 -34zM189 554q0 -17 4.5 -32t13.5 -31t23.5 -34.5
t35.5 -40.5q51 36 72.5 68t21.5 70q0 36 -22 59t-62 23t-63.5 -21.5t-23.5 -60.5z" />
    <glyph glyph-name="at" unicode="@" horiz-adv-x="763" 
d="M512 217q10 -2 20 -3t19 -1q52 0 78 38q12 19 19 46.5t7 64.5q0 130 -70 202t-198 72q-67 0 -118.5 -21t-87 -59.5t-53.5 -93t-18 -121.5q0 -142 77 -219.5t231 -77.5q19 0 42.5 1.5t48 4t48 6t43.5 7.5v-55q-36 -10 -86 -16t-104 -6q-92 0 -161 25t-115.5 70.5t-70 111
t-23.5 146.5q0 80 24 146t69 113t109 73t145 26q77 0 139 -24t105.5 -67t66.5 -103t23 -132q0 -100 -44 -156t-122 -56q-31 0 -56.5 7.5t-39.5 20.5q-22 -14 -48.5 -21.5t-54.5 -7.5q-53 0 -83.5 29.5t-30.5 77.5q0 49 29 76q36 33 119 33h57v23q0 21 -3.5 33.5t-11.5 20.5
q-17 16 -64 16q-21 0 -46 -2.5t-48 -7.5l-3 53q22 6 51.5 10t53.5 4q75 0 108 -34q28 -29 28 -91v-182zM447 324h-57q-24 0 -40.5 -3.5t-27.5 -13.5q-15 -13 -15 -38q0 -26 15.5 -41.5t51.5 -15.5q20 0 39.5 5.5t33.5 12.5v94z" />
    <glyph glyph-name="exclam" unicode="!" horiz-adv-x="273" 
d="M105 183l-14 501h89l-14 -501h-61zM189 35q0 -26 -13 -37.5t-37 -11.5h-5q-24 0 -37 11.5t-13 37.5v8q0 26 13 37.5t37 11.5h5q24 0 37 -11.5t13 -37.5v-8z" />
    <glyph glyph-name="exclamdown" unicode="&#xa1;" horiz-adv-x="273" 
d="M168.007 307.011l13.999 -500.969h-88.9951l13.999 500.969h60.9971zM84.0117 455.002q0 25.999 12.999 37.498t36.998 11.499h4.99902q23.999 0 36.998 -11.499t12.999 -37.498v-7.99902q0 -25.999 -12.999 -37.498t-36.998 -11.499h-4.99902q-23.999 0 -36.998 11.499
t-12.999 37.498v7.99902z" />
    <glyph glyph-name="question" unicode="?" horiz-adv-x="414" 
d="M143 183q-3 16 -3 31q0 19 3 36t10.5 34.5t20 36.5t32.5 42l12 14q36 42 55 76t19 76q0 48 -28 71q-15 13 -37.5 19t-57.5 6q-30 0 -62 -4t-58 -11l-13 65q72 22 145 22q55 0 93 -12.5t63 -35.5q43 -41 43 -109q0 -54 -22 -95.5t-65 -90.5l-41.5 -49t-26.5 -38t-15 -37.5
t-6 -46.5h-61zM230 35q0 -26 -13 -37.5t-37 -11.5h-5q-24 0 -37 11.5t-13 37.5v8q0 26 13 37.5t37 11.5h5q24 0 37 -11.5t13 -37.5v-8z" />
    <glyph glyph-name="questiondown" unicode="&#xbf;" horiz-adv-x="414" 
d="M271.009 307.011q3 -15.999 3 -30.998q0 -18.998 -3 -35.9971t-10.499 -34.498q-7.5 -17.499 -19.999 -36.498t-32.498 -41.9971l-11.999 -13.999q-35.998 -41.998 -54.9971 -75.9961t-18.999 -75.9951q0 -47.9971 27.998 -70.9951q15 -13 37.498 -18.999
q22.499 -6 57.4971 -6q29.998 0 61.9961 4t57.9961 10.999l12.999 -64.9961q-71.9951 -21.998 -144.991 -21.998q-54.9961 0 -92.9941 12.499q-37.9971 12.499 -62.9961 35.498q-42.9971 40.9971 -42.9971 108.993q0 53.9961 21.998 95.4941q21.999 41.4971 64.9961 90.4941
l41.498 48.9971t26.498 37.998t14.999 37.4971q5 19.499 6 46.4971h60.9961zM184.014 455.002q0 25.999 13 37.498q12.999 11.499 36.9971 11.499h5q23.998 0 36.998 -11.499q12.999 -11.499 12.999 -37.498v-7.99902q0 -25.999 -12.999 -37.498
q-13 -11.499 -36.998 -11.499h-5q-23.998 0 -36.9971 11.499q-13 11.499 -13 37.498v7.99902z" />
    <glyph glyph-name="asterisk" unicode="*" horiz-adv-x="438" 
d="M219 443l-83 -129l-56 44l99 117l-145 43l24 68l136 -63l-12 161h72l-10 -161l136 63l24 -68l-145 -43l99 -117l-56 -44z" />
    <glyph glyph-name="period" unicode="." horiz-adv-x="227" 
d="M110 -14q-23 0 -36.5 12.5t-13.5 41.5v4q0 29 13.5 41.5t36.5 12.5h7q23 0 36.5 -12.5t13.5 -41.5v-4q0 -29 -13.5 -41.5t-36.5 -12.5h-7z" />
    <glyph glyph-name="comma" unicode="," horiz-adv-x="227" 
d="M165 29q0 -15 -2 -37t-5.5 -45.5t-7.5 -46.5t-8 -41h-39v125q-22 5 -34.5 18t-12.5 39v3q0 30 14 42t37 12h1q29 0 43 -15.5t14 -53.5z" />
    <glyph glyph-name="colon" unicode=":" horiz-adv-x="227" 
d="M110 -14q-23 0 -36.5 12.5t-13.5 41.5v4q0 29 13.5 41.5t36.5 12.5h7q23 0 36.5 -12.5t13.5 -41.5v-4q0 -29 -13.5 -41.5t-36.5 -12.5h-7zM110 297q-23 0 -36.5 12.5t-13.5 41.5v4q0 29 13.5 41.5t36.5 12.5h7q23 0 36.5 -12.5t13.5 -41.5v-4q0 -29 -13.5 -41.5
t-36.5 -12.5h-7z" />
    <glyph glyph-name="semicolon" unicode=";" horiz-adv-x="227" 
d="M110 297q-23 0 -36.5 12.5t-13.5 41.5v4q0 29 13.5 41.5t36.5 12.5h7q23 0 36.5 -12.5t13.5 -41.5v-4q0 -29 -13.5 -41.5t-36.5 -12.5h-7zM168 29q0 -15 -2 -37t-5.5 -45.5t-7.5 -46.5t-8 -41h-39v125q-22 5 -34.5 18t-12.5 39v3q0 30 14 42t37 12h1q29 0 43 -15.5
t14 -53.5z" />
    <glyph glyph-name="ellipsis" unicode="&#x2026;" horiz-adv-x="681" 
d="M110 -14q-23 0 -36.5 12.5t-13.5 41.5v4q0 29 13.5 41.5t36.5 12.5h7q23 0 36.5 -12.5t13.5 -41.5v-4q0 -29 -13.5 -41.5t-36.5 -12.5h-7zM337 -14q-23 0 -36.5 12.5t-13.5 41.5v4q0 29 13.5 41.5t36.5 12.5h7q23 0 36.5 -12.5t13.5 -41.5v-4q0 -29 -13.5 -41.5
t-36.5 -12.5h-7zM564 -14q-23 0 -36.5 12.5t-13.5 41.5v4q0 29 13.5 41.5t36.5 12.5h7q23 0 36.5 -12.5t13.5 -41.5v-4q0 -29 -13.5 -41.5t-36.5 -12.5h-7z" />
    <glyph glyph-name="periodcentered" unicode="&#xb7;" horiz-adv-x="227" 
d="M110 299q-23 0 -36.5 12.5t-13.5 41.5v4q0 29 13.5 41.5t36.5 12.5h7q23 0 36.5 -12.5t13.5 -41.5v-4q0 -29 -13.5 -41.5t-36.5 -12.5h-7z" />
    <glyph glyph-name="bullet" unicode="&#x2022;" horiz-adv-x="364" 
d="M307 333q0 -65 -29.5 -92t-86.5 -27h-18q-57 0 -86.5 27t-29.5 92v16q0 65 29.5 92t86.5 27h18q57 0 86.5 -27t29.5 -92v-16z" />
    <glyph glyph-name="slash" unicode="/" horiz-adv-x="452" 
d="M119 -14h-81l295 711h81z" />
    <glyph glyph-name="parenleft" unicode="(" horiz-adv-x="333" 
d="M74 258q0 153 56 276.5t152 208.5l45 -34q-32 -39 -61 -85.5t-50.5 -102.5t-34.5 -121.5t-13 -141.5t13 -141.5t34.5 -121.5t50.5 -102.5t61 -85.5l-45 -34q-96 85 -152 208.5t-56 276.5z" />
    <glyph glyph-name="brokenbar" unicode="&#xa6;" horiz-adv-x="244" 
d="M86 357v386h72v-386h-72zM86 -253v387h72v-387h-72z" />
    <glyph glyph-name="parenright" unicode=")" horiz-adv-x="333" 
d="M259 258q0 -153 -56 -276.5t-152 -208.5l-45 34q32 39 61 85.5t50.5 102.5t34.5 121.5t13 141.5t-13 141.5t-34.5 121.5t-50.5 102.5t-61 85.5l45 34q96 -85 152 -208.5t56 -276.5z" />
    <glyph glyph-name="bracketleft" unicode="[" horiz-adv-x="342" 
d="M114 -207v934h199v-65h-112v-804h112v-65h-199z" />
    <glyph glyph-name="backslash" unicode="\" horiz-adv-x="452" 
d="M38 697h81l295 -711h-81z" />
    <glyph glyph-name="bracketright" unicode="]" horiz-adv-x="342" 
d="M29 -207v65h112v804h-112v65h199v-934h-199z" />
    <glyph glyph-name="braceleft" unicode="{" horiz-adv-x="359" 
d="M56 294q28 5 47.5 12t32.5 21q15 15 21.5 41t6.5 68v163q0 38 7 61t23 37q33 30 112 30h25v-65h-17q-41 0 -53 -12q-7 -7 -9.5 -18.5t-2.5 -33.5v-164q0 -49 -6.5 -78t-21.5 -49q-22 -29 -63 -47q41 -18 63 -47q15 -20 21.5 -49t6.5 -78v-164q0 -22 2.5 -33.5t9.5 -18.5
q12 -12 53 -12h17v-65h-25q-79 0 -112 30q-16 14 -23 37t-7 61v163q0 42 -6.5 68t-21.5 41q-13 14 -32.5 21t-47.5 12v68z" />
    <glyph glyph-name="bar" unicode="|" horiz-adv-x="244" 
d="M86 -253v996h72v-996h-72z" />
    <glyph glyph-name="braceright" unicode="}" horiz-adv-x="359" 
d="M303 226q-28 -5 -47.5 -12t-32.5 -21q-15 -15 -21.5 -41t-6.5 -68v-163q0 -38 -7 -61t-23 -37q-33 -30 -112 -30h-25v65h17q41 0 53 12q7 7 9.5 18.5t2.5 33.5v164q0 49 6.5 78t21.5 49q22 29 63 47q-41 18 -63 47q-15 20 -21.5 49t-6.5 78v164q0 22 -2.5 33.5t-9.5 18.5
q-12 12 -53 12h-17v65h25q79 0 112 -30q16 -14 23 -37t7 -61v-163q0 -42 6.5 -68t21.5 -41q13 -14 32.5 -21t47.5 -12v-68z" />
    <glyph glyph-name="hyphen" unicode="-" horiz-adv-x="322" 
d="M60 224v71h202v-71h-202z" />
    <glyph glyph-name="uni00AD" unicode="&#xad;" horiz-adv-x="322" 
d="M60 224v71h202v-71h-202z" />
    <glyph glyph-name="endash" unicode="&#x2013;" horiz-adv-x="500" 
d="M0 224v71h500v-71h-500z" />
    <glyph glyph-name="emdash" unicode="&#x2014;" horiz-adv-x="1000" 
d="M0 224v71h1000v-71h-1000z" />
    <glyph glyph-name="underscore" unicode="_" horiz-adv-x="430" 
d="M22 -89v61h386v-61h-386z" />
    <glyph glyph-name="dagger" unicode="&#x2020;" horiz-adv-x="515" 
d="M299 -237h-83l9 615l-191 -9v78l191 -11l-10 248h85l-10 -248l191 11v-78l-191 9z" />
    <glyph glyph-name="daggerdbl" unicode="&#x2021;" horiz-adv-x="515" 
d="M290 69l191 9v-78l-191 11l10 -248h-85l10 248l-191 -11v78l191 -9v309l-191 -9v78l191 -11l-10 248h85l-10 -248l191 11v-78l-191 9v-309z" />
    <glyph glyph-name="section" unicode="&#xa7;" horiz-adv-x="555" 
d="M89 348q0 35 14 61.5t35 44.5q-23 17 -36.5 42t-13.5 62q0 39 15 65.5t40.5 43t60 23.5t73.5 7q38 0 77 -5.5t68 -13.5l-11 -63q-28 7 -65.5 11.5t-65.5 4.5q-58 0 -85 -16t-27 -53q0 -30 18.5 -46.5t64.5 -27.5l72 -16q36 -8 63 -18.5t45 -26t27 -38.5t9 -56
q0 -35 -14 -61.5t-35 -44.5q23 -17 36 -42t13 -60q0 -39 -15 -65.5t-41 -43t-60 -23.5t-73 -7q-19 0 -40 1.5t-41.5 4.5t-39.5 6.5t-34 7.5l11 64q28 -7 66 -12.5t75 -5.5q60 0 86 17t26 52q0 31 -18.5 47t-64.5 27l-72 16q-72 16 -107.5 46.5t-35.5 90.5zM391 324
q0 16 -5 28.5t-16 21.5t-30 16t-47 13l-63 14q-23 5 -37 10q-14 -14 -21 -32t-7 -38q0 -16 4.5 -27.5t15.5 -20.5t29.5 -16t47.5 -13l63 -14q14 -3 22.5 -5.5t16.5 -5.5q27 29 27 69z" />
    <glyph glyph-name="paragraph" unicode="&#xb6;" horiz-adv-x="602" 
d="M541 684v-66h-70v-821h-72v821h-79v-821h-72v529q-87 0 -138.5 46t-51.5 133q0 76 42 123q26 28 66.5 42t93.5 14h281z" />
    <glyph glyph-name="registered" unicode="&#xae;" horiz-adv-x="768" 
d="M329 175h-58v342h105q36 0 61.5 -6.5t41.5 -22.5q26 -26 26 -74q0 -38 -16 -62.5t-44 -35.5l71 -141h-62l-63 131h-62v-131zM329 352h47q20 0 32.5 2t20.5 9q17 14 17 51q0 30 -14 44q-8 8 -21.5 10.5t-34.5 2.5h-47v-119zM728 342q0 -73 -23 -138t-66.5 -113.5
t-108 -76.5t-146.5 -28q-83 0 -147 28t-107.5 76.5t-66.5 113.5t-23 138t23 137.5t66.5 113t107.5 76.5t147 28q82 0 146.5 -28t108 -76.5t66.5 -113t23 -137.5zM658 342q0 68 -19 122.5t-54.5 92t-86.5 57.5t-114 20t-114 -20t-86.5 -57.5t-54.5 -92t-19 -122.5t19 -122.5
t54.5 -92.5t86.5 -58t114 -20t114 20t86.5 58t54.5 92.5t19 122.5z" />
    <glyph glyph-name="copyright" unicode="&#xa9;" horiz-adv-x="768" 
d="M480 179q-17 -5 -38.5 -8.5t-42.5 -3.5q-152 0 -152 177q0 86 40.5 131.5t110.5 45.5q23 0 45 -4t39 -11l-6 -45q-17 5 -36 8t-35 3q-53 0 -74.5 -33.5t-21.5 -94.5q0 -67 23.5 -97.5t74.5 -30.5q17 0 36.5 3t34.5 6zM728 342q0 -73 -23 -138t-66.5 -113.5t-108 -76.5
t-146.5 -28q-83 0 -147 28t-107.5 76.5t-66.5 113.5t-23 138t23 137.5t66.5 113t107.5 76.5t147 28q82 0 146.5 -28t108 -76.5t66.5 -113t23 -137.5zM658 342q0 68 -19 122.5t-54.5 92t-86.5 57.5t-114 20t-114 -20t-86.5 -57.5t-54.5 -92t-19 -122.5t19 -122.5t54.5 -92.5
t86.5 -58t114 -20t114 20t86.5 58t54.5 92.5t19 122.5z" />
    <glyph glyph-name="trademark" unicode="&#x2122;" horiz-adv-x="679" 
d="M478 482l100 202h57v-323h-60v203l-77 -155h-43l-76 157v-205h-57v323h60zM12 633v51h261v-51h-99v-272h-63v272h-99z" />
    <glyph glyph-name="quotedblleft" unicode="&#x201c;" horiz-adv-x="385" 
d="M60 527q0 15 2 37t5.5 45.5t7.5 46.5t8 41h39v-125q22 -5 34.5 -18t12.5 -39v-3q0 -30 -14 -42t-37 -12h-1q-29 0 -43 15.5t-14 53.5zM226 527q0 15 2 37t5.5 45.5t7.5 46.5t8 41h39v-125q22 -5 34.5 -18t12.5 -39v-3q0 -30 -14 -42t-37 -12h-1q-29 0 -43 15.5t-14 53.5z
" />
    <glyph glyph-name="quotedblright" unicode="&#x201d;" horiz-adv-x="385" 
d="M325 628q0 -15 -2 -37t-5.5 -45.5t-7.5 -46.5t-8 -41h-39v125q-22 5 -34.5 18t-12.5 39v3q0 30 14 42t37 12h1q29 0 43 -15.5t14 -53.5zM159 628q0 -15 -2 -37t-5.5 -45.5t-7.5 -46.5t-8 -41h-39v125q-22 5 -34.5 18t-12.5 39v3q0 30 14 42t37 12h1q29 0 43 -15.5
t14 -53.5z" />
    <glyph glyph-name="quoteleft" unicode="&#x2018;" horiz-adv-x="219" 
d="M60 527q0 15 2 37t5.5 45.5t7.5 46.5t8 41h39v-125q22 -5 34.5 -18t12.5 -39v-3q0 -30 -14 -42t-37 -12h-1q-29 0 -43 15.5t-14 53.5z" />
    <glyph glyph-name="quoteright" unicode="&#x2019;" horiz-adv-x="219" 
d="M159 628q0 -15 -2 -37t-5.5 -45.5t-7.5 -46.5t-8 -41h-39v125q-22 5 -34.5 18t-12.5 39v3q0 30 14 42t37 12h1q29 0 43 -15.5t14 -53.5z" />
    <glyph glyph-name="guillemotleft" unicode="&#xab;" horiz-adv-x="526" 
d="M72 262q0 14 6.5 25.5t23.5 31.5l132 150l39 -32l-119 -175l119 -175l-39 -32l-132 150q-17 20 -23.5 31.5t-6.5 25.5zM261 262q0 14 6.5 25.5t23.5 31.5l132 150l39 -32l-119 -175l119 -175l-39 -32l-132 150q-17 20 -23.5 31.5t-6.5 25.5z" />
    <glyph glyph-name="guillemotright" unicode="&#xbb;" horiz-adv-x="526" 
d="M265 262q0 -14 -6.5 -25.5t-23.5 -31.5l-132 -150l-39 32l119 175l-119 175l39 32l132 -150q17 -20 23.5 -31.5t6.5 -25.5zM454 262q0 -14 -6.5 -25.5t-23.5 -31.5l-132 -150l-39 32l119 175l-119 175l39 32l132 -150q17 -20 23.5 -31.5t6.5 -25.5z" />
    <glyph glyph-name="guilsinglleft" unicode="&#x2039;" horiz-adv-x="337" 
d="M72 262q0 14 6.5 25.5t23.5 31.5l132 150l39 -32l-119 -175l119 -175l-39 -32l-132 150q-17 20 -23.5 31.5t-6.5 25.5z" />
    <glyph glyph-name="guilsinglright" unicode="&#x203a;" horiz-adv-x="337" 
d="M265 262q0 -14 -6.5 -25.5t-23.5 -31.5l-132 -150l-39 32l119 175l-119 175l39 32l132 -150q17 -20 23.5 -31.5t6.5 -25.5z" />
    <glyph glyph-name="quotesinglbase" unicode="&#x201a;" horiz-adv-x="219" 
d="M159 17q0 -15 -2 -37t-5.5 -45.5t-7.5 -46.5t-8 -41h-39v125q-22 5 -34.5 18t-12.5 39v3q0 30 14 42t37 12h1q29 0 43 -15.5t14 -53.5z" />
    <glyph glyph-name="quotedblbase" unicode="&#x201e;" horiz-adv-x="385" 
d="M325 17q0 -15 -2 -37t-5.5 -45.5t-7.5 -46.5t-8 -41h-39v125q-22 5 -34.5 18t-12.5 39v3q0 30 14 42t37 12h1q29 0 43 -15.5t14 -53.5zM159 17q0 -15 -2 -37t-5.5 -45.5t-7.5 -46.5t-8 -41h-39v125q-22 5 -34.5 18t-12.5 39v3q0 30 14 42t37 12h1q29 0 43 -15.5t14 -53.5
z" />
    <glyph glyph-name="ordfeminine" unicode="&#xaa;" horiz-adv-x="407" 
d="M266 504h-62q-42 0 -60 -12.5t-18 -38.5q0 -50 64 -50q17 0 39 4.5t37 11.5v85zM60 452q0 50 33.5 76t106.5 26h66v27q0 35 -17 48.5t-59 13.5q-20 0 -46.5 -2.5t-48.5 -7.5l-3 52q21 5 50 8.5t56 3.5q72 0 102.5 -29t30.5 -90v-224h-51l-6 22q-20 -13 -47 -21t-52 -8
q-53 0 -84 27t-31 78z" />
    <glyph glyph-name="ordmasculine" unicode="&#xba;" horiz-adv-x="420" 
d="M367 522q0 -82 -40 -128.5t-117 -46.5t-117 46.5t-40 128.5t40 128.5t117 46.5t117 -46.5t40 -128.5zM297 522q0 60 -22 88.5t-65 28.5t-65 -28.5t-22 -88.5t22 -88.5t65 -28.5t65 28.5t22 88.5z" />
    <glyph glyph-name="zero" unicode="0" horiz-adv-x="552" 
d="M511 341q0 -84 -13 -149.5t-41 -111.5t-72.5 -70t-108.5 -24t-108.5 24t-72.5 70t-41 111.5t-13 149.5t13 150t41 111.5t72.5 70t108.5 24.5t108.5 -24.5t72.5 -70t41 -111.5t13 -150zM424 341q0 143 -32.5 214t-115.5 71t-115.5 -71t-32.5 -214t32.5 -213.5t115.5 -70.5
t115.5 70.5t32.5 213.5z" />
    <glyph glyph-name="one" unicode="1" horiz-adv-x="552" 
d="M432 64v-64h-304v64h118v560h-116v56q15 2 34 4t38.5 3.5t37 2.5t31.5 1q32 0 44.5 -10t12.5 -37v-580h104z" />
    <glyph glyph-name="two" unicode="2" horiz-adv-x="552" 
d="M472 66v-66h-400q-2 5 -3 11.5t-1 11.5q0 20 7.5 37.5t32.5 47.5l157 192q30 36 50.5 65t33 54t18.5 47.5t6 46.5q0 64 -38.5 89.5t-108.5 25.5q-31 0 -69.5 -3.5t-74.5 -11.5v65q36 9 76 14t80 5q54 0 97.5 -12t72.5 -38q25 -22 38.5 -54.5t13.5 -75.5q0 -31 -6.5 -58
t-21.5 -56.5t-40.5 -64t-64.5 -79.5l-164 -193h309z" />
    <glyph glyph-name="three" unicode="3" horiz-adv-x="552" 
d="M75 69q29 -6 66 -9.5t70 -3.5q48 0 79 7.5t52 23.5q44 32 44 102q0 28 -8.5 52t-25.5 40q-22 20 -56 28.5t-83 8.5h-18v62h17q75 0 116 30t41 98q0 60 -34 89q-20 17 -49.5 24t-74.5 7q-29 0 -61 -3t-64 -8v65q33 8 71 11.5t70 3.5q120 0 176 -54q50 -48 50 -131
q0 -61 -29 -99.5t-74 -55.5q57 -20 90 -62t33 -107q0 -49 -16.5 -86t-47.5 -63q-32 -26 -78 -39.5t-109 -13.5q-39 0 -78 4.5t-69 12.5v66z" />
    <glyph glyph-name="four" unicode="4" horiz-adv-x="552" 
d="M43 167q-1 5 -1.5 12.5t-0.5 13.5q0 17 3.5 32.5t14.5 45.5l144 413h81l-159 -450h227v173h82v-173h83v-67h-83v-167h-82v167h-309z" />
    <glyph glyph-name="five" unicode="5" horiz-adv-x="552" 
d="M99 338q-2 4 -2.5 10t-0.5 11v13t1 24l13 288h327v-66h-257l-9 -213h52q78 0 125.5 -14t78.5 -46q52 -54 52 -145q0 -96 -55 -151q-62 -63 -194 -63q-35 0 -75.5 4.5t-67.5 11.5v65q13 -2 30.5 -4t35 -3.5t33.5 -2.5t28 -1q51 0 83 8.5t54 26.5q41 35 41 107
q0 32 -8.5 59t-25.5 44q-20 20 -55 28.5t-92 8.5h-112z" />
    <glyph glyph-name="six" unicode="6" horiz-adv-x="552" 
d="M439 621q-23 3 -52 5.5t-53 2.5q-51 0 -85 -16t-56 -47t-32 -77t-13 -106q36 15 79 26t86 11q89 0 140.5 -51.5t51.5 -153.5q0 -50 -14 -91.5t-41.5 -72.5t-68 -48t-93.5 -17q-63 0 -106 22.5t-69.5 64t-38.5 100.5t-12 133q0 222 80 317q32 38 78.5 56t106.5 18
q26 0 56.5 -3.5t55.5 -8.5v-64zM147 287q0 -54 7 -97t23.5 -73t44 -46.5t68.5 -16.5q65 0 98 42t33 114q0 70 -28 106.5t-97 36.5q-33 0 -73.5 -7.5t-75.5 -18.5v-40z" />
    <glyph glyph-name="seven" unicode="7" horiz-adv-x="552" 
d="M483 684q3 -8 3 -22t-2 -27t-9 -33l-205 -602h-91l223 618h-330v66h411v0z" />
    <glyph glyph-name="eight" unicode="8" horiz-adv-x="552" 
d="M501 177q0 -44 -16.5 -79t-46.5 -60t-72 -38.5t-93 -13.5q-52 0 -93.5 13t-70 37t-43.5 57.5t-15 74.5q0 64 38.5 113t97.5 78q-23 13 -42.5 29t-34.5 35.5t-23.5 44t-8.5 55.5q0 39 14.5 71t41 55t63 35.5t80.5 12.5q45 0 81 -13.5t61.5 -36t39.5 -52t14 -62.5
q0 -57 -33 -101t-91 -72q30 -15 57.5 -32.5t48.5 -39t33.5 -49t12.5 -62.5zM133 174q0 -58 37.5 -88.5t103.5 -30.5t105 29.5t39 84.5q0 31 -14.5 54t-38 41t-54 33l-61.5 30q-51 -25 -84 -63t-33 -90zM396 527q0 44 -32 73t-86 29q-55 0 -88.5 -27.5t-33.5 -73.5
q0 -25 10.5 -45t28.5 -36t42 -30t51 -27q52 26 80 60.5t28 76.5z" />
    <glyph glyph-name="nine" unicode="9" horiz-adv-x="552" 
d="M113 62q23 -3 52 -5.5t53 -2.5q51 0 85 16t56 47t32 77t13 106q-36 -15 -79 -26t-86 -11q-89 0 -140.5 51.5t-51.5 153.5q0 49 14 91t41.5 73t68 48t93.5 17q63 0 106 -22.5t69.5 -64t38.5 -101t12 -132.5q0 -222 -80 -317q-32 -38 -78.5 -56t-106.5 -18q-26 0 -56.5 3.5
t-55.5 8.5v64zM405 396q0 54 -7 97t-23.5 73t-44 46.5t-68.5 16.5q-65 0 -98 -42t-33 -114q0 -70 28 -106.5t97 -36.5q33 0 73.5 7.5t75.5 18.5v40z" />
    <glyph glyph-name="dollar" unicode="$" horiz-adv-x="552" 
d="M91 87q38 -11 82 -19t86 -8v256q-35 13 -69 28.5t-61 38t-43.5 54t-16.5 77.5q0 82 51 127.5t139 53.5v124h59v-123q39 -2 77 -8t69 -17l-13 -68q-69 17 -133 20v-240q34 -14 67.5 -29.5t60 -38.5t43 -55t16.5 -77t-14 -80t-40 -59q-49 -46 -133 -55v-125h-59v122
q-46 2 -96 10t-87 23zM420 174q0 46 -29.5 72.5t-72.5 45.5v-228q39 7 65 27q37 29 37 83zM153 520q0 -22 8 -38.5t22.5 -30t33.5 -24t42 -20.5v213q-51 -6 -78.5 -30.5t-27.5 -69.5z" />
    <glyph glyph-name="cent" unicode="&#xa2;" horiz-adv-x="552" 
d="M294 -126v115q-45 5 -78 18.5t-57 39.5q-31 32 -48 79.5t-17 112.5q0 129 64 198q25 27 59.5 43t76.5 21v115h58v-112q26 -1 53 -5t50 -10l-5 -64q-23 4 -49 7.5t-49 4.5v-383q25 0 54 3t48 7l6 -62q-21 -6 -51.5 -10t-56.5 -6v-112h-58zM222 100q26 -31 72 -41v372
q-59 -14 -86 -62t-27 -129q0 -93 41 -140z" />
    <glyph glyph-name="Euro" unicode="&#x20ac;" horiz-adv-x="552" 
d="M206 241q12 -97 59 -141.5t138 -44.5q29 0 63 4t66 12v-66q-31 -8 -68.5 -13.5t-73.5 -5.5q-127 0 -191 64t-81 191h-78v46l72 9q-1 9 -1 20v41h-71v46l75 9q14 139 80 212t189 73q32 0 69 -5t67 -14v-66q-32 7 -64.5 10.5t-60.5 3.5q-95 0 -139 -54t-54 -158h201v-57
h-205v-37.5t1 -21.5h204v-57h-197z" />
    <glyph glyph-name="florin" unicode="&#x192;" horiz-adv-x="552" 
d="M21 -169q12 -2 31 -3.5t35 -1.5q31 0 49.5 6.5t30.5 19.5q16 17 23 45t11 77l26 317h-112v45l116 11l15 186q5 58 17.5 94.5t35.5 59.5q45 45 134 45q18 0 38 -2t37 -5v-63q-12 2 -31 3.5t-35 1.5q-31 0 -49.5 -6.5t-30.5 -19.5q-16 -17 -23 -45t-11 -77l-14 -170h128
v-58h-132l-27 -331q-5 -58 -17.5 -94.5t-35.5 -59.5q-45 -45 -134 -45q-18 0 -38 2t-37 5v63z" />
    <glyph glyph-name="sterling" unicode="&#xa3;" horiz-adv-x="552" 
d="M396 327h-164q5 -23 8.5 -45t3.5 -43q0 -54 -21 -93t-62 -80h345v-66h-422q-2 7 -3.5 18t-1.5 20q0 14 4.5 25t17.5 27q30 37 45.5 68.5t15.5 73.5q0 23 -4.5 47.5t-9.5 47.5h-88v45l77 9q-7 29 -11.5 59t-4.5 61q0 100 60 148t160 48q38 0 74.5 -4.5t68.5 -11.5v-65
q-31 5 -68 8.5t-66 3.5q-77 0 -111.5 -32.5t-34.5 -97.5q0 -26 4.5 -55t11.5 -58h176v-58z" />
    <glyph glyph-name="yen" unicode="&#xa5;" horiz-adv-x="552" 
d="M229 204v47h-134v57h120l-187 376h95l153 -329l161 329h87l-194 -376h118v-57h-135v-47h135v-57h-135v-147h-84v147h-134v57h134z" />
    <glyph glyph-name="numbersign" unicode="#" horiz-adv-x="552" 
d="M382 205l-39 -205h-74l38 205h-115l-39 -205h-75l40 205h-68v66h80l27 140h-107v67h121l40 206h75l-41 -206h115l41 206h74l-41 -206h68v-67h-81l-26 -140h108v-66h-121zM320 271l27 140h-115l-27 -140h115z" />
    <glyph glyph-name="percent" unicode="%" horiz-adv-x="923" 
d="M324 -14h-75l351 711h74zM384 495q0 -41 -9 -77.5t-29 -64.5t-51.5 -44t-75.5 -16t-75.5 16t-51.5 44t-29 64.5t-9 77.5t9 77.5t29 64.5t51.5 44t75.5 16t75.5 -16t51.5 -44t29 -64.5t9 -77.5zM307 495q0 62 -18.5 97.5t-69.5 35.5t-69.5 -35.5t-18.5 -97.5t18.5 -97.5
t69.5 -35.5t69.5 35.5t18.5 97.5zM869 188q0 -41 -9 -77.5t-29 -64.5t-51.5 -44t-75.5 -16t-75.5 16t-51.5 44t-29 64.5t-9 77.5t9 77.5t29 64.5t51.5 44t75.5 16t75.5 -16t51.5 -44t29 -64.5t9 -77.5zM792 188q0 62 -18.5 97.5t-69.5 35.5t-69.5 -35.5t-18.5 -97.5
t18.5 -97.5t69.5 -35.5t69.5 35.5t18.5 97.5z" />
    <glyph glyph-name="perthousand" unicode="&#x2030;" horiz-adv-x="1310" 
d="M384 495q0 -41 -9 -77.5t-29 -64.5t-51.5 -44t-75.5 -16t-75.5 16t-51.5 44t-29 64.5t-9 77.5t9 77.5t29 64.5t51.5 44t75.5 16t75.5 -16t51.5 -44t29 -64.5t9 -77.5zM307 495q0 62 -18.5 97.5t-69.5 35.5t-69.5 -35.5t-18.5 -97.5t18.5 -97.5t69.5 -35.5t69.5 35.5
t18.5 97.5zM869 188q0 -41 -9 -77.5t-29 -64.5t-51.5 -44t-75.5 -16t-75.5 16t-51.5 44t-29 64.5t-9 77.5t9 77.5t29 64.5t51.5 44t75.5 16t75.5 -16t51.5 -44t29 -64.5t9 -77.5zM792 188q0 62 -18.5 97.5t-69.5 35.5t-69.5 -35.5t-18.5 -97.5t18.5 -97.5t69.5 -35.5
t69.5 35.5t18.5 97.5zM1254 188q0 -41 -9 -77.5t-29 -64.5t-51.5 -44t-75.5 -16t-75.5 16t-51.5 44t-29 64.5t-9 77.5t9 77.5t29 64.5t51.5 44t75.5 16t75.5 -16t51.5 -44t29 -64.5t9 -77.5zM1177 188q0 62 -18.5 97.5t-69.5 35.5t-69.5 -35.5t-18.5 -97.5t18.5 -97.5
t69.5 -35.5t69.5 35.5t18.5 97.5zM324 -14h-75l351 711h74z" />
    <glyph glyph-name="plus" unicode="+" horiz-adv-x="540" 
d="M104 361h134v134h63v-134h135v-63h-135v-135h-63v135h-134v63z" />
    <glyph glyph-name="minus" unicode="&#x2212;" horiz-adv-x="540" 
d="M436 361v-63h-332v63h332z" />
    <glyph glyph-name="multiply" unicode="&#xd7;" horiz-adv-x="540" 
d="M130 234l95 95l-95 95l45 44l94 -94l96 95l44 -45l-95 -95l95 -95l-44 -45l-96 95l-94 -94z" />
    <glyph glyph-name="less" unicode="&#x3c;" horiz-adv-x="540" 
d="M104 296v68l332 166v-72l-261 -128l261 -125v-74z" />
    <glyph glyph-name="divide" unicode="&#xf7;" horiz-adv-x="540" 
d="M436 361v-63h-332v63h332zM272 123q-23 0 -36.5 11.5t-13.5 40.5v1q0 29 13.5 40.5t36.5 11.5h3q23 0 36.5 -11.5t13.5 -40.5v-1q0 -29 -13.5 -40.5t-36.5 -11.5h-3zM272 431q-23 0 -36.5 11.5t-13.5 40.5v1q0 29 13.5 40.5t36.5 11.5h3q23 0 36.5 -11.5t13.5 -40.5v-1
q0 -29 -13.5 -40.5t-36.5 -11.5h-3z" />
    <glyph glyph-name="equal" unicode="=" horiz-adv-x="540" 
d="M436 451v-63h-332v63h332zM436 271v-63h-332v63h332z" />
    <glyph glyph-name="logicalnot" unicode="&#xac;" horiz-adv-x="540" 
d="M373 388h-269v63h332v-243h-63v180z" />
    <glyph glyph-name="greater" unicode="&#x3e;" horiz-adv-x="540" 
d="M104 131v74l261 125l-261 128v72l332 -166v-68z" />
    <glyph glyph-name="notequal" unicode="&#x2260;" horiz-adv-x="540" 
d="M280 451l48 141h65l-49 -141h92v-63h-114l-40 -117h154v-63h-176l-48 -140h-63l48 140h-93v63h114l40 117h-154v63h176z" />
    <glyph glyph-name="approxequal" unicode="&#x2248;" horiz-adv-x="540" 
d="M386 471l22 -4l22 -4q-5 -90 -74 -90q-21 0 -44 6t-45 13l-42.5 13t-36.5 6q-14 0 -22 -7.5t-12 -26.5l-44 7q4 90 74 90q21 0 43.5 -6l45 -12.5l42.5 -12.5t37 -6q14 0 22 7.5t12 26.5zM386 286q11 -2 22 -3.5t22 -3.5q-5 -90 -74 -90q-21 0 -44 6t-45 13l-42.5 13
t-36.5 6q-27 0 -34 -35l-22 4l-22 4q4 90 74 90q21 0 43.5 -6t45 -13l42.5 -13t37 -6q14 0 22 7.5t12 26.5z" />
    <glyph glyph-name="plusminus" unicode="&#xb1;" horiz-adv-x="540" 
d="M104 361h134v134h63v-134h135v-63h-135v-135h-63v135h-134v63zM436 63v-63h-332v63h332z" />
    <glyph glyph-name="lessequal" unicode="&#x2264;" horiz-adv-x="540" 
d="M436 63v-63h-332v63h332zM104 296v68l332 166v-72l-261 -128l261 -125v-74z" />
    <glyph glyph-name="greaterequal" unicode="&#x2265;" horiz-adv-x="540" 
d="M104 131v74l261 125l-261 128v72l332 -166v-68zM436 63v-63h-332v63h332z" />
    <glyph glyph-name="asciicircum" unicode="^" horiz-adv-x="540" 
d="M389 398l-120 223l-120 -223h-76l163 286h67l163 -286h-77z" />
    <glyph glyph-name="asciitilde" unicode="~" horiz-adv-x="540" 
d="M459 410q-2 -47 -24 -72t-68 -25q-24 0 -49.5 6t-50 13.5t-48 14t-43.5 6.5t-29 -10t-14 -33l-52 11q2 47 24 72t68 25q24 0 49.5 -6.5t50 -14t48 -13.5t43.5 -6t29 10t14 33z" />
    <glyph glyph-name="lozenge" unicode="&#x25ca;" horiz-adv-x="578" 
d="M534 342q0 -13 -6.5 -28.5t-17.5 -32.5l-176 -281h-90l-176 281q-11 17 -17.5 32.5t-6.5 28.5t6.5 28.5t17.5 32.5l176 281h90l176 -281q11 -17 17.5 -32.5t6.5 -28.5zM289 612l-167 -270l167 -270l167 270z" />
    <glyph glyph-name="degree" unicode="&#xb0;" horiz-adv-x="472" 
d="M406 521q0 -82 -44.5 -129t-125.5 -47t-125.5 47t-44.5 129t44.5 129t125.5 47t125.5 -47t44.5 -129zM332 521q0 112 -96 112t-96 -112t96 -112t96 112z" />
    <glyph glyph-name="quotesingle" unicode="'" horiz-adv-x="231" 
d="M83 474l-10 210h85l-10 -210h-65z" />
    <glyph glyph-name="quotedbl" unicode="&#x22;" horiz-adv-x="386" 
d="M83 474l-10 210h85l-10 -210h-65zM237 474l-10 210h86l-10 -210h-66z" />
    <glyph glyph-name="radical" unicode="&#x221a;" horiz-adv-x="659" 
d="M76 429v61h136l145 -403l208 644h78l-244 -731h-91l-161 429h-71z" />
    <glyph glyph-name="currency" unicode="&#xa4;" horiz-adv-x="552" 
d="M452 341q0 -61 -28 -106l76 -76l-45 -45l-76 75q-42 -28 -103 -28q-60 0 -104 28l-75 -75l-45 45l76 76q-28 43 -28 106t28 106l-76 76l45 45l75 -76q43 29 104 29q62 0 103 -29l76 76l45 -45l-76 -76q28 -45 28 -106zM373 341q0 114 -97 114t-97 -114t97 -114t97 114z
" />
    <glyph glyph-name="infinity" unicode="&#x221e;" horiz-adv-x="686" 
d="M202 445q-37 0 -57.5 -28t-20.5 -78q0 -51 21.5 -79.5t61.5 -28.5q35 0 60.5 21.5t51.5 60.5q-12 27 -24 51t-25.5 42t-29.5 28.5t-38 10.5zM347 255q-27 -39 -62 -65.5t-83 -26.5q-36 0 -63.5 13.5t-46 37.5t-28 56t-9.5 70q0 36 9.5 68.5t28 56.5t46.5 38t65 14
q49 0 81 -27.5t54 -66.5q27 39 62 65.5t83 26.5q36 0 63.5 -13.5t46 -37.5t28 -56.5t9.5 -69.5q0 -36 -9.5 -68.5t-28 -56.5t-46.5 -38t-65 -14q-49 0 -81 27.5t-54 66.5zM367 365q12 -27 24 -51t25.5 -42t29.5 -28.5t38 -10.5q37 0 57.5 28t20.5 78q0 51 -21.5 79.5
t-61.5 28.5q-35 0 -60.5 -21.5t-51.5 -60.5z" />
    <glyph glyph-name="mu" unicode="&#xb5;" horiz-adv-x="544" 
d="M405 0l-4 36q-38 -23 -81 -36.5t-86 -13.5q-45 0 -81 14v-225h-83v715h83v-323q0 -32 5.5 -51t18.5 -32q25 -25 79 -25q33 0 69 9t66 23v399h83v-490h-69z" />
    <glyph glyph-name="mu" unicode="&#x3bc;" horiz-adv-x="544" 
d="M405 0l-4 36q-38 -23 -81 -36.5t-86 -13.5q-45 0 -81 14v-225h-83v715h83v-323q0 -32 5.5 -51t18.5 -32q25 -25 79 -25q33 0 69 9t66 23v399h83v-490h-69z" />
    <glyph glyph-name="partialdiff" unicode="&#x2202;" horiz-adv-x="552" 
d="M113 685q25 5 55.5 8.5t56.5 3.5q60 0 106.5 -18t78.5 -56q80 -95 80 -317q0 -74 -12 -133t-38.5 -100.5t-69.5 -64t-106 -22.5q-53 0 -93.5 17t-68 48t-41.5 72.5t-14 91.5q0 102 51.5 153.5t140.5 51.5q43 0 86 -11t79 -26q-3 60 -13 106t-32 77t-56 47t-85 16
q-24 0 -53 -2.5t-52 -5.5v64zM405 327q-35 11 -75.5 18.5t-73.5 7.5q-69 0 -97 -36.5t-28 -106.5q0 -72 33 -114t98 -42q41 0 68.5 16.5t44 46.5t23.5 73t7 97v40z" />
    <glyph glyph-name="summation" unicode="&#x2211;" horiz-adv-x="615" 
d="M66 -225v50l292 407l-296 402v50h487v-68h-375l278 -380l-283 -393h390v-68h-493z" />
    <glyph glyph-name="product" unicode="&#x220f;" horiz-adv-x="726" 
d="M678 616h-89v-841h-89v841h-274v-841h-89v841h-89v68h630v-68z" />
    <glyph glyph-name="pi" unicode="&#x3c0;" horiz-adv-x="613" 
d="M421 429h-229v-429h-83v429h-83v61h561v-61h-83v-429h-83v429z" />
    <glyph glyph-name="integral" unicode="&#x222b;" horiz-adv-x="522" 
d="M302 -56q0 -53 -10.5 -87t-30.5 -55q-41 -41 -122 -41q-19 0 -39 2t-37 4v63q13 -2 32 -3t34 -1q27 0 44 6t28 18q12 14 16 36.5t4 58.5v615q0 53 10.5 87t30.5 55q41 41 122 41q19 0 39 -2t37 -4v-63q-13 2 -32 3t-34 1q-27 0 -44 -6t-28 -18q-12 -14 -16 -36.5
t-4 -58.5v-615z" />
    <glyph glyph-name="Omega" unicode="&#x3a9;" horiz-adv-x="680" 
d="M602 0h-228v38q0 14 4 22t18 22q65 59 99.5 132t34.5 161q0 116 -49.5 181t-140.5 65t-140.5 -65t-49.5 -181q0 -88 34.5 -161t99.5 -132q14 -14 18 -22t4 -22v-38h-228v66h132q-69 52 -109.5 133t-40.5 181q0 72 19.5 130.5t56 100t88 64t116.5 22.5q64 0 116 -22.5
t88.5 -64t56 -100t19.5 -130.5q0 -100 -40.5 -181t-109.5 -133h132v-66z" />
    <glyph glyph-name="Omega" unicode="&#x2126;" horiz-adv-x="680" 
d="M602 0h-228v38q0 14 4 22t18 22q65 59 99.5 132t34.5 161q0 116 -49.5 181t-140.5 65t-140.5 -65t-49.5 -181q0 -88 34.5 -161t99.5 -132q14 -14 18 -22t4 -22v-38h-228v66h132q-69 52 -109.5 133t-40.5 181q0 72 19.5 130.5t56 100t88 64t116.5 22.5q64 0 116 -22.5
t88.5 -64t56 -100t19.5 -130.5q0 -100 -40.5 -181t-109.5 -133h132v-66z" />
    <glyph glyph-name="Delta" unicode="&#x394;" horiz-adv-x="625" 
d="M40 32q0 15 2 25t7 25l210 602h101l215 -602q5 -14 7.5 -27.5t2.5 -33.5v-21h-545v32zM309 596l-179 -531h362z" />
    <glyph glyph-name="Delta" unicode="&#x2206;" horiz-adv-x="625" 
d="M40 32q0 15 2 25t7 25l210 602h101l215 -602q5 -14 7.5 -27.5t2.5 -33.5v-21h-545v32zM309 596l-179 -531h362z" />
    <glyph glyph-name="litre" unicode="&#x2113;" horiz-adv-x="225" 
d="M154 715v-715h-83v715h83z" />
    <glyph glyph-name="estimated" unicode="&#x212e;" horiz-adv-x="894" 
d="M202 333q-7 0 -7 -6v-194q0 -7 3 -12t8 -11q45 -47 108 -74.5t135 -27.5q78 0 143.5 31t110.5 85h59q-56 -63 -137 -100.5t-177 -37.5q-82 0 -154.5 28t-126.5 76t-85.5 112.5t-31.5 138.5t31.5 139t85.5 113t126.5 76t154.5 28q81 0 153 -28t126 -76t85.5 -113
t31.5 -139v-8h-642zM699 554q0 12 -12 24q-46 46 -107.5 72t-130.5 26q-72 0 -134 -26.5t-109 -74.5q-11 -13 -11 -26v-191q0 -6 7 -6h490q7 0 7 6v196z" />
    <glyph glyph-name="numero" unicode="&#x2116;" horiz-adv-x="1062" 
d="M1018 419q0 -87 -46.5 -134.5t-126.5 -47.5t-126.5 47.5t-46.5 134.5t46.5 134.5t126.5 47.5t126.5 -47.5t46.5 -134.5zM945 419q0 58 -26 89.5t-74 31.5t-74 -31.5t-26 -89.5t26 -89.5t74 -31.5t74 31.5t26 89.5zM83 684h62l375 -532v532h79v-684h-68l-369 521v-521h-79
v684z" />
    <glyph glyph-name="fraction" unicode="&#x2044;" horiz-adv-x="409" 
d="M68 -14h-77l351 711h76z" />
    <glyph glyph-name="onesuperior" unicode="&#xb9;" horiz-adv-x="472" 
d="M350 414v-56h-217v56h80v282h-76v53q10 1 24 1.5t28.5 1.5t28 1.5t22.5 0.5q25 0 34 -8t9 -27v-305h67z" />
    <glyph glyph-name="twosuperior" unicode="&#xb2;" horiz-adv-x="472" 
d="M355 415v-57h-248q-3 9 -3 22q0 19 6.5 32t22.5 31l80 93l30.5 36.5t20 28.5t11 24.5t3.5 24.5q0 25 -16 38q-17 14 -60 14q-20 0 -44.5 -2.5t-45.5 -5.5v53q21 5 48 8.5t53 3.5q76 0 111 -35q28 -28 28 -71q0 -22 -7.5 -43t-27 -47.5t-52 -62l-81.5 -85.5h171z" />
    <glyph glyph-name="threesuperior" unicode="&#xb3;" horiz-adv-x="472" 
d="M199 351q-23 0 -48 2.5t-43 7.5v56q17 -4 37.5 -6.5t40.5 -2.5q53 0 76 20q18 15 18 45t-18 45q-21 18 -78 18h-10v51h10q54 0 73 19q16 15 16 44q0 26 -17 38q-18 14 -66 14q-17 0 -38.5 -2t-39.5 -4v54q17 4 43 6.5t51 2.5q63 0 99.5 -27.5t36.5 -79.5q0 -31 -13.5 -54
t-41.5 -34q31 -11 49 -34t18 -63q0 -57 -43 -86.5t-112 -29.5z" />
    <glyph glyph-name="onehalf" unicode="&#xbd;" horiz-adv-x="950" 
d="M331 -14h-77l351 711h76zM322 354v-56h-217v56h80v282h-76v53q10 1 24 1.5t28.5 1.5t28 1.5t22.5 0.5q25 0 34 -8t9 -27v-305h67zM844 58v-57h-248q-3 9 -3 22q0 19 6.5 32t22.5 31l80 93l30.5 36.5t20 28.5t11 24.5t3.5 24.5q0 25 -16 38q-17 14 -60 14
q-20 0 -44.5 -2.5t-45.5 -5.5v53q21 5 48 8.5t53 3.5q76 0 111 -35q28 -28 28 -71q0 -22 -7.5 -43t-27 -47.5t-52 -62l-81.5 -85.5h171z" />
    <glyph glyph-name="onequarter" unicode="&#xbc;" horiz-adv-x="950" 
d="M568 95q-2 8 -2 19q0 18 10 47l83 239h67l-84 -247h107v86h68v-86h47v-58h-47v-95h-68v95h-181zM335 -14h-77l351 711h76zM325 353v-56h-217v56h80v282h-76v53q10 1 24 1.5t28.5 1.5t28 1.5t22.5 0.5q25 0 34 -8t9 -27v-305h67z" />
    <glyph glyph-name="threequarters" unicode="&#xbe;" horiz-adv-x="950" 
d="M568 95q-2 8 -2 19q0 18 10 47l83 239h67l-84 -247h107v86h68v-86h47v-58h-47v-95h-68v95h-181zM337 -14h-77l351 711h76zM189 290q-23 0 -48 2.5t-43 7.5v56q17 -4 37.5 -6.5t40.5 -2.5q53 0 76 20q18 15 18 45t-18 45q-21 18 -78 18h-10v51h10q54 0 73 19q16 15 16 44
q0 26 -17 38q-18 14 -66 14q-17 0 -38.5 -2t-39.5 -4v54q17 4 43 6.5t51 2.5q63 0 99.5 -27.5t36.5 -79.5q0 -31 -13.5 -54t-41.5 -34q31 -11 49 -34t18 -63q0 -57 -43 -86.5t-112 -29.5z" />
    <glyph glyph-name="grave" unicode="`" 
d="M284 569l-191 137l47 63l176 -156z" />
    <glyph glyph-name="acute" unicode="&#xb4;" 
d="M93 613l176 156l47 -63l-191 -137z" />
    <glyph glyph-name="dieresis" unicode="&#xa8;" 
d="M163 654q0 -48 -48 -48h-9q-48 0 -48 48v11q0 48 48 48h9q48 0 48 -48v-11zM352 654q0 -48 -48 -48h-9q-48 0 -48 48v11q0 48 48 48h9q48 0 48 -48v-11z" />
    <glyph glyph-name="circumflex" unicode="&#x2c6;" 
d="M359 600l-30 -30l-124 107l-124 -107l-30 30l119 147h71z" />
    <glyph glyph-name="tilde" unicode="&#x2dc;" 
d="M50 619q4 50 25.5 77t58.5 27q19 0 38 -6t37 -13.5l33.5 -13.5t29.5 -6q15 0 25 8.5t15 31.5l47 -8q-4 -50 -25.5 -77t-58.5 -27q-20 0 -38.5 6t-36.5 13.5t-34 13.5t-29 6q-15 0 -25 -8.5t-15 -31.5z" />
    <glyph glyph-name="macron" unicode="&#xaf;" 
d="M74 621v67h262v-67h-262z" />
    <glyph glyph-name="breve" unicode="&#x2d8;" 
d="M123 720q5 -35 23 -55t59 -20t59 20t23 55l56 -1q-1 -28 -9 -53t-24.5 -43.5t-42 -29t-62.5 -10.5t-63 10.5t-42.5 29t-24 43.5t-8.5 53l56 1v0z" />
    <glyph glyph-name="dotaccent" unicode="&#x2d9;" 
d="M198 601q-23 0 -36.5 12.5t-13.5 41.5v6q0 29 13.5 41.5t36.5 12.5h13q23 0 36.5 -12.5t13.5 -41.5v-6q0 -29 -13.5 -41.5t-36.5 -12.5h-13z" />
    <glyph glyph-name="ring" unicode="&#x2da;" 
d="M319 681q0 -55 -31 -80.5t-81 -25.5h-4q-50 0 -81 25.5t-31 80.5v9q0 55 31 80.5t81 25.5h4q50 0 81 -25.5t31 -80.5v-9zM263 688q0 31 -14.5 44t-42.5 13h-2q-28 0 -42.5 -13t-14.5 -44v-5q0 -31 14.5 -44t42.5 -13h2q28 0 42.5 13t14.5 44v5z" />
    <glyph glyph-name="cedilla" unicode="&#xb8;" 
d="M189 7q-4 -8 -6.5 -16.5t-2.5 -16.5q0 -15 18 -22t40 -16.5t40 -26t18 -49.5q0 -43 -27.5 -66t-77.5 -23q-17 0 -38.5 3.5t-38.5 8.5v52q35 -8 67 -8q51 0 51 28q0 15 -18 23t-39.5 16t-39.5 20.5t-18 38.5q0 28 26 54h46z" />
    <glyph glyph-name="hungarumlaut" unicode="&#x2dd;" 
d="M16 609l143 188l55 -53l-160 -166zM196 609l143 188l55 -53l-160 -166z" />
    <glyph glyph-name="ogonek" unicode="&#x2db;" 
d="M109 -125q0 45 28.5 81t72.5 59h60q-92 -67 -92 -131q0 -50 59 -50q14 0 33 2.5t30 4.5v-52q-18 -5 -41.5 -8t-40.5 -3q-54 0 -81.5 26t-27.5 71z" />
    <glyph glyph-name="caron" unicode="&#x2c7;" 
d="M241 581h-71l-119 147l30 30l124 -107l124 107l30 -30z" />
    <glyph glyph-name="commaaccent" 
d="M256 -141q0 -14 -2 -33t-5 -39.5t-6.5 -41t-7.5 -36.5h-37v109q-20 4 -32 16.5t-12 35.5v3q0 27 14.5 39t34.5 12h1q27 0 39.5 -15t12.5 -50z" />
    <glyph glyph-name="grave.cap" 
d="M284 759l-191 137l47 63l176 -156z" />
    <glyph glyph-name="acute.cap" 
d="M93 803l176 156l47 -63l-191 -137z" />
    <glyph glyph-name="dieresis.cap" 
d="M163 844q0 -48 -48 -48h-9q-48 0 -48 48v11q0 48 48 48h9q48 0 48 -48v-11zM352 844q0 -48 -48 -48h-9q-48 0 -48 48v11q0 48 48 48h9q48 0 48 -48v-11z" />
    <glyph glyph-name="circumflex.cap" 
d="M359 791l-30 -30l-124 107l-124 -107l-30 30l119 147h71z" />
    <glyph glyph-name="tilde.cap" 
d="M50 814q4 50 25.5 77t58.5 27q19 0 38 -6t37 -13.5l33.5 -13.5t29.5 -6q15 0 25 8.5t15 31.5l47 -8q-4 -50 -25.5 -77t-58.5 -27q-20 0 -38.5 6t-36.5 13.5t-34 13.5t-29 6q-15 0 -25 -8.5t-15 -31.5z" />
    <glyph glyph-name="macron.cap" 
d="M74 811v67h262v-67h-262z" />
    <glyph glyph-name="breve.cap" 
d="M123 910q5 -35 23 -55t59 -20t59 20t23 55l56 -1q-1 -28 -9 -53t-24.5 -43.5t-42 -29t-62.5 -10.5t-63 10.5t-42.5 29t-24 43.5t-8.5 53l56 1v0z" />
    <glyph glyph-name="dotaccent.cap" 
d="M198 791q-23 0 -36.5 12.5t-13.5 41.5v6q0 29 13.5 41.5t36.5 12.5h13q23 0 36.5 -12.5t13.5 -41.5v-6q0 -29 -13.5 -41.5t-36.5 -12.5h-13z" />
    <glyph glyph-name="ring.cap" 
d="M319 871q0 -55 -31 -80.5t-81 -25.5h-4q-50 0 -81 25.5t-31 80.5v9q0 55 31 80.5t81 25.5h4q50 0 81 -25.5t31 -80.5v-9zM263 878q0 31 -14.5 44t-42.5 13h-2q-28 0 -42.5 -13t-14.5 -44v-5q0 -31 14.5 -44t42.5 -13h2q28 0 42.5 13t14.5 44v5z" />
    <glyph glyph-name="hungarumlaut.cap" 
d="M16 799l143 188l55 -53l-160 -166zM196 799l143 188l55 -53l-160 -166z" />
    <glyph glyph-name="caron.cap" 
d="M241 771h-71l-119 147l30 30l124 -107l124 107l30 -30z" />
    <glyph glyph-name="Agrave" unicode="&#xc0;" horiz-adv-x="591" 
d="M420 182h-259l-56 -182h-87l217 684h102l236 -684h-93zM397 252l-110 338h-1l-103 -338h214zM355 759l-191 137l47 63l176 -156z" />
    <glyph glyph-name="Aacute" unicode="&#xc1;" horiz-adv-x="591" 
d="M420 182h-259l-56 -182h-87l217 684h102l236 -684h-93zM397 252l-110 338h-1l-103 -338h214zM174 803l176 156l47 -63l-191 -137z" />
    <glyph glyph-name="Acircumflex" unicode="&#xc2;" horiz-adv-x="591" 
d="M420 182h-259l-56 -182h-87l217 684h102l236 -684h-93zM397 252l-110 338h-1l-103 -338h214zM437 791l-30 -30l-124 107l-124 -107l-30 30l119 147h71z" />
    <glyph glyph-name="Atilde" unicode="&#xc3;" horiz-adv-x="591" 
d="M420 182h-259l-56 -182h-87l217 684h102l236 -684h-93zM397 252l-110 338h-1l-103 -338h214zM129 814q4 50 25.5 77t58.5 27q19 0 38 -6t37 -13.5l33.5 -13.5t29.5 -6q15 0 25 8.5t15 31.5l47 -8q-4 -50 -25.5 -77t-58.5 -27q-20 0 -38.5 6t-36.5 13.5t-34 13.5t-29 6
q-15 0 -25 -8.5t-15 -31.5z" />
    <glyph glyph-name="Adieresis" unicode="&#xc4;" horiz-adv-x="591" 
d="M420 182h-259l-56 -182h-87l217 684h102l236 -684h-93zM397 252l-110 338h-1l-103 -338h214zM243 844q0 -48 -48 -48h-9q-48 0 -48 48v11q0 48 48 48h9q48 0 48 -48v-11zM432 844q0 -48 -48 -48h-9q-48 0 -48 48v11q0 48 48 48h9q48 0 48 -48v-11z" />
    <glyph glyph-name="Amacron" unicode="&#x100;" horiz-adv-x="591" 
d="M420 182h-259l-56 -182h-87l217 684h102l236 -684h-93zM397 252l-110 338h-1l-103 -338h214zM154 811v67h262v-67h-262z" />
    <glyph glyph-name="Abreve" unicode="&#x102;" horiz-adv-x="591" 
d="M420 182h-259l-56 -182h-87l217 684h102l236 -684h-93zM397 252l-110 338h-1l-103 -338h214zM203 910q5 -35 23 -55t59 -20t59 20t23 55l56 -1q-1 -28 -9 -53t-24.5 -43.5t-42 -29t-62.5 -10.5t-63 10.5t-42.5 29t-24 43.5t-8.5 53l56 1v0z" />
    <glyph glyph-name="Aring" unicode="&#xc5;" horiz-adv-x="591" 
d="M420 182h-259l-56 -182h-87l217 684h102l236 -684h-93zM397 252l-110 338h-1l-103 -338h214zM400 871q0 -55 -31 -80.5t-81 -25.5h-4q-50 0 -81 25.5t-31 80.5v9q0 55 31 80.5t81 25.5h4q50 0 81 -25.5t31 -80.5v-9zM344 878q0 31 -14.5 44t-42.5 13h-2q-28 0 -42.5 -13
t-14.5 -44v-5q0 -31 14.5 -44t42.5 -13h2q28 0 42.5 13t14.5 44v5z" />
    <glyph glyph-name="Aringacute" unicode="&#x1fa;" horiz-adv-x="591" 
d="M420 182h-259l-56 -182h-87l217 684h102l236 -684h-93zM397 252l-110 338h-1l-103 -338h214zM399 852q0 -55 -31 -80.5t-81 -25.5h-4q-50 0 -81 25.5t-31 80.5v9q0 55 31 80.5t81 25.5h4q50 0 81 -25.5t31 -80.5v-9zM343 859q0 31 -14.5 44t-42.5 13h-2q-28 0 -42.5 -13
t-14.5 -44v-5q0 -31 14.5 -44t42.5 -13h2q28 0 42.5 13t14.5 44v5zM174 1033l176 156l47 -63l-191 -137z" />
    <glyph glyph-name="Aogonek" unicode="&#x104;" horiz-adv-x="591" 
d="M399 -125q0 39 22.5 71.5t57.5 55.5l-59 180h-259l-56 -182h-87l217 684h102l236 -684h-6q-17 0 -34.5 -9t-34.5 -29q-16 -20 -23 -39.5t-7 -38.5q0 -50 59 -50q14 0 33 2.5t30 4.5v-52q-18 -5 -41.5 -8t-40.5 -3q-54 0 -81.5 26t-27.5 71zM397 252l-110 338h-1
l-103 -338h214z" />
    <glyph glyph-name="AE" unicode="&#xc6;" horiz-adv-x="901" 
d="M542 70h309v-70h-398v182h-245l-105 -182h-93l400 684h435l-8 -70h-295v-232h239v-72h-239v-240zM453 252v354l-205 -354h205z" />
    <glyph glyph-name="AEacute" unicode="&#x1fc;" horiz-adv-x="901" 
d="M542 70h309v-70h-398v182h-245l-105 -182h-93l400 684h435l-8 -70h-295v-232h239v-72h-239v-240zM453 252v354l-205 -354h205zM508 803l176 156l47 -63l-191 -137z" />
    <glyph glyph-name="Cacute" unicode="&#x106;" horiz-adv-x="555" 
d="M513 6q-30 -9 -72.5 -14.5t-78.5 -5.5q-155 0 -230.5 87.5t-75.5 264.5q0 94 22 165.5t67 117.5q36 38 89.5 57t117.5 19q45 0 85.5 -7t73.5 -19l-12 -68q-34 9 -69.5 14t-67.5 5q-104 0 -153 -55q-32 -35 -46 -90.5t-14 -136.5q0 -78 14.5 -133.5t48.5 -90.5
q28 -29 69.5 -42.5t102.5 -13.5q11 0 25.5 1t31 3t33 4.5t31.5 5.5zM241 803l176 156l47 -63l-191 -137z" />
    <glyph glyph-name="Ccedilla" unicode="&#xc7;" horiz-adv-x="555" 
d="M513 6q-30 -9 -72.5 -14.5t-78.5 -5.5h-18.5t-16.5 1q-1 -5 -1 -13q0 -15 18 -22t40 -16.5t40 -26t18 -49.5q0 -43 -27.5 -66t-77.5 -23q-17 0 -38.5 3.5t-38.5 8.5v52q35 -8 67 -8q51 0 51 28q0 15 -18 23t-39.5 16t-39.5 20.5t-18 38.5q0 10 2.5 20.5t9.5 21.5
q-219 45 -219 343q0 94 22 165.5t67 117.5q36 38 89.5 57t117.5 19q45 0 85.5 -7t73.5 -19l-12 -68q-34 9 -69.5 14t-67.5 5q-104 0 -153 -55q-32 -35 -46 -90.5t-14 -136.5q0 -78 14.5 -133.5t48.5 -90.5q28 -29 69.5 -42.5t102.5 -13.5q11 0 25.5 1t31 3t33 4.5t31.5 5.5z
" />
    <glyph glyph-name="Ccircumflex" unicode="&#x108;" horiz-adv-x="555" 
d="M513 6q-30 -9 -72.5 -14.5t-78.5 -5.5q-155 0 -230.5 87.5t-75.5 264.5q0 94 22 165.5t67 117.5q36 38 89.5 57t117.5 19q45 0 85.5 -7t73.5 -19l-12 -68q-34 9 -69.5 14t-67.5 5q-104 0 -153 -55q-32 -35 -46 -90.5t-14 -136.5q0 -78 14.5 -133.5t48.5 -90.5
q28 -29 69.5 -42.5t102.5 -13.5q11 0 25.5 1t31 3t33 4.5t31.5 5.5zM509 791l-30 -30l-124 107l-124 -107l-30 30l119 147h71z" />
    <glyph glyph-name="Ccaron" unicode="&#x10c;" horiz-adv-x="555" 
d="M513 6q-30 -9 -72.5 -14.5t-78.5 -5.5q-155 0 -230.5 87.5t-75.5 264.5q0 94 22 165.5t67 117.5q36 38 89.5 57t117.5 19q45 0 85.5 -7t73.5 -19l-12 -68q-34 9 -69.5 14t-67.5 5q-104 0 -153 -55q-32 -35 -46 -90.5t-14 -136.5q0 -78 14.5 -133.5t48.5 -90.5
q28 -29 69.5 -42.5t102.5 -13.5q11 0 25.5 1t31 3t33 4.5t31.5 5.5zM392 771h-71l-119 147l30 30l124 -107l124 107l30 -30z" />
    <glyph glyph-name="Cdotaccent" unicode="&#x10a;" horiz-adv-x="555" 
d="M513 6q-30 -9 -72.5 -14.5t-78.5 -5.5q-155 0 -230.5 87.5t-75.5 264.5q0 94 22 165.5t67 117.5q36 38 89.5 57t117.5 19q45 0 85.5 -7t73.5 -19l-12 -68q-34 9 -69.5 14t-67.5 5q-104 0 -153 -55q-32 -35 -46 -90.5t-14 -136.5q0 -78 14.5 -133.5t48.5 -90.5
q28 -29 69.5 -42.5t102.5 -13.5q11 0 25.5 1t31 3t33 4.5t31.5 5.5zM350 791q-23 0 -36.5 12.5t-13.5 41.5v6q0 29 13.5 41.5t36.5 12.5h13q23 0 36.5 -12.5t13.5 -41.5v-6q0 -29 -13.5 -41.5t-36.5 -12.5h-13z" />
    <glyph glyph-name="Dcaron" unicode="&#x10e;" horiz-adv-x="646" 
d="M83 0v684h173q95 0 157.5 -19.5t103.5 -64.5q37 -41 55 -103t18 -151q0 -189 -82 -272q-38 -38 -95 -56t-138 -18h-192zM172 71h100q58 0 96 12t64 38q35 33 50.5 89t15.5 135q0 70 -12 120.5t-38 82.5q-28 34 -73.5 49.5t-123.5 15.5h-79v-542zM359 771h-71l-119 147
l30 30l124 -107l124 107l30 -30z" />
    <glyph glyph-name="Dcroat" unicode="&#x110;" horiz-adv-x="660" 
d="M97 0v310h-85v72h85v302h173q95 0 157.5 -19.5t103.5 -64.5q37 -41 55 -103t18 -151q0 -189 -82 -272q-38 -38 -95 -56t-138 -18h-192zM186 310v-239h100q58 0 96 12t64 38q35 33 50.5 89t15.5 135q0 70 -12 120.5t-38 82.5q-28 34 -73.5 49.5t-123.5 15.5h-79v-231h119
v-72h-119z" />
    <glyph glyph-name="Eth" unicode="&#xd0;" horiz-adv-x="660" 
d="M97 0v310h-85v72h85v302h173q95 0 157.5 -19.5t103.5 -64.5q37 -41 55 -103t18 -151q0 -189 -82 -272q-38 -38 -95 -56t-138 -18h-192zM186 310v-239h100q58 0 96 12t64 38q35 33 50.5 89t15.5 135q0 70 -12 120.5t-38 82.5q-28 34 -73.5 49.5t-123.5 15.5h-79v-231h119
v-72h-119z" />
    <glyph glyph-name="Egrave" unicode="&#xc8;" horiz-adv-x="531" 
d="M172 70h309v-70h-398v684h392l-8 -70h-295v-232h239v-72h-239v-240zM363 759l-191 137l47 63l176 -156z" />
    <glyph glyph-name="Eacute" unicode="&#xc9;" horiz-adv-x="531" 
d="M172 70h309v-70h-398v684h392l-8 -70h-295v-232h239v-72h-239v-240zM176 803l176 156l47 -63l-191 -137z" />
    <glyph glyph-name="Ecircumflex" unicode="&#xca;" horiz-adv-x="531" 
d="M172 70h309v-70h-398v684h392l-8 -70h-295v-232h239v-72h-239v-240zM436 791l-30 -30l-124 107l-124 -107l-30 30l119 147h71z" />
    <glyph glyph-name="Ecaron" unicode="&#x11a;" horiz-adv-x="531" 
d="M172 70h309v-70h-398v684h392l-8 -70h-295v-232h239v-72h-239v-240zM331 771h-71l-119 147l30 30l124 -107l124 107l30 -30z" />
    <glyph glyph-name="Edieresis" unicode="&#xcb;" horiz-adv-x="531" 
d="M172 70h309v-70h-398v684h392l-8 -70h-295v-232h239v-72h-239v-240zM237 844q0 -48 -48 -48h-9q-48 0 -48 48v11q0 48 48 48h9q48 0 48 -48v-11zM426 844q0 -48 -48 -48h-9q-48 0 -48 48v11q0 48 48 48h9q48 0 48 -48v-11z" />
    <glyph glyph-name="Emacron" unicode="&#x112;" horiz-adv-x="531" 
d="M172 70h309v-70h-398v684h392l-8 -70h-295v-232h239v-72h-239v-240zM154 811v67h262v-67h-262z" />
    <glyph glyph-name="Ebreve" unicode="&#x114;" horiz-adv-x="531" 
d="M172 70h309v-70h-398v684h392l-8 -70h-295v-232h239v-72h-239v-240zM205 910q5 -35 23 -55t59 -20t59 20t23 55l56 -1q-1 -28 -9 -53t-24.5 -43.5t-42 -29t-62.5 -10.5t-63 10.5t-42.5 29t-24 43.5t-8.5 53l56 1v0z" />
    <glyph glyph-name="Edotaccent" unicode="&#x116;" horiz-adv-x="531" 
d="M172 70h309v-70h-398v684h392l-8 -70h-295v-232h239v-72h-239v-240zM281 791q-23 0 -36.5 12.5t-13.5 41.5v6q0 29 13.5 41.5t36.5 12.5h13q23 0 36.5 -12.5t13.5 -41.5v-6q0 -29 -13.5 -41.5t-36.5 -12.5h-13z" />
    <glyph glyph-name="Eogonek" unicode="&#x118;" horiz-adv-x="531" 
d="M290 -125q0 38 21 70t55 55h-283v684h392l-8 -70h-295v-232h239v-72h-239v-240h309v-70h-20q-19 0 -32.5 -7t-27.5 -21q-42 -45 -42 -88q0 -50 59 -50q14 0 33 2.5t30 4.5v-52q-18 -5 -41.5 -8t-40.5 -3q-54 0 -81.5 26t-27.5 71z" />
    <glyph glyph-name="Gcircumflex" unicode="&#x11c;" horiz-adv-x="640" 
d="M525 603q-33 9 -72 14.5t-73 5.5q-60 0 -101 -16t-69 -48q-32 -36 -46.5 -92t-14.5 -131q0 -141 53 -209q27 -35 69.5 -51.5t108.5 -16.5q23 0 48 2t45 5v210h-116v70h203v-334q-18 -6 -40.5 -10.5t-47.5 -8t-50.5 -5.5t-48.5 -2q-85 0 -143 22t-96 65q-78 89 -78 258
q0 103 25.5 174t69.5 115q45 44 102 60.5t119 16.5q41 0 85.5 -7t79.5 -19zM524 791l-30 -30l-124 107l-124 -107l-30 30l119 147h71z" />
    <glyph glyph-name="Gbreve" unicode="&#x11e;" horiz-adv-x="640" 
d="M525 603q-33 9 -72 14.5t-73 5.5q-60 0 -101 -16t-69 -48q-32 -36 -46.5 -92t-14.5 -131q0 -141 53 -209q27 -35 69.5 -51.5t108.5 -16.5q23 0 48 2t45 5v210h-116v70h203v-334q-18 -6 -40.5 -10.5t-47.5 -8t-50.5 -5.5t-48.5 -2q-85 0 -143 22t-96 65q-78 89 -78 258
q0 103 25.5 174t69.5 115q45 44 102 60.5t119 16.5q41 0 85.5 -7t79.5 -19zM278 910q5 -35 23 -55t59 -20t59 20t23 55l56 -1q-1 -28 -9 -53t-24.5 -43.5t-42 -29t-62.5 -10.5t-63 10.5t-42.5 29t-24 43.5t-8.5 53l56 1v0z" />
    <glyph glyph-name="Gdotaccent" unicode="&#x120;" horiz-adv-x="640" 
d="M525 603q-33 9 -72 14.5t-73 5.5q-60 0 -101 -16t-69 -48q-32 -36 -46.5 -92t-14.5 -131q0 -141 53 -209q27 -35 69.5 -51.5t108.5 -16.5q23 0 48 2t45 5v210h-116v70h203v-334q-18 -6 -40.5 -10.5t-47.5 -8t-50.5 -5.5t-48.5 -2q-85 0 -143 22t-96 65q-78 89 -78 258
q0 103 25.5 174t69.5 115q45 44 102 60.5t119 16.5q41 0 85.5 -7t79.5 -19zM353 791q-23 0 -36.5 12.5t-13.5 41.5v6q0 29 13.5 41.5t36.5 12.5h13q23 0 36.5 -12.5t13.5 -41.5v-6q0 -29 -13.5 -41.5t-36.5 -12.5h-13z" />
    <glyph glyph-name="Gcommaaccent" unicode="&#x122;" horiz-adv-x="640" 
d="M525 603q-33 9 -72 14.5t-73 5.5q-60 0 -101 -16t-69 -48q-32 -36 -46.5 -92t-14.5 -131q0 -141 53 -209q27 -35 69.5 -51.5t108.5 -16.5q23 0 48 2t45 5v210h-116v70h203v-334q-18 -6 -40.5 -10.5t-47.5 -8t-50.5 -5.5t-48.5 -2q-85 0 -143 22t-96 65q-78 89 -78 258
q0 103 25.5 174t69.5 115q45 44 102 60.5t119 16.5q41 0 85.5 -7t79.5 -19zM426 -141q0 -14 -2 -33t-5 -39.5t-6.5 -41t-7.5 -36.5h-37v109q-20 4 -32 16.5t-12 35.5v3q0 27 14.5 39t34.5 12h1q27 0 39.5 -15t12.5 -50z" />
    <glyph glyph-name="Hcircumflex" unicode="&#x124;" horiz-adv-x="658" 
d="M486 382v302h89v-684h-89v310h-314v-310h-89v684h89v-302h314zM483 791l-30 -30l-124 107l-124 -107l-30 30l119 147h71z" />
    <glyph glyph-name="Hbar" unicode="&#x126;" horiz-adv-x="658" 
d="M83 569v115h89v-115h314v115h89v-115h69v-64h-69v-505h-89v310h-314v-310h-89v505h-69v64h69zM486 382v123h-314v-123h314z" />
    <glyph glyph-name="Igrave" unicode="&#xcc;" horiz-adv-x="261" 
d="M86 684h89v-684h-89v684zM209 759l-191 137l47 63l176 -156z" />
    <glyph glyph-name="Iacute" unicode="&#xcd;" horiz-adv-x="261" 
d="M86 684h89v-684h-89v684zM24 803l176 156l47 -63l-191 -137z" />
    <glyph glyph-name="Icircumflex" unicode="&#xce;" horiz-adv-x="261" 
d="M86 684h89v-684h-89v684zM286 791l-30 -30l-124 107l-124 -107l-30 30l119 147h71z" />
    <glyph glyph-name="Itilde" unicode="&#x128;" horiz-adv-x="261" 
d="M86 684h89v-684h-89v684zM-23 814q4 50 25.5 77t58.5 27q19 0 38 -6t37 -13.5l33.5 -13.5t29.5 -6q15 0 25 8.5t15 31.5l47 -8q-4 -50 -25.5 -77t-58.5 -27q-20 0 -38.5 6t-36.5 13.5t-34 13.5t-29 6q-15 0 -25 -8.5t-15 -31.5z" />
    <glyph glyph-name="Idieresis" unicode="&#xcf;" horiz-adv-x="261" 
d="M86 684h89v-684h-89v684zM90 844q0 -48 -48 -48h-9q-48 0 -48 48v11q0 48 48 48h9q48 0 48 -48v-11zM279 844q0 -48 -48 -48h-9q-48 0 -48 48v11q0 48 48 48h9q48 0 48 -48v-11z" />
    <glyph glyph-name="Imacron" unicode="&#x12a;" horiz-adv-x="261" 
d="M86 684h89v-684h-89v684zM1 811v67h262v-67h-262z" />
    <glyph glyph-name="Ibreve" unicode="&#x12c;" horiz-adv-x="261" 
d="M86 684h89v-684h-89v684zM50 910q5 -35 23 -55t59 -20t59 20t23 55l56 -1q-1 -28 -9 -53t-24.5 -43.5t-42 -29t-62.5 -10.5t-63 10.5t-42.5 29t-24 43.5t-8.5 53l56 1v0z" />
    <glyph glyph-name="Idotaccent" unicode="&#x130;" horiz-adv-x="261" 
d="M86 684h89v-684h-89v684zM125 791q-23 0 -36.5 12.5t-13.5 41.5v6q0 29 13.5 41.5t36.5 12.5h13q23 0 36.5 -12.5t13.5 -41.5v-6q0 -29 -13.5 -41.5t-36.5 -12.5h-13z" />
    <glyph glyph-name="Iogonek" unicode="&#x12e;" horiz-adv-x="261" 
d="M5 -123q0 42 20.5 79t60.5 58v670h89v-684h-9q-21 0 -38 -9t-29 -24t-18.5 -34.5t-6.5 -41.5q0 -30 15 -43.5t44 -13.5q14 0 33 2.5t30 4.5v-52q-18 -5 -41.5 -8t-40.5 -3q-53 0 -81 27t-28 72z" />
    <glyph glyph-name="IJ" unicode="&#x132;" horiz-adv-x="633" 
d="M86 684h89v-684h-89v684zM297 64q16 -2 36 -3.5t37 -1.5q32 0 52 7.5t31 26.5q8 14 11.5 33.5t3.5 51.5v506h89v-505q0 -58 -10 -92.5t-30 -57.5q-21 -23 -55 -33t-81 -10q-17 0 -38.5 2t-37.5 6z" />
    <glyph glyph-name="Jcircumflex" unicode="&#x134;" horiz-adv-x="372" 
d="M36 64q16 -2 36 -3.5t37 -1.5q32 0 52 7.5t31 26.5q8 14 11.5 33.5t3.5 51.5v506h89v-505q0 -58 -10 -92.5t-30 -57.5q-21 -23 -55 -33t-81 -10q-17 0 -38.5 2t-37.5 6zM406 791l-30 -30l-124 107l-124 -107l-30 30l119 147h71z" />
    <glyph glyph-name="Kcommaaccent" unicode="&#x136;" horiz-adv-x="593" 
d="M172 331l285 353h100l-232 -283l243 -401h-101l-198 335l-97 -117v-218h-89v684h89v-353zM361 -141q0 -14 -2 -33t-5 -39.5t-6.5 -41t-7.5 -36.5h-37v109q-20 4 -32 16.5t-12 35.5v3q0 27 14.5 39t34.5 12h1q27 0 39.5 -15t12.5 -50z" />
    <glyph glyph-name="Lacute" unicode="&#x139;" horiz-adv-x="504" 
d="M83 684h89v-614h298v-70h-387v684zM35 803l176 156l47 -63l-191 -137z" />
    <glyph glyph-name="Lcaron" unicode="&#x13d;" horiz-adv-x="504" 
d="M83 684h89v-614h298v-70h-387v684zM368 632q0 -14 -2 -33t-5 -39.5t-6.5 -41t-7.5 -36.5h-37v109q-20 4 -32 16.5t-12 35.5v3q0 27 14.5 39t34.5 12h1q27 0 39.5 -15t12.5 -50z" />
    <glyph glyph-name="Lcommaaccent" unicode="&#x13b;" horiz-adv-x="504" 
d="M83 684h89v-614h298v-70h-387v684zM343 -141q0 -14 -2 -33t-5 -39.5t-6.5 -41t-7.5 -36.5h-37v109q-20 4 -32 16.5t-12 35.5v3q0 27 14.5 39t34.5 12h1q27 0 39.5 -15t12.5 -50z" />
    <glyph glyph-name="Lslash" unicode="&#x141;" horiz-adv-x="519" 
d="M98 244l-70 -46l-34 57l104 69v360h89v-301l126 84l34 -57l-160 -107v-233h298v-70h-387v244z" />
    <glyph glyph-name="Ldot" unicode="&#x13f;" horiz-adv-x="504" 
d="M83 684h89v-614h298v-70h-387v684zM368 316q-23 0 -36.5 12.5t-13.5 41.5v6q0 29 13.5 41.5t36.5 12.5h13q23 0 36.5 -12.5t13.5 -41.5v-6q0 -29 -13.5 -41.5t-36.5 -12.5h-13z" />
    <glyph glyph-name="Nacute" unicode="&#x143;" horiz-adv-x="682" 
d="M83 684h62l375 -532v532h79v-684h-68l-369 521v-521h-79v684zM249 803l176 156l47 -63l-191 -137z" />
    <glyph glyph-name="Ncaron" unicode="&#x147;" horiz-adv-x="682" 
d="M83 684h62l375 -532v532h79v-684h-68l-369 521v-521h-79v684zM377 771h-71l-119 147l30 30l124 -107l124 107l30 -30z" />
    <glyph glyph-name="Ntilde" unicode="&#xd1;" horiz-adv-x="682" 
d="M83 684h62l375 -532v532h79v-684h-68l-369 521v-521h-79v684zM186 814q4 50 25.5 77t58.5 27q19 0 38 -6t37 -13.5l33.5 -13.5t29.5 -6q15 0 25 8.5t15 31.5l47 -8q-4 -50 -25.5 -77t-58.5 -27q-20 0 -38.5 6t-36.5 13.5t-34 13.5t-29 6q-15 0 -25 -8.5t-15 -31.5z" />
    <glyph glyph-name="Ncommaaccent" unicode="&#x145;" horiz-adv-x="682" 
d="M83 684h62l375 -532v532h79v-684h-68l-369 521v-521h-79v684zM408 -141q0 -14 -2 -33t-5 -39.5t-6.5 -41t-7.5 -36.5h-37v109q-20 4 -32 16.5t-12 35.5v3q0 27 14.5 39t34.5 12h1q27 0 39.5 -15t12.5 -50z" />
    <glyph glyph-name="Eng" unicode="&#x14a;" horiz-adv-x="682" 
d="M339 -161q16 -2 41 -3.5t42 -1.5q32 0 52 7.5t31 26.5q8 14 11.5 33.5t3.5 51.5v62l-358 506v-521h-79v684h62l375 -532v532h79v-730q0 -58 -10 -92.5t-30 -57.5q-21 -23 -55 -33t-81 -10q-17 0 -38.5 2t-37.5 6z" />
    <glyph glyph-name="Ograve" unicode="&#xd2;" horiz-adv-x="658" 
d="M602 341q0 -75 -14 -140t-46 -112.5t-84 -75t-129 -27.5t-129 27.5t-84 75t-46 112.5t-14 140t14 140t46 113t84 75.5t129 27.5t129 -27.5t84 -75.5t46 -113t14 -140zM509 341q0 63 -8.5 114.5t-29 88t-55 56.5t-87.5 20t-87.5 -20t-55 -56.5t-29 -88t-8.5 -114.5
t8.5 -114.5t29 -87.5t55 -56t87.5 -20t87.5 20t55 56t29 87.5t8.5 114.5zM408 759l-191 137l47 63l176 -156z" />
    <glyph glyph-name="Oacute" unicode="&#xd3;" horiz-adv-x="658" 
d="M602 341q0 -75 -14 -140t-46 -112.5t-84 -75t-129 -27.5t-129 27.5t-84 75t-46 112.5t-14 140t14 140t46 113t84 75.5t129 27.5t129 -27.5t84 -75.5t46 -113t14 -140zM509 341q0 63 -8.5 114.5t-29 88t-55 56.5t-87.5 20t-87.5 -20t-55 -56.5t-29 -88t-8.5 -114.5
t8.5 -114.5t29 -87.5t55 -56t87.5 -20t87.5 20t55 56t29 87.5t8.5 114.5zM217 803l176 156l47 -63l-191 -137z" />
    <glyph glyph-name="Ocircumflex" unicode="&#xd4;" horiz-adv-x="658" 
d="M602 341q0 -75 -14 -140t-46 -112.5t-84 -75t-129 -27.5t-129 27.5t-84 75t-46 112.5t-14 140t14 140t46 113t84 75.5t129 27.5t129 -27.5t84 -75.5t46 -113t14 -140zM509 341q0 63 -8.5 114.5t-29 88t-55 56.5t-87.5 20t-87.5 -20t-55 -56.5t-29 -88t-8.5 -114.5
t8.5 -114.5t29 -87.5t55 -56t87.5 -20t87.5 20t55 56t29 87.5t8.5 114.5zM483 791l-30 -30l-124 107l-124 -107l-30 30l119 147h71z" />
    <glyph glyph-name="Otilde" unicode="&#xd5;" horiz-adv-x="658" 
d="M602 341q0 -75 -14 -140t-46 -112.5t-84 -75t-129 -27.5t-129 27.5t-84 75t-46 112.5t-14 140t14 140t46 113t84 75.5t129 27.5t129 -27.5t84 -75.5t46 -113t14 -140zM509 341q0 63 -8.5 114.5t-29 88t-55 56.5t-87.5 20t-87.5 -20t-55 -56.5t-29 -88t-8.5 -114.5
t8.5 -114.5t29 -87.5t55 -56t87.5 -20t87.5 20t55 56t29 87.5t8.5 114.5zM174 814q4 50 25.5 77t58.5 27q19 0 38 -6t37 -13.5l33.5 -13.5t29.5 -6q15 0 25 8.5t15 31.5l47 -8q-4 -50 -25.5 -77t-58.5 -27q-20 0 -38.5 6t-36.5 13.5t-34 13.5t-29 6q-15 0 -25 -8.5
t-15 -31.5z" />
    <glyph glyph-name="Odieresis" unicode="&#xd6;" horiz-adv-x="658" 
d="M602 341q0 -75 -14 -140t-46 -112.5t-84 -75t-129 -27.5t-129 27.5t-84 75t-46 112.5t-14 140t14 140t46 113t84 75.5t129 27.5t129 -27.5t84 -75.5t46 -113t14 -140zM509 341q0 63 -8.5 114.5t-29 88t-55 56.5t-87.5 20t-87.5 -20t-55 -56.5t-29 -88t-8.5 -114.5
t8.5 -114.5t29 -87.5t55 -56t87.5 -20t87.5 20t55 56t29 87.5t8.5 114.5zM287 844q0 -48 -48 -48h-9q-48 0 -48 48v11q0 48 48 48h9q48 0 48 -48v-11zM476 844q0 -48 -48 -48h-9q-48 0 -48 48v11q0 48 48 48h9q48 0 48 -48v-11z" />
    <glyph glyph-name="Omacron" unicode="&#x14c;" horiz-adv-x="658" 
d="M602 341q0 -75 -14 -140t-46 -112.5t-84 -75t-129 -27.5t-129 27.5t-84 75t-46 112.5t-14 140t14 140t46 113t84 75.5t129 27.5t129 -27.5t84 -75.5t46 -113t14 -140zM509 341q0 63 -8.5 114.5t-29 88t-55 56.5t-87.5 20t-87.5 -20t-55 -56.5t-29 -88t-8.5 -114.5
t8.5 -114.5t29 -87.5t55 -56t87.5 -20t87.5 20t55 56t29 87.5t8.5 114.5zM198 811v67h262v-67h-262z" />
    <glyph glyph-name="Obreve" unicode="&#x14e;" horiz-adv-x="658" 
d="M602 341q0 -75 -14 -140t-46 -112.5t-84 -75t-129 -27.5t-129 27.5t-84 75t-46 112.5t-14 140t14 140t46 113t84 75.5t129 27.5t129 -27.5t84 -75.5t46 -113t14 -140zM509 341q0 63 -8.5 114.5t-29 88t-55 56.5t-87.5 20t-87.5 -20t-55 -56.5t-29 -88t-8.5 -114.5
t8.5 -114.5t29 -87.5t55 -56t87.5 -20t87.5 20t55 56t29 87.5t8.5 114.5zM247 910q5 -35 23 -55t59 -20t59 20t23 55l56 -1q-1 -28 -9 -53t-24.5 -43.5t-42 -29t-62.5 -10.5t-63 10.5t-42.5 29t-24 43.5t-8.5 53l56 1v0z" />
    <glyph glyph-name="Ohungarumlaut" unicode="&#x150;" horiz-adv-x="658" 
d="M602 341q0 -75 -14 -140t-46 -112.5t-84 -75t-129 -27.5t-129 27.5t-84 75t-46 112.5t-14 140t14 140t46 113t84 75.5t129 27.5t129 -27.5t84 -75.5t46 -113t14 -140zM509 341q0 63 -8.5 114.5t-29 88t-55 56.5t-87.5 20t-87.5 -20t-55 -56.5t-29 -88t-8.5 -114.5
t8.5 -114.5t29 -87.5t55 -56t87.5 -20t87.5 20t55 56t29 87.5t8.5 114.5zM150 799l143 188l55 -53l-160 -166zM330 799l143 188l55 -53l-160 -166z" />
    <glyph glyph-name="Oslash" unicode="&#xd8;" horiz-adv-x="658" 
d="M602 341q0 -75 -14 -140t-46 -112.5t-84 -75t-129 -27.5q-54 0 -93 13l-27 -73h-69l38 100q-67 44 -94.5 127t-27.5 188q0 75 14 140t46 113t84 75.5t129 27.5q55 0 97 -15l29 75h69l-40 -103q64 -45 91 -127.5t27 -185.5zM149 341q0 -79 13 -139t47 -95l189 501
q-30 12 -69 12q-53 0 -87.5 -20t-55 -56.5t-29 -88t-8.5 -114.5zM509 341q0 76 -12 134.5t-44 94.5l-189 -497q27 -10 65 -10q53 0 87.5 20t55 56t29 87.5t8.5 114.5z" />
    <glyph glyph-name="Oslashacute" unicode="&#x1fe;" horiz-adv-x="658" 
d="M602 341q0 -75 -14 -140t-46 -112.5t-84 -75t-129 -27.5q-54 0 -93 13l-27 -73h-69l38 100q-67 44 -94.5 127t-27.5 188q0 75 14 140t46 113t84 75.5t129 27.5q55 0 97 -15l29 75h69l-40 -103q64 -45 91 -127.5t27 -185.5zM149 341q0 -79 13 -139t47 -95l189 501
q-30 12 -69 12q-53 0 -87.5 -20t-55 -56.5t-29 -88t-8.5 -114.5zM509 341q0 76 -12 134.5t-44 94.5l-189 -497q27 -10 65 -10q53 0 87.5 20t55 56t29 87.5t8.5 114.5zM217 803l176 156l47 -63l-191 -137z" />
    <glyph glyph-name="OE" unicode="&#x152;" horiz-adv-x="915" 
d="M56 342q0 87 24.5 151t69.5 107q88 84 277 84h432l-8 -70h-295v-232h239v-72h-239v-240h309v-70h-446q-87 0 -154.5 19t-112.5 60q-47 42 -71.5 106t-24.5 157zM217 134q34 -34 87 -50t132 -16h31v548h-29q-76 0 -133.5 -16t-92.5 -54q-31 -33 -47 -83t-16 -121
q0 -140 68 -208z" />
    <glyph glyph-name="Thorn" unicode="&#xde;" horiz-adv-x="580" 
d="M172 0h-89v684h89v-125h107q74 0 123 -14t78 -44q26 -26 38 -63.5t12 -85.5q0 -110 -56 -166q-28 -27 -70.5 -41.5t-104.5 -14.5h-127v-130zM172 202h97q47 0 79.5 7.5t52.5 26.5q37 35 37 114q0 70 -32 102q-20 20 -52 28.5t-82 8.5h-100v-287z" />
    <glyph glyph-name="Racute" unicode="&#x154;" horiz-adv-x="602" 
d="M172 0h-89v684h199q72 0 121.5 -13t78.5 -42q51 -50 51 -152q0 -79 -33.5 -128.5t-94.5 -70.5l147 -278h-99l-66 131.5l-67 131.5q-9 -1 -21 -1.5t-23 -0.5h-104v-261zM172 333h106q54 0 84.5 10.5t48.5 30.5q16 18 23 44t7 59q0 70 -31 101q-20 20 -53.5 28t-84.5 8
h-100v-281zM209 803l176 156l47 -63l-191 -137z" />
    <glyph glyph-name="Rcaron" unicode="&#x158;" horiz-adv-x="602" 
d="M172 0h-89v684h199q72 0 121.5 -13t78.5 -42q51 -50 51 -152q0 -79 -33.5 -128.5t-94.5 -70.5l147 -278h-99l-66 131.5l-67 131.5q-9 -1 -21 -1.5t-23 -0.5h-104v-261zM172 333h106q54 0 84.5 10.5t48.5 30.5q16 18 23 44t7 59q0 70 -31 101q-20 20 -53.5 28t-84.5 8
h-100v-281zM347 771h-71l-119 147l30 30l124 -107l124 107l30 -30z" />
    <glyph glyph-name="Rcommaaccent" unicode="&#x156;" horiz-adv-x="602" 
d="M172 0h-89v684h199q72 0 121.5 -13t78.5 -42q51 -50 51 -152q0 -79 -33.5 -128.5t-94.5 -70.5l147 -278h-99l-66 131.5l-67 131.5q-9 -1 -21 -1.5t-23 -0.5h-104v-261zM172 333h106q54 0 84.5 10.5t48.5 30.5q16 18 23 44t7 59q0 70 -31 101q-20 20 -53.5 28t-84.5 8
h-100v-281zM366 -141q0 -14 -2 -33t-5 -39.5t-6.5 -41t-7.5 -36.5h-37v109q-20 4 -32 16.5t-12 35.5v3q0 27 14.5 39t34.5 12h1q27 0 39.5 -15t12.5 -50z" />
    <glyph glyph-name="Sacute" unicode="&#x15a;" horiz-adv-x="543" 
d="M75 87q39 -11 84 -19t87 -8t71.5 7.5t49.5 23.5q37 29 37 83q0 43 -26 68.5t-65 44t-84.5 34t-84.5 39t-65 59.5t-26 95q0 45 16.5 79.5t46 57.5t71.5 34.5t93 11.5q45 0 89 -7t79 -19l-13 -68q-38 10 -76 15t-72 5q-70 0 -110 -24t-40 -79q0 -39 26 -63t65 -42t85 -34.5
t85 -41t65 -61.5t26 -95q0 -45 -14 -80t-40 -59q-61 -58 -181 -58q-24 0 -50 2t-51.5 6.5t-49.5 10.5t-43 14zM160 803l176 156l47 -63l-191 -137z" />
    <glyph glyph-name="Scircumflex" unicode="&#x15c;" horiz-adv-x="543" 
d="M75 87q39 -11 84 -19t87 -8t71.5 7.5t49.5 23.5q37 29 37 83q0 43 -26 68.5t-65 44t-84.5 34t-84.5 39t-65 59.5t-26 95q0 45 16.5 79.5t46 57.5t71.5 34.5t93 11.5q45 0 89 -7t79 -19l-13 -68q-38 10 -76 15t-72 5q-70 0 -110 -24t-40 -79q0 -39 26 -63t65 -42t85 -34.5
t85 -41t65 -61.5t26 -95q0 -45 -14 -80t-40 -59q-61 -58 -181 -58q-24 0 -50 2t-51.5 6.5t-49.5 10.5t-43 14zM427 791l-30 -30l-124 107l-124 -107l-30 30l119 147h71z" />
    <glyph glyph-name="Scaron" unicode="&#x160;" horiz-adv-x="543" 
d="M75 87q39 -11 84 -19t87 -8t71.5 7.5t49.5 23.5q37 29 37 83q0 43 -26 68.5t-65 44t-84.5 34t-84.5 39t-65 59.5t-26 95q0 45 16.5 79.5t46 57.5t71.5 34.5t93 11.5q45 0 89 -7t79 -19l-13 -68q-38 10 -76 15t-72 5q-70 0 -110 -24t-40 -79q0 -39 26 -63t65 -42t85 -34.5
t85 -41t65 -61.5t26 -95q0 -45 -14 -80t-40 -59q-61 -58 -181 -58q-24 0 -50 2t-51.5 6.5t-49.5 10.5t-43 14zM309 771h-71l-119 147l30 30l124 -107l124 107l30 -30z" />
    <glyph glyph-name="Scedilla" unicode="&#x15e;" horiz-adv-x="543" 
d="M75 87q39 -11 84 -19t87 -8t71.5 7.5t49.5 23.5q37 29 37 83q0 43 -26 68.5t-65 44t-84.5 34t-84.5 39t-65 59.5t-26 95q0 45 16.5 79.5t46 57.5t71.5 34.5t93 11.5q45 0 89 -7t79 -19l-13 -68q-38 10 -76 15t-72 5q-70 0 -110 -24t-40 -79q0 -39 26 -63t65 -42t85 -34.5
t85 -41t65 -61.5t26 -95q0 -45 -14 -80t-40 -59q-52 -49 -150 -57q-1 -3 -1 -6.5v-6.5q0 -15 18 -22t40 -16.5t40 -26t18 -49.5q0 -43 -27.5 -66t-77.5 -23q-17 0 -38.5 3.5t-38.5 8.5v52q35 -8 67 -8q51 0 51 28q0 15 -18 23t-39.5 16t-39.5 20.5t-18 38.5q0 17 9 34
q-44 2 -89.5 10t-80.5 22z" />
    <glyph glyph-name="Scommaaccent" unicode="&#x218;" horiz-adv-x="543" 
d="M75 87q39 -11 84 -19t87 -8t71.5 7.5t49.5 23.5q37 29 37 83q0 43 -26 68.5t-65 44t-84.5 34t-84.5 39t-65 59.5t-26 95q0 45 16.5 79.5t46 57.5t71.5 34.5t93 11.5q45 0 89 -7t79 -19l-13 -68q-38 10 -76 15t-72 5q-70 0 -110 -24t-40 -79q0 -39 26 -63t65 -42t85 -34.5
t85 -41t65 -61.5t26 -95q0 -45 -14 -80t-40 -59q-61 -58 -181 -58q-24 0 -50 2t-51.5 6.5t-49.5 10.5t-43 14zM322 -141q0 -14 -2 -33t-5 -39.5t-6.5 -41t-7.5 -36.5h-37v109q-20 4 -32 16.5t-12 35.5v3q0 27 14.5 39t34.5 12h1q27 0 39.5 -15t12.5 -50z" />
    <glyph glyph-name="Tcaron" unicode="&#x164;" horiz-adv-x="569" 
d="M22 614v70h529l-8 -70h-214v-614h-89v614h-218zM320 771h-71l-119 147l30 30l124 -107l124 107l30 -30z" />
    <glyph glyph-name="Tcommaaccent" unicode="&#x162;" horiz-adv-x="569" 
d="M22 614v70h529l-8 -70h-214v-614h-89v614h-218zM335 -141q0 -14 -2 -33t-5 -39.5t-6.5 -41t-7.5 -36.5h-37v109q-20 4 -32 16.5t-12 35.5v3q0 27 14.5 39t34.5 12h1q27 0 39.5 -15t12.5 -50z" />
    <glyph glyph-name="uni021A" unicode="&#x21a;" horiz-adv-x="569" 
d="M22 614v70h529l-8 -70h-214v-614h-89v614h-218zM335 -141q0 -14 -2 -33t-5 -39.5t-6.5 -41t-7.5 -36.5h-37v109q-20 4 -32 16.5t-12 35.5v3q0 27 14.5 39t34.5 12h1q27 0 39.5 -15t12.5 -50z" />
    <glyph glyph-name="Tbar" unicode="&#x166;" horiz-adv-x="569" 
d="M22 614v70h529l-8 -70h-214v-253h130v-64h-130v-297h-89v297h-130v64h130v253h-218z" />
    <glyph glyph-name="Ugrave" unicode="&#xd9;" horiz-adv-x="649" 
d="M164 251q0 -57 10 -91t33 -57q20 -20 50.5 -30.5t72.5 -10.5q38 0 68 10.5t50 30.5q23 23 34 58.5t11 89.5v433h81v-438q0 -70 -17 -119t-50 -81q-63 -60 -179 -60q-120 0 -183 57q-36 32 -53 81.5t-17 121.5v438h89v-433zM404 759l-191 137l47 63l176 -156z" />
    <glyph glyph-name="Uacute" unicode="&#xda;" horiz-adv-x="649" 
d="M164 251q0 -57 10 -91t33 -57q20 -20 50.5 -30.5t72.5 -10.5q38 0 68 10.5t50 30.5q23 23 34 58.5t11 89.5v433h81v-438q0 -70 -17 -119t-50 -81q-63 -60 -179 -60q-120 0 -183 57q-36 32 -53 81.5t-17 121.5v438h89v-433zM233 803l176 156l47 -63l-191 -137z" />
    <glyph glyph-name="Ucircumflex" unicode="&#xdb;" horiz-adv-x="649" 
d="M164 251q0 -57 10 -91t33 -57q20 -20 50.5 -30.5t72.5 -10.5q38 0 68 10.5t50 30.5q23 23 34 58.5t11 89.5v433h81v-438q0 -70 -17 -119t-50 -81q-63 -60 -179 -60q-120 0 -183 57q-36 32 -53 81.5t-17 121.5v438h89v-433zM478 791l-30 -30l-124 107l-124 -107l-30 30
l119 147h71z" />
    <glyph glyph-name="Utilde" unicode="&#x168;" horiz-adv-x="649" 
d="M164 251q0 -57 10 -91t33 -57q20 -20 50.5 -30.5t72.5 -10.5q38 0 68 10.5t50 30.5q23 23 34 58.5t11 89.5v433h81v-438q0 -70 -17 -119t-50 -81q-63 -60 -179 -60q-120 0 -183 57q-36 32 -53 81.5t-17 121.5v438h89v-433zM180 814q4 50 25.5 77t58.5 27q19 0 38 -6
t37 -13.5l33.5 -13.5t29.5 -6q15 0 25 8.5t15 31.5l47 -8q-4 -50 -25.5 -77t-58.5 -27q-20 0 -38.5 6t-36.5 13.5t-34 13.5t-29 6q-15 0 -25 -8.5t-15 -31.5z" />
    <glyph glyph-name="Udieresis" unicode="&#xdc;" horiz-adv-x="649" 
d="M164 251q0 -57 10 -91t33 -57q20 -20 50.5 -30.5t72.5 -10.5q38 0 68 10.5t50 30.5q23 23 34 58.5t11 89.5v433h81v-438q0 -70 -17 -119t-50 -81q-63 -60 -179 -60q-120 0 -183 57q-36 32 -53 81.5t-17 121.5v438h89v-433zM282 844q0 -48 -48 -48h-9q-48 0 -48 48v11
q0 48 48 48h9q48 0 48 -48v-11zM471 844q0 -48 -48 -48h-9q-48 0 -48 48v11q0 48 48 48h9q48 0 48 -48v-11z" />
    <glyph glyph-name="Umacron" unicode="&#x16a;" horiz-adv-x="649" 
d="M164 251q0 -57 10 -91t33 -57q20 -20 50.5 -30.5t72.5 -10.5q38 0 68 10.5t50 30.5q23 23 34 58.5t11 89.5v433h81v-438q0 -70 -17 -119t-50 -81q-63 -60 -179 -60q-120 0 -183 57q-36 32 -53 81.5t-17 121.5v438h89v-433zM196 811v67h262v-67h-262z" />
    <glyph glyph-name="Ubreve" unicode="&#x16c;" horiz-adv-x="649" 
d="M164 251q0 -57 10 -91t33 -57q20 -20 50.5 -30.5t72.5 -10.5q38 0 68 10.5t50 30.5q23 23 34 58.5t11 89.5v433h81v-438q0 -70 -17 -119t-50 -81q-63 -60 -179 -60q-120 0 -183 57q-36 32 -53 81.5t-17 121.5v438h89v-433zM246 910q5 -35 23 -55t59 -20t59 20t23 55
l56 -1q-1 -28 -9 -53t-24.5 -43.5t-42 -29t-62.5 -10.5t-63 10.5t-42.5 29t-24 43.5t-8.5 53l56 1v0z" />
    <glyph glyph-name="Uring" unicode="&#x16e;" horiz-adv-x="649" 
d="M164 251q0 -57 10 -91t33 -57q20 -20 50.5 -30.5t72.5 -10.5q38 0 68 10.5t50 30.5q23 23 34 58.5t11 89.5v433h81v-438q0 -70 -17 -119t-50 -81q-63 -60 -179 -60q-120 0 -183 57q-36 32 -53 81.5t-17 121.5v438h89v-433zM442 871q0 -55 -31 -80.5t-81 -25.5h-4
q-50 0 -81 25.5t-31 80.5v9q0 55 31 80.5t81 25.5h4q50 0 81 -25.5t31 -80.5v-9zM386 878q0 31 -14.5 44t-42.5 13h-2q-28 0 -42.5 -13t-14.5 -44v-5q0 -31 14.5 -44t42.5 -13h2q28 0 42.5 13t14.5 44v5z" />
    <glyph glyph-name="Uhungarumlaut" unicode="&#x170;" horiz-adv-x="649" 
d="M164 251q0 -57 10 -91t33 -57q20 -20 50.5 -30.5t72.5 -10.5q38 0 68 10.5t50 30.5q23 23 34 58.5t11 89.5v433h81v-438q0 -70 -17 -119t-50 -81q-63 -60 -179 -60q-120 0 -183 57q-36 32 -53 81.5t-17 121.5v438h89v-433zM165 799l143 188l55 -53l-160 -166zM345 799
l143 188l55 -53l-160 -166z" />
    <glyph glyph-name="Uogonek" unicode="&#x172;" horiz-adv-x="649" 
d="M254 -125q0 32 13 60.5t36 51.5q-51 2 -91 16.5t-67 39.5q-36 32 -53 81.5t-17 121.5v438h89v-433q0 -57 10 -91t33 -57q20 -20 50.5 -30.5t72.5 -10.5q38 0 68 10.5t50 30.5q23 23 34 58.5t11 89.5v433h81v-438q0 -70 -17 -119t-50 -81q-51 -48 -134 -57
q-50 -52 -50 -105q0 -50 59 -50q14 0 33 2.5t30 4.5v-52q-18 -5 -41.5 -8t-40.5 -3q-54 0 -81.5 26t-27.5 71z" />
    <glyph glyph-name="Wgrave" unicode="&#x1e80;" horiz-adv-x="885" 
d="M640 109h2l140 575h83l-175 -684h-105l-137 545h-2l-127 -545h-108l-191 684h91l155 -579h2l133 579h93zM522 759l-191 137l47 63l176 -156z" />
    <glyph glyph-name="Wacute" unicode="&#x1e82;" horiz-adv-x="885" 
d="M640 109h2l140 575h83l-175 -684h-105l-137 545h-2l-127 -545h-108l-191 684h91l155 -579h2l133 579h93zM341 803l176 156l47 -63l-191 -137z" />
    <glyph glyph-name="Wcircumflex" unicode="&#x174;" horiz-adv-x="885" 
d="M640 109h2l140 575h83l-175 -684h-105l-137 545h-2l-127 -545h-108l-191 684h91l155 -579h2l133 579h93zM601 791l-30 -30l-124 107l-124 -107l-30 30l119 147h71z" />
    <glyph glyph-name="Wdieresis" unicode="&#x1e84;" horiz-adv-x="885" 
d="M640 109h2l140 575h83l-175 -684h-105l-137 545h-2l-127 -545h-108l-191 684h91l155 -579h2l133 579h93zM406 844q0 -48 -48 -48h-9q-48 0 -48 48v11q0 48 48 48h9q48 0 48 -48v-11zM595 844q0 -48 -48 -48h-9q-48 0 -48 48v11q0 48 48 48h9q48 0 48 -48v-11z" />
    <glyph glyph-name="Ygrave" unicode="&#x1ef2;" horiz-adv-x="575" 
d="M16 684h98l174 -329l181 329h90l-232 -406v-278h-89v280zM347 759l-191 137l47 63l176 -156z" />
    <glyph glyph-name="Yacute" unicode="&#xdd;" horiz-adv-x="575" 
d="M16 684h98l174 -329l181 329h90l-232 -406v-278h-89v280zM196 803l176 156l47 -63l-191 -137z" />
    <glyph glyph-name="Ycircumflex" unicode="&#x176;" horiz-adv-x="575" 
d="M16 684h98l174 -329l181 329h90l-232 -406v-278h-89v280zM441 791l-30 -30l-124 107l-124 -107l-30 30l119 147h71z" />
    <glyph glyph-name="Ydieresis" unicode="&#x178;" horiz-adv-x="575" 
d="M16 684h98l174 -329l181 329h90l-232 -406v-278h-89v280zM245 844q0 -48 -48 -48h-9q-48 0 -48 48v11q0 48 48 48h9q48 0 48 -48v-11zM434 844q0 -48 -48 -48h-9q-48 0 -48 48v11q0 48 48 48h9q48 0 48 -48v-11z" />
    <glyph glyph-name="Zacute" unicode="&#x179;" horiz-adv-x="561" 
d="M50 0v51l353 563h-347v70h454v-53l-352 -561h353v-70h-461zM179 803l176 156l47 -63l-191 -137z" />
    <glyph glyph-name="Zcaron" unicode="&#x17d;" horiz-adv-x="561" 
d="M50 0v51l353 563h-347v70h454v-53l-352 -561h353v-70h-461zM318 771h-71l-119 147l30 30l124 -107l124 107l30 -30z" />
    <glyph glyph-name="Zdotaccent" unicode="&#x17b;" horiz-adv-x="561" 
d="M50 0v51l353 563h-347v70h454v-53l-352 -561h353v-70h-461zM279 791q-23 0 -36.5 12.5t-13.5 41.5v6q0 29 13.5 41.5t36.5 12.5h13q23 0 36.5 -12.5t13.5 -41.5v-6q0 -29 -13.5 -41.5t-36.5 -12.5h-13z" />
    <glyph glyph-name="agrave" unicode="&#xe0;" horiz-adv-x="505" 
d="M365 33q-32 -21 -70.5 -34t-83.5 -13q-40 0 -72.5 12t-55.5 35q-18 19 -28.5 45t-10.5 61t11 61.5t31 44.5q28 26 70 36.5t96 10.5h102v31q0 30 -5.5 49.5t-19.5 33.5q-30 29 -102 29q-28 0 -62 -3t-70 -9l-3 64q35 8 74.5 12.5t74.5 4.5q55 0 92.5 -11.5t60.5 -33.5
q23 -23 33 -54t10 -79v-326h-67zM354 231h-90q-38 0 -65 -5.5t-44 -19.5q-27 -22 -27 -65q0 -45 26.5 -66.5t74.5 -21.5q30 0 64 9t61 23v146zM326 569l-191 137l47 63l176 -156z" />
    <glyph glyph-name="aacute" unicode="&#xe1;" horiz-adv-x="505" 
d="M365 33q-32 -21 -70.5 -34t-83.5 -13q-40 0 -72.5 12t-55.5 35q-18 19 -28.5 45t-10.5 61t11 61.5t31 44.5q28 26 70 36.5t96 10.5h102v31q0 30 -5.5 49.5t-19.5 33.5q-30 29 -102 29q-28 0 -62 -3t-70 -9l-3 64q35 8 74.5 12.5t74.5 4.5q55 0 92.5 -11.5t60.5 -33.5
q23 -23 33 -54t10 -79v-326h-67zM354 231h-90q-38 0 -65 -5.5t-44 -19.5q-27 -22 -27 -65q0 -45 26.5 -66.5t74.5 -21.5q30 0 64 9t61 23v146zM149 613l176 156l47 -63l-191 -137z" />
    <glyph glyph-name="acircumflex" unicode="&#xe2;" horiz-adv-x="505" 
d="M365 33q-32 -21 -70.5 -34t-83.5 -13q-40 0 -72.5 12t-55.5 35q-18 19 -28.5 45t-10.5 61t11 61.5t31 44.5q28 26 70 36.5t96 10.5h102v31q0 30 -5.5 49.5t-19.5 33.5q-30 29 -102 29q-28 0 -62 -3t-70 -9l-3 64q35 8 74.5 12.5t74.5 4.5q55 0 92.5 -11.5t60.5 -33.5
q23 -23 33 -54t10 -79v-326h-67zM354 231h-90q-38 0 -65 -5.5t-44 -19.5q-27 -22 -27 -65q0 -45 26.5 -66.5t74.5 -21.5q30 0 64 9t61 23v146zM407 600l-30 -30l-124 107l-124 -107l-30 30l119 147h71z" />
    <glyph glyph-name="atilde" unicode="&#xe3;" horiz-adv-x="505" 
d="M365 33q-32 -21 -70.5 -34t-83.5 -13q-40 0 -72.5 12t-55.5 35q-18 19 -28.5 45t-10.5 61t11 61.5t31 44.5q28 26 70 36.5t96 10.5h102v31q0 30 -5.5 49.5t-19.5 33.5q-30 29 -102 29q-28 0 -62 -3t-70 -9l-3 64q35 8 74.5 12.5t74.5 4.5q55 0 92.5 -11.5t60.5 -33.5
q23 -23 33 -54t10 -79v-326h-67zM354 231h-90q-38 0 -65 -5.5t-44 -19.5q-27 -22 -27 -65q0 -45 26.5 -66.5t74.5 -21.5q30 0 64 9t61 23v146zM93 619q4 50 25.5 77t58.5 27q19 0 38 -6t37 -13.5l33.5 -13.5t29.5 -6q15 0 25 8.5t15 31.5l47 -8q-4 -50 -25.5 -77t-58.5 -27
q-20 0 -38.5 6t-36.5 13.5t-34 13.5t-29 6q-15 0 -25 -8.5t-15 -31.5z" />
    <glyph glyph-name="adieresis" unicode="&#xe4;" horiz-adv-x="505" 
d="M365 33q-32 -21 -70.5 -34t-83.5 -13q-40 0 -72.5 12t-55.5 35q-18 19 -28.5 45t-10.5 61t11 61.5t31 44.5q28 26 70 36.5t96 10.5h102v31q0 30 -5.5 49.5t-19.5 33.5q-30 29 -102 29q-28 0 -62 -3t-70 -9l-3 64q35 8 74.5 12.5t74.5 4.5q55 0 92.5 -11.5t60.5 -33.5
q23 -23 33 -54t10 -79v-326h-67zM354 231h-90q-38 0 -65 -5.5t-44 -19.5q-27 -22 -27 -65q0 -45 26.5 -66.5t74.5 -21.5q30 0 64 9t61 23v146zM206 654q0 -48 -48 -48h-9q-48 0 -48 48v11q0 48 48 48h9q48 0 48 -48v-11zM395 654q0 -48 -48 -48h-9q-48 0 -48 48v11
q0 48 48 48h9q48 0 48 -48v-11z" />
    <glyph glyph-name="amacron" unicode="&#x101;" horiz-adv-x="505" 
d="M365 33q-32 -21 -70.5 -34t-83.5 -13q-40 0 -72.5 12t-55.5 35q-18 19 -28.5 45t-10.5 61t11 61.5t31 44.5q28 26 70 36.5t96 10.5h102v31q0 30 -5.5 49.5t-19.5 33.5q-30 29 -102 29q-28 0 -62 -3t-70 -9l-3 64q35 8 74.5 12.5t74.5 4.5q55 0 92.5 -11.5t60.5 -33.5
q23 -23 33 -54t10 -79v-326h-67zM354 231h-90q-38 0 -65 -5.5t-44 -19.5q-27 -22 -27 -65q0 -45 26.5 -66.5t74.5 -21.5q30 0 64 9t61 23v146zM115 621v67h262v-67h-262z" />
    <glyph glyph-name="abreve" unicode="&#x103;" horiz-adv-x="505" 
d="M365 33q-32 -21 -70.5 -34t-83.5 -13q-40 0 -72.5 12t-55.5 35q-18 19 -28.5 45t-10.5 61t11 61.5t31 44.5q28 26 70 36.5t96 10.5h102v31q0 30 -5.5 49.5t-19.5 33.5q-30 29 -102 29q-28 0 -62 -3t-70 -9l-3 64q35 8 74.5 12.5t74.5 4.5q55 0 92.5 -11.5t60.5 -33.5
q23 -23 33 -54t10 -79v-326h-67zM354 231h-90q-38 0 -65 -5.5t-44 -19.5q-27 -22 -27 -65q0 -45 26.5 -66.5t74.5 -21.5q30 0 64 9t61 23v146zM170 720q5 -35 23 -55t59 -20t59 20t23 55l56 -1q-1 -28 -9 -53t-24.5 -43.5t-42 -29t-62.5 -10.5t-63 10.5t-42.5 29t-24 43.5
t-8.5 53l56 1v0z" />
    <glyph glyph-name="aring" unicode="&#xe5;" horiz-adv-x="505" 
d="M365 33q-32 -21 -70.5 -34t-83.5 -13q-40 0 -72.5 12t-55.5 35q-18 19 -28.5 45t-10.5 61t11 61.5t31 44.5q28 26 70 36.5t96 10.5h102v31q0 30 -5.5 49.5t-19.5 33.5q-30 29 -102 29q-28 0 -62 -3t-70 -9l-3 64q35 8 74.5 12.5t74.5 4.5q55 0 92.5 -11.5t60.5 -33.5
q23 -23 33 -54t10 -79v-326h-67zM354 231h-90q-38 0 -65 -5.5t-44 -19.5q-27 -22 -27 -65q0 -45 26.5 -66.5t74.5 -21.5q30 0 64 9t61 23v146zM363 681q0 -55 -31 -80.5t-81 -25.5h-4q-50 0 -81 25.5t-31 80.5v9q0 55 31 80.5t81 25.5h4q50 0 81 -25.5t31 -80.5v-9zM307 688
q0 31 -14.5 44t-42.5 13h-2q-28 0 -42.5 -13t-14.5 -44v-5q0 -31 14.5 -44t42.5 -13h2q28 0 42.5 13t14.5 44v5z" />
    <glyph glyph-name="aringacute" unicode="&#x1fb;" horiz-adv-x="505" 
d="M365 33q-32 -21 -70.5 -34t-83.5 -13q-40 0 -72.5 12t-55.5 35q-18 19 -28.5 45t-10.5 61t11 61.5t31 44.5q28 26 70 36.5t96 10.5h102v31q0 30 -5.5 49.5t-19.5 33.5q-30 29 -102 29q-28 0 -62 -3t-70 -9l-3 64q35 8 74.5 12.5t74.5 4.5q55 0 92.5 -11.5t60.5 -33.5
q23 -23 33 -54t10 -79v-326h-67zM354 231h-90q-38 0 -65 -5.5t-44 -19.5q-27 -22 -27 -65q0 -45 26.5 -66.5t74.5 -21.5q30 0 64 9t61 23v146zM372 649q0 -55 -31 -80.5t-81 -25.5h-4q-50 0 -81 25.5t-31 80.5v9q0 55 31 80.5t81 25.5h4q50 0 81 -25.5t31 -80.5v-9zM316 656
q0 31 -14.5 44t-42.5 13h-2q-28 0 -42.5 -13t-14.5 -44v-5q0 -31 14.5 -44t42.5 -13h2q28 0 42.5 13t14.5 44v5zM151 834l176 156l47 -63l-191 -137z" />
    <glyph glyph-name="aogonek" unicode="&#x105;" horiz-adv-x="505" 
d="M459 -215q-15 -3 -33.5 -5t-30.5 -2q-54 0 -80.5 26t-26.5 71q0 39 22.5 72t58.5 56l-4 30q-32 -21 -70.5 -34t-83.5 -13q-40 0 -72.5 12t-55.5 35q-18 19 -28.5 45t-10.5 61t11 61.5t31 44.5q28 26 70 36.5t96 10.5h102v31q0 30 -5.5 49.5t-19.5 33.5q-30 29 -102 29
q-28 0 -62 -3t-70 -9l-3 64q35 8 74.5 12.5t74.5 4.5q55 0 92.5 -11.5t60.5 -33.5q23 -23 33 -54t10 -79v-326q-8 0 -12.5 -1t-9.5 -6q-31 -26 -44.5 -54.5t-13.5 -54.5q0 -23 12.5 -36.5t41.5 -13.5q9 0 23 0.5t25 2.5v-52zM354 231h-90q-38 0 -65 -5.5t-44 -19.5
q-27 -22 -27 -65q0 -45 26.5 -66.5t74.5 -21.5q30 0 64 9t61 23v146z" />
    <glyph glyph-name="ae" unicode="&#xe6;" horiz-adv-x="816" 
d="M738 5q-32 -9 -71.5 -14t-73.5 -5q-116 0 -175 59l-6 6q-42 -30 -92 -47.5t-104 -17.5q-46 0 -78 12t-55 35q-39 39 -39 106q0 35 11 61.5t31 44.5q28 26 70 36.5t96 10.5h102v31q0 30 -5.5 49.5t-19.5 33.5q-30 29 -102 29q-28 0 -62 -3t-70 -9l-3 64q35 8 74.5 12.5
t74.5 4.5q55 0 92.5 -11.5t60.5 -33.5q10 -11 18 -21q28 33 67 49.5t87 16.5q103 0 153 -68.5t50 -189.5v-19q0 -11 -12 -11h-316q0 -41 10.5 -73t32.5 -52q20 -18 49 -27.5t76 -9.5q26 0 59 3.5t62 9.5zM229 53q38 0 76 11.5t75 34.5q-25 55 -26 132h-90q-38 0 -65 -5.5
t-44 -19.5q-27 -22 -27 -65q0 -45 26.5 -66.5t74.5 -21.5zM687 277q-1 35 -8.5 64.5t-22.5 50.5t-37 33t-53 12q-63 0 -93.5 -42.5t-31.5 -117.5h246z" />
    <glyph glyph-name="aeacute" unicode="&#x1fd;" horiz-adv-x="816" 
d="M738 5q-32 -9 -71.5 -14t-73.5 -5q-116 0 -175 59l-6 6q-42 -30 -92 -47.5t-104 -17.5q-46 0 -78 12t-55 35q-39 39 -39 106q0 35 11 61.5t31 44.5q28 26 70 36.5t96 10.5h102v31q0 30 -5.5 49.5t-19.5 33.5q-30 29 -102 29q-28 0 -62 -3t-70 -9l-3 64q35 8 74.5 12.5
t74.5 4.5q55 0 92.5 -11.5t60.5 -33.5q10 -11 18 -21q28 33 67 49.5t87 16.5q103 0 153 -68.5t50 -189.5v-19q0 -11 -12 -11h-316q0 -41 10.5 -73t32.5 -52q20 -18 49 -27.5t76 -9.5q26 0 59 3.5t62 9.5zM229 53q38 0 76 11.5t75 34.5q-25 55 -26 132h-90q-38 0 -65 -5.5
t-44 -19.5q-27 -22 -27 -65q0 -45 26.5 -66.5t74.5 -21.5zM687 277q-1 35 -8.5 64.5t-22.5 50.5t-37 33t-53 12q-63 0 -93.5 -42.5t-31.5 -117.5h246zM326 613l176 156l47 -63l-191 -137z" />
    <glyph glyph-name="cacute" unicode="&#x107;" horiz-adv-x="450" 
d="M410 2q-24 -7 -60 -11.5t-63 -4.5q-118 0 -178 61q-31 32 -48 79.5t-17 112.5q0 129 64 198q32 34 77.5 50.5t102.5 16.5q29 0 60 -4t57 -11l-5 -64q-23 5 -51 8.5t-51 3.5q-87 0 -127 -49.5t-40 -147.5q0 -93 41 -140q21 -24 53 -35t77 -11q25 0 54 3t48 7zM153 613
l176 156l47 -63l-191 -137z" />
    <glyph glyph-name="ccedilla" unicode="&#xe7;" horiz-adv-x="450" 
d="M410 2q-24 -7 -60 -11.5t-63 -4.5h-11.5t-11.5 1q-2 -6 -2 -13q0 -15 18 -22t40 -16.5t40 -26t18 -49.5q0 -43 -27.5 -66t-77.5 -23q-17 0 -38.5 3.5t-38.5 8.5v52q35 -8 67 -8q51 0 51 28q0 15 -18 23t-39.5 16t-39.5 20.5t-18 38.5q0 22 14 40q-65 14 -104 54
q-31 32 -48 79.5t-17 112.5q0 129 64 198q32 34 77.5 50.5t102.5 16.5q29 0 60 -4t57 -11l-5 -64q-23 5 -51 8.5t-51 3.5q-87 0 -127 -49.5t-40 -147.5q0 -93 41 -140q21 -24 53 -35t77 -11q25 0 54 3t48 7z" />
    <glyph glyph-name="ccircumflex" unicode="&#x109;" horiz-adv-x="450" 
d="M410 2q-24 -7 -60 -11.5t-63 -4.5q-118 0 -178 61q-31 32 -48 79.5t-17 112.5q0 129 64 198q32 34 77.5 50.5t102.5 16.5q29 0 60 -4t57 -11l-5 -64q-23 5 -51 8.5t-51 3.5q-87 0 -127 -49.5t-40 -147.5q0 -93 41 -140q21 -24 53 -35t77 -11q25 0 54 3t48 7zM429 600
l-30 -30l-124 107l-124 -107l-30 30l119 147h71z" />
    <glyph glyph-name="ccaron" unicode="&#x10d;" horiz-adv-x="450" 
d="M410 2q-24 -7 -60 -11.5t-63 -4.5q-118 0 -178 61q-31 32 -48 79.5t-17 112.5q0 129 64 198q32 34 77.5 50.5t102.5 16.5q29 0 60 -4t57 -11l-5 -64q-23 5 -51 8.5t-51 3.5q-87 0 -127 -49.5t-40 -147.5q0 -93 41 -140q21 -24 53 -35t77 -11q25 0 54 3t48 7zM313 581h-71
l-119 147l30 30l124 -107l124 107l30 -30z" />
    <glyph glyph-name="cdotaccent" unicode="&#x10b;" horiz-adv-x="450" 
d="M410 2q-24 -7 -60 -11.5t-63 -4.5q-118 0 -178 61q-31 32 -48 79.5t-17 112.5q0 129 64 198q32 34 77.5 50.5t102.5 16.5q29 0 60 -4t57 -11l-5 -64q-23 5 -51 8.5t-51 3.5q-87 0 -127 -49.5t-40 -147.5q0 -93 41 -140q21 -24 53 -35t77 -11q25 0 54 3t48 7zM271 601
q-23 0 -36.5 12.5t-13.5 41.5v6q0 29 13.5 41.5t36.5 12.5h13q23 0 36.5 -12.5t13.5 -41.5v-6q0 -29 -13.5 -41.5t-36.5 -12.5h-13z" />
    <glyph glyph-name="dcaron" unicode="&#x10f;" horiz-adv-x="646" 
d="M386 30q-30 -20 -70 -32t-75 -12q-94 0 -145.5 64t-51.5 192q0 122 53 192t150 70q32 0 66.5 -9t63.5 -26v246h83v-715h-68zM264 54q26 0 56.5 8t56.5 21v327q-27 11 -57.5 17.5t-55.5 6.5q-38 0 -63 -14t-41 -39.5t-22.5 -61t-6.5 -78.5q0 -97 33.5 -142t99.5 -45z
M626 632q0 -14 -2 -33t-5 -39.5t-6.5 -41t-7.5 -36.5h-37v109q-20 4 -32 16.5t-12 35.5v3q0 27 14.5 39t34.5 12h1q27 0 39.5 -15t12.5 -50z" />
    <glyph glyph-name="dcroat" unicode="&#x111;" horiz-adv-x="530" 
d="M460 577v-577h-68l-6 30q-30 -20 -70 -32t-75 -12q-94 0 -145.5 64t-51.5 192q0 122 53 192t150 70q32 0 66.5 -9t63.5 -26v108h-173v56h173v82h83v-82l76 -8v-48h-76zM264 54q26 0 56.5 8t56.5 21v327q-27 11 -57.5 17.5t-55.5 6.5q-38 0 -63 -14t-41 -39.5t-22.5 -61
t-6.5 -78.5q0 -97 33.5 -142t99.5 -45z" />
    <glyph glyph-name="eth" unicode="&#xf0;" horiz-adv-x="536" 
d="M201 776q53 -38 94 -76l81 65l32 -40l-75 -61q79 -85 117 -182t38 -204q0 -65 -12.5 -118.5t-39.5 -92t-69.5 -60t-102.5 -21.5q-54 0 -95 17t-68.5 48.5t-42 75.5t-14.5 97q0 111 53.5 176t151.5 65q35 0 70.5 -8t61.5 -19q-28 95 -100 182l-77 -61l-32 40l74 59
q-38 39 -84 78zM394 372q-26 11 -61 18.5t-64 7.5q-73 0 -106.5 -44.5t-33.5 -125.5q0 -38 7.5 -70t24 -55t42.5 -36.5t62 -13.5q39 0 65.5 16.5t42.5 46t23 70.5t7 91q0 51 -9 95z" />
    <glyph glyph-name="egrave" unicode="&#xe8;" horiz-adv-x="506" 
d="M428 5q-32 -9 -71.5 -14t-73.5 -5q-116 0 -175 59q-33 33 -48.5 83t-15.5 116t15.5 114.5t43.5 81t67 48.5t86 16q103 0 153 -68.5t50 -189.5v-19q0 -11 -12 -11h-316q0 -41 10.5 -73t32.5 -52q20 -18 49 -27.5t76 -9.5q26 0 59 3.5t62 9.5zM377 277q-1 35 -8.5 64.5
t-22.5 50.5t-37 33t-53 12q-63 0 -93.5 -42.5t-31.5 -117.5h246zM332 569l-191 137l47 63l176 -156z" />
    <glyph glyph-name="eacute" unicode="&#xe9;" horiz-adv-x="506" 
d="M428 5q-32 -9 -71.5 -14t-73.5 -5q-116 0 -175 59q-33 33 -48.5 83t-15.5 116t15.5 114.5t43.5 81t67 48.5t86 16q103 0 153 -68.5t50 -189.5v-19q0 -11 -12 -11h-316q0 -41 10.5 -73t32.5 -52q20 -18 49 -27.5t76 -9.5q26 0 59 3.5t62 9.5zM377 277q-1 35 -8.5 64.5
t-22.5 50.5t-37 33t-53 12q-63 0 -93.5 -42.5t-31.5 -117.5h246zM151 613l176 156l47 -63l-191 -137z" />
    <glyph glyph-name="ecircumflex" unicode="&#xea;" horiz-adv-x="506" 
d="M428 5q-32 -9 -71.5 -14t-73.5 -5q-116 0 -175 59q-33 33 -48.5 83t-15.5 116t15.5 114.5t43.5 81t67 48.5t86 16q103 0 153 -68.5t50 -189.5v-19q0 -11 -12 -11h-316q0 -41 10.5 -73t32.5 -52q20 -18 49 -27.5t76 -9.5q26 0 59 3.5t62 9.5zM377 277q-1 35 -8.5 64.5
t-22.5 50.5t-37 33t-53 12q-63 0 -93.5 -42.5t-31.5 -117.5h246zM414 600l-30 -30l-124 107l-124 -107l-30 30l119 147h71z" />
    <glyph glyph-name="ecaron" unicode="&#x11b;" horiz-adv-x="506" 
d="M428 5q-32 -9 -71.5 -14t-73.5 -5q-116 0 -175 59q-33 33 -48.5 83t-15.5 116t15.5 114.5t43.5 81t67 48.5t86 16q103 0 153 -68.5t50 -189.5v-19q0 -11 -12 -11h-316q0 -41 10.5 -73t32.5 -52q20 -18 49 -27.5t76 -9.5q26 0 59 3.5t62 9.5zM377 277q-1 35 -8.5 64.5
t-22.5 50.5t-37 33t-53 12q-63 0 -93.5 -42.5t-31.5 -117.5h246zM294 581h-71l-119 147l30 30l124 -107l124 107l30 -30z" />
    <glyph glyph-name="edieresis" unicode="&#xeb;" horiz-adv-x="506" 
d="M428 5q-32 -9 -71.5 -14t-73.5 -5q-116 0 -175 59q-33 33 -48.5 83t-15.5 116t15.5 114.5t43.5 81t67 48.5t86 16q103 0 153 -68.5t50 -189.5v-19q0 -11 -12 -11h-316q0 -41 10.5 -73t32.5 -52q20 -18 49 -27.5t76 -9.5q26 0 59 3.5t62 9.5zM377 277q-1 35 -8.5 64.5
t-22.5 50.5t-37 33t-53 12q-63 0 -93.5 -42.5t-31.5 -117.5h246zM217 654q0 -48 -48 -48h-9q-48 0 -48 48v11q0 48 48 48h9q48 0 48 -48v-11zM406 654q0 -48 -48 -48h-9q-48 0 -48 48v11q0 48 48 48h9q48 0 48 -48v-11z" />
    <glyph glyph-name="emacron" unicode="&#x113;" horiz-adv-x="506" 
d="M428 5q-32 -9 -71.5 -14t-73.5 -5q-116 0 -175 59q-33 33 -48.5 83t-15.5 116t15.5 114.5t43.5 81t67 48.5t86 16q103 0 153 -68.5t50 -189.5v-19q0 -11 -12 -11h-316q0 -41 10.5 -73t32.5 -52q20 -18 49 -27.5t76 -9.5q26 0 59 3.5t62 9.5zM377 277q-1 35 -8.5 64.5
t-22.5 50.5t-37 33t-53 12q-63 0 -93.5 -42.5t-31.5 -117.5h246zM125 621v67h262v-67h-262z" />
    <glyph glyph-name="ebreve" unicode="&#x115;" horiz-adv-x="506" 
d="M428 5q-32 -9 -71.5 -14t-73.5 -5q-116 0 -175 59q-33 33 -48.5 83t-15.5 116t15.5 114.5t43.5 81t67 48.5t86 16q103 0 153 -68.5t50 -189.5v-19q0 -11 -12 -11h-316q0 -41 10.5 -73t32.5 -52q20 -18 49 -27.5t76 -9.5q26 0 59 3.5t62 9.5zM377 277q-1 35 -8.5 64.5
t-22.5 50.5t-37 33t-53 12q-63 0 -93.5 -42.5t-31.5 -117.5h246zM171 720q5 -35 23 -55t59 -20t59 20t23 55l56 -1q-1 -28 -9 -53t-24.5 -43.5t-42 -29t-62.5 -10.5t-63 10.5t-42.5 29t-24 43.5t-8.5 53l56 1v0z" />
    <glyph glyph-name="edotaccent" unicode="&#x117;" horiz-adv-x="506" 
d="M428 5q-32 -9 -71.5 -14t-73.5 -5q-116 0 -175 59q-33 33 -48.5 83t-15.5 116t15.5 114.5t43.5 81t67 48.5t86 16q103 0 153 -68.5t50 -189.5v-19q0 -11 -12 -11h-316q0 -41 10.5 -73t32.5 -52q20 -18 49 -27.5t76 -9.5q26 0 59 3.5t62 9.5zM377 277q-1 35 -8.5 64.5
t-22.5 50.5t-37 33t-53 12q-63 0 -93.5 -42.5t-31.5 -117.5h246zM254 601q-23 0 -36.5 12.5t-13.5 41.5v6q0 29 13.5 41.5t36.5 12.5h13q23 0 36.5 -12.5t13.5 -41.5v-6q0 -29 -13.5 -41.5t-36.5 -12.5h-13z" />
    <glyph glyph-name="eogonek" unicode="&#x119;" horiz-adv-x="506" 
d="M238 -121q0 35 16.5 62.5t45.5 44.5h-17q-116 0 -175 59q-33 33 -48.5 83t-15.5 116t15.5 114.5t43.5 81t67 48.5t86 16q103 0 153 -68.5t50 -189.5v-19q0 -11 -12 -11h-316q0 -41 10.5 -73t32.5 -52q20 -18 49 -27.5t76 -9.5q26 0 59 3.5t62 9.5l8 -62q-23 -5 -48 -15
t-44 -28q-17 -17 -23 -36.5t-6 -37.5q0 -26 16 -40t45 -14q14 0 32 2.5t29 4.5v-52q-18 -5 -41.5 -8t-40.5 -3q-54 0 -81.5 28t-27.5 73zM377 277q-1 35 -8.5 64.5t-22.5 50.5t-37 33t-53 12q-63 0 -93.5 -42.5t-31.5 -117.5h246z" />
    <glyph glyph-name="gcircumflex" unicode="&#x11d;" horiz-adv-x="511" 
d="M409 600l-30 -30l-124 107l-124 -107l-30 30l119 147h71zM456 322q0 -40 -12 -73.5t-36.5 -57.5t-61.5 -37.5t-87 -13.5q-44 0 -77 10q-11 -13 -19 -30t-8 -30q0 -30 40 -30h94q65 0 103.5 -11t62.5 -35q19 -19 27.5 -44t8.5 -55q0 -74 -54 -114t-178 -40
q-114 0 -166.5 36t-52.5 102q0 32 15 61.5t41 47.5q-23 19 -23 53q0 29 16 58t42 55q-35 24 -52 62t-17 86q0 40 12 73.5t36.5 57.5t61.5 37.5t87 13.5q56 0 99 -19l65 81q15 -8 29 -21.5t22 -25.5l-67 -66q25 -24 37 -57.5t12 -73.5zM377 322q0 57 -28.5 86.5t-89.5 29.5
t-89.5 -29.5t-28.5 -86.5t28.5 -86.5t89.5 -29.5t89.5 29.5t28.5 86.5zM183 -14q-21 0 -36 3q-14 -17 -21.5 -36t-7.5 -39q0 -40 33.5 -61.5t115.5 -21.5q78 0 112 21.5t34 59.5q0 36 -24 54q-27 20 -100 20h-106z" />
    <glyph glyph-name="gbreve" unicode="&#x11f;" horiz-adv-x="511" 
d="M456 322q0 -40 -12 -73.5t-36.5 -57.5t-61.5 -37.5t-87 -13.5q-44 0 -77 10q-11 -13 -19 -30t-8 -30q0 -30 40 -30h94q65 0 103.5 -11t62.5 -35q19 -19 27.5 -44t8.5 -55q0 -74 -54 -114t-178 -40q-114 0 -166.5 36t-52.5 102q0 32 15 61.5t41 47.5q-23 19 -23 53
q0 29 16 58t42 55q-35 24 -52 62t-17 86q0 40 12 73.5t36.5 57.5t61.5 37.5t87 13.5q56 0 99 -19l65 81q15 -8 29 -21.5t22 -25.5l-67 -66q25 -24 37 -57.5t12 -73.5zM377 322q0 57 -28.5 86.5t-89.5 29.5t-89.5 -29.5t-28.5 -86.5t28.5 -86.5t89.5 -29.5t89.5 29.5
t28.5 86.5zM183 -14q-21 0 -36 3q-14 -17 -21.5 -36t-7.5 -39q0 -40 33.5 -61.5t115.5 -21.5q78 0 112 21.5t34 59.5q0 36 -24 54q-27 20 -100 20h-106zM173 720q5 -35 23 -55t59 -20t59 20t23 55l56 -1q-1 -28 -9 -53t-24.5 -43.5t-42 -29t-62.5 -10.5t-63 10.5t-42.5 29
t-24 43.5t-8.5 53l56 1v0z" />
    <glyph glyph-name="gdotaccent" unicode="&#x121;" horiz-adv-x="511" 
d="M456 322q0 -40 -12 -73.5t-36.5 -57.5t-61.5 -37.5t-87 -13.5q-44 0 -77 10q-11 -13 -19 -30t-8 -30q0 -30 40 -30h94q65 0 103.5 -11t62.5 -35q19 -19 27.5 -44t8.5 -55q0 -74 -54 -114t-178 -40q-114 0 -166.5 36t-52.5 102q0 32 15 61.5t41 47.5q-23 19 -23 53
q0 29 16 58t42 55q-35 24 -52 62t-17 86q0 40 12 73.5t36.5 57.5t61.5 37.5t87 13.5q56 0 99 -19l65 81q15 -8 29 -21.5t22 -25.5l-67 -66q25 -24 37 -57.5t12 -73.5zM377 322q0 57 -28.5 86.5t-89.5 29.5t-89.5 -29.5t-28.5 -86.5t28.5 -86.5t89.5 -29.5t89.5 29.5
t28.5 86.5zM183 -14q-21 0 -36 3q-14 -17 -21.5 -36t-7.5 -39q0 -40 33.5 -61.5t115.5 -21.5q78 0 112 21.5t34 59.5q0 36 -24 54q-27 20 -100 20h-106zM249 601q-23 0 -36.5 12.5t-13.5 41.5v6q0 29 13.5 41.5t36.5 12.5h13q23 0 36.5 -12.5t13.5 -41.5v-6
q0 -29 -13.5 -41.5t-36.5 -12.5h-13z" />
    <glyph glyph-name="gcommaaccent" unicode="&#x123;" horiz-adv-x="511" 
d="M456 322q0 -40 -12 -73.5t-36.5 -57.5t-61.5 -37.5t-87 -13.5q-44 0 -77 10q-11 -13 -19 -30t-8 -30q0 -30 40 -30h94q65 0 103.5 -11t62.5 -35q19 -19 27.5 -44t8.5 -55q0 -74 -54 -114t-178 -40q-114 0 -166.5 36t-52.5 102q0 32 15 61.5t41 47.5q-23 19 -23 53
q0 29 16 58t42 55q-35 24 -52 62t-17 86q0 40 12 73.5t36.5 57.5t61.5 37.5t87 13.5q56 0 99 -19l65 81q15 -8 29 -21.5t22 -25.5l-67 -66q25 -24 37 -57.5t12 -73.5zM377 322q0 57 -28.5 86.5t-89.5 29.5t-89.5 -29.5t-28.5 -86.5t28.5 -86.5t89.5 -29.5t89.5 29.5
t28.5 86.5zM183 -14q-21 0 -36 3q-14 -17 -21.5 -36t-7.5 -39q0 -40 33.5 -61.5t115.5 -21.5q78 0 112 21.5t34 59.5q0 36 -24 54q-27 20 -100 20h-106zM212 625q0 14 2 32.5t5 38.5t6.5 39.5t7.5 36.5h37v-106q20 -4 32 -16.5t12 -35.5v-3q0 -27 -14.5 -39t-34.5 -12h-1
q-27 0 -39.5 15t-12.5 50z" />
    <glyph glyph-name="hcircumflex" unicode="&#x125;" horiz-adv-x="544" 
d="M153 715v-256q37 20 77.5 32.5t81.5 12.5q81 0 123 -43q20 -20 30.5 -51t10.5 -77v-333h-83v323q0 32 -5.5 51t-18.5 32q-25 25 -79 25q-33 0 -70 -9t-67 -23v-399h-83v715h83zM266 750l-30 -30l-124 107l-124 -107l-30 30l119 147h71z" />
    <glyph glyph-name="hbar" unicode="&#x127;" horiz-adv-x="544" 
d="M153 459q37 20 77.5 32.5t81.5 12.5q81 0 123 -43q20 -20 30.5 -51t10.5 -77v-333h-83v323q0 32 -5.5 51t-18.5 32q-25 25 -79 25q-33 0 -70 -9t-67 -23v-399h-83v577h-76v48l76 8v82h83v-82h173v-56h-173v-118z" />
    <glyph glyph-name="dotlessi" unicode="&#x131;" horiz-adv-x="227" 
d="M155 0h-83v490h83v-490z" />
    <glyph glyph-name="igrave" unicode="&#xec;" horiz-adv-x="227" 
d="M155 0h-83v490h83v-490zM190 569l-191 137l47 63l176 -156z" />
    <glyph glyph-name="iacute" unicode="&#xed;" horiz-adv-x="227" 
d="M155 0h-83v490h83v-490zM17 613l176 156l47 -63l-191 -137z" />
    <glyph glyph-name="icircumflex" unicode="&#xee;" horiz-adv-x="227" 
d="M155 0h-83v490h83v-490zM269 600l-30 -30l-124 107l-124 -107l-30 30l119 147h71z" />
    <glyph glyph-name="itilde" unicode="&#x129;" horiz-adv-x="227" 
d="M155 0h-83v490h83v-490zM-40 619q4 50 25.5 77t58.5 27q19 0 38 -6t37 -13.5l33.5 -13.5t29.5 -6q15 0 25 8.5t15 31.5l47 -8q-4 -50 -25.5 -77t-58.5 -27q-20 0 -38.5 6t-36.5 13.5t-34 13.5t-29 6q-15 0 -25 -8.5t-15 -31.5z" />
    <glyph glyph-name="idieresis" unicode="&#xef;" horiz-adv-x="227" 
d="M155 0h-83v490h83v-490zM73 654q0 -48 -48 -48h-9q-48 0 -48 48v11q0 48 48 48h9q48 0 48 -48v-11zM262 654q0 -48 -48 -48h-9q-48 0 -48 48v11q0 48 48 48h9q48 0 48 -48v-11z" />
    <glyph glyph-name="imacron" unicode="&#x12b;" horiz-adv-x="227" 
d="M155 0h-83v490h83v-490zM-16 621v67h262v-67h-262z" />
    <glyph glyph-name="ibreve" unicode="&#x12d;" horiz-adv-x="227" 
d="M155 0h-83v490h83v-490zM33 720q5 -35 23 -55t59 -20t59 20t23 55l56 -1q-1 -28 -9 -53t-24.5 -43.5t-42 -29t-62.5 -10.5t-63 10.5t-42.5 29t-24 43.5t-8.5 53l56 1v0z" />
    <glyph glyph-name="iogonek" unicode="&#x12f;" horiz-adv-x="227" 
d="M-5 -125q0 38 21 70t56 55v490h83v-490h-11q-8 0 -12.5 -1t-9.5 -6q-31 -26 -44.5 -54.5t-13.5 -54.5q0 -23 12.5 -36.5t41.5 -13.5q9 0 23 0.5t25 2.5v-52q-15 -3 -33.5 -5t-30.5 -2q-54 0 -80.5 26t-26.5 71zM111 583q-23 0 -36 12t-13 41v2q0 29 13 41t36 12h5
q23 0 36 -12t13 -41v-2q0 -29 -13 -41t-36 -12h-5z" />
    <glyph glyph-name="ij" unicode="&#x133;" horiz-adv-x="454" 
d="M155 0h-83v490h83v-490zM111 583q-23 0 -36 12t-13 41v2q0 29 13 41t36 12h5q23 0 36 -12t13 -41v-2q0 -29 -13 -41t-36 -12h-5zM382 490v-493q0 -71 -11.5 -112.5t-39.5 -69.5q-50 -51 -165 -51l-9 67q42 1 69.5 8.5t44.5 26.5q16 18 22 45.5t6 72.5v506h83zM338 583
q-23 0 -36 12t-13 41v2q0 29 13 41t36 12h5q23 0 36 -12t13 -41v-2q0 -29 -13 -41t-36 -12h-5z" />
    <glyph glyph-name="jcircumflex" unicode="&#x135;" horiz-adv-x="227" 
d="M155 490v-493q0 -71 -11.5 -112.5t-39.5 -69.5q-50 -51 -165 -51l-9 67q42 1 69.5 8.5t44.5 26.5q16 18 22 45.5t6 72.5v506h83zM268 600l-30 -30l-124 107l-124 -107l-30 30l119 147h71z" />
    <glyph glyph-name="kcommaaccent" unicode="&#x137;" horiz-adv-x="500" 
d="M153 715v-474l219 249h96l-173 -190l191 -300h-95l-150 243l-88 -98v-145h-83v715h83zM321 -141q0 -14 -2 -33t-5 -39.5t-6.5 -41t-7.5 -36.5h-37v109q-20 4 -32 16.5t-12 35.5v3q0 27 14.5 39t34.5 12h1q27 0 39.5 -15t12.5 -50z" />
    <glyph glyph-name="kgreenlandic" unicode="&#x138;" horiz-adv-x="500" 
d="M153 490v-249l219 249h96l-173 -190l191 -300h-95l-150 243l-88 -98v-145h-83v490h83z" />
    <glyph glyph-name="lacute" unicode="&#x13a;" horiz-adv-x="225" 
d="M154 715v-715h-83v715h83zM2 779l176 156l47 -63l-191 -137z" />
    <glyph glyph-name="lcaron" unicode="&#x13e;" horiz-adv-x="340" 
d="M154 715v-715h-83v715h83zM320 632q0 -14 -2 -33t-5 -39.5t-6.5 -41t-7.5 -36.5h-37v109q-20 4 -32 16.5t-12 35.5v3q0 27 14.5 39t34.5 12h1q27 0 39.5 -15t12.5 -50z" />
    <glyph glyph-name="lcommaaccent" unicode="&#x13c;" horiz-adv-x="225" 
d="M154 715v-715h-83v715h83zM165 -141q0 -14 -2 -33t-5 -39.5t-6.5 -41t-7.5 -36.5h-37v109q-20 4 -32 16.5t-12 35.5v3q0 27 14.5 39t34.5 12h1q27 0 39.5 -15t12.5 -50z" />
    <glyph glyph-name="lslash" unicode="&#x142;" horiz-adv-x="323" 
d="M208 715v-279l92 62l35 -58l-127 -85v-355h-83v299l-72 -48l-35 58l107 72v334h83z" />
    <glyph glyph-name="longs" unicode="&#x17f;" horiz-adv-x="319" 
d="M186 0h-83v429h-89v47l89 13v67q0 46 9 77.5t27 52.5q40 46 128 46q17 0 40.5 -2t41.5 -6v-63q-15 2 -35 3t-35 1q-52 0 -73 -22q-11 -12 -15.5 -31.5t-4.5 -53.5v-558z" />
    <glyph glyph-name="ldot" unicode="&#x140;" horiz-adv-x="372" 
d="M154 715v-715h-83v715h83zM287 273q-23 0 -36.5 12.5t-13.5 41.5v6q0 29 13.5 41.5t36.5 12.5h13q23 0 36.5 -12.5t13.5 -41.5v-6q0 -29 -13.5 -41.5t-36.5 -12.5h-13z" />
    <glyph glyph-name="nacute" unicode="&#x144;" horiz-adv-x="544" 
d="M139 490l4 -36q38 23 82 36.5t87 13.5q81 0 123 -43q20 -20 30.5 -51t10.5 -77v-333h-83v323q0 32 -5.5 51t-18.5 32q-25 25 -79 25q-33 0 -70 -9t-67 -23v-399h-83v490h69zM192 613l176 156l47 -63l-191 -137z" />
    <glyph glyph-name="ncaron" unicode="&#x148;" horiz-adv-x="544" 
d="M139 490l4 -36q38 23 82 36.5t87 13.5q81 0 123 -43q20 -20 30.5 -51t10.5 -77v-333h-83v323q0 32 -5.5 51t-18.5 32q-25 25 -79 25q-33 0 -70 -9t-67 -23v-399h-83v490h69zM331 581h-71l-119 147l30 30l124 -107l124 107l30 -30z" />
    <glyph glyph-name="ntilde" unicode="&#xf1;" horiz-adv-x="544" 
d="M139 490l4 -36q38 23 82 36.5t87 13.5q81 0 123 -43q20 -20 30.5 -51t10.5 -77v-333h-83v323q0 32 -5.5 51t-18.5 32q-25 25 -79 25q-33 0 -70 -9t-67 -23v-399h-83v490h69zM130 619q4 50 25.5 77t58.5 27q19 0 38 -6t37 -13.5l33.5 -13.5t29.5 -6q15 0 25 8.5t15 31.5
l47 -8q-4 -50 -25.5 -77t-58.5 -27q-20 0 -38.5 6t-36.5 13.5t-34 13.5t-29 6q-15 0 -25 -8.5t-15 -31.5z" />
    <glyph glyph-name="ncommaaccent" unicode="&#x146;" horiz-adv-x="544" 
d="M139 490l4 -36q38 23 82 36.5t87 13.5q81 0 123 -43q20 -20 30.5 -51t10.5 -77v-333h-83v323q0 32 -5.5 51t-18.5 32q-25 25 -79 25q-33 0 -70 -9t-67 -23v-399h-83v490h69zM323 -141q0 -14 -2 -33t-5 -39.5t-6.5 -41t-7.5 -36.5h-37v109q-20 4 -32 16.5t-12 35.5v3
q0 27 14.5 39t34.5 12h1q27 0 39.5 -15t12.5 -50z" />
    <glyph glyph-name="napostrophe" unicode="&#x149;" horiz-adv-x="648" 
d="M243 490l4 -36q38 23 82 36.5t87 13.5q81 0 123 -43q20 -20 30.5 -51t10.5 -77v-333h-83v323q0 32 -5.5 51t-18.5 32q-25 25 -79 25q-33 0 -70 -9t-67 -23v-399h-83v490h69zM120 628q0 -15 -2 -37t-5.5 -45.5t-7.5 -46.5t-8 -41h-39v125q-22 5 -34.5 18t-12.5 39v3
q0 30 14 42t37 12h1q29 0 43 -15.5t14 -53.5z" />
    <glyph glyph-name="eng" unicode="&#x14b;" horiz-adv-x="544" 
d="M393 323q0 32 -5.5 51t-18.5 32q-25 25 -79 25q-33 0 -70 -9t-67 -23v-399h-83v490h69l4 -36q38 23 82 36.5t87 13.5q81 0 123 -43q20 -20 30.5 -51t10.5 -77v-336q0 -71 -11.5 -112.5t-39.5 -69.5q-50 -51 -165 -51l-9 67q42 1 69.5 8.5t44.5 26.5q16 18 22 45.5t6 72.5
v339z" />
    <glyph glyph-name="ograve" unicode="&#xf2;" horiz-adv-x="534" 
d="M490 245q0 -122 -54.5 -190.5t-168.5 -68.5t-168.5 68.5t-54.5 190.5t54.5 190.5t168.5 68.5t168.5 -68.5t54.5 -190.5zM403 245q0 94 -30.5 142.5t-105.5 48.5t-105.5 -48.5t-30.5 -142.5t30.5 -142.5t105.5 -48.5t105.5 48.5t30.5 142.5zM344 569l-191 137l47 63
l176 -156z" />
    <glyph glyph-name="oacute" unicode="&#xf3;" horiz-adv-x="534" 
d="M490 245q0 -122 -54.5 -190.5t-168.5 -68.5t-168.5 68.5t-54.5 190.5t54.5 190.5t168.5 68.5t168.5 -68.5t54.5 -190.5zM403 245q0 94 -30.5 142.5t-105.5 48.5t-105.5 -48.5t-30.5 -142.5t30.5 -142.5t105.5 -48.5t105.5 48.5t30.5 142.5zM161 613l176 156l47 -63
l-191 -137z" />
    <glyph glyph-name="ocircumflex" unicode="&#xf4;" horiz-adv-x="534" 
d="M490 245q0 -122 -54.5 -190.5t-168.5 -68.5t-168.5 68.5t-54.5 190.5t54.5 190.5t168.5 68.5t168.5 -68.5t54.5 -190.5zM403 245q0 94 -30.5 142.5t-105.5 48.5t-105.5 -48.5t-30.5 -142.5t30.5 -142.5t105.5 -48.5t105.5 48.5t30.5 142.5zM421 600l-30 -30l-124 107
l-124 -107l-30 30l119 147h71z" />
    <glyph glyph-name="otilde" unicode="&#xf5;" horiz-adv-x="534" 
d="M490 245q0 -122 -54.5 -190.5t-168.5 -68.5t-168.5 68.5t-54.5 190.5t54.5 190.5t168.5 68.5t168.5 -68.5t54.5 -190.5zM403 245q0 94 -30.5 142.5t-105.5 48.5t-105.5 -48.5t-30.5 -142.5t30.5 -142.5t105.5 -48.5t105.5 48.5t30.5 142.5zM112 619q4 50 25.5 77t58.5 27
q19 0 38 -6t37 -13.5l33.5 -13.5t29.5 -6q15 0 25 8.5t15 31.5l47 -8q-4 -50 -25.5 -77t-58.5 -27q-20 0 -38.5 6t-36.5 13.5t-34 13.5t-29 6q-15 0 -25 -8.5t-15 -31.5z" />
    <glyph glyph-name="odieresis" unicode="&#xf6;" horiz-adv-x="534" 
d="M490 245q0 -122 -54.5 -190.5t-168.5 -68.5t-168.5 68.5t-54.5 190.5t54.5 190.5t168.5 68.5t168.5 -68.5t54.5 -190.5zM403 245q0 94 -30.5 142.5t-105.5 48.5t-105.5 -48.5t-30.5 -142.5t30.5 -142.5t105.5 -48.5t105.5 48.5t30.5 142.5zM225 654q0 -48 -48 -48h-9
q-48 0 -48 48v11q0 48 48 48h9q48 0 48 -48v-11zM414 654q0 -48 -48 -48h-9q-48 0 -48 48v11q0 48 48 48h9q48 0 48 -48v-11z" />
    <glyph glyph-name="omacron" unicode="&#x14d;" horiz-adv-x="534" 
d="M490 245q0 -122 -54.5 -190.5t-168.5 -68.5t-168.5 68.5t-54.5 190.5t54.5 190.5t168.5 68.5t168.5 -68.5t54.5 -190.5zM403 245q0 94 -30.5 142.5t-105.5 48.5t-105.5 -48.5t-30.5 -142.5t30.5 -142.5t105.5 -48.5t105.5 48.5t30.5 142.5zM136 621v67h262v-67h-262z" />
    <glyph glyph-name="obreve" unicode="&#x14f;" horiz-adv-x="534" 
d="M490 245q0 -122 -54.5 -190.5t-168.5 -68.5t-168.5 68.5t-54.5 190.5t54.5 190.5t168.5 68.5t168.5 -68.5t54.5 -190.5zM403 245q0 94 -30.5 142.5t-105.5 48.5t-105.5 -48.5t-30.5 -142.5t30.5 -142.5t105.5 -48.5t105.5 48.5t30.5 142.5zM185 720q5 -35 23 -55t59 -20
t59 20t23 55l56 -1q-1 -28 -9 -53t-24.5 -43.5t-42 -29t-62.5 -10.5t-63 10.5t-42.5 29t-24 43.5t-8.5 53l56 1v0z" />
    <glyph glyph-name="ohungarumlaut" unicode="&#x151;" horiz-adv-x="534" 
d="M490 245q0 -122 -54.5 -190.5t-168.5 -68.5t-168.5 68.5t-54.5 190.5t54.5 190.5t168.5 68.5t168.5 -68.5t54.5 -190.5zM403 245q0 94 -30.5 142.5t-105.5 48.5t-105.5 -48.5t-30.5 -142.5t30.5 -142.5t105.5 -48.5t105.5 48.5t30.5 142.5zM88 609l143 188l55 -53
l-160 -166zM268 609l143 188l55 -53l-160 -166z" />
    <glyph glyph-name="oslash" unicode="&#xf8;" horiz-adv-x="534" 
d="M150 12q-54 29 -80 88t-26 145q0 122 54.5 190.5t168.5 68.5q32 0 61 -6l25 69h66l-33 -91q53 -29 78.5 -87.5t25.5 -143.5q0 -122 -54.5 -190.5t-168.5 -68.5q-31 0 -58 6l-25 -69h-66zM131 245q0 -57 10.5 -97.5t35.5 -63.5l127 348q-15 4 -37 4q-75 0 -105.5 -48.5
t-30.5 -142.5zM403 245q0 56 -10.5 95.5t-33.5 62.5l-126 -346q15 -3 34 -3q75 0 105.5 48.5t30.5 142.5z" />
    <glyph glyph-name="oslashacute" unicode="&#x1ff;" horiz-adv-x="534" 
d="M150 12q-54 29 -80 88t-26 145q0 122 54.5 190.5t168.5 68.5q32 0 61 -6l25 69h66l-33 -91q53 -29 78.5 -87.5t25.5 -143.5q0 -122 -54.5 -190.5t-168.5 -68.5q-31 0 -58 6l-25 -69h-66zM131 245q0 -57 10.5 -97.5t35.5 -63.5l127 348q-15 4 -37 4q-75 0 -105.5 -48.5
t-30.5 -142.5zM403 245q0 56 -10.5 95.5t-33.5 62.5l-126 -346q15 -3 34 -3q75 0 105.5 48.5t30.5 142.5zM155 613l176 156l47 -63l-191 -137z" />
    <glyph glyph-name="oe" unicode="&#x153;" horiz-adv-x="865" 
d="M787 5q-32 -9 -71.5 -14t-73.5 -5q-116 0 -175 59q-12 10 -21 24q-55 -83 -179 -83q-114 0 -168.5 68.5t-54.5 190.5t54.5 190.5t168.5 68.5q63 0 108 -21.5t72 -62.5q29 42 71.5 63t96.5 21q103 0 153 -68.5t50 -189.5v-19q0 -11 -12 -11h-316q0 -41 10.5 -73t32.5 -52
q20 -18 49 -27.5t76 -9.5q26 0 59 3.5t62 9.5zM403 245q0 94 -30.5 142.5t-105.5 48.5t-105.5 -48.5t-30.5 -142.5t30.5 -142.5t105.5 -48.5q73 0 103.5 45.5t32.5 135.5v9v1zM736 277q-1 35 -8.5 64.5t-22.5 50.5t-37 33t-53 12q-63 0 -93.5 -42.5t-31.5 -117.5h246z" />
    <glyph glyph-name="thorn" unicode="&#xfe;" horiz-adv-x="528" 
d="M70 -225v940h83v-255q36 23 73.5 33.5t69.5 10.5q48 0 83 -18t58.5 -52t35 -81.5t11.5 -105.5q0 -138 -51.5 -199.5t-139.5 -61.5q-38 0 -75.5 10t-64.5 27v-248h-83zM153 85q22 -13 54.5 -21.5t64.5 -8.5q67 0 96 44t29 149q0 94 -28.5 139.5t-90.5 45.5q-29 0 -62.5 -9
t-62.5 -24v-315z" />
    <glyph glyph-name="racute" unicode="&#x155;" horiz-adv-x="335" 
d="M139 490l5 -42q35 29 71 42.5t68 13.5q15 0 32 -3v-74q-8 1 -20 1.5t-23 0.5q-67 0 -119 -33v-396h-83v490h69zM95 613l176 156l47 -63l-191 -137z" />
    <glyph glyph-name="rcaron" unicode="&#x159;" horiz-adv-x="335" 
d="M139 490l5 -42q35 29 71 42.5t68 13.5q15 0 32 -3v-74q-8 1 -20 1.5t-23 0.5q-67 0 -119 -33v-396h-83v490h69zM250 581h-71l-119 147l30 30l124 -107l124 107l30 -30z" />
    <glyph glyph-name="rcommaaccent" unicode="&#x157;" horiz-adv-x="335" 
d="M139 490l5 -42q35 29 71 42.5t68 13.5q15 0 32 -3v-74q-8 1 -20 1.5t-23 0.5q-67 0 -119 -33v-396h-83v490h69zM167 -141q0 -14 -2 -33t-5 -39.5t-6.5 -41t-7.5 -36.5h-37v109q-20 4 -32 16.5t-12 35.5v3q0 27 14.5 39t34.5 12h1q27 0 39.5 -15t12.5 -50z" />
    <glyph glyph-name="sacute" unicode="&#x15b;" horiz-adv-x="444" 
d="M360 422q-33 8 -66 12t-63 4q-107 0 -107 -69q0 -27 20 -43t50.5 -27.5t66 -22t66 -27t50.5 -43t20 -70.5q0 -39 -14.5 -67.5t-40.5 -46.5t-62.5 -27t-80.5 -9q-35 0 -75.5 6t-68.5 15l4 64q30 -8 67.5 -13t69.5 -5q60 0 91.5 19.5t31.5 57.5q0 27 -20 42.5t-50.5 26.5
t-66 21t-66 27t-50.5 44t-20 72q0 71 50 106t128 35q37 0 75.5 -6t67.5 -15zM113 613l176 156l47 -63l-191 -137z" />
    <glyph glyph-name="scircumflex" unicode="&#x15d;" horiz-adv-x="444" 
d="M360 422q-33 8 -66 12t-63 4q-107 0 -107 -69q0 -27 20 -43t50.5 -27.5t66 -22t66 -27t50.5 -43t20 -70.5q0 -39 -14.5 -67.5t-40.5 -46.5t-62.5 -27t-80.5 -9q-35 0 -75.5 6t-68.5 15l4 64q30 -8 67.5 -13t69.5 -5q60 0 91.5 19.5t31.5 57.5q0 27 -20 42.5t-50.5 26.5
t-66 21t-66 27t-50.5 44t-20 72q0 71 50 106t128 35q37 0 75.5 -6t67.5 -15zM376 600l-30 -30l-124 107l-124 -107l-30 30l119 147h71z" />
    <glyph glyph-name="scaron" unicode="&#x161;" horiz-adv-x="444" 
d="M360 422q-33 8 -66 12t-63 4q-107 0 -107 -69q0 -27 20 -43t50.5 -27.5t66 -22t66 -27t50.5 -43t20 -70.5q0 -39 -14.5 -67.5t-40.5 -46.5t-62.5 -27t-80.5 -9q-35 0 -75.5 6t-68.5 15l4 64q30 -8 67.5 -13t69.5 -5q60 0 91.5 19.5t31.5 57.5q0 27 -20 42.5t-50.5 26.5
t-66 21t-66 27t-50.5 44t-20 72q0 71 50 106t128 35q37 0 75.5 -6t67.5 -15zM258 581h-71l-119 147l30 30l124 -107l124 107l30 -30z" />
    <glyph glyph-name="scedilla" unicode="&#x15f;" horiz-adv-x="444" 
d="M360 422q-33 8 -66 12t-63 4q-107 0 -107 -69q0 -27 20 -43t50.5 -27.5t66 -22t66 -27t50.5 -43t20 -70.5q0 -36 -12 -62.5t-34 -44.5t-53.5 -28.5t-69.5 -13.5q-1 -3 -1 -6.5v-6.5q0 -15 18 -22t40 -16.5t40 -26t18 -49.5q0 -43 -27.5 -66t-77.5 -23q-17 0 -38.5 3.5
t-38.5 8.5v52q35 -8 67 -8q51 0 51 28q0 15 -18 23t-39.5 16t-39.5 20.5t-18 38.5q0 17 9 34q-31 2 -63 7t-55 13l4 64q30 -8 67.5 -13t69.5 -5q60 0 91.5 19.5t31.5 57.5q0 27 -20 42.5t-50.5 26.5t-66 21t-66 27t-50.5 44t-20 72q0 71 50 106t128 35q37 0 75.5 -6
t67.5 -15z" />
    <glyph glyph-name="scommaaccent" unicode="&#x219;" horiz-adv-x="444" 
d="M360 422q-33 8 -66 12t-63 4q-107 0 -107 -69q0 -27 20 -43t50.5 -27.5t66 -22t66 -27t50.5 -43t20 -70.5q0 -39 -14.5 -67.5t-40.5 -46.5t-62.5 -27t-80.5 -9q-35 0 -75.5 6t-68.5 15l4 64q30 -8 67.5 -13t69.5 -5q60 0 91.5 19.5t31.5 57.5q0 27 -20 42.5t-50.5 26.5
t-66 21t-66 27t-50.5 44t-20 72q0 71 50 106t128 35q37 0 75.5 -6t67.5 -15zM273 -141q0 -14 -2 -33t-5 -39.5t-6.5 -41t-7.5 -36.5h-37v109q-20 4 -32 16.5t-12 35.5v3q0 27 14.5 39t34.5 12h1q27 0 39.5 -15t12.5 -50z" />
    <glyph glyph-name="germandbls" unicode="&#xdf;" horiz-adv-x="646" 
d="M524 127q0 28 -17.5 45t-43.5 29t-57 22.5t-57 26t-43.5 39t-17.5 60.5q0 27 10.5 47.5t26.5 37.5t34.5 32.5t34.5 32t26.5 36t10.5 45.5q0 38 -27 61.5t-79 23.5q-67 0 -103 -42q-18 -21 -27 -51.5t-9 -81.5v-490h-83v429h-89v47l89 13v11q0 115 57 173.5t162 58.5
q91 0 141 -41t50 -109q0 -33 -10.5 -57t-26.5 -42.5t-34.5 -33l-34.5 -28t-26.5 -27.5t-10.5 -32q0 -22 17.5 -36t43.5 -25t56 -22.5t56 -29.5t43.5 -45.5t17.5 -70.5q0 -69 -47 -108t-147 -39q-36 0 -76.5 6t-68.5 14l5 64q31 -8 69.5 -12.5t67.5 -4.5q52 0 84.5 17
t32.5 57z" />
    <glyph glyph-name="tcaron" unicode="&#x165;" horiz-adv-x="365" 
d="M100 605q18 6 40.5 10.5t42.5 4.5v-130h129v-61h-129v-272q0 -35 3 -55t14 -31q8 -9 22.5 -14t40.5 -5q13 0 34.5 2t39.5 6l4 -61q-20 -5 -47 -9t-54 -4q-36 0 -64 9.5t-45 28.5q-18 21 -24.5 48.5t-6.5 73.5v283h-89v47l89 13v116zM322 715q0 -14 -2 -33t-5 -39.5
t-6.5 -41t-7.5 -36.5h-37v109q-20 4 -32 16.5t-12 35.5v3q0 27 14.5 39t34.5 12h1q27 0 39.5 -15t12.5 -50z" />
    <glyph glyph-name="tcommaaccent" unicode="&#x163;" horiz-adv-x="365" 
d="M100 605q18 6 40.5 10.5t42.5 4.5v-130h129v-61h-129v-272q0 -35 3 -55t14 -31q8 -9 22.5 -14t40.5 -5q13 0 34.5 2t39.5 6l4 -61q-20 -5 -47 -9t-54 -4q-36 0 -64 9.5t-45 28.5q-18 21 -24.5 48.5t-6.5 73.5v283h-89v47l89 13v116zM278 -141q0 -14 -2 -33t-5 -39.5
t-6.5 -41t-7.5 -36.5h-37v109q-20 4 -32 16.5t-12 35.5v3q0 27 14.5 39t34.5 12h1q27 0 39.5 -15t12.5 -50z" />
    <glyph glyph-name="uni021B" unicode="&#x21b;" horiz-adv-x="365" 
d="M100 605q18 6 40.5 10.5t42.5 4.5v-130h129v-61h-129v-272q0 -35 3 -55t14 -31q8 -9 22.5 -14t40.5 -5q13 0 34.5 2t39.5 6l4 -61q-20 -5 -47 -9t-54 -4q-36 0 -64 9.5t-45 28.5q-18 21 -24.5 48.5t-6.5 73.5v283h-89v47l89 13v116zM278 -141q0 -14 -2 -33t-5 -39.5
t-6.5 -41t-7.5 -36.5h-37v109q-20 4 -32 16.5t-12 35.5v3q0 27 14.5 39t34.5 12h1q27 0 39.5 -15t12.5 -50z" />
    <glyph glyph-name="tbar" unicode="&#x167;" horiz-adv-x="365" 
d="M100 429h-89v47l89 13v116q18 6 40.5 10.5t42.5 4.5v-130h129v-61h-129v-158h120v-56h-120v-58q0 -35 3 -55t14 -31q8 -9 22.5 -14t40.5 -5q13 0 34.5 2t39.5 6l4 -61q-20 -5 -47 -9t-54 -4q-36 0 -64 9.5t-45 28.5q-18 21 -24.5 48.5t-6.5 73.5v69h-76v46l76 10v158z
" />
    <glyph glyph-name="ugrave" unicode="&#xf9;" horiz-adv-x="542" 
d="M403 0l-4 36q-38 -23 -81 -36.5t-86 -13.5q-81 0 -123 43q-20 20 -30.5 51t-10.5 77v333h83v-323q0 -32 5.5 -51t18.5 -32q25 -25 79 -25q33 0 69 9t66 23v399h83v-490h-69zM340 569l-191 137l47 63l176 -156z" />
    <glyph glyph-name="uacute" unicode="&#xfa;" horiz-adv-x="542" 
d="M403 0l-4 36q-38 -23 -81 -36.5t-86 -13.5q-81 0 -123 43q-20 20 -30.5 51t-10.5 77v333h83v-323q0 -32 5.5 -51t18.5 -32q25 -25 79 -25q33 0 69 9t66 23v399h83v-490h-69zM179 613l176 156l47 -63l-191 -137z" />
    <glyph glyph-name="ucircumflex" unicode="&#xfb;" horiz-adv-x="542" 
d="M403 0l-4 36q-38 -23 -81 -36.5t-86 -13.5q-81 0 -123 43q-20 20 -30.5 51t-10.5 77v333h83v-323q0 -32 5.5 -51t18.5 -32q25 -25 79 -25q33 0 69 9t66 23v399h83v-490h-69zM425 600l-30 -30l-124 107l-124 -107l-30 30l119 147h71z" />
    <glyph glyph-name="utilde" unicode="&#x169;" horiz-adv-x="542" 
d="M403 0l-4 36q-38 -23 -81 -36.5t-86 -13.5q-81 0 -123 43q-20 20 -30.5 51t-10.5 77v333h83v-323q0 -32 5.5 -51t18.5 -32q25 -25 79 -25q33 0 69 9t66 23v399h83v-490h-69zM116 619q4 50 25.5 77t58.5 27q19 0 38 -6t37 -13.5l33.5 -13.5t29.5 -6q15 0 25 8.5t15 31.5
l47 -8q-4 -50 -25.5 -77t-58.5 -27q-20 0 -38.5 6t-36.5 13.5t-34 13.5t-29 6q-15 0 -25 -8.5t-15 -31.5z" />
    <glyph glyph-name="udieresis" unicode="&#xfc;" horiz-adv-x="542" 
d="M403 0l-4 36q-38 -23 -81 -36.5t-86 -13.5q-81 0 -123 43q-20 20 -30.5 51t-10.5 77v333h83v-323q0 -32 5.5 -51t18.5 -32q25 -25 79 -25q33 0 69 9t66 23v399h83v-490h-69zM229 654q0 -48 -48 -48h-9q-48 0 -48 48v11q0 48 48 48h9q48 0 48 -48v-11zM418 654
q0 -48 -48 -48h-9q-48 0 -48 48v11q0 48 48 48h9q48 0 48 -48v-11z" />
    <glyph glyph-name="umacron" unicode="&#x16b;" horiz-adv-x="542" 
d="M403 0l-4 36q-38 -23 -81 -36.5t-86 -13.5q-81 0 -123 43q-20 20 -30.5 51t-10.5 77v333h83v-323q0 -32 5.5 -51t18.5 -32q25 -25 79 -25q33 0 69 9t66 23v399h83v-490h-69zM140 621v67h262v-67h-262z" />
    <glyph glyph-name="ubreve" unicode="&#x16d;" horiz-adv-x="542" 
d="M403 0l-4 36q-38 -23 -81 -36.5t-86 -13.5q-81 0 -123 43q-20 20 -30.5 51t-10.5 77v333h83v-323q0 -32 5.5 -51t18.5 -32q25 -25 79 -25q33 0 69 9t66 23v399h83v-490h-69zM189 720q5 -35 23 -55t59 -20t59 20t23 55l56 -1q-1 -28 -9 -53t-24.5 -43.5t-42 -29
t-62.5 -10.5t-63 10.5t-42.5 29t-24 43.5t-8.5 53l56 1v0z" />
    <glyph glyph-name="uring" unicode="&#x16f;" horiz-adv-x="542" 
d="M403 0l-4 36q-38 -23 -81 -36.5t-86 -13.5q-81 0 -123 43q-20 20 -30.5 51t-10.5 77v333h83v-323q0 -32 5.5 -51t18.5 -32q25 -25 79 -25q33 0 69 9t66 23v399h83v-490h-69zM385 681q0 -55 -31 -80.5t-81 -25.5h-4q-50 0 -81 25.5t-31 80.5v9q0 55 31 80.5t81 25.5h4
q50 0 81 -25.5t31 -80.5v-9zM329 688q0 31 -14.5 44t-42.5 13h-2q-28 0 -42.5 -13t-14.5 -44v-5q0 -31 14.5 -44t42.5 -13h2q28 0 42.5 13t14.5 44v5z" />
    <glyph glyph-name="uhungarumlaut" unicode="&#x171;" horiz-adv-x="542" 
d="M403 0l-4 36q-38 -23 -81 -36.5t-86 -13.5q-81 0 -123 43q-20 20 -30.5 51t-10.5 77v333h83v-323q0 -32 5.5 -51t18.5 -32q25 -25 79 -25q33 0 69 9t66 23v399h83v-490h-69zM105 609l143 188l55 -53l-160 -166zM285 609l143 188l55 -53l-160 -166z" />
    <glyph glyph-name="uogonek" unicode="&#x173;" horiz-adv-x="542" 
d="M430 -222q-54 0 -80.5 26t-26.5 71q0 39 22 71.5t58 55.5l-4 34q-38 -23 -81 -36.5t-86 -13.5q-81 0 -123 43q-20 20 -30.5 51t-10.5 77v333h83v-323q0 -32 5.5 -51t18.5 -32q25 -25 79 -25q33 0 69 9t66 23v399h83v-490q-8 0 -12.5 -1t-9.5 -6q-31 -26 -44.5 -54.5
t-13.5 -54.5q0 -23 12.5 -36.5t41.5 -13.5q9 0 23 0.5t25 2.5v-52q-15 -3 -33.5 -5t-30.5 -2z" />
    <glyph glyph-name="wgrave" unicode="&#x1e81;" horiz-adv-x="716" 
d="M357 375l-102 -375h-96l-143 490h84l110 -403l105 403h84l119 -408l105 408h77l-136 -490h-95zM437 569l-191 137l47 63l176 -156z" />
    <glyph glyph-name="wacute" unicode="&#x1e83;" horiz-adv-x="716" 
d="M357 375l-102 -375h-96l-143 490h84l110 -403l105 403h84l119 -408l105 408h77l-136 -490h-95zM266 613l176 156l47 -63l-191 -137z" />
    <glyph glyph-name="wcircumflex" unicode="&#x175;" horiz-adv-x="716" 
d="M357 375l-102 -375h-96l-143 490h84l110 -403l105 403h84l119 -408l105 408h77l-136 -490h-95zM512 600l-30 -30l-124 107l-124 -107l-30 30l119 147h71z" />
    <glyph glyph-name="wdieresis" unicode="&#x1e85;" horiz-adv-x="716" 
d="M357 375l-102 -375h-96l-143 490h84l110 -403l105 403h84l119 -408l105 408h77l-136 -490h-95zM316 654q0 -48 -48 -48h-9q-48 0 -48 48v11q0 48 48 48h9q48 0 48 -48v-11zM505 654q0 -48 -48 -48h-9q-48 0 -48 48v11q0 48 48 48h9q48 0 48 -48v-11z" />
    <glyph glyph-name="ygrave" unicode="&#x1ef3;" horiz-adv-x="542" 
d="M389 30q-37 -21 -77 -32.5t-80 -11.5q-81 0 -123 43q-20 20 -30.5 51t-10.5 77v333h83v-323q0 -32 5.5 -51t18.5 -32q25 -25 79 -25q33 0 69 9t66 23v399h83v-528q0 -99 -45 -147q-50 -54 -159 -54q-25 0 -53.5 3t-45.5 7l-7 65q18 -2 47 -4t47 -2q34 0 59.5 6t42.5 21
q16 15 23.5 39.5t7.5 66.5v67zM330 569l-191 137l47 63l176 -156z" />
    <glyph glyph-name="yacute" unicode="&#xfd;" horiz-adv-x="542" 
d="M389 30q-37 -21 -77 -32.5t-80 -11.5q-81 0 -123 43q-20 20 -30.5 51t-10.5 77v333h83v-323q0 -32 5.5 -51t18.5 -32q25 -25 79 -25q33 0 69 9t66 23v399h83v-528q0 -99 -45 -147q-50 -54 -159 -54q-25 0 -53.5 3t-45.5 7l-7 65q18 -2 47 -4t47 -2q34 0 59.5 6t42.5 21
q16 15 23.5 39.5t7.5 66.5v67zM171 613l176 156l47 -63l-191 -137z" />
    <glyph glyph-name="ycircumflex" unicode="&#x177;" horiz-adv-x="542" 
d="M389 30q-37 -21 -77 -32.5t-80 -11.5q-81 0 -123 43q-20 20 -30.5 51t-10.5 77v333h83v-323q0 -32 5.5 -51t18.5 -32q25 -25 79 -25q33 0 69 9t66 23v399h83v-528q0 -99 -45 -147q-50 -54 -159 -54q-25 0 -53.5 3t-45.5 7l-7 65q18 -2 47 -4t47 -2q34 0 59.5 6t42.5 21
q16 15 23.5 39.5t7.5 66.5v67zM425 600l-30 -30l-124 107l-124 -107l-30 30l119 147h71z" />
    <glyph glyph-name="ydieresis" unicode="&#xff;" horiz-adv-x="542" 
d="M389 30q-37 -21 -77 -32.5t-80 -11.5q-81 0 -123 43q-20 20 -30.5 51t-10.5 77v333h83v-323q0 -32 5.5 -51t18.5 -32q25 -25 79 -25q33 0 69 9t66 23v399h83v-528q0 -99 -45 -147q-50 -54 -159 -54q-25 0 -53.5 3t-45.5 7l-7 65q18 -2 47 -4t47 -2q34 0 59.5 6t42.5 21
q16 15 23.5 39.5t7.5 66.5v67zM229 654q0 -48 -48 -48h-9q-48 0 -48 48v11q0 48 48 48h9q48 0 48 -48v-11zM418 654q0 -48 -48 -48h-9q-48 0 -48 48v11q0 48 48 48h9q48 0 48 -48v-11z" />
    <glyph glyph-name="zacute" unicode="&#x17a;" horiz-adv-x="425" 
d="M36 0v45l253 384h-251v61h350v-48l-251 -381h258v-61h-359zM111 613l176 156l47 -63l-191 -137z" />
    <glyph glyph-name="zcaron" unicode="&#x17e;" horiz-adv-x="425" 
d="M36 0v45l253 384h-251v61h350v-48l-251 -381h258v-61h-359zM248 581h-71l-119 147l30 30l124 -107l124 107l30 -30z" />
    <glyph glyph-name="zdotaccent" unicode="&#x17c;" horiz-adv-x="425" 
d="M36 0v45l253 384h-251v61h350v-48l-251 -381h258v-61h-359zM206 601q-23 0 -36.5 12.5t-13.5 41.5v6q0 29 13.5 41.5t36.5 12.5h13q23 0 36.5 -12.5t13.5 -41.5v-6q0 -29 -13.5 -41.5t-36.5 -12.5h-13z" />
    <glyph glyph-name="apple" horiz-adv-x="606" 
d="M235 210v67h205v69h-205v203h271v-68h-202v-67h202v-204h-271zM168 618v-550h75v-68h-143v684h406v-66h-338z" />
    </font>
</defs>
</svg>
