<?xml version="1.0" encoding="UTF-8" standalone="no"?>
<svg width="270px" height="270px" viewBox="0 0 270 270" version="1.1" xmlns="http://www.w3.org/2000/svg" xmlns:xlink="http://www.w3.org/1999/xlink">
    <!-- Generator: Sketch 39.1 (31720) - http://www.bohemiancoding.com/sketch -->
    <title>ilus toolbox</title>
    <desc>Created with Sketch.</desc>
    <defs></defs>
    <g id="Page-1" stroke="none" stroke-width="1" fill="none" fill-rule="evenodd">
        <g id="tel-AR-micrositio/-HOME" transform="translate(-585.000000, -2737.000000)">
            <g id="04" transform="translate(149.000000, 2641.000000)">
                <g id="ilus-toolbox" transform="translate(436.000000, 96.000000)">
                    <g id="Group-5">
                        <path d="M270,135 C270,209.557969 209.558812,270 135,270 C60.4420312,270 0,209.557969 0,135 C0,60.4411875 60.4420312,0 135,0 C209.558812,0 270,60.4411875 270,135" id="Fill-1" fill="#F6F6F6"></path>
                        <path d="M172.807678,142.397662 C197.071397,113.855287 128.623866,147.315037 128.623866,147.315037 L58.6069594,82.5428812 L1.86561563,112.569412 C0.645553125,119.866162 8.4375e-05,127.356975 8.4375e-05,134.999662 C8.4375e-05,190.907381 33.9846469,238.8771 82.4226469,259.378537 L213.159178,191.167256 C213.159178,191.167256 159.794522,157.706662 172.807678,142.397662" id="Fill-3" fill="#EDEDED"></path>
                    </g>
                    <polygon id="Fill-6" fill="#193C59" points="61.138125 147.760031 210.361219 147.760031 210.361219 83.2553438 61.138125 83.2553438"></polygon>
                    <path d="M58.606875,150.291281 L212.892469,150.291281 L212.892469,80.7240938 L58.606875,80.7240938 L58.606875,150.291281 Z M63.669375,145.228781 L207.829969,145.228781 L207.829969,85.7865938 L63.669375,85.7865938 L63.669375,145.228781 Z" id="Fill-7" fill="#285987"></path>
                    <polygon id="Fill-8" fill="#919191" points="71.8005937 80.7240937 84.3285937 80.7240937 84.3285937 75.1190625 71.8005937 75.1190625"></polygon>
                    <polygon id="Fill-9" fill="#919191" points="187.169906 80.7240937 199.697906 80.7240937 199.697906 75.1190625 187.169906 75.1190625"></polygon>
                    <polygon id="Fill-10" fill="#79B800" points="153.660375 153.364219 164.640094 153.364219 164.640094 94.1540625 153.660375 94.1540625"></polygon>
                    <polygon id="Fill-11" fill="#C7C7C6" points="168.46245 108.916228 139.925981 108.916228 139.925981 96.1722281 168.46245 96.1722281 182.715075 102.545072"></polygon>
                    <polygon id="Fill-12" fill="#C7C7C6" points="128.623697 106.884309 122.802666 106.884309 124.113009 100.190841 127.168228 100.190841"></polygon>
                    <polygon id="Fill-13" fill="#C7C7C6" points="128.623697 106.884309 122.802666 106.884309 124.113009 110.303184 127.168228 110.303184"></polygon>
                    <polygon id="Fill-14" fill="#C7C7C6" points="124.113094 137.3355 127.022344 137.3355 127.022344 110.303438 124.113094 110.303438"></polygon>
                    <polygon id="Fill-15" fill="#C7C7C6" points="105.098344 158.390184 93.8798437 158.390184 94.8695625 123.626841 104.108625 123.626841"></polygon>
                    <polygon id="Fill-16" fill="#C7C7C6" points="106.228462 107.316478 105.650494 107.316478 105.650494 115.062103 102.569962 118.513884 96.4097437 118.513884 93.3292125 115.062103 93.3292125 107.316478 92.7512437 107.316478 88.784775 112.684416 88.784775 118.444697 95.5229625 126.742978 103.457587 126.742978 110.195775 118.444697 110.195775 112.684416"></polygon>
                    <polygon id="Fill-17" fill="#285987" points="58.606875 191.818969 212.892469 191.818969 212.892469 137.097563 58.606875 137.097563"></polygon>
                    <polygon id="Fill-18" fill="#919191" points="71.8005937 147.315375 84.3285937 147.315375 84.3285937 127.206281 71.8005937 127.206281"></polygon>
                    <polygon id="Fill-19" fill="#919191" points="187.169906 147.315375 199.697906 147.315375 199.697906 127.206281 187.169906 127.206281"></polygon>
                    <g id="Group-26" transform="translate(93.656250, 133.312500)" fill-opacity="0.249999985" fill="#000000">
                        <polygon id="Fill-20" style="mix-blend-mode: multiply;" points="0.82940625 3.94790625 10.8413438 3.94790625 10.8413438 0.70790625 0.82940625 0.70790625"></polygon>
                        <polygon id="Fill-22" style="mix-blend-mode: multiply;" points="30.4568437 3.94790625 33.3660937 3.94790625 33.3660937 0.70790625 30.4568437 0.70790625"></polygon>
                        <polygon id="Fill-24" style="mix-blend-mode: multiply;" points="60.004125 3.94790625 70.9838437 3.94790625 70.9838437 0.70790625 60.004125 0.70790625"></polygon>
                    </g>
                </g>
            </g>
        </g>
    </g>
</svg>