<?xml version="1.0" encoding="UTF-8" standalone="no"?>
<svg width="270px" height="270px" viewBox="0 0 270 270" version="1.1" xmlns="http://www.w3.org/2000/svg" xmlns:xlink="http://www.w3.org/1999/xlink">
    <!-- Generator: Sketch 39.1 (31720) - http://www.bohemiancoding.com/sketch -->
    <title>ilus salva vidas</title>
    <desc>Created with Sketch.</desc>
    <defs>
        <path d="M69.2037394,189.627248 C27.914349,166.537166 0,122.387632 0,71.71875 C0,45.6113533 7.41074994,21.2349317 20.2434288,0.57830625 L151.971609,0.57830625 L151.971609,189.627244 L69.2037324,189.627244 L69.2037394,189.627248 Z" id="path-1"></path>
    </defs>
    <g id="Page-1" stroke="none" stroke-width="1" fill="none" fill-rule="evenodd">
        <g id="tel-AR-micrositio/-HOME" transform="translate(-985.000000, -2737.000000)">
            <g id="04" transform="translate(149.000000, 2641.000000)">
                <g id="ilus-salva-vidas" transform="translate(836.000000, 96.000000)">
                    <path d="M270,135 C270,209.557969 209.558812,270 135,270 C60.4411875,270 0,209.557969 0,135 C0,60.4411875 60.4411875,0 135,0 C209.558812,0 270,60.4411875 270,135" id="Fill-1" fill="#F6F6F6"></path>
                    <g id="Group-5" transform="translate(0.000000, 63.281250)">
                        <mask id="mask-2" fill="white">
                            <use xlink:href="#path-1"></use>
                        </mask>
                        <g id="Clip-4"></g>
                        <path d="M117.860484,116.529806 C100.469953,110.121525 73.6876406,77.7274312 73.6876406,77.7274312 L104.900484,0.57830625 L0.963984375,55.5806812 C0.332859375,60.8726812 -0.000421875,66.25665 -0.000421875,71.7190875 C-0.000421875,122.393869 27.9268594,166.539712 69.2242031,189.627244 L151.971609,146.454244 C151.971609,146.454244 136.713234,123.4764 117.860484,116.529806" id="Fill-3" fill="#EDEDED" mask="url(#mask-2)"></path>
                    </g>
                    <path d="M110.451347,204.419869 C107.051034,205.486369 103.519097,206.114119 99.9601594,206.237306 C89.4664406,206.600119 79.6173469,202.728994 72.2252531,195.338587 C64.7344406,187.846931 60.6101906,177.975056 60.6101906,167.5404 L60.6101906,167.529431 C60.6110344,163.542712 61.2126281,159.661462 62.3575969,155.982712 C61.6176281,153.7164 60.9848156,151.404525 60.4566281,149.051306 C57.7414406,154.722994 56.3003156,161.002181 56.2994719,167.529431 L56.2994719,167.5404 C56.2994719,179.125931 60.8725969,190.081181 69.1776281,198.387056 C77.4227531,206.631337 88.4083781,210.950494 100.109503,210.54465 C106.047816,210.340462 111.924534,208.875712 117.321159,206.362181 C114.987347,205.820494 112.696566,205.17165 110.451347,204.419869" id="Fill-6" fill="#79B800"></path>
                    <path d="M204.3927,156.4596 C205.4592,159.859913 206.086106,163.392694 206.209294,166.951631 C206.57295,177.446194 202.701825,187.294444 195.311419,194.686538 C187.819763,202.178194 177.948731,206.3016 167.514075,206.3016 L167.502263,206.3016 C163.515544,206.299913 159.634294,205.699163 155.956388,204.552506 C153.690075,205.294163 151.377356,205.926975 149.024138,206.454319 C154.695825,209.171194 160.974169,210.610631 167.502263,210.612319 L167.514075,210.612319 C179.099606,210.612319 190.053169,206.039194 198.359044,197.734163 C206.604169,189.488194 210.922481,178.503413 210.518325,166.803131 C210.31245,160.862288 208.849388,154.986413 206.335013,149.589788 C205.793325,151.9236 205.144481,154.215225 204.3927,156.4596" id="Fill-8" fill="#79B800"></path>
                    <path d="M156.432853,62.5186687 C159.834009,61.4521687 163.365947,60.8244187 166.924041,60.7012312 C177.418603,60.3384187 187.266853,64.2095437 194.658947,71.59995 C202.150603,79.0907625 206.274009,88.9617937 206.274009,99.3972937 L206.274009,99.4091062 C206.273166,103.394981 205.671572,107.276231 204.526603,110.955825 C205.266572,113.221294 205.899384,115.534012 206.426728,117.887231 C209.143603,112.215544 210.583041,105.936356 210.584728,99.4091062 L210.584728,99.3972937 C210.584728,87.8117625 206.012447,76.8573562 197.706572,68.552325 C189.462291,60.3072 178.475822,55.9880437 166.775541,56.3938875 C160.836384,56.5989187 154.958822,58.0619812 149.563041,60.5763562 C151.896853,61.1180437 154.187634,61.7660437 156.432853,62.5186687" id="Fill-10" fill="#79B800"></path>
                    <path d="M70.9544813,128.578725 C55.5231375,113.147381 53.5302,87.2476313 70.0491375,70.7286938 C86.568075,54.2089125 112.468669,54.7657875 127.899169,70.1962875" id="Stroke-12" stroke="#EDD137" stroke-width="3"></path>
                    <path d="M70.9544813,128.578725 C55.5231375,113.147381 53.5302,87.2476313 70.0491375,70.7286938 C86.568075,54.2089125 112.468669,54.7657875 127.899169,70.1962875" id="Stroke-14" stroke="#EDD137" stroke-width="3"></path>
                    <path d="M134.548425,58.6229063 C92.5777687,58.6229063 58.5543937,92.647125 58.5543937,134.617781 C58.5543937,176.587594 92.5777687,210.611813 134.548425,210.611813 C176.51655,210.611813 210.544144,176.587594 210.544144,134.617781 C210.544144,92.647125 176.51655,58.6229063 134.548425,58.6229063 M134.548425,95.9807813 C155.852269,95.9807813 173.186269,113.313094 173.186269,134.617781 C173.186269,155.922469 155.852269,173.254781 134.548425,173.254781 C113.244581,173.254781 95.911425,155.922469 95.911425,134.617781 C95.911425,113.313094 113.244581,95.9807813 134.548425,95.9807813" id="Fill-16" fill="#285987"></path>
                    <path d="M62.4919219,110.478516 C61.4254219,107.078203 60.7976719,103.545422 60.6744844,99.9864844 C60.3116719,89.4927656 64.1819531,79.6445156 71.5732031,72.2524219 C79.0648594,64.7607656 88.9350469,60.6373594 99.3705469,60.6373594 L99.3815156,60.6373594 C103.368234,60.6382031 107.250328,61.2397969 110.929078,62.3847656 C113.193703,61.6447969 115.507266,61.0119844 117.860484,60.4837969 C112.188797,57.7686094 105.909609,56.3274844 99.3823594,56.3266406 L99.3705469,56.3266406 C87.7850156,56.3266406 76.8306094,60.8997656 68.5255781,69.2047969 C60.2796094,77.4499219 55.9621406,88.4355469 56.3662969,100.136672 C56.5721719,106.074984 58.0360781,111.951703 60.5496094,117.347484 C61.0912969,115.015359 61.7401406,112.723734 62.4919219,110.478516" id="Fill-18" fill="#79B800"></path>
                    <path d="M168.653981,151.86015 L168.94845,151.253494 C171.480544,146.036587 172.764731,140.43915 172.764731,134.617275 C172.764731,128.357494 171.205481,122.138212 168.256575,116.633587 L167.924137,116.012587 L208.669669,116.012587 L208.748137,116.334056 C210.220481,122.326369 210.966356,128.47815 210.966356,134.617275 C210.966356,140.255212 210.326794,145.946306 209.064544,151.531087 L208.990294,151.86015 L168.653981,151.86015 Z" id="Fill-20" fill="#F2ECC8"></path>
                    <path d="M209.000334,115.590459 L208.338834,115.590459 L168.628584,115.590459 L167.219522,115.590459 L167.885241,116.833303 C170.801241,122.277178 172.342772,128.426428 172.342772,134.617866 C172.342772,140.374772 171.072928,145.910616 168.568678,151.070147 L167.980584,152.281772 L169.327209,152.281772 L208.652709,152.281772 L209.327709,152.281772 L209.476209,151.624491 C210.744366,146.008491 211.388147,140.287022 211.388147,134.617866 C211.388147,128.444147 210.638053,122.258616 209.158116,116.233397 L209.000334,115.590459 Z M208.338834,116.434209 C209.769834,122.261991 210.544397,128.347959 210.544397,134.617866 C210.544397,140.400084 209.876147,146.024522 208.652709,151.438022 L169.327209,151.438022 C171.796866,146.350209 173.186522,140.643084 173.186522,134.617866 C173.186522,128.047584 171.533616,121.856991 168.628584,116.434209 L208.338834,116.434209 L208.338834,116.434209 Z" id="Fill-22" fill="#F2ECC8"></path>
                    <path d="M60.1081594,151.86015 L60.0339094,151.531087 C58.7725031,145.948837 58.1320969,140.258587 58.1320969,134.617275 C58.1320969,128.47815 58.8779719,122.326369 60.3503156,116.334056 L60.4287844,116.012587 L101.174316,116.012587 L100.841878,116.633587 C97.8929719,122.138212 96.3337219,128.357494 96.3337219,134.617275 C96.3337219,140.441681 97.6179094,146.039119 100.150847,151.253494 L100.445316,151.86015 L60.1081594,151.86015 Z" id="Fill-24" fill="#F2ECC8"></path>
                    <path d="M101.878678,115.590459 L100.469616,115.590459 L60.7602094,115.590459 L60.0978656,115.590459 L59.9400844,116.233397 C58.4609906,122.258616 57.7100531,128.444147 57.7100531,134.617866 C57.7100531,140.289553 58.3538344,146.011866 59.6219906,151.624491 L59.7704906,152.281772 L60.4454906,152.281772 L99.7709906,152.281772 L101.118459,152.281772 L100.529522,151.070147 C98.0252719,145.912303 96.7554281,140.377303 96.7554281,134.617866 C96.7554281,128.426428 98.2969594,122.276334 101.212959,116.833303 L101.878678,115.590459 Z M100.469616,116.434209 C97.5645844,121.856991 95.9116781,128.047584 95.9116781,134.617866 C95.9116781,140.643084 97.3004906,146.350209 99.7709906,151.438022 L60.4454906,151.438022 C59.2212094,146.024522 58.5538031,140.400084 58.5538031,134.617866 C58.5538031,128.347959 59.3283656,122.261991 60.7602094,116.434209 L100.469616,116.434209 L100.469616,116.434209 Z" id="Fill-26" fill="#F2ECC8"></path>
                    <path d="M116.625741,60.337575 L116.950584,60.2607937 C122.745459,58.8939187 128.666897,58.2012 134.548678,58.2012 C140.429616,58.2012 146.351053,58.8939187 152.147616,60.2607937 L152.472459,60.337575 L152.472459,100.878075 L151.859053,100.565044 C146.447241,97.80345 140.622834,96.402825 134.548678,96.402825 C128.473678,96.402825 122.650116,97.80345 117.239991,100.565044 L116.625741,100.878075 L116.625741,60.337575 Z" id="Fill-28" fill="#F2ECC8"></path>
                    <path d="M134.548425,57.7791563 C128.633737,57.7791563 122.681081,58.4760938 116.854144,59.8505625 L116.203612,60.004125 L116.203612,60.6715313 L116.203612,100.189406 L116.203612,101.56725 L117.431269,100.940344 C122.782331,98.209125 128.540925,96.8245313 134.548425,96.8245313 C140.555925,96.8245313 146.315362,98.209125 151.667269,100.940344 L152.894081,101.566406 L152.894081,100.189406 L152.894081,60.6715313 L152.894081,60.004125 L152.244394,59.8505625 C146.415769,58.4760938 140.462269,57.7791563 134.548425,57.7791563 M134.548425,58.6229063 C140.575331,58.6229063 146.429269,59.346 152.050331,60.6715313 L152.050331,100.189406 C146.791237,97.5054375 140.846175,95.9807813 134.548425,95.9807813 C128.250675,95.9807813 122.305612,97.5054375 117.047362,100.189406 L117.047362,60.6715313 C122.667581,59.346 128.522362,58.6229063 134.548425,58.6229063" id="Fill-30" fill="#F2ECC8"></path>
                    <path d="M134.548425,211.033941 C128.664956,211.033941 122.744362,210.341222 116.951175,208.974347 L116.625487,208.897566 L116.625487,168.356222 L117.239737,168.669253 C122.649019,171.431691 128.472581,172.833159 134.548425,172.833159 C140.624269,172.833159 146.447831,171.431691 151.8588,168.669253 L152.472206,168.356222 L152.472206,208.897566 L152.147362,208.974347 C146.352487,210.341222 140.43105,211.033941 134.548425,211.033941" id="Fill-32" fill="#F2ECC8"></path>
                    <path d="M116.203866,167.666456 L116.203866,169.045144 L116.203866,208.563862 L116.203866,209.232112 L116.854397,209.384831 C122.679647,210.758456 128.632303,211.455394 134.548678,211.455394 C140.463366,211.455394 146.417709,210.758456 152.243803,209.384831 L152.894334,209.232112 L152.894334,208.563862 L152.894334,169.045144 L152.894334,167.666456 L151.666678,168.293363 C146.315616,171.025425 140.557022,172.410863 134.548678,172.410863 C128.540334,172.410863 122.780897,171.025425 117.431522,168.293363 L116.203866,167.666456 Z M152.050584,169.045144 L152.050584,208.563862 C146.428678,209.889394 140.574741,210.611644 134.548678,210.611644 C128.522616,210.611644 122.667834,209.889394 117.047616,208.563862 L117.047616,169.045144 C122.305866,171.729956 128.250928,173.254613 134.548678,173.254613 C140.846428,173.254613 146.791491,171.729956 152.050584,169.045144 L152.050584,169.045144 Z" id="Fill-34" fill="#F2ECC8"></path>
                </g>
            </g>
        </g>
    </g>
</svg>