<?xml version="1.0" encoding="UTF-8" standalone="no"?>
<svg width="270px" height="270px" viewBox="0 0 270 270" version="1.1" xmlns="http://www.w3.org/2000/svg" xmlns:xlink="http://www.w3.org/1999/xlink">
    <!-- Generator: Sketch 39.1 (31720) - http://www.bohemiancoding.com/sketch -->
    <title>ilus llave</title>
    <desc>Created with Sketch.</desc>
    <defs></defs>
    <g id="Page-1" stroke="none" stroke-width="1" fill="none" fill-rule="evenodd">
        <g id="tel-AR-micrositio/-HOME" transform="translate(-184.000000, -2737.000000)">
            <g id="04" transform="translate(149.000000, 2641.000000)">
                <g id="ilus-llave" transform="translate(35.000000, 96.000000)">
                    <g id="Group-5">
                        <path d="M270,135 C270,209.557969 209.558812,270 135,270 C60.4411875,270 0,209.557969 0,135 C0,60.4411875 60.4411875,0 135,0 C209.558812,0 270,60.4411875 270,135" id="Fill-1" fill="#F6F6F6"></path>
                        <path d="M200.189559,93.5297719 L190.121934,71.7643969 L4.57793438,169.950741 C13.6465594,203.875397 35.5899656,232.537584 64.8621844,250.371084 L115.955466,223.713647 C115.955466,223.713647 60.2747156,195.657272 73.2887156,180.348272 C97.5524344,151.805897 200.189559,93.5297719 200.189559,93.5297719" id="Fill-3" fill="#EDEDED"></path>
                    </g>
                    <polygon id="Fill-6" fill="#C7C7C6" points="190.119741 86.2705687 177.842334 86.2680375 177.842334 98.547975 163.336584 98.547975 115.954959 145.9296 136.975303 166.949944 211.141772 92.783475 210.521616 73.8716625 190.122272 71.763975 190.119741 71.763975"></polygon>
                    <path d="M96.3988594,188.461941 C99.9299531,191.994722 99.9291094,197.722941 96.3971719,201.254878 C92.8669219,204.781753 87.1412344,204.781753 83.6101406,201.251503 C80.0790469,197.722941 80.0790469,191.994722 83.6076094,188.465316 C87.1395469,184.931691 92.8669219,184.931691 96.3988594,188.461941 M71.5917656,213.268191 C88.6296094,230.308566 116.252297,230.311941 133.290141,213.270722 C150.329672,196.232034 150.329672,168.610191 133.291828,151.569816 C116.254828,134.533659 88.6296094,134.533659 71.5909219,151.569816 C54.5522344,168.610191 54.5547656,196.232034 71.5917656,213.268191" id="Fill-7" fill="#285987"></path>
                </g>
            </g>
        </g>
    </g>
</svg>