<?xml version="1.0" encoding="utf-8"?>
<!-- Generator: Adobe Illustrator 16.0.0, SVG Export Plug-In . SVG Version: 6.00 Build 0)  -->
<!DOCTYPE svg PUBLIC "-//W3C//DTD SVG 1.1//EN" "http://www.w3.org/Graphics/SVG/1.1/DTD/svg11.dtd">
<svg version="1.1" id="Layer_1" xmlns="http://www.w3.org/2000/svg" xmlns:xlink="http://www.w3.org/1999/xlink" x="0px" y="0px"
	 width="192px" height="19.585px" viewBox="0 0 192 19.585" enable-background="new 0 0 192 19.585" xml:space="preserve">
<g>
	<path fill="#ffffff" d="M0,6.05c0-1.503,0.46-2.716,1.38-3.636c1.167-1.132,2.98-1.698,5.44-1.698c1.875,0,3.485,0.23,4.83,0.69
		c0.3,0.105,0.49,0.216,0.57,0.332c0.08,0.114,0.119,0.304,0.119,0.57v3.716h-2.68c-0.23-0.479-0.397-1.211-0.504-2.203
		c-0.69-0.105-1.459-0.16-2.309-0.16c-1.203,0-2.061,0.223-2.574,0.664C3.9,4.645,3.714,5.104,3.714,5.706
		c0,0.601,0.19,1.057,0.571,1.366c0.38,0.31,1.066,0.624,2.056,0.943l2.07,0.61c1.805,0.531,3.079,1.221,3.822,2.07
		c0.726,0.832,1.088,1.947,1.088,3.345c0,1.538-0.47,2.796-1.407,3.768c-1.131,1.186-3.051,1.778-5.759,1.778
		c-1.875,0-3.539-0.186-4.989-0.557c-0.336-0.089-0.557-0.213-0.663-0.372c-0.107-0.159-0.16-0.389-0.16-0.69v-3.768h2.787
		c0.159,0.318,0.327,1.035,0.504,2.149c0.53,0.177,1.415,0.266,2.653,0.266c1.274,0,2.176-0.239,2.708-0.717
		c0.407-0.354,0.61-0.857,0.61-1.513c0-0.584-0.173-1.035-0.517-1.354c-0.346-0.318-0.933-0.602-1.765-0.85l-2.389-0.689
		C3.202,10.978,1.99,10.376,1.3,9.686C0.433,8.82,0,7.607,0,6.05z"/>
	<path fill="#ffffff" d="M27.095,19.319c-1.167,0-1.857-0.371-2.07-1.114c-1.274,0.92-2.716,1.38-4.326,1.38c-1.31,0-2.318-0.407-3.026-1.221
		c-0.654-0.725-0.981-1.777-0.981-3.158V8.678h-1.646V6.343c1.238-0.16,2.3-0.24,3.184-0.24c0.814,0,1.376,0.151,1.686,0.452
		c0.31,0.301,0.464,0.814,0.464,1.54v6.608c0,0.584,0.142,1.018,0.425,1.3c0.283,0.266,0.84,0.398,1.672,0.398
		c0.796,0,1.619-0.089,2.467-0.266V8.678h-1.565V6.21h5.254v10.535h1.646v2.31C29.129,19.231,28.068,19.319,27.095,19.319z"/>
	<path fill="#ffffff" d="M39.62,16.745h3.423v2.336c-1.574,0.336-3.051,0.504-4.432,0.504c-2.211,0-3.918-0.584-5.122-1.752
		c-1.221-1.167-1.832-2.857-1.832-5.068s0.602-3.918,1.805-5.122c1.203-1.203,2.866-1.804,4.989-1.804
		c1.521,0,2.857,0.177,4.007,0.53c0.318,0.107,0.522,0.226,0.611,0.359c0.088,0.133,0.133,0.332,0.133,0.597v3.317h-2.76
		c-0.213-0.726-0.354-1.371-0.425-1.937c-0.407-0.053-0.866-0.08-1.38-0.08c-1.131,0-1.937,0.329-2.415,0.982
		c-0.477,0.655-0.716,1.664-0.716,3.025c0,1.327,0.265,2.327,0.796,2.999C36.904,16.374,38.01,16.745,39.62,16.745z"/>
	<path fill="#ffffff" d="M56.658,19.319c-1.167,0-1.857-0.371-2.07-1.114c-1.274,0.92-2.716,1.38-4.326,1.38c-1.31,0-2.318-0.407-3.026-1.221
		c-0.654-0.725-0.981-1.777-0.981-3.158V8.678h-1.646V6.343c1.238-0.16,2.3-0.24,3.185-0.24c0.814,0,1.375,0.151,1.686,0.452
		c0.31,0.301,0.464,0.814,0.464,1.54v6.608c0,0.584,0.141,1.018,0.424,1.3c0.283,0.266,0.84,0.398,1.672,0.398
		c0.796,0,1.619-0.089,2.468-0.266V8.678h-1.566V6.21h5.254v10.535h1.646v2.31C58.692,19.231,57.63,19.319,56.658,19.319z"/>
	<path fill="#ffffff" d="M66.29,7.271c1.132-0.956,2.265-1.433,3.397-1.433c0.283,0,0.473,0.021,0.57,0.065c0.097,0.044,0.146,0.146,0.146,0.306
		v2.919h-1.406c-0.956,0-1.832,0.097-2.627,0.292v9.793h-3.688V8.678H60.85V6.369c1.114-0.176,2.211-0.266,3.29-0.266
		c0.655,0,1.15,0.09,1.487,0.266C65.962,6.546,66.184,6.847,66.29,7.271z"/>
	<path fill="#ffffff" d="M72.234,15.126h2.574c0.213,0.567,0.344,1.115,0.398,1.646c0.69,0.105,1.433,0.158,2.229,0.158
		c0.902,0,1.548-0.102,1.937-0.305s0.584-0.544,0.584-1.021c0-0.371-0.12-0.641-0.358-0.81c-0.239-0.167-0.66-0.296-1.26-0.385
		l-2.15-0.345c-1.557-0.248-2.646-0.681-3.264-1.301c-0.62-0.619-0.929-1.503-0.929-2.654c0-1.203,0.389-2.176,1.167-2.918
		c0.956-0.903,2.53-1.353,4.724-1.353c1.539,0,2.946,0.159,4.219,0.477c0.39,0.106,0.584,0.354,0.584,0.743v3.264h-2.547
		c-0.195-0.424-0.337-1.009-0.424-1.751c-0.567-0.053-1.249-0.08-2.044-0.08c-1.468,0-2.203,0.416-2.203,1.248
		c0,0.39,0.124,0.677,0.372,0.863c0.248,0.186,0.708,0.33,1.38,0.438l2.044,0.318c1.521,0.23,2.601,0.664,3.237,1.301
		c0.619,0.654,0.929,1.539,0.929,2.652c0,1.363-0.508,2.416-1.526,3.159c-1.017,0.743-2.481,1.114-4.392,1.114
		c-2.23,0-3.813-0.15-4.75-0.451c-0.354-0.105-0.531-0.389-0.531-0.85V15.126z"/>
	<path fill="#ffffff" d="M95.694,19.319c-1.062,0-1.725-0.283-1.99-0.849c-1.044,0.743-2.256,1.114-3.636,1.114c-1.433,0-2.521-0.371-3.265-1.114
		c-0.832-0.778-1.247-1.831-1.247-3.159c0-1.256,0.363-2.236,1.088-2.945c0.849-0.796,2.441-1.194,4.776-1.194h2.097v-0.796
		c0-0.602-0.133-1.026-0.398-1.273c-0.335-0.283-0.964-0.425-1.884-0.425h-4.246V6.343c1.646-0.335,3.291-0.504,4.936-0.504
		c1.912,0,3.282,0.38,4.115,1.14c0.777,0.726,1.167,1.867,1.167,3.424v6.342h1.646v2.336C97.648,19.241,96.596,19.319,95.694,19.319
		z M93.518,16.4v-2.787h-2.15c-0.814,0-1.389,0.143-1.724,0.426c-0.284,0.247-0.425,0.618-0.425,1.114
		c0,1.045,0.636,1.566,1.911,1.566C91.996,16.72,92.792,16.613,93.518,16.4z"/>
	<path fill="#ffffff" d="M104.929,1.99v17.224h-3.689V2.574h-1.751V0.266C100.868,0.088,101.957,0,102.752,0c0.814,0,1.38,0.15,1.699,0.451
		C104.77,0.752,104.929,1.266,104.929,1.99z"/>
	<path fill="#ffffff" d="M127.685,3.119c1.335,1.601,2.004,3.95,2.004,7.046s-0.669,5.44-2.004,7.032c-1.336,1.593-3.331,2.389-5.983,2.389
		c-2.654,0-4.648-0.796-5.984-2.389c-1.337-1.592-2.004-3.936-2.004-7.032s0.667-5.445,2.004-7.046
		c1.336-1.602,3.33-2.402,5.984-2.402C124.354,0.717,126.349,1.517,127.685,3.119z M124.661,14.954c0.609-1,0.915-2.597,0.915-4.79
		c0-2.194-0.306-3.796-0.915-4.804c-0.61-1.009-1.598-1.513-2.959-1.513c-1.363,0-2.349,0.504-2.96,1.513
		c-0.61,1.008-0.916,2.61-0.916,4.804c0,2.193,0.306,3.79,0.916,4.79c0.611,1,1.597,1.5,2.96,1.5
		C123.063,16.454,124.05,15.954,124.661,14.954z"/>
	<path fill="#ffffff" d="M145.133,16.745h1.646v2.336c-1.346,0.177-2.407,0.266-3.185,0.266c-0.814,0-1.376-0.154-1.686-0.465
		c-0.31-0.31-0.464-0.827-0.464-1.553v-6.607c0-0.602-0.143-1.036-0.425-1.301c-0.284-0.265-0.833-0.397-1.646-0.397
		c-0.867,0-1.717,0.089-2.548,0.266v9.925h-3.688V8.678h-1.832V6.369c1.115-0.176,2.221-0.266,3.318-0.266
		c1.202,0,1.918,0.363,2.149,1.089c1.272-0.903,2.724-1.353,4.352-1.353c1.31,0,2.326,0.407,3.052,1.22
		c0.637,0.743,0.955,1.795,0.955,3.158V16.745z"/>
	<path fill="#ffffff" d="M152.857,1.99v17.224h-3.69V2.574h-1.751V0.266C148.795,0.088,149.884,0,150.68,0c0.814,0,1.38,0.15,1.698,0.451
		S152.857,1.266,152.857,1.99z"/>
	<path fill="#ffffff" d="M160.631,8.094v11.12h-3.688V8.678h-1.751V6.369c1.379-0.176,2.467-0.266,3.264-0.266c0.813,0,1.381,0.151,1.699,0.452
		C160.471,6.856,160.631,7.369,160.631,8.094z M160.631,1.884v0.345c0,1.204-0.646,1.805-1.938,1.805h-0.186
		c-0.655,0-1.141-0.142-1.459-0.425c-0.319-0.283-0.479-0.743-0.479-1.38V1.884c0-1.221,0.646-1.832,1.938-1.832h0.186
		C159.986,0.053,160.631,0.663,160.631,1.884z"/>
	<path fill="#ffffff" d="M176.713,16.745h1.646v2.336c-1.346,0.177-2.408,0.266-3.186,0.266c-0.813,0-1.375-0.154-1.686-0.465
		c-0.31-0.31-0.464-0.827-0.464-1.553v-6.607c0-0.602-0.142-1.036-0.425-1.301c-0.283-0.265-0.832-0.397-1.645-0.397
		c-0.867,0-1.717,0.089-2.548,0.266v9.925h-3.688V8.678h-1.832V6.369c1.115-0.176,2.221-0.266,3.317-0.266
		c1.203,0,1.919,0.363,2.149,1.089c1.273-0.903,2.725-1.353,4.353-1.353c1.309,0,2.325,0.407,3.052,1.22
		c0.637,0.743,0.955,1.795,0.955,3.158V16.745z"/>
	<path fill="#ffffff" d="M183.586,13.879c0.07,0.921,0.328,1.593,0.771,2.018c0.618,0.567,1.698,0.849,3.237,0.849h3.848v2.336
		c-1.751,0.336-3.361,0.504-4.83,0.504c-2.265,0-3.989-0.566-5.175-1.699c-1.15-1.096-1.725-2.82-1.725-5.174
		c0-2.123,0.531-3.799,1.593-5.029s2.636-1.844,4.723-1.844c1.965,0,3.451,0.557,4.459,1.671c1.009,1.114,1.513,2.743,1.513,4.883
		v1.193c0,0.195-0.089,0.292-0.266,0.292H183.586z M183.586,11.411h4.804c-0.089-1.805-0.885-2.707-2.388-2.707
		C184.446,8.705,183.639,9.606,183.586,11.411z"/>
</g>
</svg>
